<?xml version="1.0" encoding="utf-8"?>
<!-- Generator: Adobe Illustrator 25.0.1, SVG Export Plug-In . SVG Version: 6.00 Build 0)  -->
<svg version="1.1" id="Layer_1" xmlns:xodm="http://www.corel.com/coreldraw/odm/2003"
	 xmlns="http://www.w3.org/2000/svg" xmlns:xlink="http://www.w3.org/1999/xlink" x="0px" y="0px" viewBox="0 0 540.1 660.3"
	 style="enable-background:new 0 0 540.1 660.3;" xml:space="preserve">
<style type="text/css">
	.st0{fill-rule:evenodd;clip-rule:evenodd;fill:#5DEEC7;}
	.st1{fill-rule:evenodd;clip-rule:evenodd;fill:#111927;}
	.st2{fill-rule:evenodd;clip-rule:evenodd;fill:#118A69;}
	.st3{fill-rule:evenodd;clip-rule:evenodd;fill:#57F3C3;}
	.st4{fill:none;}
	.st5{fill-rule:evenodd;clip-rule:evenodd;fill:#55ECC1;}
	.st6{fill-rule:evenodd;clip-rule:evenodd;fill:#BFFFEE;}
	.st7{fill-rule:evenodd;clip-rule:evenodd;fill:#CED8F0;}
	.st8{fill-rule:evenodd;clip-rule:evenodd;fill:#FCFCFE;}
	.st9{fill-rule:evenodd;clip-rule:evenodd;fill:#68748E;}
	.st10{fill-rule:evenodd;clip-rule:evenodd;fill:#30343D;}
	.st11{fill:#8594B5;}
	.st12{fill-rule:evenodd;clip-rule:evenodd;fill:#0086FF;}
	.st13{fill-rule:evenodd;clip-rule:evenodd;fill:#8594B5;}
	.st14{fill-rule:evenodd;clip-rule:evenodd;fill:#4D6193;}
	.st15{fill-rule:evenodd;clip-rule:evenodd;fill:#FFFFFF;}
	.st16{fill:#C5FFF4;fill-opacity:0.502;}
	.st17{fill:#55ECC1;}
	.st18{fill:#FFFFFF;}
</style>
<path class="st0" d="M352.3,140.2c9.8,4.1,19.8,9.3,28.2,14.7c5.4,3.5,10.8,7,15.9,10.9c1.3,1,2.9,2.2,4.1,3.3
	c3.6,2.9,7.1,6.4,10.3,9.7c5.1,5.3,10,10.9,14.5,16.8c2.5-4.9,5-9.8,7.6-14.6c1.4-2.6,4-8,5.9-10.2c4.5-4.9,11.6-2.7,16.5,0
	c1.6,0.9,3.4,2,5,3.3c2-1.4,4.4-2.1,7.1-1.6c7.3,1.3,16.6,10.5,18.6,17.5c0.3,0.9,0.5,1.8,0.7,2.9c2.4,0.1,4.8,0.7,6.9,2.2
	c7.3,4.9,10.2,16.8,9.9,25c-0.1,2.9-0.6,6.3-1.5,9.5c3.1,2.7,5.3,6.6,6.1,10.8c2,10-10.3,30.7-15.4,39.1
	c-3.9,6.4-8.1,12.8-12.7,18.7c-0.2,0.3-0.5,0.6-0.7,0.9c0.4,0.9,0.9,1.8,1.3,2.7c1.9,4.5,2.9,9.2,3.2,14.1
	c0.6,8.6,0.8,16.7-2.7,24.7c-0.5,1.6-0.8,3.9-1.1,5.5c-0.6,3.5-1.2,6.9-1.8,10.4c-0.6,3.5-1.1,7-1.7,10.5c-0.4,2.3-0.7,4.8-1.3,7.1
	c-1.2,5-5,9.8-8.9,13.5l7.4,41.3h3.9c8,0,14.4,5.2,17.9,12.1c11.6,23.2,24.3,45.9,36,69.2c2.3,4.6,4.2,10.1,1.2,14.9
	c-3.1,4.8-9,5.5-14.2,5.5h-23.5v22.3l-0.3,1c-0.4,1.5-1.1,2.9-2.1,4.1c-2.1,2.6-4.8,3.8-7.9,4.8c-3.3,1.1-6.6,2-9.8,3.1l-77.2,27
	c-0.4,0.1-0.9,0.3-1.3,0.4c-0.1,0.4-0.2,0.8-0.4,1.2l-3.9,12.3l-0.1,0.3c-2.2,5.3-3.2,5.5-8,7.9l-0.2,0.1l-104.2,41.9
	c-3.7,1.5-7.8,3.2-11.9,3.2h0h-0.2c-4.1,0-8.1-1.6-11.9-3.2l-104.2-41.9l-0.2-0.1c-4.8-2.3-5.9-2.6-8-7.9l-0.1-0.3l-3.9-12.3
	c-0.1-0.4-0.2-0.8-0.4-1.2c-0.4-0.1-0.9-0.3-1.3-0.4l-77.2-27c-3.3-1.1-6.6-2.1-9.8-3.1c-3-1-5.8-2.2-7.9-4.8
	c-1-1.2-1.7-2.6-2.1-4.1l-0.3-1v-22.3H16.6c-5.2,0-11.1-0.6-14.2-5.5c-3-4.8-1.1-10.3,1.2-14.9c11.7-23.2,24.4-45.9,36-69.2
	c3.4-6.9,9.9-12.1,17.9-12.1h3.9l10.3-57.5c-4.1-10.3-8.2-20.6-12.3-30.9c-4.4-11.2-8.8-22.3-13.2-33.6c-1.5-3.8-3-7.7-4.4-11.5
	c-0.7-1.8-1.7-4-2.1-5.8c-0.5-1.4-3.6-3.8-4.8-4.7c-4-2.9-5.3-9.1-6-13.7c-0.9-5.8-1.2-11.9-1.1-17.7c0.1-5.7,0.5-13.2,2.2-19.6
	c-2.4-1.7-4.6-3.7-6.1-6.1c-4.4-6.9-4.4-13.9-4.5-21.8c-0.1-3.9,1-6.2,2.3-9.5c0.1-3.5-0.5-8.1,0.3-11.3c0.6-2.4,2.3-5.1,4.2-7.3
	c-0.1-1.6-0.1-2.9,0.5-4.9c1.1-3.3,5.7-9.2,7.9-12.1c2.1-2.7,7.4-9.9,10.3-11.4c1.2-0.6,2.7-1.1,4-1.5c0.2-0.1,0.4-0.1,0.6-0.2
	c-5.3-3.6-9.1-8.7-11.6-14.7c-3.9-9.2-2.6-19.4,1.3-28.3c2.2-4.9,7.3-14.1,12.9-15.5c3.8-1,9.1,1.8,12.5,3.3
	c5.1,2.3,10.1,4.8,15.1,7.2c4.8,2.3,9.5,4.8,14.2,7.2c2.7,1.4,5.4,2.7,8,4.2c4.7,2.6,7.4,11.4,9.1,16.3c0.7,2.1,1.4,4.2,2,6.3
	c2.9-0.7,5.9-1.1,8.6-0.8c4.5,0.4,10.6,1.6,14.4,4.2c3.6,2.5,3.9,8.1,4.4,12c0.7,5,1.2,10,1.7,15c0.3,2.4,0.5,4.8,0.7,7.1l2.6-2.3
	c1.3-1.2,2.9-2.4,4.3-3.5c5.1-3.8,10.6-7.4,15.9-10.9c8.4-5.5,18.5-10.6,28.2-14.7c-0.7-1.8-1.4-3.6-1.9-5.3
	c-13.9-6.3-20.6-23.3-20.6-37.8c0-14.4,6.5-31.1,20.1-37.6c5.9-21.9,20-39.3,40.2-49.7c32.3-16.5,74.7-12,101.3,13
	c3.4-1,7.7,0.2,10.9,1.4c2.3,0.8,4.9,2,6.8,3.5c3.1,2.4,3.9,7.3,4.5,11c0.7,4.4,1.3,8.8,1.7,13.2c0.4,3.6,0.7,7.2,1.1,10.8
	C368.2,70.4,373,84.4,373,97c0,13.9-5.9,29.8-18.6,36.8c-0.7,2.1-1.4,4.2-2.3,6.4L352.3,140.2z"/>
<path class="st1" d="M136.8,187.3c0,0-3.8-43-5.2-44c-1.5-1-5.1-2.5-11-3c-5.8-0.5-12.8,3-12.8,3s-6.2-23.7-9.8-25.6
	c-3.5-2-42.1-21.9-44.7-21.2c-2.6,0.7-16,18.5-9.4,34.3c6.6,15.7,19.5,14.7,20.9,16.4c1.4,1.7,1.8,4.3,0.4,4
	c-1.5-0.4-16.4,4.5-17.7,5.1c-1.3,0.7-13.8,16.6-14.6,19.4c-0.9,2.7,0.8,5-0.8,6.3c-1.7,1.3-3.4,4-3.8,5.5s0,10.2-0.2,11.2
	c-0.3,1-2.3,4.1-2.2,7.7c0.1,3.6-0.5,12,3.4,18.1c2.1,3.2,7.3,6.1,11.6,8.6c0,0,3.7,20.2,32.4,23.2C102,259,135.2,237,136.8,187.3
	L136.8,187.3z"/>
<path class="st1" d="M333.9,45.1c0,0-0.2-14.1,0.4-15.3c0.6-1.2,8.8,1.4,11.4,3.5c2.6,2.1,5.3,38.9,5.3,38.9L333.9,45.1L333.9,45.1z
	"/>
<path class="st1" d="M341.4,64c-13.3,0-24.1,14.8-24.1,33.1c0,18.3,10.8,33.1,24.1,33.1s24.1-14.8,24.1-33.1
	C365.5,78.8,354.7,64,341.4,64z"/>
<path class="st1" d="M202.2,64c13.3,0,24.1,14.8,24.1,33.1c0,18.3-10.8,33.1-24.1,33.1c-13.3,0-24.1-14.8-24.1-33.1
	C178,78.8,188.9,64,202.2,64z"/>
<path class="st1" d="M62.1,559.4l77.2,27c5.7,2,4.5,1.1,6.1,6.2l3.8,12c1.3,3.2,0.9,2.4,4.5,4.1l104,41.8c5.4,2.2,7.3,2.7,9.2,2.6h0
	h0h0h0c1.9,0,3.8-0.4,9.2-2.6l104-41.8c3.7-1.7,3.3-1,4.5-4.1l3.8-12c1.6-5.1,0.4-4.2,6.1-6.2l77.2-27c10.7-3.8,14.3-3.6,15.4-7.3
	v-28.4H518c8.8,0,10.7-2.1,6.7-10.1c-11.2-22.2-25.2-47.7-36-69.2c-2.2-4.4-6.3-8.2-11.5-8.2h-9.8l-37.8-211.3l-0.5-0.1
	c0-1.2,0-2.4-0.1-3.4l-1-5.3c-4.3-13.5-20.3-9.7-41-20.8l-60.6-13c-3.7-9.5,7.3-33-3.6-36.6C254.4,125,330.4,105,267.2,86h0h0h0h0h0
	h0c-63.2,19.1,12.8,39-55.5,59.6c-10.9,3.6,0.2,27.1-3.6,36.6l-60.6,13c-20.7,11.1-36.7,7.3-41,20.8l-1,5.3
	c-0.1,1.1-0.1,2.2-0.1,3.4l-0.5,0.1L66.8,436.2H57c-5.2,0-9.3,3.8-11.5,8.2c-10.7,21.5-24.9,47-36,69.2c-4,8-2.1,10.1,6.7,10.1h30.6
	v28.4C47.9,555.9,51.5,555.7,62.1,559.4L62.1,559.4z"/>
<path class="st1" d="M149.9,174.5l-4.8,4.3c0,0-15.5,17.2-27.9,37c-6.9,11.1-43.4,6.6-75.5,12.3c-10,1.8-8.6,47.5-3.3,51.3
	c3.4,2.4,6.7,5.6,7.5,8.6c0.7,3,39.4,99.9,39.4,99.9l10.6,2.5c6.7,4.1,19.4,8.8,31.3,7.4c14.6-1.7,14.6-2,14.6-2s-2.3,25.8-1.7,30.4
	c0.7,4.6,251.9,0,251.9,0l-2.3-34.1c0,0,8.9,6.3,10.9,7.1c2,0.8,25,3.5,42-4.6c17.1-8.1,24-17.4,25.2-22.2c1.1-4.8,5-31.6,6.3-34.6
	c1.3-3,3.2-6.9,2.2-21.5s-7.6-17.2-5.9-21.7c0.5-1.5,1.3-2.9,2.2-4.1c-11-10.4-23.7-23.1-23.3-25.5c0.4-2.5,12.6-40.2,22-69.3
	c-3.4-5.7-7.8-9.1-10.1-9.8c-3.3-0.8-24,8.1-25.6,8.8c-1.4,0.6-8.3,10.1-10.6,13.2c-13-20-29.7-33.6-29.7-33.6s-3.3-3.3-19.2-13.6
	C360.2,150.6,342,144,342,144s18.5-30.1,5.6-81.5c-18.6-74-131.5-74-150.1,0c-12.9,51.3,5.6,81.5,5.6,81.5s-18.2,6.6-34.1,16.9
	C153.2,171.1,149.9,174.5,149.9,174.5L149.9,174.5z"/>
<path class="st2" d="M161.3,218.6c0-3.7-2.5-25.5-2.5-25.5s8-8.6,19.5-15.9c11.6-7.3,24-10.6,24-10.6s-19,34.6-17.9,36.1
	c1.1,1.5,22,30,20.8,31c-1.1,1-8.6,21.7-8.3,22.7c0.4,1,45.2,65.2,45.7,66.9c0.5,1.7,5.1,49.7,4.8,65.5c-0.4,15.9-2.2,19.4-2.2,19.4
	H161c0,0,12.1-70.9,14.1-114.5c2-43.7,0-50.1-1.5-53c-1.5-2.8-11.1-18.4-9.9-14.3L161.3,218.6L161.3,218.6z"/>
<path class="st2" d="M54.9,239.9c0,0-7.9,7.9,4.1,16.7c12.1,8.8,45.7,7.5,59.5-1.4c13.8-8.9,10.3-21.1,6-22.7
	c-4.4-1.6,0.4-1.9,6.4,2.7s12.6,100.2,15.4,93.3c2.7-6.9,7.3-17.9,6.6-27.5c-0.8-9.6-13.5-72.5-11.2-83.1
	c2.3-10.6,8.5-19.2,8.5-19.2s10.4,23.5,10.4,19.9l2.7,7.8c1.4,4.1,5,19.9,2.3,67.5c-2.7,47.7-13.9,79.4-20.8,81.8
	c-6.9,2.3-19.3,4.5-28.9,2c-9.6-2.5-17.4-6.5-18.5-8S65,289.9,65,289.9s11.2,1.5,28.9-0.6c17.8-2.1,26.4-11.7,25.7-11.7
	c-0.8,0-15.9,4.2-36.6,3.1c-20.7-1.1-28.9-8.8-29.9-10.6c-1-1.8-5.6-23.8-4.3-26.4C50.2,241,54.9,239.9,54.9,239.9L54.9,239.9z"/>
<path class="st2" d="M217.2,161.6c0,0-21,37.4-20,39.2c1,1.8,22.5,30.4,22,32.3c-0.5,1.8-8.3,20.5-8.3,21.9s30,42,30,42
	S230.3,171.9,217.2,161.6L217.2,161.6z"/>
<path class="st3" d="M90.7,296.8c-1.7-3.2-11.3-6.4-11.3-6.4c-9.1,0.2-14.5-0.5-14.5-0.5s31.1,78.3,32.2,79.8
	c0.6,0.8,2.9,2.2,6.4,3.8c0.1,0,0.3,0.1,0.5,0.2c0.4,0.1,0.7,0.3,1.1,0.4c4.6,1.6,8.7-1.4,8.7-1.4S92.4,299.9,90.7,296.8L90.7,296.8
	z"/>
<path class="st3" d="M53,270.1c0.9,1.8,8.8,9.1,28.4,10.5c0,0,9.8-2.2,10.2-5.9c0.4-3.8-17.8-12.8-17.8-12.8
	c-6.1-0.9-11.4-2.6-14.9-5.2c-12.1-8.8-4.1-16.7-4.1-16.7s-4.7,1.1-6.1,3.8C47.5,246.4,52.1,268.3,53,270.1L53,270.1z"/>
<polyline class="st4" points="154,200 160.5,218.6 163.1,225.7 "/>
<path class="st5" d="M158.8,193.1c0,0,2.5,21.9,2.5,25.5l2.3,7.1c0.8-0.3,8.6,12.4,9.9,14.9c1.5,2.8,3.5,9.3,1.5,53
	c-2,43.7-14.1,114.5-14.1,114.5h34.4c0,0,6.6-2.9,7.3-12.5c0.7-9.6,6.9-84.4,5.3-89.7c-1.7-5.3-20.8-47-18.9-51.6
	c2-4.6,8.6-18.2,8-22.2c-0.7-4-4.3-18.1-4.3-18.1c-4.1-5.8-7.7-10.7-8.2-11.3c-1.1-1.5,17.9-36.1,17.9-36.1s-12.4,3.3-24,10.6
	C166.7,184.5,158.7,193.1,158.8,193.1L158.8,193.1z"/>
<path class="st3" d="M197.1,200.8c1,1.8,22.5,30.4,22,32.3c-0.5,1.8-8.3,20.5-8.3,21.9c0,0.9,13.2,19.2,22.1,31.4
	c-0.5-23.1-16.8-107-16.8-107l-16.9,15.8C197.8,198.2,196.9,200.4,197.1,200.8z"/>
<path class="st2" d="M320.5,162.8c0,0-8.8,5.9-8.9,9.1c-0.2,3.2-5.1,129.9-5.1,129.9s29.8-43,30.2-43.9c0.4-1-10.3-30.1-10.3-31.9
	c0-1.8,22.5-21.3,22-22.7C347.8,201.9,320.5,162.8,320.5,162.8L320.5,162.8z"/>
<path class="st3" d="M331.5,203.7c-0.2-1.2-11.2-28.7-14.9-38c-2.4,1.9-4.9,4.4-5,6.2c0,0.6-0.2,5.7-0.5,13.5l5.2,37.8
	C316.2,223.2,331.8,205.2,331.5,203.7L331.5,203.7z"/>
<path class="st0" d="M334.9,165c0,0,28.5,38.4,28.3,39.7c-0.2,1.3-24.7,23.8-24.5,24.9c0.2,1,10.1,27.8,10.9,29
	c0.8,1.1-42.9,62.6-42.9,62.6s-5.5,77-4.8,81.9c0.7,5,1.7,5.1,1.7,5.1h72.5c0,0-13.4-132.3-12.2-144.8c1.1-12.6,14.3-30.8,12.9-28
	c-1.3,2.8-4.3,24.3-4.5,29.8c-0.2,5.5,2.6,24,2.6,24s5-3.5,7.3-9.6c2.3-6.1,19.9-48.3,21-49.8s3.7,0,3.8-3.5s-8.9-20-8.9-20
	s-11.6,15-10.8,12.6c0.8-2.5,4.5-18.9,4.5-19.9c0-1-14.6-16.9-26.5-22.2C353.5,171.6,334.9,165.1,334.9,165L334.9,165z"/>
<path class="st2" d="M339.1,408.1h37c0,0-10.9-107.5-12.2-137.9c-0.3,2.9-7.5,76.3-9.4,84.6c-2,8.5-9.5,21-11.3,23.3
	c-1.8,2.2,12.5-2.5,10.5,0.3C351.8,381.1,341,404,339.1,408.1L339.1,408.1z M376.8,235.2L376.8,235.2c-0.1,0.3-0.2,0.4-0.3,0.7
	c-1,3.5-3.1,17.6-4,25.3c-0.2,1.6-0.3,3-0.3,3.9c-0.2,5.4,2.6,23.6,2.6,24c0.3-0.2,5-3.7,7.3-9.6c2.3-6.1,19.9-48.3,21-49.8
	s3.7,0,3.8-3.5c0.2-3.4-8.7-19.6-8.9-20c-0.3,0.4-10.1,13.1-10.8,12.8c0,0-0.1-0.1,0-0.2L376.8,235.2L376.8,235.2z"/>
<path class="st0" d="M387.1,297.3c0,0-6.6,9.5-8.1,16.4c-1.5,6.9,5.5,48.3,6.3,49.3c0.8,1,16.5,17.7,19,18.2
	c2.5,0.5,30.1,4.1,41.9-6.9c11.7-11.1,12.9-27.5,12.9-27.5s-9.8,8.1-32.3,7.6c-22.5-0.5-29-14.9-27.6-14.1
	c1.3,0.8,21.2,8.9,40.2,5.1c19-3.8,24.1-15.7,24.5-19c0.4-3.3,1.1-10.1-1-13.7c-2.2-3.7-10.9-6.1-9.9-5.3c1,0.8,7.3,7.3,1.3,16.5
	c-5.9,9.3-34.9,14.1-54.3,4.1s-13.2-26.4-12.1-28.5S388.5,295.7,387.1,297.3L387.1,297.3z"/>
<path class="st6" d="M186.1,285.5c0,0,5,20.5,5.1,34c0.2,13.4-0.7,54-1.3,55.8c-0.7,1.8-17.2,27.8-16.5,22.7
	c0.7-5.1,6.8-68.5,7.6-93c0.8-24.5-0.5-25.3,0.7-26.7C182.8,276.9,184.6,281.7,186.1,285.5L186.1,285.5z"/>
<path class="st7" d="M56.2,111.2c0,0-4.4,12.5,4,19.2c8.4,6.7,17.4,4.8,19.4,4.1s3.3-2.9,3.3-2.5c0,0.4-0.4,3.9-2.6,5.3
	c-2.1,1.5-4.2,0.7-4.2,1s4.6,10.7,4.8,12.7c0.2,2-1.1,6.2-1.1,6.2s-19.3,3.4-20.6,3.9c-1.3,0.5-13.4,11.9-13.6,15
	c-0.2,3.2,31.8,25.8,32.9,26c1.1,0.2,6.9-6.6,0.7-11.4S62.6,178,63.2,176.4c0.6-1.6,17.8-2.7,16.9-1.7c-0.9,1.1-6.6,2.6-5.3,3.5
	c1.2,0.9,15.8,11,17.3,16.3c1.5,5.3-3.5,14.7-8,16.4c-4.5,1.7-5.8,1.1-5.8,1.1s0.6,1.7-1.8,4.7c-2.4,3.1-4.6,2.5-4.4,3.5
	c0.3,1,0,3.4-0.9,5.2c-0.9,1.8-4.7,3.2-4.3,4c0.4,0.8,12.2,7.3,16.5,7.5c4.4,0.3,9.9-0.4,9-1c-0.9-0.6-4-3.2-5.2-7.2
	c-1.1-4-1-5.7-0.4-5.4c0.6,0.4,3.9,4.6,9.5,6.8c5.6,2.2,12.7,0.5,17.6-7.3c5-7.8,3-11.6,3.5-15c0.5-3.5,4.5-8.9,4.7-12.2
	c0.2-3.3-6.2-43-6.2-43s-11.5-1.8-13.6,9c-2.2,10.8,5.8,18.7,5.3,21c-0.5,2.3-4.8,8.4-5,14.1c-0.2,5.6,5.6,11.6,4,10.9
	c-1.7-0.7-8.3-5.8-9.3-13.4s2.3-9.3,2.2-12.4c-0.2-3.2-6.3-9.1-6.1-17.2c0.2-8.1,4-7.4,4-12.1c0-4.6-9.5-26.1-10.6-27.1
	c-1.1-1.1-30.4-19-30.6-14.4L56.2,111.2z"/>
<path class="st7" d="M44.2,188.1c0,0-4.3,1.7-4.1,4.1c0.2,2.5,1.4,5.4,4.1,7.5c2.7,2.2,16.7,10.9,20.4,12.2c3.7,1.4,4.8-0.3,5.8-3.3
	C71.4,205.6,44.2,188,44.2,188.1L44.2,188.1z"/>
<path class="st7" d="M35.2,203.8c0,0,0.4,7.8,1.9,9.9c1.6,2.1,12.9,10.7,16.9,11.2s6.3-0.2,8.1-2.3c1.8-2.2,1.6-4,0.9-4.3
	c-0.7-0.4-26.7-15.3-26.7-15.3L35.2,203.8L35.2,203.8z"/>
<path class="st7" d="M69.1,247.8c0,0,13.2,2.4,24.9,0.9c11.7-1.5,20.9-7.6,20.9-7.6s-5.1,8.6-17.4,12.2
	C85.2,256.8,71.8,251.8,69.1,247.8L69.1,247.8z"/>
<path class="st8" d="M56.2,111.2c0,0-0.3,0.8-0.6,2.1c0,0,7.5,11.9,16.8,14.7s14.4-2.5,14.4-2.5C85.8,124.5,56.4,106.5,56.2,111.2
	L56.2,111.2z"/>
<path class="st8" d="M87.8,135.1c0.7,3,7,23.4,7,23.4c1.1-2.1,2.6-2.9,2.6-5.8c0-3.7-6.1-18.2-9.1-24.4
	C88.3,128.3,87.1,132.1,87.8,135.1z"/>
<path class="st8" d="M107.8,154.1c0,0-1.6,5.1-1.1,10.2c0.6,5.1,5.5,16.5,5.5,17.8c0,1.2-3.4,6.4-4.4,16.1c-1,9.6,3,10.2,3.3,13.6
	c0.4,3.3,3.8,10.8-2.2,16.7c1.8-1.3,3.4-3.1,4.9-5.4c5-7.8,3-11.6,3.5-15c0.5-3.5,4.5-8.9,4.7-12.2c0.2-3.3-6.2-43-6.2-43
	S111.6,152.2,107.8,154.1L107.8,154.1z"/>
<path class="st8" d="M78.6,197.6c-2.3-2.5-24.9-19.5-25.2-21.3c-0.4-1.8,8.9-11.6,8.9-11.6l10-6.1c-5.6,1-12.3,2.2-13.1,2.6
	c-1.3,0.5-13.4,11.9-13.6,15c-0.2,3.2,31.8,25.8,32.9,26C78.6,202.3,80.9,200.2,78.6,197.6L78.6,197.6z"/>
<path class="st8" d="M45.9,194.6c-3-4.5-0.3-5.7-0.3-5.7c-0.9-0.6-1.4-0.9-1.4-0.9s-4.3,1.7-4.1,4.1c0.2,2.5,1.4,5.4,4.1,7.5
	c2.7,2.2,16.7,10.9,20.4,12.2C64.6,212,48.9,199.1,45.9,194.6L45.9,194.6z"/>
<path class="st8" d="M43.2,213.7c-4.5-3.2-6.8-10.8-6.8-10.8l-1.1,0.9c0,0,0.4,7.8,1.9,9.9c1.6,2.1,12.9,10.7,16.9,11.2
	c2.9,0.4,4.9,0.1,6.5-0.9C56.1,221.5,46.6,216.1,43.2,213.7L43.2,213.7z"/>
<path class="st8" d="M272.6,21.6c0,0-31.8-1.5-50.7,24s-13.9,71.5-1.7,95c12.2,23.5,39.4,30,43.4,31c4,1,9,1.2,9,1.2s2-0.1,4.5-0.4
	l0,0c0.3,0,8.1-0.7,9.1-0.2c0.9,0.4-23.6,20.8-23,21.1c0.6,0.4,9.5,10.5,9.5,10.5s19.5-17.7,19.7-18.8c0.1-0.8,0-11.3-0.1-16.8
	c10.1-4,24.7-12.1,32.8-27.6c12.2-23.5,17.2-69.5-1.7-95C304.4,20.1,272.6,21.6,272.6,21.6L272.6,21.6z"/>
<path class="st7" d="M272.6,21.6L272.6,21.6L272.6,21.6L272.6,21.6L272.6,21.6L272.6,21.6L272.6,21.6L272.6,21.6L272.6,21.6h-0.1h0
	l0,0h0h0h0l0,0h-0.1h-0.1h0h0H272h-0.1l0,0h-0.1h-0.1h-0.1l0,0h-0.1h-0.1h-0.1h-0.1h-0.1h-0.1h-0.1h-0.3h-0.2c-0.2,0-0.4,0-0.7,0
	h-0.2h-0.4h-0.2c-0.5,0-1,0-1.5,0.1H267c-1.2,0.1-2.5,0.3-4,0.4l-0.3,0c-0.3,0-0.6,0.1-0.9,0.1c0,0,13.2,15.6,14.8,30.4
	c1.7,14.9-0.5,58.3-1.1,60.3c-0.7,2-2.8,4-2.8,5.5c0,1.2,2.4,6.5,3.2,10.5l-56.6-5l1.8,2.1c0,0,8,4.6,26,7.3s27.3,2.4,27.3,2.4
	s1.5-0.1,1.8,1.8v1.8c0,0.1,0,0.3,0,0.4c0,10.5-0.3,27.1-2.3,28.7c-1.5,1.1-5.7,2.3-9.3,3.2l0.2,0l0,0l0.2,0l0,0l0.2,0l0,0l0.2,0
	l0,0l0.2,0h0l0.1,0l0.2,0h0l0.1,0h0.1h0.1l0.4,0h0.1h0.1h0.1h0h0.1h0l0.1,0h0l0.2,0l0,0l0.2,0l0,0l0.2,0l0,0l0.2,0l0,0h0.2h0h0.1h0
	h0.1h0h0.1h0h0.1h0.1h0.1h0.1h0.1h0.1h0.1h0.1h0h0.1h0h0.1h0h0.1h0h0.1l0,0h0.1l0,0h0.1l0,0h0.1l0,0h0.1h0h0.1h0h0.1h0h0.1h0h0.1h0
	h0h0h0h0.1h0h0.1h0h0.1h0h0.1l0,0h0.1l0,0h0.1l0,0h0.1l0,0h0.1l0,0h0.1l0,0h0l0,0h0l0,0h0l0,0h0h0h0h0l0,0h0l0,0h0l0,0l0,0l0,0l0,0
	l0,0l0,0l0,0l0,0l0,0l0,0c0,0,2-0.1,4.5-0.4l0,0c0.3,0,8.1-0.7,9.1-0.2c0.9,0.4-23.6,20.8-23,21.1c0.6,0.4,9.5,10.5,9.5,10.5
	s19.5-17.7,19.7-18.8c0.1-0.8,0-11.3-0.1-16.8l0.4-0.1l0.1,0l0.1,0l0.3-0.1l0.2,0l0.4-0.2l0,0l0,0l0,0l0.4-0.2l0.1,0l0.4-0.1l0.1,0
	l0.4-0.2l0,0l0.5-0.2h0l0.4-0.2l0.1,0l0.4-0.2l0.1,0l0,0l0.1,0l0.4-0.2l0.1,0l0.4-0.2l0.1,0c0.2-0.1,0.4-0.2,0.5-0.3l0,0l0.5-0.3
	l0.1,0l0.4-0.2l0.1-0.1l0.5-0.3l0,0l0.5-0.3l0.1-0.1l0.4-0.2l0.1-0.1l0.5-0.3l0,0l0,0l0.5-0.3l0.2-0.1l0.3-0.2l0.2-0.1l0.5-0.3l0,0
	c0.2-0.1,0.4-0.2,0.5-0.3l0.1,0l0.4-0.3l0.1-0.1c0.2-0.1,0.3-0.2,0.5-0.3l0,0l0,0l0.4-0.3l0.2-0.1l0.4-0.2l0.2-0.1
	c0.2-0.1,0.3-0.2,0.5-0.3l0,0c0.2-0.1,0.4-0.2,0.5-0.4l0.1-0.1l0.4-0.3l0.1-0.1c0.2-0.1,0.4-0.2,0.5-0.4l0,0l0,0
	c0.2-0.1,0.3-0.2,0.5-0.4l0.1-0.1l0.4-0.3l0.1-0.1c0.2-0.1,0.3-0.3,0.5-0.4l0,0l0,0c0.2-0.1,0.3-0.2,0.5-0.4l0.2-0.1l0.4-0.3
	l0.2-0.1c0.2-0.1,0.3-0.3,0.5-0.4l0,0l0.1,0l0.4-0.4l0.2-0.1l0.4-0.3l0.1-0.1c0.2-0.1,0.3-0.3,0.5-0.4l0,0l0,0
	c0.1-0.1,0.3-0.2,0.4-0.4l0.2-0.2l0.3-0.3l0.2-0.2c0.1-0.1,0.3-0.3,0.4-0.4l0,0l0,0l0.4-0.4l0.2-0.2l0.3-0.3l0.1-0.1
	c0.1-0.2,0.3-0.3,0.4-0.5l0,0l0,0c0.1-0.1,0.3-0.3,0.4-0.4l0.2-0.2l0.3-0.3l0.2-0.2c0.1-0.2,0.3-0.3,0.4-0.5
	c0,0,12.9-27.2,11.3-69.9c-0.8-20.7-7.8-35.4-14.8-45c-13.6-11.3-29.6-13.8-37.3-14.3h0c-1,0-1.8-0.1-2.5-0.1l0,0h-0.3h0h-0.2h0
	h-0.2h0h-0.2l0,0h-0.2h0h-0.1h0h-0.1h0h0h0h0h0l0,0l0,0L272.6,21.6z"/>
<path class="st8" d="M250.3,197.6c0,0,18.7,23.9,18.5,24.4c-0.3,0.5-3.7-1.3-6.6,0.1c-2.8,1.4-5.9,10.9-6.8,10.6
	c-0.8-0.3-14.1-15.2-14.3-16.5s-1.8-10.1-1.4-11.1C240.2,204.1,250.3,197.6,250.3,197.6L250.3,197.6z"/>
<path class="st8" d="M293.7,197.6c0,0-18.7,23.9-18.5,24.4c0.3,0.5,3.7-1.3,6.6,0.1s5.9,10.9,6.8,10.6c0.8-0.3,14.1-15.2,14.3-16.5
	s1.8-10.1,1.4-11.1C303.8,204.1,293.7,197.6,293.7,197.6L293.7,197.6z"/>
<path class="st8" d="M243.3,235.2c0,0,11.8,12.1,12.7,11.1c0.8-1,6.6-8.2,7.4-9.1c0.9-0.9,1.8-0.3,1.8-0.3s-8,89.2-9.2,88.5
	C254.8,324.8,243.3,235.2,243.3,235.2L243.3,235.2z"/>
<path class="st8" d="M301.9,235.2c0,0-11.5,12.1-12.4,11.1c-0.8-1-6.8-8.2-7.7-9.1c-0.9-0.9-1.8-0.3-1.8-0.3s10.4,89.2,11.5,88.5
	C292.8,324.8,301.9,235.2,301.9,235.2L301.9,235.2z"/>
<path class="st9" d="M257.7,376c0,0,1.1,22.6,0.7,25c-0.4,2.4-0.9,4.2-0.3,4.4c0.7,0.2,11.7-0.3,11.7-0.3s-0.1-13.8,0-14.3
	C270,390.4,257.7,375.9,257.7,376L257.7,376z"/>
<path class="st9" d="M290.2,376c0,0-1.1,22.6-0.7,25c0.4,2.4,0.9,4.2,0.3,4.4s-11.7-0.3-11.7-0.3s0.1-13.8,0-14.3
	C278,390.4,290.3,375.9,290.2,376L290.2,376z"/>
<path class="st9" d="M260.9,223.2L246.1,206l6.3-5.7c-1.3-1.7-2.1-2.7-2.1-2.7s-10.1,6.5-10.5,7.4c-0.4,1,1.2,9.8,1.4,11.1
	c0.2,1.3,13.4,16.3,14.3,16.5C256.2,232.9,258.5,226.1,260.9,223.2L260.9,223.2z"/>
<path class="st9" d="M301.6,206.3l-18,17.8c2.2,3.2,4.3,8.8,4.9,8.7c0.8-0.3,14.1-15.2,14.3-16.5s1.8-10.1,1.4-11.1
	c-0.4-1-10.5-7.4-10.5-7.4s-0.7,0.9-1.9,2.4L301.6,206.3L301.6,206.3z"/>
<path class="st9" d="M301.9,235.2c0,0-5.6,5.9-9.3,9.1l-6.9,38.7c2.7,21.7,5.4,42.8,6,42.4C292.8,324.8,301.9,235.2,301.9,235.2
	L301.9,235.2z"/>
<path class="st9" d="M255.9,325.5c0.9,0.5,6.2-56.5,8.4-79.3c0,0-5.7,25.3-7.3,24.8c-1.3-0.4-3.7-18.5-4.9-27.3
	c-3.7-3.3-8.8-8.4-8.8-8.4S254.8,324.8,255.9,325.5L255.9,325.5z"/>
<polygon class="st10" points="275.8,378.2 287,366.4 276.8,281.9 280.4,363.8 "/>
<polygon class="st11" points="267.1,627.2 161.6,589 151.2,567.5 83.8,542.9 85.2,540.1 155.4,564.6 163.5,580.5 267.1,618.6 
	370.7,580.5 378.8,564.6 449,540.1 450.4,542.9 383.1,567.5 372.6,589 "/>
<path class="st6" d="M308.6,401.6c-0.4-1.5,1.1-24.2,2.5-45.1c1.3-18.2,2.5-34.9,2.5-34.9l15-31.5c-10.9,15.6-21.9,31-21.9,31
	s-1.2,17.4-2.5,36.1c-1.4,20.8-2.7,43.2-2.3,45.8c0.7,5,1.7,5.1,1.7,5.1h7.8C310.4,406,309.1,403.2,308.6,401.6L308.6,401.6z"/>
<path class="st12" d="M48.9,79.2C68,71.3,90.5,78.6,101.1,97s5.7,41.5-10.7,54.1l-3.7-6.3c12.9-10.6,16.7-29.2,8-44.2
	c-8.6-14.9-26.7-21-42.3-15.1L48.9,79.2L48.9,79.2z M50.5,93.1c7.8-4.5,16.9-4.9,24.8-1.9l-3.6,6.2C66,95.5,59.6,95.9,54,99.2
	c-10.4,6-13.9,19.3-8,29.6c1.2,2.1,2.7,3.9,4.4,5.4l-3.6,6.2c-2.7-2.2-5.1-4.9-6.9-8C32,118.6,36.7,101,50.5,93.1L50.5,93.1z
	 M84.7,97.2c1.9,1.8,3.6,4,5,6.4c7.9,13.7,3.2,31.3-10.5,39.2c-7,4-15.1,4.8-22.3,2.7l3.7-6.3c5,1,10.4,0.3,15.2-2.5
	c10.4-6,13.9-19.3,8-29.6c-0.7-1.3-1.6-2.5-2.6-3.6L84.7,97.2L84.7,97.2z M80.7,156.6c-19.1,7.9-41.6,0.6-52.2-17.8
	s-5.7-41.5,10.7-54.1l3.7,6.3c-12.9,10.6-16.7,29.2-8,44.2c8.6,14.9,26.7,21,42.3,15.1L80.7,156.6L80.7,156.6z"/>
<path class="st8" d="M178.4,177.2c-11.6,7.3-19.5,15.9-19.5,15.9s18.6-10.1,31.1-14.1c2.9-1,5.2-1.7,6.9-2.2
	c3.1-5.8,5.5-10.2,5.5-10.2S190,169.9,178.4,177.2L178.4,177.2z"/>
<path class="st13" d="M353.7,111.4c0.6-1.2,1-2.5,1.2-3.8c1.3-8.4,1.1-20.4-0.3-24.2c-0.1-0.3-0.3-0.7-0.4-1
	c-1,1.6-1.8,5.2-1.8,15.8C352.4,108.8,353.7,111.3,353.7,111.4z"/>
<path class="st12" d="M190,111.4c-0.6-1.2-1-2.5-1.2-3.8c-1.3-8.4-1.1-20.4,0.3-24.2c0.1-0.3,0.3-0.7,0.4-1c1,1.6,1.8,5.2,1.8,15.8
	C191.4,108.8,190,111.3,190,111.4z"/>
<path class="st13" d="M342.3,100.6c-0.9-2.8-2.1-6.2-2.1-6.2s-19,6.1-34.7,9c-21.4,4-45.9,4-67.3,0c-15.7-2.9-34.7-9-34.7-9
	s-1.8,5.1-2.7,8l0,0c0,0,0,0.1-0.1,0.1c-0.1,0-0.1-0.2-0.1-0.2c0.7-8.3-0.5-17.6-0.2-25.9c-2.5,0-5.8,1.2-8.3,3.2
	c0,0,1.6-0.3,2.1,3.7c0.4,4,0,30.3,0,30.3s0,2.2-1.9,1.5c3.6,4.9,8.8,8.5,9.2,8.8c0.7,0.4,1.2-0.6,1.2-0.6s-0.7-14-0.9-14.3
	c-0.2-0.4,2.7,4.2,4.9,7.4c2.2,3.3,2.2,4.8,24.3,8.9c25.8,4.8,56.1,4.8,81.9,0c22-4.1,22-5.7,24.3-8.9c2.2-3.3,5.1-7.8,4.9-7.4
	s-0.9,14.3-0.9,14.3s0.5,1,1.2,0.6c0.4-0.3,5.6-3.8,9.2-8.8c-1.9,0.8-1.9-1.5-1.9-1.5s-0.4-26.3,0-30.3c0.4-4,2-3.7,2.1-3.7
	c-1.6-1.2-3.5-2.2-5.3-2.8c-1.1-9.2-3.7-30.8-4.3-33.3c-0.8-3.2-2.4-2.7-2.4-2.7l2.8,59.8L342.3,100.6z"/>
<path class="st14" d="M200.8,102.4L200.8,102.4c0,0,0,0.1-0.1,0.1c-0.1,0-0.1-0.2-0.1-0.2c0.7-8.3-0.5-17.6-0.2-25.9
	c-1.5,0-3.4,0.5-5.2,1.3c0,0,2.2,1.4,2.6,5.7c0.4,4.3,0.2,34.7,0.2,34.7s0,2.7-2.2,0.9l0,0c2.8,2.8,5.5,4.6,5.8,4.8
	c0.7,0.4,1.2-0.6,1.2-0.6s-0.7-13.5-0.9-14.3v0c0,0,0,0,0,0L200.8,102.4L200.8,102.4z"/>
<path class="st14" d="M342.3,100.6c-0.9-2.8-2.1-6.2-2.1-6.2s-19,6.1-34.7,9c-2.6,0.5-5.2,0.9-7.9,1.3c0,2.9-0.6,7.5-4,13.6
	c-2.6,4.8-5.8,8-8.7,10.1c9.6-0.5,19-1.6,27.9-3.3c22-4.1,22-5.7,24.3-8.9c2.2-3.1,4.9-7.4,4.9-7.4l0,0L342.3,100.6L342.3,100.6z"/>
<path class="st1" d="M210.2,100.2l-1.8-0.5c0,0-1.5,9.9-0.7,11.2c0.7,1.3,3.1,4.4,4.4,5.6c1.2,1.2,10,4.8,29.8,7.3
	c20.3,2.6,39.5,2.6,59.9,0c19.8-2.6,28.6-6.1,29.8-7.3c1.2-1.2,3.6-4.4,4.4-5.6s-0.7-11.2-0.7-11.2l-1.8,0.5
	C294.2,113.3,249.7,113.3,210.2,100.2L210.2,100.2z"/>
<path class="st0" d="M211.9,100.7l-0.7,9.5c0,0,14.3,6.2,33.8,8.1c19.6,2,26.8,1.8,26.8,1.8s7.2,0.2,26.8-1.8
	c19.6-2,33.8-8.1,33.8-8.1l-0.7-9.5c-31.2,10-59.9,9.3-59.9,9.3S243.1,110.7,211.9,100.7L211.9,100.7z"/>
<path class="st1" d="M226.3,94.9c-6.1-1.5-13.5-4.6-18.7-6.5c0,2.2,1.8,5.7,1.9,7.9c4.2,1.2,10.2,2.9,16.7,4.5c4,1,8.1,1.9,12,2.6
	c0.6,0.1,1.1,0.2,1.7,0.3c17.4,3.1,36.7,3.5,54.7,1.4c3.7-0.4,7.4-1,11-1.7c3.9-0.7,7.9-1.6,11.8-2.6c7.3-1.8,14.1-3.7,18.3-5
	c0.1-2.2,2.1-6.1,2.1-8.3c-5.6,2.2-13.8,5.8-20.5,7.4c-7.8,1.8-16.3,3.2-25.2,4c-6.5,0.6-13.2,0.9-20.2,0.9
	c-10.1,0-19.8-0.7-28.9-1.9C237.1,97.2,231.5,96.2,226.3,94.9L226.3,94.9z"/>
<path class="st1" d="M292.9,127.9c-16.9,1.5-34.7,1.1-51.2-1c-3.7-0.5-7.3-1.1-10.8-1.7c-5.8-1.1-10-2-13.2-2.8
	c-1.9-0.5-3.4-0.9-4.6-1.3c0.3,1.1,0.6,2.2,0.9,3.3c0.5,0.1,0.9,0.3,1.4,0.4c7.6,2.2,15.9,3.9,24.8,5.1c9.9,1.4,20.6,2.1,31.7,2.1
	c7.9,0,15.5-0.4,22.9-1.1c12.2-1.2,23.5-3.3,33.4-6.2c1.1-0.3,2.1-0.6,3.2-0.9c0.3-1.1,0.6-2.2,0.9-3.4c-1.5,0.6-3.5,1.3-6.4,2
	c-3.2,0.8-7.3,1.7-13,2.7C306.3,126.3,299.7,127.3,292.9,127.9L292.9,127.9z"/>
<path class="st8" d="M224.1,111.1l5.2-5.7l0,0c-1.2-0.3-2.4-0.5-3.7-0.8c-4.5-1.1-9.1-2.3-13.8-3.8l-0.7,9.5c0,0,3.9,1.7,10.3,3.6
	L224.1,111.1L224.1,111.1z"/>
<path class="st8" d="M250,108.8l-8.4,8.9l-0.3,0.3c0.1,0,0.2,0,0.3,0c1.1,0.1,2.2,0.3,3.3,0.4c5.8,0.6,10.4,1,14.2,1.2l9-9.6
	c-2.2,0-5.4-0.1-9.2-0.4C256.3,109.4,253.3,109.1,250,108.8L250,108.8L250,108.8z"/>
<path class="st8" d="M275.1,110l-9.1,10c4.1,0.2,5.8,0.1,5.8,0.1s0,0,0.2,0l0.7-0.7l9.2-9.7c-2.5,0.1-4.6,0.2-6.2,0.3
	C275.6,110,275.3,110,275.1,110L275.1,110z"/>
<path class="st2" d="M307.6,106.8l-10.7,11.8c0.6,0,1.2-0.1,1.8-0.2c8.6-0.9,16.2-2.6,22-4.2c2.8-0.8,5.1-1.5,7-2.2
	c3-1.1,4.8-1.8,4.8-1.8l-0.7-9.5c-1,0.4-2.1,0.7-3.1,1c-3.7,1.1-7.3,2.1-10.9,2.9C314.3,105.4,310.9,106.1,307.6,106.8L307.6,106.8
	L307.6,106.8z"/>
<path class="st14" d="M345,98.8c0,11.7-1.1,23.9-1.1,23.9c1.8-1.4,4.7-3.8,7.1-6.9c0.2-0.3,0.4-0.5,0.6-0.7
	c-0.2,0.1-0.4,0.1-0.5,0.1c-1.5,0.3-1.5-1.6-1.5-1.6s-0.3-20.6-0.1-28.1C347.1,88.9,344.9,93.6,345,98.8L345,98.8z"/>
<path class="st12" d="M352.4,98.3c0,10.6,1.3,13.1,1.3,13.1c0.6-1.2,1-2.5,1.2-3.8c1.3-8.4,1.1-20.4-0.3-24.2
	c-0.1-0.3-0.3-0.7-0.4-1C353.2,84.1,352.4,87.7,352.4,98.3z"/>
<path class="st14" d="M343.5,76.1l3.2,0.8c-0.1,0-0.3-0.1-0.4-0.1c-0.4-3.2-0.9-7.7-1.5-12.5c-0.1-0.9-0.2-1.7-0.3-2.6
	c-0.6-4.6-1.1-9.1-1.6-12.6c-0.4-2.9-0.7-5-0.9-5.6c-0.8-3.2-2.4-2.7-2.4-2.7s1.4,1.9,1.5,4.8c0,1.2,0.5,6.4,0.9,12.3
	c0.2,2.1,0.3,4.2,0.5,6.2C343.1,70.5,343.5,76.1,343.5,76.1L343.5,76.1z"/>
<path class="st1" d="M393.7,299.4c0,0-6.4-8-7.3-12c-0.9-4,0.2-40.3,1.3-45s9.5-19.3,11.2-20.9c1.6-1.6,7.8-0.1,11.6,2.6
	s5.5,5.1,5.5,5.1s25.6-51,27.8-53.4c2.2-2.3,11.2,2.6,13.4,5.5c2.2,2.9,2.6,5.2,2.6,5.2s3.1-7.5,6.3-6.9c3.2,0.6,11.3,6.6,13,12.4
	c1.7,5.8,1,9.7,1,9.7s5.6-3.3,9.4-0.7c3.7,2.6,7.1,10.6,6.8,18.8c-0.4,8.3-3.2,13.3-3.2,13.3s6.4,0.7,8,8.7
	c1.6,8-14.6,36.2-26.8,52.1c-12.2,15.9-19.2,20.6-22.8,21.5c-3.6,0.8-4.7,0.9-4.7,0.9s-2,13.2-17.3,16.2c-15.4,3-32.4-8.6-35.9-16.6
	C389.9,308,393.7,299.4,393.7,299.4L393.7,299.4z"/>
<path class="st7" d="M403.6,232.8c0,0-5.8,11.3-6.5,14.8c-0.7,3.6,0.8,12.8,0.9,23.6c0.1,10.9-0.3,15.3,0.7,17.1
	c0.9,1.8,17.5,14.3,22.9,15.8c5.3,1.5,17.3-2.9,17.3-2.9l-4.4,4.3c0,0,15.2,0.9,20.5-3.3c5.2-4.2,26.7-32.7,32.8-44.7
	c6.1-12,5.1-13.5,2.9-14.2c-2.2-0.7-19,16.3-19,16.3s0.4,5.1-0.5,4.5c-0.8-0.6-10.2-11.2-19.6-20.1c-9.4-9-15.7-11.5-15.2-11.7
	c0.6-0.2,4.8,0.3,5.7,0.5c0.9,0.2,0.9,0.3,0.9,0.3s9.8-23.7,11.1-31.5c1.3-7.8-4-11.7-5.2-12.1c-1.2-0.4-28.6,60.3-28.5,62.1
	c0,1.8,1.2,10.9,1.3,11.3c0.1,0.3,8.4,9.1,10.9,15.6c2.6,6.5,2,10.9,1.5,10.5c-0.4-0.4-2.9-9.4-9.9-15.2c-6.9-5.8-10.2-6.5-10.3-7.1
	c-0.1-0.7-2.3-13.7-2.4-15.4c-0.1-1.7,3.2-5.5,0.7-11.4C409.9,234,405.4,232.3,403.6,232.8L403.6,232.8z"/>
<path class="st7" d="M445,234.4c0,0,19.2-41.5,20.2-42.5c1-0.9,6.4-1,7.8,7.6c1.4,8.6-12.9,38.7-12.9,38.7s-4.7,2.1-6.7,1.4
	C451.3,238.9,445,234.4,445,234.4L445,234.4z"/>
<path class="st7" d="M459.8,245.6c0,0,6,6.9,6.4,7.2c0.4,0.2,4.3,1,7.1-1.4s13.5-21.5,14.2-29.9c0.7-8.4-3.2-11.2-4.2-11.3
	C482.3,210.1,470,228.3,459.8,245.6L459.8,245.6z"/>
<path class="st8" d="M402.8,251.1c0.5-3,6.2-16.1,6.2-16.1c-2.1-1.9-4.2-2.5-5.3-2.2c0,0-5.8,11.3-6.5,14.8
	c-0.7,3.6,0.8,12.8,0.9,23.6s-0.3,15.3,0.7,17.1c0.4,0.7,3.2,3.1,6.8,5.8c-1.2-1.8-2.2-3.7-2.4-5.1
	C402.8,285.5,402.4,254.1,402.8,251.1L402.8,251.1z"/>
<path class="st8" d="M448.9,189.5c-1.1-0.3-22.3,46.5-27.4,59.1c1.1-0.6,2.4-1.4,3.2-2.3c1.6-1.9,8.5-16.6,8.5-16.6l3.1,1.6
	c0,0,12.6-31.2,13.4-34.1c0.8-2.9,0.4-7,0.4-7C449.5,189.8,449.1,189.6,448.9,189.5L448.9,189.5z"/>
<path class="st8" d="M465.2,191.9c-1,0.9-20.2,42.5-20.2,42.5s2.6,1.9,5.1,3.5c0,0,17.6-36.6,18.4-39.8c0.8-3.2,0.1-6.2,0.1-6.2
	C467.1,191.3,465.7,191.5,465.2,191.9L465.2,191.9z"/>
<path class="st8" d="M483.3,210.2c-1-0.1-13.3,18.1-23.5,35.4c0,0,1.9,2.2,3.6,4.1c4.8-8,19.7-31.4,21.1-33.8c0.8-1.3,1-2.8,1.1-3.9
	C484.7,210.8,483.7,210.3,483.3,210.2L483.3,210.2z"/>
<path class="st8" d="M490.8,243.4c-2.2-0.7-19,16.3-19,16.3s0.2,3.1-0.1,4.2c2.6-2.1,16.5-13.7,19.4-17.8c0.5-0.7,0.8-1.3,1.1-1.8
	C491.8,243.9,491.3,243.6,490.8,243.4L490.8,243.4z"/>
<path class="st7" d="M402,304.6c0,0-1.6,6.6,5.9,12.6c7.5,6,20.5,6.7,25.7,5.4c5.2-1.3,7.3-5.9,7.3-5.9s-8.8,4-21.9,0
	C405.8,312.7,405.3,309.2,402,304.6L402,304.6z"/>
<path class="st2" d="M393.7,348.1c0.3,1.4,4.2,27.9,4.2,27.9c2.9,2.8,5.5,5,6.3,5.2c2.5,0.5,30.1,4.1,41.9-6.9
	c11.7-11.1,12.9-27.5,12.9-27.5s-9.8,8.1-32.3,7.6c-22.5-0.5-29-14.9-27.6-14.1c1.3,0.8,21.2,8.9,40.2,5.1c19-3.8,24.1-15.7,24.5-19
	c0.4-3.3,1.1-10.1-1-13.7c-2.2-3.7-10.9-6.1-9.9-5.3c1,0.8,7.3,7.3,1.3,16.5c-5.9,9.3-34.9,14.1-54.3,4.1c-1.8-1-3.5-2-4.9-3
	c2.1,2.1,4.6,5.1,5.6,8.2c1.6,5.2-2.7,5.4-7.8,4.1l0,0c-2.8-0.7-3.5-0.1-2.7,1.5c0.8,1.6,2.2,2.3,2.7,4.3
	C393.4,345.2,393.7,348.1,393.7,348.1L393.7,348.1z M391.6,322L391.6,322L391.6,322L391.6,322z"/>
<path class="st15" d="M387.1,297.3c0,0-6.6,9.5-8.1,16.4c-1.5,6.9,5.5,48.3,6.3,49.3c0.3,0.4,2.6,2.9,5.5,5.8c0,0-8.1-51.2-7.9-56.6
	c0.2-5.5,5.5-15.3,5.5-15.3C388.2,296.5,387.8,296.4,387.1,297.3L387.1,297.3z"/>
<path class="st12" d="M513.5,184.7c23.9,29.9,22,73.7-5.7,101.4c-27.7,27.7-71.5,29.6-101.4,5.7l5.7-5.7c26.8,20.8,65.4,18.9,90-5.7
	s26.5-63.3,5.7-90L513.5,184.7L513.5,184.7z M495.9,190.1c17.4,17.4,21.8,42.9,13.1,64.3l-7-4c6.9-18.3,3-39.9-11.7-54.7
	c-20.1-20.1-52.7-20.1-72.8,0c-1.2,1.2-2.4,2.5-3.5,3.8l-7-4c1.5-1.9,3.1-3.7,4.8-5.4C435,166.8,472.7,166.8,495.9,190.1
	L495.9,190.1z M500.4,269.2c-1.4,1.7-2.9,3.4-4.4,5c-23.2,23.2-60.9,23.2-84.1,0c-17.2-17.2-21.7-42.5-13.3-63.8l7,4
	c-6.6,18.3-2.7,39.5,12,54.1c20.1,20.1,52.7,20.1,72.8,0c1.1-1.1,2.1-2.2,3.1-3.4L500.4,269.2L500.4,269.2z M394.2,279.6
	c-23.9-29.9-22-73.7,5.7-101.4c27.7-27.7,71.5-29.6,101.4-5.7l-5.7,5.7c-26.8-20.8-65.4-18.9-90,5.7s-26.5,63.3-5.7,90L394.2,279.6
	L394.2,279.6z"/>
<path class="st16" d="M401.1,370c-0.3-0.4-0.7-0.7-1.1-0.8c-0.8-0.2-1.6,0.2-2,0.8H401.1z M405.9,365.4c0.3-0.4,0.7-0.7,1.1-0.8
	c0.7-0.3,1.1-0.5,1.2-1.3h-6.9c0.4,0.8,0.6,1.6,0.8,2.2L405.9,365.4L405.9,365.4z M408.3,360.7v-0.5c0-0.5,0-1.1,0-1.7h-9.2
	c0.2,0.4,0.4,0.8,0.6,1.3c0.1,0.3,0.3,0.6,0.4,0.8L408.3,360.7L408.3,360.7z M408.5,356.1c0-0.8,0.1-1.6,0.2-2.2h-10.1l-0.2,1.1
	c0,0.3-0.1,0.6,0,1L408.5,356.1L408.5,356.1z M408.9,351.4c0-0.8-0.2-1.5-0.5-2.2h-9.6c0.6,0.4,0.6,0.9,0.4,2.2H408.9L408.9,351.4z
	 M407.5,346.7c-0.1-0.7-0.2-1.5-0.2-2.2h-13.1c0,0.9,0.1,1.6,0.5,2.2H407.5L407.5,346.7z M407.9,342.1c0.1-0.2,0.2-0.4,0.4-0.5
	c0.4-0.4,0.7-1,0.7-1.7h-16.6c0.1,0,0.3,0.1,0.4,0.1c1.6,0.3,1.9,0.4,1.7,2.1L407.9,342.1L407.9,342.1z M408.7,337.4
	c-0.2-0.7-0.5-1.5-0.9-2.1v0h-23c0.6,1,1.2,1.2,2.4,1.2c1.3,0,2.1,0.3,2.7,0.9L408.7,337.4L408.7,337.4z M406.7,332.8
	c0-0.1,0-0.1,0-0.2c0-0.4-0.3-1.2-0.6-2h-22.7c0,0.7,0,1.5,0.2,2.2H406.7L406.7,332.8z M405,328.1c-0.2-0.7-0.5-1.4-0.7-2.2h-27.9
	c0.1,0.2,0.2,0.4,0.3,0.6c0.2,0.6,0.5,1.1,0.7,1.5h3.4c0,0,0.1-0.1,0.2-0.2c1.3-1.4,1.6-1.5,2.2-0.7c0.1,0.2,0.2,0.5,0.3,1H405
	L405,328.1z M403.6,323.4c-0.2-0.7-0.4-1.5-0.6-2.2h-30c0.4,1.1,1,1.9,1.5,2.2H403.6L403.6,323.4z M402.5,318.8
	c-0.1-0.6-0.1-1.3-0.2-2.2h-30.3c0.1,0.7,0.3,1.4,0.4,2.2H402.5L402.5,318.8z M402.2,314.1c0-0.7,0-1.4,0-2.2h-31.6
	c0.2,0.5,0.5,1.2,0.7,2.2H402.2z M402.4,309.4c0-0.7,0.1-1.5,0.1-2.2h-41c0.6,0.4,1.3,0.5,2.1,0.5c0.9,0,1.8,0.6,2.5,1.5l0,0.1
	H402.4L402.4,309.4z M402.8,304.8c0-0.4,0.1-0.8,0.1-1.1c0-0.4,0.1-0.7,0.1-1h-44.4c0.2,0.8,0.4,1.5,0.7,2.2L402.8,304.8
	L402.8,304.8z M403.7,300.1c0.4-0.7,1.1-1.3,2.3-2.2h-48.2c0.2,0.7,0.4,1.4,0.5,2.2H403.7z M408.8,295.5c0.6-0.7,1.3-1.4,1.8-2.2
	H356c0,0,0.1,0,0.1,0c0.4,0,0.5,0.2,0.3,0.4c-0.2,0.2,0,0.9,0.4,1.8L408.8,295.5L408.8,295.5z M412.4,290.8c0.5-0.8,0.9-1.5,1.1-2.2
	h-62.2c0.4,1.2,0.7,1.8,1.1,2.2H412.4z M414.5,286.1c0.4-0.5,1-1.1,1.7-1.7c0.2-0.2,0.4-0.4,0.6-0.5h-65.1l-0.1,0.1
	c-0.8,0.8-1.1,1.2-1,2.1H414.5z M418.4,281.5c0-0.4,0-1,0-1.7c0-0.2,0-0.3,0-0.5h-63.6c-0.1,0.1-0.1,0.2-0.2,0.3
	c-0.6,0.7-1.1,1.4-1.4,1.9H418.4z M417.9,276.8c-0.1-0.4-0.3-0.7-0.5-0.9c-0.2-0.3-0.5-0.7-0.7-1.3h-47c-0.8,0.5-1.7,1.1-2.4,1.7
	c-0.2,0.2-0.4,0.3-0.5,0.4L417.9,276.8L417.9,276.8z M416,272.1c-0.2-0.9-0.4-1.6-0.8-2.2h-40.8c-0.1,0.3-0.3,0.5-0.4,0.8
	c-0.2,0.5-0.5,1-0.7,1.4H416L416,272.1z M412.9,267.5c-0.3-0.6-0.4-1.3-0.3-2.2H379c-1.1,0.6-2,1.3-2.8,2.2H412.9L412.9,267.5z
	 M413.4,262.8c0.1-0.2,0.2-0.5,0.3-0.7c0.4-0.7,0.5-1.2,0.8-1.5h-27.7c-0.1,0.2-0.3,0.4-0.4,0.7c-0.3,0.6-0.7,1.1-1.3,1.5H413.4z
	 M415.7,260.7c0.3,0.1,0.6,0.2,1,0.4c1.8,0.7,2.1,0.8,3.3-0.4H415.7L415.7,260.7z M423,258.2L423,258.2c0-0.4,0.8-1.3,1.9-2.2h-4.3
	c0,0.1,0.1,0.3,0.1,0.4c0.4,0.6-0.2,1.3-1.1,1.8H423L423,258.2z M428.3,253.5c0.4-0.4,0.7-0.7,0.9-1.1c0.2-0.4,0.5-0.7,1-1.1h-9.5
	c-0.3,0.7-0.5,1.4-0.4,2.2H428.3L428.3,253.5z M435.8,248.8c0.4-0.1,0.9-0.1,1.3-0.1c1,0,3.8-0.9,6.4-2.1h-14.4
	c-0.3,1.1-1.7,2-3.7,2c-0.6,0-1.1,0.1-1.6,0.2L435.8,248.8L435.8,248.8z M448.5,244.2c0.7-0.4,1.1-0.8,1.1-1c0-0.3,0.4-0.6,0.7-0.6
	c0.2,0,0.5-0.2,0.9-0.6h-10.6c-0.4,0.2-0.7,0.4-0.7,0.6c0,0.6-3.5,1.6-5.1,1.5c-0.7,0-2.3-0.8-3.7-1.8c-0.2-0.1-0.4-0.2-0.5-0.4
	h-3.2c-0.1,0.7,0.1,1.6,0.6,2.2L448.5,244.2L448.5,244.2z M453.3,239.5c0.5-0.7,0.9-1.5,1.2-2.2h-10.8c-0.1,0.8-0.4,1.5-0.6,2.2
	H453.3z M455.8,234.8c0.4-0.6,0.9-1.3,1.4-1.9c0.1-0.1,0.1-0.2,0.2-0.3h-13.5c0.1,0.7,0.1,1.4,0.1,2.2H455.8z M459.1,230.2
	c0.4-0.7,0.8-1.4,1.1-1.9c0-0.1,0.1-0.1,0.1-0.2h-18.6c0.5,0.5,1,1.1,1.4,1.8c0.1,0.1,0.1,0.3,0.2,0.4L459.1,230.2L459.1,230.2z
	 M462,225.5c1.1-1.1,2.2-1.7,3-1.4c0.5,0.2,0.7,0.5,0.4,1.4h2.3c0.3-0.7,0.6-1.5,0.9-2.2h-51.3c0,0.7,0,1.4,0,2.2h4.1l0.1-0.1
	c1-1.7,4.8-2,6.5-0.4c0.2,0.2,0.5,0.4,0.7,0.5H462L462,225.5z M464.6,228c-0.3,0.7-0.7,1.5-1.1,2.2h2.2c0.4-0.7,0.8-1.5,1.1-2.2
	H464.6L464.6,228z M461.9,232.7c-0.1,0.1-0.2,0.2-0.3,0.3c-0.4,0.3-0.7,1.2-0.8,1.9h1.6c0.5-0.6,1.1-1.3,1.7-2.2L461.9,232.7
	L461.9,232.7z M470.4,220.9c0.6-0.7,0.9-1.2,0.7-1.2c-0.2,0,0-0.4,0.6-1h-56.6c0.7,0.7,1.2,1.5,1.6,2.2L470.4,220.9L470.4,220.9z
	 M474.3,216.2c0.3-0.3,0.7-0.6,1-0.9c0.4-0.4,0.9-0.8,1.3-1.3h-66c0.4,0.7,1,1.4,1.8,2.2H474.3L474.3,216.2z M478.6,211.5
	c0.3-0.4,0.4-0.8,0.5-1c0.1-0.3,0.1-0.7,0.2-1.1h-69.5c0,0.8,0.1,1.5,0.1,2.2L478.6,211.5L478.6,211.5z M479.6,206.9
	c0.1-0.7,0.1-1.4,0.2-2.2h-73.7c1,0.9,1.9,1.6,2.6,1.8c0.2,0,0.3,0.2,0.4,0.4L479.6,206.9L479.6,206.9z M479.9,202.2
	c0-0.8,0-1.5,0.1-2.2h-43.8c-0.2,0.9-0.6,1.7-1.1,2.2H479.9L479.9,202.2z M479.9,197.5c0-0.7,0.1-1.5,0.2-2.2h-45
	c0.1,0.2,0.2,0.4,0.3,0.7c0.2,0.4,0.4,1,0.6,1.5L479.9,197.5L479.9,197.5z M480.5,192.9c0-0.7-0.2-1.4-0.5-2.2h-39.9l0,0
	c-0.4,0.4-1.8,0.8-3,0.8c-1.8,0-2.3,0.2-2.4,1.3l0,0L480.5,192.9L480.5,192.9z M479.3,188.2c0-0.7,0.3-1.4,0.8-2.2h-82.7
	c0.7,0.7,1.2,1.4,1.3,2.2h36.5c0.4-0.1,0.8-0.1,1.1-0.2c0.7-0.2,1.5-0.1,2.2,0.2H479.3L479.3,188.2z M482.6,183.6
	c0.1-0.1,0.3-0.2,0.4-0.4c0.8-0.7,1.4-1.3,2-1.8h-35.6c0,0.1,0,0.3,0,0.4c0,0.4-0.2,1.1-0.6,1.7L482.6,183.6L482.6,183.6z
	 M486.9,178.9c0.4-0.6,0.7-1.3,1.1-2.2h-36.1c-0.1,0.4-0.4,0.7-1,0.8c-0.6,0.2-1,0.6-1.2,1.4H486.9L486.9,178.9z M488.9,174.2
	l0.2-0.6c0.2-0.5,0.4-1.1,0.6-1.5h-62.1c-0.5,0.8-1.3,1-3,1.3c-1.7,0.2-2.9,0.5-3.9,0.9h26.9c0.4-0.3,1-0.3,1.8,0L488.9,174.2
	L488.9,174.2z M491.4,169.6c0.2-0.3,0.4-0.6,0.4-0.7c0-0.2,0.3-0.7,0.7-1.4h-58.1c-0.2,1.3-0.7,1.5-1.5,0.8c-1-0.8-2.7-0.2-3.9,1.4
	L491.4,169.6L491.4,169.6z M494.1,164.9c0.8-1.1,1.5-1.4,2.6-1.4c0.7,0,1.7-0.3,2.5-0.7H470c0.2,0.7-0.1,1.3-1,1.3
	c-0.4,0-1.4-0.5-2.6-1.3h-26.2c-0.1,0.3-0.2,0.5-0.4,0.7c-0.5,0.7-0.8,0.7-2.1,0.1c-2-1.1-3.1-0.6-3.3,1.4L494.1,164.9L494.1,164.9z
	 M506.2,160.2c1.4-0.5,3-1.1,4.8-2c0.1,0,0.2-0.1,0.4-0.2h-43.9c-0.1,0.9-0.1,1.6,0,2.2L506.2,160.2L506.2,160.2z M515,158.1
	c0.1,0.4,0.1,0.8,0.1,1.2c0,0.3,0,0.6,0.1,0.9h2.2c-0.2-0.5-0.4-1.2-0.7-1.9c0-0.1-0.1-0.2-0.1-0.3L515,158.1L515,158.1z
	 M516.4,155.6c0.2-0.4,0.6-0.4,1.2,0h20.7c0-0.6,0.3-1.3,0.6-1.5c0.2-0.1,0.2-0.4,0-0.7H438.4c0.2,0.7,0.3,1.4,0.4,2.2h25.7
	c0.3-0.2,0.5-0.4,0.7-0.7c1.2-1.6,2.1-1.2,2.2,0.7H516.4L516.4,155.6z M519.8,158.1c0.4,0.7,0.8,1.5,1,2.2h13.7
	c0.3-1,0.8-1.7,1.5-2.2H519.8L519.8,158.1z M520.9,162.8c-0.1,1,0.1,1.5,0.9,1.8c0.2,0,0.4,0.2,0.7,0.4h11.3
	c0.1-0.4,0.2-0.7,0.2-1.1c0-0.4,0-0.7,0-1.1H520.9L520.9,162.8z M526,167.4l0.1,0.1c1,0.8,2.1,1.6,2.8,2h2.9c0-0.1,0-0.2,0-0.3
	c0.1-0.6,0.3-1.3,0.6-1.9L526,167.4L526,167.4z M534.3,150.9c-0.4-0.1-0.7-0.2-1.1-0.4c-1.6-0.6-2.2-0.9-2.4-1.8h-94.2
	c0.4,0.6,0.8,1.4,1.1,2.2H534.3z M530.6,146.3c0.1-0.7,0.7-1.1,1.8-1.8c0.3-0.1,0.6-0.3,0.9-0.4h-57.5c0.1,0.2,0.3,0.5,0.5,0.9
	c0.4,0.5,0.5,0.9,0.6,1.3H530.6z M539.6,141.6c0.3-0.4,0.4-1,0.4-1.5v0c0-0.1,0-0.2,0-0.3c0-0.2,0-0.3-0.1-0.4h-4.5
	c-0.2,0.1-0.4,0.2-0.6,0.4c-1.4,0.9-1.5,0.9-2.2,0c-0.1-0.1-0.2-0.2-0.3-0.3h-56.6c1.3,0.8,2.2,1.5,2.9,2.2L539.6,141.6L539.6,141.6
	z M530.4,136.9c0-1,0.4-1.2,1.5-1.2c0.8,0,1.5-0.3,1.5-0.6c0-0.1,0-0.2,0.1-0.4h-73.2c-0.8,0.3-1.4,0.3-2.1,0h-39.5
	c0,0,0,0.1,0.1,0.1c0.2,0.2,0.4,1.1,0.4,1.8c0,0.1,0,0.1,0,0.2H530.4L530.4,136.9z M535.9,132.3c0.5-0.4,1-0.6,1.2-0.5
	c0.3,0.2,0.6,0,0.6-0.4c0-0.3,0.1-0.7,0.2-1.2h-71.2c-0.1,0.2-0.1,0.4-0.2,0.7c-0.1,0.6-0.4,1.1-1,1.5L535.9,132.3L535.9,132.3z
	 M537.3,127.6c-0.4-0.3-1-0.6-1.8-1.1c-0.6-0.3-1.2-0.7-1.8-1.1h-33c-0.4,0.2-0.8,0.4-1.1,0.4c-0.5,0.1-1.5,0.8-2.2,1.7l-0.1,0.1
	H537.3L537.3,127.6z M531.2,122.9c-0.7-0.7-1.7-1.6-2.7-2.2h-9.1c0,0-0.1,0-0.1,0.1c-0.7,0.5-2.6,1.1-4,1.3
	c-1.1,0.1-2.6,0.5-3.7,0.8C511.5,122.9,531.2,122.9,531.2,122.9z M492.6,127.6c-0.1-0.1-0.2-0.3-0.4-0.4c-0.6-0.7-1.4-1.3-2.2-1.8
	h-9.2c-0.4,1.1-1.1,1.3-2.1,0.7c-0.9-0.5-3.3,0.1-5.9,1.5H492.6L492.6,127.6z M484.2,122.9c0.1-0.8-0.1-1.4-0.7-1.5
	c-0.8-0.3-1.5,0.2-2,1.5H484.2L484.2,122.9z M455.7,132.3c-1.5-1.8-1.9-2-3.8-1.6c-1.2,0.2-2.5,0.7-2.9,1c-0.4,0.3-1.2,0.4-1.8,0.2
	c-0.5-0.2-1.3,0-2.2,0.4C445,132.3,455.7,132.3,455.7,132.3z M437,132.3c-0.8-0.4-1.5-1.1-2.1-2.2h-6.6c-0.1,0.2-0.2,0.4-0.3,0.7
	c-0.2,0.6-0.4,1.1-0.7,1.5H437L437,132.3z M434.4,127.6L434.4,127.6c0-0.9,0.1-1.5,0.5-2.2h-2.6c-0.1,0.2-0.2,0.5-0.3,0.7
	c-0.2,0.6-0.4,1.1-0.7,1.5H434.4L434.4,127.6z M437.5,122.9c0.6-0.7,1-1.5,1.1-2.2H434c0,0.2-0.1,0.4-0.1,0.6c0,0.6-0.1,1.1-0.3,1.5
	H437.5L437.5,122.9z M437.9,118.3c-0.4-0.4-1.1-0.3-1.7,0H437.9z M423.6,132.3c0,0-0.1-0.1-0.1-0.2c-0.6-0.7-1.1-1.4-1.4-2H419
	c0.1,0.8,0,1.5-0.3,1.7c-0.1,0.1-0.3,0.3-0.3,0.5H423.6L423.6,132.3z M421.1,127.6c-0.2-0.1-0.5,0-0.9,0H421.1z M425.2,139.4
	c1.3,0.6,2.8,1,3.4,0.8c1.5-0.4,3.2,0.5,2.5,1.3h35.3c-0.4-0.2-0.6-0.6-0.6-1c0-0.4,0.1-0.8,0.3-1.1H425.2z M428.3,144.1
	c0.9,0.8,3,1.9,4.3,1.9c0.4,0,0.9,0.1,1.3,0.3h40.4c-0.6-0.4-1.2-0.8-1.4-1.1c-0.3-0.4-0.6-0.4-1,0.2c-0.6,0.9-1.4,0.5-2.3-1.3
	H428.3L428.3,144.1z M439.2,158.1c0.2,1.1,0.5,2,0.7,2.1c0,0,0,0,0.1,0h23.3c-1.1-1-1.8-1.7-2.1-2.2L439.2,158.1L439.2,158.1z
	 M419.1,176.7c0.2,0.7,0.4,1.4,0.5,1.8c0,0.1,0,0.2,0,0.3h26.8c0.1-0.9,0.2-1.7,0.2-2.2L419.1,176.7L419.1,176.7z M417.4,181.4
	l-2,1.5l-1.3-1.5h-31.4c0.3,0.8,0.8,1.6,1.4,2.2h62c0-0.6,0-1.4,0.1-2.2H417.4L417.4,181.4z M412.8,178.9c-0.1-0.5-0.2-1.1-0.2-1.8
	v-0.3h-30.3c-0.1,0.4-0.1,1.1-0.1,1.9c0,0.1,0,0.2,0,0.3L412.8,178.9L412.8,178.9z M412.6,174.2L412.6,174.2
	c-0.2-0.7-0.4-1.4-0.5-2.2h-24.8c0,0.1-0.1,0.2-0.1,0.2c0,0.4-0.8,1.2-2,2L412.6,174.2L412.6,174.2z M412,169.6c0-0.7,0-1.5,0.2-2.2
	H390c-0.1,0.2-0.2,0.4-0.3,0.5c-0.4,0.6-0.7,1.1-1,1.6L412,169.6L412,169.6z M412.7,164.9c0.2-0.7,0.2-1.4,0.2-2.2h-13.6
	c-0.4,0.3-0.9,0.7-1.6,1.1c-1,0.6-1.8,1-2.4,1.1H412.7L412.7,164.9z M412.8,160.2c0-0.3-0.1-0.6-0.1-0.9l-0.2-1.2h-11.3
	c-0.1,0.5-0.3,1-0.4,1.6c0,0.2,0,0.4-0.1,0.5H412.8L412.8,160.2z M412,155.6c-0.2-1.1-0.4-1.8-0.5-2.2h-2c-0.9,0.3-2.3,0.7-3.7,0.9
	c-1.7,0.4-2.9,0.8-3.3,1.2L412,155.6L412,155.6z M394.6,164.9c-0.5-0.2-0.7-0.7-0.7-1.7c0-0.1,0-0.3,0-0.4h-1.5
	c-0.2,0.5-0.5,1.3-1,2.2L394.6,164.9L394.6,164.9z M394.9,190.7c-0.1,0.2-0.1,0.5-0.1,0.9c0,0.6,0,1-0.3,1.3h32.4
	c1.5-0.7,2.4-1.4,2.9-2.2H394.9L394.9,190.7z M389.7,195.4c-0.4,0.5-0.3,1.1,0.4,2.2h3.6l0,0c-0.8-1.1-0.8-1.3,0-1.6
	c0.8-0.3,2.4,0.3,4.4,1.7h26.3c-0.2-0.2-0.5-0.4-0.9-0.5c-1.1-0.4-1.5-0.9-0.9-1.6L389.7,195.4L389.7,195.4z M401.2,200.1
	c0.7,0.7,1.5,1.4,2.3,2.2h29.7c-0.2,0-0.3-0.1-0.3-0.1c-0.1,0-0.4-0.9-0.9-2.1h-3.9c-0.1,0.2-0.2,0.3-0.4,0.3
	c-0.4,0-0.7-0.1-1.1-0.3H401.2L401.2,200.1z M417.1,228c0,0.8,0.1,1.5,0.3,2.2h3.5c0-0.3-0.2-0.6-0.4-1.1c-0.2-0.4-0.3-0.7-0.4-1.1
	H417.1L417.1,228z M409,258.2c-0.8-0.6-1.6-1.5-2.1-2.2h-1.7c0.2,0.5,0.4,0.9,0.7,1.3c0.3,0.4,0.4,0.7,0.4,0.9H409z M403.2,258.2
	c-0.5-0.3-0.9-0.6-1.1-0.9c-0.5-0.7-1.3-0.8-3.6-0.4c-1.6,0.3-4,0.4-5.4,0.4c-1.4-0.1-2.7,0.3-3.9,1H403.2L403.2,258.2z
	 M403.4,367.9c0.4,0.3,0.8,0.3,1.1,0H403.4z M431.1,197.5c-0.4-0.9-0.7-1.5-0.8-1.5c-0.6,0-1.2,0.6-1.6,1.5H431.1z M69,346.1
	c1.5-0.5,2.3-0.6,2.9,0c0.6,0.5,1.2,0.3,2.6-1.5H63.8c0.8,0.8,1.6,1.5,2.2,1.8C66.5,346.7,67.9,346.6,69,346.1L69,346.1z
	 M76.4,342.1L76.4,342.1c0.7-1,1.8-1.8,2.6-2.1c0.1,0,0.3-0.1,0.4-0.1H60.2c0.3,0.6,0.8,1.4,1.4,2.2L76.4,342.1L76.4,342.1z
	 M80.4,337.4c0-1.1,0.2-1.8,0.6-2.2H58.3c0.1,0.1,0.1,0.2,0.2,0.3c0.4,0.6,0.7,1.2,1,1.8H80.4L80.4,337.4z M82.8,335.3
	c0.4,0.2,0.8,0.5,1.3,0.9c1.8,1.5,2.3,1.5,3-0.2c0.1-0.3,0.2-0.5,0.4-0.7H82.8L82.8,335.3z M101.6,335.3c2.2,0.9,3.3,1,5.5,0.8
	c1.8-0.2,4.3,0,5.7,0.4c1.4,0.4,2.7,0.5,2.9,0.3c0.1-0.1,0.3-0.7,0.4-1.4L101.6,335.3L101.6,335.3z M116.6,332.8
	c0.1-0.9,0.4-1.8,0.7-2.2H56.4c0,0.2,0,0.3,0.1,0.5c0.1,0.5,0.3,1.1,0.6,1.7H116.6z M118.2,328.1c0-0.2,0-0.3,0.1-0.5
	c0.1-0.5,0.3-1.1,0.5-1.7H56.3c-0.1,0.7-0.1,1.4-0.1,2.2H118.2L118.2,328.1z M120.3,323.4c0.2-0.6,0.2-1.1-0.1-2c0,0,0-0.1,0-0.2
	H58.5c-0.2,0.4-0.4,0.7-0.4,0.8c0,0.4-0.3,0.8-0.7,1c-0.1,0-0.3,0.2-0.4,0.4L120.3,323.4L120.3,323.4z M120.5,318.8
	c0.3-0.4,0.4-1.2,0.1-1.7c0-0.1-0.1-0.3-0.2-0.4H63.1c-0.5,0.4-0.8,0.6-0.9,0.5c-0.2-0.2-1,0.7-1.9,1.7H120.5L120.5,318.8z
	 M118.4,314.1c-1.1-0.5-2.6-1-3.9-1.2c-2.4-0.4-3.9-0.6-4.9-1h-42c-0.3,0.7-0.8,1.3-1.6,2.2H118.4z M106.8,309.4
	c-0.5-0.8-1.3-1.5-1.8-1.5c-0.3,0-0.7-0.3-1.1-0.6H82.4c-0.2,0.1-0.4,0.2-0.6,0.3c-4.6,2.2-6,2.3-6.6,0.7c-0.1-0.4-0.2-0.7-0.2-1
	h-5.8c-0.8,0.7-1.1,1.3-1.2,2.2C67.9,309.4,106.8,309.4,106.8,309.4z M101.3,304.8c-0.7-0.6-1.1-0.5-1.6-0.1l-0.1,0.1
	C99.5,304.8,101.3,304.8,101.3,304.8z M95.2,304.8c-0.6-0.4-1.1-0.9-1.8-1.5c-0.2-0.2-0.5-0.4-0.7-0.6h-8.4c0,0.3,0,0.5,0,0.9
	c0,0.5,0,0.9,0,1.3H95.2z M88.4,300.1C88.4,300.1,88.4,300,88.4,300.1c0-0.7-0.7-0.7-2.6,0H88.4L88.4,300.1z M75.2,304.8
	c-0.2-0.9-0.6-1.8-1.1-2.2h-0.6c-0.3,0.2-0.5,0.5-0.6,0.9c-0.1,0.4-0.4,0.8-0.8,1.2H75.2L75.2,304.8z M267.2,331.6
	c0.2-0.2,0.4-0.6,0.6-1h-10.7c1.8,0.9,3.6,1.3,5.2,1c0.9-0.2,1.8,0,2,0.4C264.9,332.9,266.2,332.8,267.2,331.6L267.2,331.6z
	 M268.9,328.1c0.3-0.7,0.5-1.4,0.7-2.2h-18c0.6,0.8,1.3,1.5,2,2.2H268.9L268.9,328.1z M270.5,323.4c0.2-0.7,0.4-1.5,0.6-2.2h-22.2
	l0.2,0.4c0.3,0.6,0.7,1.2,1,1.8L270.5,323.4L270.5,323.4z M271.9,318.8c0.1-0.2,0.2-0.3,0.4-0.4c0.4-0.4,0.9-1,1.3-1.8h-26.7
	c0.1,0.4,0.4,1.2,0.7,2.2H271.9z M274.6,314.1c0.2-0.7,0.4-1.5,0.5-2.2h-32.1c0,1.1,0.2,1.5,1.4,2.2H274.6L274.6,314.1z
	 M275.6,309.4c0.2-0.7,0.5-1.2,0.7-1.5c0.2-0.2,0.3-0.4,0.4-0.6h-33.6c0.1,0.5,0.1,1.3,0,2.2H275.6L275.6,309.4z M277.6,304.8
	c0.1-0.7,0.1-1.4,0.1-2.2h-41.3l0.1,0.1c1.3,1.1,2.8,2,3.4,2.1H277.6L277.6,304.8z M277.6,300.1c-0.1-0.7-0.2-1.5-0.4-2.2h-42
	l-0.8,2.2H277.6L277.6,300.1z M276.6,295.5c-0.2-0.9-0.4-1.6-0.5-2.2h-39.3c-0.2,0.7-0.5,1.5-0.7,2.2H276.6z M276.3,290.8
	c0-0.2,0.1-0.4,0.2-0.5l0.6-1.6h-39c0,0.4-0.1,0.7-0.3,1.2c-0.1,0.3-0.2,0.6-0.3,1L276.3,290.8L276.3,290.8z M278.1,286.1l0.8-2.1v0
	h-41.4c0.4,0.7,0.6,1.5,0.7,2.2L278.1,286.1L278.1,286.1z M280,281.5c0.5-1,0.9-1.8,1.3-2.2h-47.5l0,0c0.7,0.8,1.4,1.5,1.9,2.1H280
	L280,281.5z M282.2,276.8c0-0.6-0.1-1.2-0.2-2.2v0h-52.6c0.7,0.7,1.3,1.5,2,2.2L282.2,276.8L282.2,276.8z M281.8,272.1l-0.1-1.2
	l1.8-0.4c0.5-0.1,1.1-0.3,1.7-0.6h-59.7c0.5,0.7,1.1,1.4,1.8,2.2H281.8z M288.8,267.5c0.1-0.1,0.2-0.3,0.2-0.4
	c0.4-1.2,3.4-1.1,5.1,0c0.2,0.2,0.5,0.3,0.8,0.4h4c0.9-0.2,1.9-0.5,3-0.9c1.5-0.5,2.3-0.5,3.5,0c2.8,1.3,4.7,1,7.2-1.3h-90.5
	c0.3,0.4,0.7,1,1,1.5c0.1,0.2,0.2,0.4,0.4,0.6L288.8,267.5L288.8,267.5z M315,262.8c0.7-0.9,1.2-1.7,1.4-2.2h-83
	c-0.3,0.3-0.7,0.3-1.7,0.2c-1.1-0.1-2,0.1-2,0.4c0,1.3-2.2,1.9-4,1c-1-0.5-2.5-1.1-3.5-1.3c-1.7-0.4-1.8-0.4-1.4,1.6
	c0,0.1,0,0.2,0,0.3L315,262.8L315,262.8z M318.4,258.2c0.1-0.1,0.3-0.2,0.4-0.3c0.9-0.6,1.6-1.2,2.2-1.8h-87.1
	c0,0.5-0.1,1.3-0.1,2.2L318.4,258.2L318.4,258.2z M322.1,253.5c0.1-0.7,0.1-1.4,0.1-2.2h-84c0,0.1,0,0.3,0,0.4
	c0,0.9-0.2,1.4-0.8,1.8H322.1z M321.9,248.8c-0.1-0.7-0.1-1.4-0.2-2.2h-80.6c-0.4,0.5-0.7,1-1.1,1.5c-0.2,0.2-0.4,0.4-0.6,0.7H321.9
	L321.9,248.8z M321.6,244.2c0-0.2,0-0.4,0-0.5c0-0.6,0-1.1-0.1-1.6h-78.4c-0.4,0.7-0.7,1.5-0.9,2.2L321.6,244.2L321.6,244.2z
	 M321,239.5c-0.2-0.7-0.5-1.5-1-2.2h-75.8c0,0.2,0,0.5,0,0.7c0,0.4,0,1-0.2,1.5H321L321,239.5z M318.2,234.8c-0.3-0.3-0.6-0.7-0.9-1
	c-0.4-0.4-0.7-0.7-1-1.1h-69.8c-0.2,0.4-0.4,0.7-0.7,1.1c-0.3,0.4-0.5,0.7-0.7,1H318.2z M314.7,230.2c0,0,0-0.1,0-0.1
	c-0.2-0.7-0.7-1.4-1-1.4s-0.7-0.3-1.2-0.7H225c-0.1,0.5-0.4,1.2-0.8,2.2h20c0.4-0.4,0.8-0.6,1.3-0.6c0.7,0,1.2,0.2,1.5,0.6H314.7z
	 M310.3,225.5c-0.5-0.7-1-1.4-1.4-2.2h-32.1c-1.1,0.1-2,0.3-2.3,0.4c-0.6,0.3-2.3,0.9-3.9,1.4c-0.4,0.1-0.7,0.2-1,0.3L310.3,225.5
	L310.3,225.5z M307.8,220.9c-0.4-1.1-0.7-1.8-1.2-2.2h-4.4l-0.5,0.1c-1.4,0.2-2.3,0.2-3.3-0.1h-17.6c0,0.6,0.2,1.2,0.5,1.8l0.2,0.3
	L307.8,220.9L307.8,220.9z M267.3,225.5c-0.2-0.1-0.4-0.3-0.5-0.5c-1.1-1.2-2.2-1.4-3.7-0.6c-0.8,0.4-1.5,0.8-2.3,1.1H267.3z
	 M245.1,225.5c-0.5-0.7-0.9-1.4-1.2-2.2H111.7c0.1,0.5,0.1,1.2,0,2.2H245.1z M243.1,220.9c-0.1-0.8-0.1-1.6,0-2.2H108.6
	c0,0.5,0.4,1.2,1.4,2.2H243.1L243.1,220.9z M250,216.2c0.6,0,1.2,0,1.8,0l0.5,0h1.6c0.9-0.1,1-0.5,1.1-1.7c0-0.2,0-0.3,0.1-0.5
	h-33.3c0.1,1.1,0,1.7-0.4,2.2H250z M256.1,211.5c0.3-0.7-0.2-1.4-1.6-2.2h-31.7c-0.7,0.8-1,1.4-1.1,2.2H256.1z M248.2,206.9
	c-1.7-0.5-2.6-0.4-4.5,0H248.2z M234.1,206.9c-0.1-0.5,0.1-1.2,0.7-2.2h-9.5c-0.2,0.4-0.3,0.8-0.3,1.1c0,0.3-0.1,0.6-0.4,1.1H234.1z
	 M236.9,202.2l0.1-0.1c0.7-0.7,1.3-1.4,1.8-2h-11.6c0.1,0.8,0,1.5-0.3,2.2L236.9,202.2L236.9,202.2z M240.1,197.5
	c0.2-0.9,1.3-1.5,2.7-1.5c0.5,0,0.8,0.5,0.8,1.5h3c0.2-0.6,0.6-1.1,1-1.3c0.8-0.3,2.1,0.3,3,1.3h49.5c0.2-0.9,0.5-1.6,1-2.2H222
	c2.5,0.6,3.4,1.1,4.1,2.2H240.1L240.1,197.5z M251.9,200.1c0.3,0.8,0.9,1.6,1.4,1.9c0.1,0,0.2,0.1,0.3,0.2h18.8
	c0.8-0.6,1.5-1.2,1.8-1.7c0.1-0.2,0.3-0.4,0.4-0.5L251.9,200.1L251.9,200.1z M254.5,204.7c0,0.8,0.3,1.5,0.8,2.2h11.9
	c0.4-1,0.7-1.7,1.1-2.2H254.5L254.5,204.7z M260.5,209.4c0.4,0.4,0.6,1.1,0.7,2.2h4c0.5-0.6,0.9-1.3,1.2-2.2H260.5L260.5,209.4z
	 M277.4,200.1c0,0.1,0,0.2,0,0.4c0,0.6-0.2,1.2-0.5,1.8h3.7c1.1-1.1,2-1.9,2.1-1.9s1.2,0.5,2.5,1.2c0.5,0.3,1,0.5,1.6,0.7h13.6
	c-0.1-0.4-0.2-1-0.3-1.7c0-0.1,0-0.3,0-0.4L277.4,200.1L277.4,200.1z M274.8,204.7c-0.7,0.6-1.6,1.1-2.5,1.6
	c-0.4,0.2-0.8,0.4-1.2,0.6h4.8c0.6-0.6,1.3-1.4,2.1-2.2H274.8L274.8,204.7z M270.5,209.4c0.5,0.4,0.8,0.9,0.8,1.1c0,0.4,0,0.7,0,1.1
	h1.9c0.1-0.2,0.2-0.4,0.2-0.7c0.1-0.4,0.4-1,0.7-1.5H270.5L270.5,209.4z M292.7,204.7c0.3,0.5,0.4,1,0.4,1.5c0,0.2,0.1,0.4,0.2,0.6
	h16.8c0-0.2,0-0.4,0.1-0.5c0.1-0.4,0.1-1.1,0-1.6H292.7L292.7,204.7z M296.8,209.4c0.4,0.5,0.8,1.2,1.2,2l0.1,0.2h11.7
	c0.1-0.5,0.1-1,0.1-1.6c0-0.2,0-0.4,0-0.6H296.8L296.8,209.4z M299.7,214c0.5,0.5,1,0.7,1.4,0.4c0.3-0.2,1.2,0.2,2.2,0.7
	c1.6,0.9,1.8,0.9,3.6,0c0.7-0.4,1.2-0.7,1.7-1.1H299.7L299.7,214z M308.8,202.2c-0.1,0-0.3,0-0.4,0H308.8z M303.9,192.9
	c-0.3-0.7-1-1.6-1.7-2.2H78.5c0,0.4,0.1,0.8,0.2,1.2c0,0.3,0.1,0.6,0.2,0.9L303.9,192.9L303.9,192.9z M296.4,188.2
	c-0.8-0.6-1.7-1.3-2.7-2.2H78.5c-0.2,0.7-0.3,1.4-0.3,2.2H296.4z M291,183.6c-0.4-0.4-0.9-0.8-1.4-1.3l-0.9-0.9H81.9
	c-0.3,0.1-0.6,0.2-1.1,0.3c-0.6,0.1-1.1,0.7-1.6,1.9L291,183.6L291,183.6z M286.2,178.9c-0.9-0.9-1.5-1.6-1.9-2.2h-3.1l-0.1,1.1
	l-4,0.4c-3.1,0.3-4.3,0.1-5.5-0.6c-0.9-0.6-2.1-0.8-3.3-0.6c-1,0.2-1.6,0.2-2-0.2H82.6c0.2,0.5,0.3,0.9,0.4,1.2
	c0,0.4,0.1,0.7,0.1,0.9H286.2z M283.5,174.2c0-0.1,0-0.3,0-0.4c0-0.8-0.1-1.4-0.2-1.8h-1c-0.3,0.4-0.5,1.2-0.7,2.2L283.5,174.2
	L283.5,174.2z M265.2,174.2c-0.1-0.3-0.1-0.5-0.2-0.8c-0.2-0.6-0.3-1.1-0.4-1.4H79.8c0.5,0.7,1,1.5,1.4,2.2H265.2L265.2,174.2z
	 M258.9,169.6c0-0.2,0-0.4-0.1-0.7c0-0.6-0.1-1.1-0.3-1.5H75.7c0.7,0.5,1.4,1.3,2.2,2.2H258.9L258.9,169.6z M256,164.9
	c-0.3-0.1-0.6-0.2-1-0.3c-1.9-0.6-3-1.2-3.3-1.8H52.3c0.7,0.7,1.3,1.4,1.8,2.2L256,164.9L256,164.9z M254,160.2
	c1.6-0.8,3.4-0.8,5.5-0.1l0.3,0.1h2.3c0.3-0.4,0.4-1.1,0.5-2.2H24c0.2,0.1,0.4,0.1,0.7,0.2c0.8,0.2,1.8,1.1,2.2,2h20.5
	c0.6-0.3,1-0.3,1.6,0L254,160.2L254,160.2z M262.8,155.6c0-0.8,0-1.5-0.1-2.2H17.5l-0.1,1.6l1.6,0.6H262.8L262.8,155.6z
	 M261.9,150.9c-0.2-0.5-0.5-1.1-0.8-1.7c-0.1-0.2-0.2-0.4-0.3-0.5h-18.1c-0.5,0.4-1.1,0.6-1.5,0.6c-0.3,0-0.6-0.2-0.8-0.6H17.7
	c0,0.5,0,1.2-0.1,2.2H261.9L261.9,150.9z M259.8,146.3c-0.3-0.8-0.5-1.5-0.6-2.2H245c-0.1,0.4-0.1,0.8-0.1,1.3
	c0,0.3-0.1,0.6-0.2,0.8L259.8,146.3L259.8,146.3z M263.2,144.1c0.5,0.8,0.8,1.6,0.7,2.2h16c-0.4-0.7-0.9-1.4-1.2-2.2H263.2z
	 M265.3,148.8c0.7,0.7,1.5,1.5,2.1,2.2h17.9c-0.4-0.2-0.8-0.5-1.4-0.7c-0.6-0.4-1.3-0.8-1.9-1.4L265.3,148.8L265.3,148.8z
	 M269.9,153.4c0.3,0.7,0.5,1.5,0.6,2.2h17.8c0-0.9-0.1-1.6-0.4-2.2H269.9L269.9,153.4z M270.1,158.1c-0.2,0.4-0.4,0.8-0.7,1.1
	c-0.2,0.3-0.4,0.7-0.5,1h18.7c0-0.1,0.1-0.2,0.2-0.3c0.2-0.2,0.4-1,0.5-1.9L270.1,158.1L270.1,158.1z M268.4,162.8
	c0,0.7,0.2,1.4,0.6,1.6c0.1,0,0.3,0.3,0.5,0.5h9.1c0.4-0.5,0.8-0.8,1.1-0.8c0.4,0,1,0.4,1.2,0.7l0,0.1h4.7c0.6-0.7,1.1-1.5,1.3-2.2
	L268.4,162.8L268.4,162.8z M271,167.4c0.2,0.3,0.4,0.6,0.5,0.9c0.2,0.4,0.5,0.8,0.7,1.2h4.4c0.1-0.3,0.2-0.6,0.2-0.9
	c0-0.4,0.1-0.8,0.3-1.2H271z M277.6,141.6c-0.3-0.4-0.6-0.7-0.9-0.9c-0.4-0.3-0.7-0.7-1-1.2h-27.1c-0.3,0.3-0.6,0.6-1.1,1
	c-0.6,0.4-1,0.8-1.4,1.2H277.6L277.6,141.6z M274.8,136.9c-0.4-0.7-0.9-1.4-1.5-2.2h-37.6c-0.4,0.5-0.7,1.1-0.9,1.7
	c0,0.2-0.1,0.3-0.1,0.5h10.6c0.8-0.4,1.8-0.7,2.9-0.7c0.2,0,0.5,0.3,0.7,0.7L274.8,136.9L274.8,136.9z M271.3,132.3
	c-0.5-0.7-1.1-1.5-1.5-2.2h-27.8c-0.4,0.2-0.7,0.4-1,0.6c-0.4,0.4-1.3,1-2.2,1.6H271.3L271.3,132.3z M268.4,127.6
	c-0.6-1-1.2-1.7-1.9-2.2h-14.7l1.1,1.2h-2.2c-1.3,0-2.2,0.3-2.9,1H268.4L268.4,127.6z M258.7,122.9c-1.6-0.7-3-0.9-5-1
	c-2.3,0-3.5,0.2-3.5,1H258.7z M235.1,139.4c0.1,0,0.1,0.1,0.2,0.2c0.7,0.5,1.6,0.7,2.1,0.5c0.5-0.2,1.1,0,1.4,0.4
	c0.5,0.8,2.6,0.1,4-1.1L235.1,139.4L235.1,139.4z M239,146.3c-0.2-0.1-0.4-0.3-0.7-0.4c-0.7-0.3-1.8-1-2.6-1.8H14.6
	c0.1,0.2,0.3,0.4,0.4,0.6c0.3,0.6,0.7,1.1,1.1,1.6H239z M231.4,141.6c-1-0.2-2.1-0.4-3.6-0.4c-0.6,0-0.6-0.9-0.1-1.7h-36.9
	c0.2,0.6,0.1,1.3-0.3,2.2L231.4,141.6L231.4,141.6z M229.6,136.9c0.3-0.7,0.1-1.5-0.3-2.2h-2.5c0,0.1,0,0.1,0,0.2
	c0,0.8-0.2,1.5-0.4,1.9H229.6L229.6,136.9z M222.2,136.9c-0.1-0.2-0.3-0.4-0.4-0.6c-0.3-0.5-0.8-1.1-1.5-1.6h-35.5
	c0.1,0.3,0.2,0.5,0.3,0.8c0.2,0.6,0.4,1,0.6,1.4H222.2L222.2,136.9z M216,132.3c-1.7-0.7-3.2-1-3.2-0.2c0,0.1,0,0.2,0,0.2H216z
	 M209.1,132.3c-0.1,0-0.2-0.1-0.3-0.2c-1-1-1.8-1.2-2.9-1c-1,0.3-1.7,0-2.8-1h-19c0,0.7,0,1.5,0.1,2.2L209.1,132.3L209.1,132.3z
	 M194.1,127.6c-0.2-0.5-0.4-1.3-0.5-2.2h-8.7c-0.2,0.7-0.4,1.4-0.5,2.2H194.1z M193.5,122.9c0-0.7-0.1-1.5-0.2-2.2h-7.1
	c0,0.7-0.2,1.5-0.3,2.2H193.5L193.5,122.9z M192.6,118.3c0-0.2,0.1-0.3,0.3-0.4c0.4-0.2-0.1-0.9-1.2-1.5c-0.1,0-0.2-0.1-0.3-0.2
	h-6.2c0,0.1,0.2,0.3,0.3,0.4c0.3,0.3,0.5,1,0.6,1.8L192.6,118.3L192.6,118.3z M183.2,141.6c-0.6-0.6-1.2-1.4-1.8-2.2H7.5
	c-0.2,0.6-0.4,1.1-0.6,1.4c-0.7,0.8-3,0.5-3-0.4c0-0.9-2.2-0.6-3.3,0.4c-0.2,0.2-0.4,0.5-0.6,0.7H183.2L183.2,141.6z M180.1,136.9
	c-0.3-0.7-0.4-1.3-0.4-1.9c0-0.1,0-0.2,0-0.3h-2.9c0,0.8-0.1,1.5-0.2,2.2H180.1z M179.1,132.3c-0.4-1.1-1-2-1.6-2
	c-0.3,0-0.6,0.7-0.7,2H179.1L179.1,132.3z M171.3,136.9c-0.1-0.1-0.1-0.3-0.1-0.4c0-0.4,0.3-1.1,0.6-1.8H12.4
	c-0.4,0.2-0.7,0.2-0.7,0.1c0-0.2-0.8,0-1.7,0.3c-1.1,0.4-1.6,0.8-1.8,1.8L171.3,136.9L171.3,136.9z M172.9,132.3
	c0.2-0.6,0.3-1.3,0.4-1.8l0-0.3H37.6c-0.3,0.1-0.5,0.2-0.6,0.2c-0.4,0-1.7,0.7-2.8,1.5c-0.3,0.2-0.5,0.4-0.7,0.5L172.9,132.3
	L172.9,132.3z M173.8,127.6c0.4-0.7,0.9-0.9,1.9-0.8c1.3,0.1,2.8-0.5,3.9-1.3h-7.8c-0.3,1-1,1-2.1,0.5c-0.3-0.1-0.6-0.3-0.8-0.5
	H49.3c-0.8,1.1-2.7,1.9-5.1,2.2c0,0-0.1,0-0.2,0H173.8L173.8,127.6z M180.9,122.9c0.1-0.7,0.3-1.4,0.4-2.2h-9.1
	c0,0.4-0.1,0.9-0.1,1.4c0,0.3,0,0.5,0,0.7H180.9z M181.5,118.3c0-0.7,0-1.5,0-2.2h-3.3c-0.1,0.1-0.3,0.2-0.4,0.3
	c-1.8,0.8-3,1.4-3.9,1.9L181.5,118.3L181.5,118.3z M181,113.6c-0.4-0.8-0.6-0.9-1.1,0H181z M168.1,122.9c0-0.7,0-1.5-0.1-2.2H96v0.1
	l-2.1-0.1h-4c-1.4,0.1-2.9,0.4-4,0.7c-3.1,0.9-5.7,0.8-5.1-0.2c0-0.1,0-0.3,0-0.5H62.1c-0.3,1.1-0.5,1.7-1.3,2.2H168.1z
	 M168.1,118.3c0.3-0.6,0.8-1.3,1.5-2.2H96.4c-0.1,0.6-0.2,1.2-0.3,1.8v0.3H168.1z M171.6,113.6c0.4-0.7,0.4-1.1,0.1-1.6
	c-0.1-0.2-0.2-0.4-0.4-0.6h-53.1c-1.2,0.9-2.1,1.1-3.4,0.9c-1.1-0.2-3.7,0.1-5.7,0.6c-3.7,0.9-3.8,0.8-5.8-0.6
	c-0.6-0.4-1.1-0.7-1.5-0.9h-1.9c0,0,0,0,0,0.1c0,0.4-0.4,0.6-0.8,0.6c-0.6,0-1.2,0.6-1.8,1.5H171.6L171.6,113.6z M166.4,109
	c-0.2-0.3-0.3-0.7-0.4-1.1c0-0.1-0.2-0.5-0.6-1.1h-33.7c0.1,0.1,0.1,0.2,0.1,0.3c0,0.4,0.4,1.1,0.9,1.6c0.1,0.1,0.2,0.2,0.2,0.3
	H166.4z M163.8,104.3c-0.7-0.7-1.2-1-1.6-0.9c-0.5,0.2-0.7,0.2-0.5,0c0.1-0.1-0.1-0.6-0.6-1.3h-35.2c0.5,0.6,1.3,1.3,2.7,2.2
	L163.8,104.3L163.8,104.3z M128,109c-0.7-0.5-1.2-1-1.4-1.2c-0.7-0.9-1-0.9-3,0c-1.1,0.5-2.2,1-2.5,1.3L128,109L128,109z
	 M79.9,118.3c-0.3-0.7-0.5-1.5-0.6-2c0,0,0-0.1,0-0.2h-5c-2,1.2-4.9,1.7-5.5,0.7c-0.5-0.8-3.8,0.1-5.2,1.3c0,0-0.1,0.1-0.1,0.1
	L79.9,118.3L79.9,118.3z M55.4,122.9c-2.7-1.4-4.4-1.4-5.1,0H55.4z M28.7,132.3c0-0.1,0-0.1,0-0.2c0-0.5-0.3-1.2-0.8-1.9h-7.1
	c-1.1,0.4-2,0.7-2.4,0.7c-0.6,0-1.6,0.6-2.2,1.3c0,0-0.1,0.1-0.1,0.1C16.1,132.3,28.7,132.3,28.7,132.3z M0.1,144.1
	c0.3,0.5,0.7,1.1,1.3,1.7l0.4,0.4h4.2l1.7-0.9c0.9-0.5,1.7-0.9,2.5-1.3L0.1,144.1L0.1,144.1z M33.9,162.8c0.4,0.3,0.8,0.7,1.3,1.3
	c0.3,0.4,0.6,0.7,0.8,0.9h8.3c-0.7-0.7-1.2-1.5-1.6-2.2H33.9z M43.4,167.4c0,0.3,0,0.6,0,0.9c-0.1,0.4-0.1,0.9-0.2,1.3h4.1
	c-0.4-0.5-0.6-1-0.6-1.2c0-0.2-0.1-0.5-0.4-0.9L43.4,167.4L43.4,167.4z M42.9,172.1c0,0.8,0,1.5,0,2.2h8.6c-0.4-0.6-1.1-1.3-1.9-2.2
	H42.9z M43.2,176.7c0.2,0.8,0.6,1.5,1,2.2h8c-0.1-0.9-0.3-1.7-0.5-2.2C51.7,176.7,43.2,176.7,43.2,176.7z M47.3,181.4
	c0.7,0.6,1.5,1.5,1.8,2.2h3c0.1-0.7,0.1-1.4,0.2-2.2H47.3L47.3,181.4z M56.7,167.4c0.4,0.1,0.8,0.1,1.1,0H56.7z M79.6,195.4
	c0.3,0.8,0.5,1.4,0.7,1.5c0.1,0.1,0.3,0.4,0.5,0.6h120.4c0-0.3,0.2-0.5,0.3-0.7c0.4-0.4,1.5-0.8,2.4-0.8c1.1,0,1.8,0.4,2.6,1.5h7.3
	c0.2-1.1,0.7-1.5,1.9-2.1l0.1,0C215.7,195.4,79.6,195.4,79.6,195.4z M82.3,200.1c0.4,0.7,1,1.4,1.7,2.2h117.7
	c-0.2-0.7-0.4-1.5-0.5-2.2H82.3z M86.4,204.7c1.1,1,2,1.6,2.4,1.6c0.3,0,1.1,0.2,2,0.5h125.1c0.6-0.7,1.1-1.6,1.2-2.2h-11.1
	c-1.1,1.3-2.1,1.3-3,0L86.4,204.7L86.4,204.7z M94.7,209.4c0.4,0.5,0.7,1.2,1.2,2.2h12.7c0.2-0.2,0.5-0.4,0.8-0.4
	c0.2,0,0.5,0.1,0.9,0.4h103.5c0.1-0.7,0.3-1.5,0.6-2.2H94.7L94.7,209.4z M97.1,214c0.4,0.9,0.6,1.6,0.7,2.2h4.4
	c0.1-0.4,0.2-1.1,0.2-2.2H97.1z M97.3,218.7c-0.4,1.1-0.4,1.5,0.1,2.2h2.2c0.1-0.7,0.1-1.5-0.1-1.8c0-0.1-0.1-0.2-0.1-0.4H97.3z
	 M113.2,214c0.7,0.7,1.1,1.5,1.1,1.8c0,0.1,0,0.2-0.1,0.3h99.5c-0.2-0.6-0.3-1.3-0.2-2.2L113.2,214L113.2,214z M111.4,228
	c-0.1,0.9-0.4,1.6-0.6,2.2h106.8c0.4-1,0.8-1.7,1.3-2.2C218.9,228,111.4,228,111.4,228z M109.3,232.7c0.1,0.4,0.4,1,0.7,1.8
	c0,0.1,0.1,0.3,0.2,0.4h99.4c1.1-0.4,2.2-0.7,2.9-0.7c1.6,0,2.7-0.4,3.7-1.5H109.3L109.3,232.7z M111.7,237.4
	c0.5,0.7,1.1,1.5,1.8,2.2h80c0.7-0.5,1.4-0.9,1.9-1.1c0.7-0.3,2.9-0.7,4.7-0.9c0.5,0,0.9-0.1,1.4-0.2H111.7L111.7,237.4z M116.1,242
	c1,0.8,1.9,1.3,2.6,1.5c0.6,0.1,1.5,0.4,2.4,0.7h67.6c0.2-0.5,0.9-1.3,1.8-2.2C190.4,242,116.1,242,116.1,242z M132.6,246.7
	c0.3,0.5,0.4,1.3,0.4,2.2h19.4c0-0.1,0.1-0.2,0.2-0.3c0.6-0.7,1.1-1.4,1.4-1.9L132.6,246.7L132.6,246.7z M132.7,251.3
	c-0.2,0.8-0.5,1.6-0.9,2.2h14.5c0.6-1.7,1.5-2.4,2.6-1.8s2,0.4,2.3-0.4H132.7L132.7,251.3z M129.8,256c-0.4,0.7-0.7,1.5-0.9,2.2
	h10.8c0.2-0.3,0.7-0.4,1.6-0.4c0.4,0,0.7,0.2,1,0.4h3.1l0-0.5c0-0.6,0.1-1.1,0.2-1.7H129.8L129.8,256z M128.7,260.7
	c0.1,0.7,0.5,1.5,0.9,2.2h6.3c0.2-0.2,0.4-0.4,0.7-0.7c0.5-0.5,1-1,1.4-1.5C138,260.7,128.7,260.7,128.7,260.7z M144.1,260.7
	c0,0.4,0,0.7-0.2,0.9c-0.1,0.2-0.4,0.6-0.6,1.2h1.5c0.1-0.7,0.2-1.4,0.3-2.2L144.1,260.7L144.1,260.7z M142.4,265.3
	c-0.3,0.7-0.6,1.5-1,2.2h2.3c0.3-0.6,0.5-1.3,0.7-2.2H142.4L142.4,265.3z M139.5,270c-0.5,0.7-1.1,1.5-1.5,2.2h2.1
	c0.7-0.8,1.4-1.6,1.8-2.1l0.1-0.1H139.5L139.5,270z M136.8,274.6c0,0.2,0,0.4,0,0.4c0.1,0.1,0.5,0,1-0.4H136.8z M164.4,246.7
	c0.7,0.7,1.7,1.5,2.6,2.2h17.8c0.2-0.3,0.4-0.7,0.5-1.1c0.1-0.4,0.3-0.7,0.5-1.1H164.4z M170.2,251.3c0.6,0.7,1.1,1.4,1.4,2.2h11.3
	c0.4-0.7,0.6-1.5,0.7-2.2H170.2z M172.4,256c0.2,0.4,0.4,0.9,0.7,1.3c0.2,0.3,0.4,0.6,0.5,0.9h7c0.3-0.7,0.6-1.5,0.9-2.2H172.4z
	 M174.6,260.7c0.5,0.7,1.2,1.5,1.9,2.2h2.7c0.2-0.6,0.4-1.4,0.7-2.2H174.6L174.6,260.7z M222.9,232.7c-0.4,0.9-0.6,1.8-0.6,2.2h18.7
	c0.4-0.8,0.8-1.5,1.2-2.2H222.9z M218.7,237.4L218.7,237.4c0,0.9-0.3,1.6-0.7,2.2h20.6c0.4-0.7,0.7-1.4,1.1-2.2L218.7,237.4
	L218.7,237.4z M213.8,239.5c-0.8-1.3-3-1.5-3-0.3c0,0.1,0,0.2-0.1,0.3H213.8z M207.8,242c-0.7,0.6-1.2,1.1-1.2,1.4
	c0,0.2,0.1,0.4,0.3,0.8h29.3c0.1-0.1,0.1-0.3,0.2-0.4c0.2-0.4,0.5-1,0.9-1.8L207.8,242L207.8,242z M209.1,246.7
	c0.8,0.7,1.7,1.5,2.6,2.2h21.1c0.2-0.3,0.4-0.5,0.6-0.7c0.4-0.4,0.8-0.9,1.2-1.5H209.1z M216.4,251.3c0.2,0.1,0.4,0.2,0.5,0.3
	c0.5,0.3,2.4,0.8,4.2,1.2c0.9,0.2,1.8,0.4,2.6,0.7h6.7c0.1-0.3,0.2-0.7,0.3-1.1c0-0.3,0.2-0.7,0.4-1L216.4,251.3L216.4,251.3z
	 M218.2,202.2c0-0.4-1-0.7-2.6-0.4l-2.5,0.4l0.1-2.1h-5.7c0.2,0.7,0.1,1.4-0.2,2.2L218.2,202.2L218.2,202.2z M229.9,314.1
	c0.2-0.4,0.4-0.8,0.6-1.1c0.3-0.4,0.4-0.7,0.5-1H224c0.3,0.9,0.6,1.6,0.9,2.2L229.9,314.1L229.9,314.1z M230.5,309.4
	c-0.2-0.7-0.3-1.5-0.3-2.2h-7.5c0.4,0.8,0.6,1.5,0.6,1.8c0,0.1,0,0.3,0.1,0.4L230.5,309.4L230.5,309.4z M230.2,304.8
	c-0.2-1.1-0.8-1.3-2.7-1.7c-0.6-0.1-1.1-0.3-1.5-0.4h-5.4c0.3,0.7,0.6,1.5,0.9,2.1l0,0.1H230.2L230.2,304.8z M224.7,300.1
	c-0.2-0.8-0.6-1.6-1.1-2.2h-3.8c0,0.3,0,0.7,0,1.3c0,0.2,0.1,0.5,0.1,0.8L224.7,300.1L224.7,300.1z M66.8,295.1
	c0.7-0.7,1.6-1.2,2.1-1.2c0.5,0,2.2-0.1,3.7-0.2c1.1,0,2.1-0.2,3-0.4h-9.7c-0.4,0.9-1,1.6-1.2,1.7c-0.2,0.1-0.4,0.2-0.4,0.4h2.2
	C66.5,295.3,66.6,295.2,66.8,295.1L66.8,295.1z M81.5,290.8c0.7-0.5,1.5-1.1,2.2-1.7c0.2-0.2,0.4-0.3,0.5-0.4H71.3
	c-0.3,0.4-0.6,0.8-0.9,1.3c-0.2,0.4-0.6,0.7-1.1,0.9H81.5z M88,286.1c0.6-0.2,1.1-0.2,1.5-0.1c0.3,0,0.6-0.6,0.8-1.5
	c0-0.2,0.1-0.4,0.2-0.6h-3.7c-0.5,0.4-1,0.4-1.9,0h-3.7c-0.3,0.1-0.5,0.3-0.8,0.5c-0.9,0.6-2.4,1.2-3.7,1.6L88,286.1L88,286.1z
	 M91.6,281.5c-0.4-0.3-1.1-0.3-1.8,0H91.6z M103.3,295.1c0-0.3-0.4-0.6-0.9-0.6c-1.1,0-1.1,0.4,0,0.8
	C102.9,295.5,103.3,295.5,103.3,295.1L103.3,295.1z M131,290.8c0,0-0.1,0-0.2-0.1c-1.5-0.6-4.4-0.5-6.6,0.1H131z M121.7,293.3
	c0.5,0.6,0.7,0.7,3.1,0H121.7z M112,286.1c0.5-0.6,0.6-1.6,0.2-2.2h-4.9c-0.3,0.7-0.3,1.5-0.1,2.2H112L112,286.1z M110.5,281.5
	c-0.2-0.8-0.7-1.7-1.3-2.2h-2.6c-0.4,0.3-0.6,0.5-0.4,0.7c0.2,0.3,0.7,0.4,1.2,0.2c0.8-0.3,1.4,0.4,1.3,1.2L110.5,281.5L110.5,281.5
	z M109.4,288.6c0.1,0.6,0.9,0.6,1.4,0H109.4z M136.6,285.8c0.4-0.5,1.2-0.9,1.8-1c0.7,0,1.5-0.4,2-0.9h-4.8c-0.4,1-0.5,1.8-0.3,2.2
	h1C136.3,286,136.4,285.9,136.6,285.8L136.6,285.8z M141.8,281.5c0.3-0.6,0.9-1.3,1.6-2.2h-5.2l-0.1,0.1c-0.5,0.4-1,1.2-1.5,2.1
	L141.8,281.5L141.8,281.5z M146,276.8c0.9-0.9,1.6-1.7,1.8-2.2h-1.3c-1.1,0.4-2.8,1.3-4.4,2.2H146L146,276.8z M126.2,281.5
	c0.1-0.5,0-1.2-0.2-2.2h-11.6c0.2,0.8,0.6,1.5,0.9,2.2C115.3,281.5,126.2,281.5,126.2,281.5z M124.6,276.8c-0.4-0.2-0.8-0.4-1.3-0.7
	c-1-0.4-1.9-1-2.5-1.5h-6.8c-0.1,0.7-0.1,1.4,0,2.2L124.6,276.8L124.6,276.8z M118.1,272.1c-0.1,0-0.1-0.1-0.2-0.1
	c-1.8-1-1.8-1.1-2.9,0.1H118.1z M99.1,279.4c0,0,0-0.1,0-0.1H98c0,0,0,0.1,0,0.1c0,0.4,0.3,0.6,0.6,0.6S99.2,279.8,99.1,279.4
	L99.1,279.4z M104.2,267.5L104.2,267.5c-0.2,0-0.4,0-0.6,0C103.7,267.5,104.2,267.5,104.2,267.5z M174.6,267.2
	c0-0.4-0.2-1.1-0.5-1.6c-0.1-0.1-0.2-0.3-0.3-0.3h-0.5c-0.4,0.3-0.5,1-0.3,1.8c0,0.1,0.1,0.3,0.2,0.4h1.3
	C174.6,267.4,174.6,267.3,174.6,267.2L174.6,267.2z M109.4,257c0.1-0.3,0.2-0.6,0.2-0.9h-2.5c-0.1,0.4-0.2,0.6-0.2,0.8
	C106.9,257.1,109.3,257.3,109.4,257L109.4,257z M109.7,253.5c-0.1-0.5-0.2-0.9-0.4-1c-0.4-0.3-0.6-0.2-0.3,0.3
	c0.2,0.4,0.2,0.7-0.1,0.7c0,0,0,0-0.1,0L109.7,253.5L109.7,253.5z M364,248.9c0-0.2,0-0.4-0.1-0.5c-0.3-0.8-0.4-0.7-1.3,0
	c-0.2,0.2-0.3,0.3-0.4,0.4L364,248.9L364,248.9z M127.3,248.9c-0.2-0.1-0.5-0.2-0.8-0.2s-0.5,0.1-0.7,0.2H127.3L127.3,248.9z
	 M405.7,244.2c-0.6-0.8-2.9-1.7-3.9-1.3c-1.1,0.4-1.1,0.5,0.1,1.3l0,0H405.7L405.7,244.2z M109.9,243.6c0-0.5-0.3-0.9-0.6-0.9
	s-0.6,0.4-0.6,0.9c0,0.3,0.1,0.5,0.2,0.7h0.8C109.8,244,109.9,243.8,109.9,243.6L109.9,243.6z M418,239.6c0.1-0.1,0.2-0.2,0.3-0.3
	c0.7-0.7,1.6-0.9,3-0.7c1.1,0.2,2,0.1,2-0.2c0-0.3-0.2-0.6-0.4-0.6c-0.3,0-1-0.2-1.7-0.4h0h-6.4c-0.5,0.5-2.3,1.3-4,1.9
	c-0.2,0.1-0.4,0.1-0.6,0.2L418,239.6L418,239.6z M409,242.1c0.4,0.1,0.8,0.3,1.3,0.4c2.4,0.6,2.7,0.5,2.7-0.4H409L409,242.1z
	 M84.9,223.6c0,0,0-0.1,0.1-0.2h-5c0.5,0.3,1.2,0.5,2.2,0.7C84,224.4,84.7,224.2,84.9,223.6z M87.6,220.9c-0.5-0.7-1.6-1.1-3.4-1.2
	c-0.2,0-0.7-0.4-1.5-1h-4.2c0.4,0.7,0.6,1.6,0.7,2.2L87.6,220.9L87.6,220.9z M80,216.2c-1.5-1.5-2.8-2.3-3-2c-0.2,0.4,0,1,0.4,1.5
	c0.1,0.2,0.2,0.3,0.3,0.4L80,216.2L80,216.2z M274.7,214.1c-0.4,0.4-0.4,0.8,0,0.8s0.7-0.4,0.9-0.8H274.7z M283.9,210.3
	c0-0.5-0.1-0.9-0.2-0.9c-0.1,0-0.4,0.4-0.6,0.9c-0.2,0.5-0.1,0.9,0.2,0.9S283.9,210.9,283.9,210.3z M76.8,206.9
	c0.3-0.3,0.3-0.7,0.1-1.3c-0.1-0.3-0.2-0.6-0.3-0.8h-3.2c-1.5,0.6-2.2,1.6-0.7,1.6c0.5,0,0.9,0.2,0.9,0.5H76.8L76.8,206.9z
	 M74.3,197.6c0.1-0.6,0.1-1.3,0.2-2.2h-2.6c0.5,0.9,0.7,1.6,0.7,2.2H74.3z M74.6,192.9c0-0.5,0-1.1,0-1.8v-0.4H72
	c-0.2,0.4-0.3,0.7-0.5,1c-0.3,0.5-0.5,0.8-0.5,1.2L74.6,192.9L74.6,192.9z M74.6,188.3c0-0.8,0-1.5,0-2.2H73c-0.1,0.5-0.1,1-0.2,1.6
	c0,0.2,0,0.4-0.1,0.6H74.6L74.6,188.3z M74.3,183.6c-0.2-1.5-0.5-1.5-0.8,0H74.3z M381.9,191.6c0.2-0.5,0.6-0.8,0.9-0.6
	c0.2,0.1,0.6,0,0.9-0.2h-6.3C377.5,192.6,381.3,193.3,381.9,191.6z M383.8,188.3c-0.1-0.1-0.2-0.3-0.3-0.5c-0.4-0.7-1-1.4-1.4-1.7
	h-1c-0.6,0.4-1.5,1.3-2.2,2.2L383.8,188.3L383.8,188.3z M302.5,183.6c-0.1-0.7-0.2-1.4-0.2-1.8c0-0.1,0-0.3,0-0.4h-6.1
	c-0.2,0.7-0.3,1.5,0,2.2L302.5,183.6L302.5,183.6z M301.3,178.9c-0.1-0.7,0.1-1.6,0.5-2.2h-3.1c-0.3,0.5-0.5,1-0.6,1.4
	c0,0.3-0.1,0.5-0.3,0.7L301.3,178.9L301.3,178.9z M303.5,174.3c0.2-0.9,0.7-1.8,1.2-2.2h-3.5c0,0.7-0.3,1.4-0.9,2.2H303.5
	L303.5,174.3z M305.4,169.6c-0.1-0.6-0.3-1.2-0.6-1.7c-0.1-0.2-0.3-0.4-0.5-0.4h-2.6c-0.3,0.1-0.4,0.3-0.6,0.6
	c-0.1,0.3-0.2,0.9-0.1,1.6L305.4,169.6L305.4,169.6z M301.9,186.1c0.5,0.2,0.8,0.4,0.9,0.6c0.2,0.3,0.3,0,0.2-0.6H301.9L301.9,186.1
	z M310,178.9c-0.4-0.8-0.9-1.6-1.4-2.2h-1.3c0,0.5,0,1.1,0.1,1.8c0,0.1,0,0.2,0,0.3L310,178.9L310,178.9z M308.5,181.4
	c0.3,0.2,0.5,0.4,0.9,0.6l1.8,0.9l-0.3-1.5H308.5L308.5,181.4z M490.5,176.8C490.5,176.8,490.5,176.8,490.5,176.8
	c0,0.4,0.3,0.7,0.6,0.7c0.3,0,0.5-0.3,0.6-0.6L490.5,176.8L490.5,176.8z M369.5,155.6c0.3-0.6,0.5-1.3,0.8-2.2h-11
	c0.1,0.7,0.4,1.4,0.8,2.2H369.5z M371.1,151c0.2-0.7,0.4-1.4,0.7-2.2H357c0.4,0.6,0.8,1.1,1.2,1.5c0.3,0.2,0.6,0.5,0.7,0.7
	L371.1,151L371.1,151z M372.5,146.3l0.6-2.1v0h-18.7c0.5,0.6,0.9,1.3,1.2,2.2L372.5,146.3L372.5,146.3z M374,141.6
	c0.3-0.7,0.5-1.2,0.6-1.3c0.2-0.2,0.3-0.5,0.4-0.8h-25.6c0.4,0.6,0.9,1.3,1.4,2.1c0,0,0,0,0.1,0.1H374L374,141.6z M375.1,137
	c-0.1-0.7-0.3-1.5-0.5-2.2h-29.3c0.6,0.4,1.3,1.1,2.2,2.2H375.1z M373.6,132.3c-0.1-0.1-0.2-0.3-0.3-0.4c-0.4-0.7-0.8-1.3-1.1-1.8
	h-34.7c1.2,0.5,2.5,1.3,3.5,2.2H373.6L373.6,132.3z M371.8,127.7c0.2-0.5,0.7-1.1,1.5-1.7c0.2-0.1,0.4-0.3,0.5-0.4H333
	c-1,0-1.4,0.4-1.4,1.1c0,0.4,0.1,0.7,0.2,1.1L371.8,127.7L371.8,127.7z M375.4,123c0.2-0.7,0.1-1.2-0.3-1.5
	c-0.4-0.2-1.2,0.1-1.8,0.7s-1.3,0.9-1.5,0.7c-0.3-0.3-0.3-1.1-0.1-2.1h-34c0.3,0.2,0.6,0.3,0.8,0.2c0.9-0.4,2.4,1,1.8,1.6
	c-0.1,0.1-0.5,0.3-1,0.3H375.4L375.4,123z M372.8,118.3c0.1,0,0.2-0.1,0.3-0.1c0.5,0,1.1-0.5,1.4-1c0.5-0.8,0.7-0.9,1.5-0.3
	c1.1,0.9,1.7,0.6,2-0.8h-46.9c-0.7,0.7-1.3,1.4-1.6,2.2h4.6c0.5-0.4,0.8-0.7,1-0.7c0.1,0,0.4,0.3,0.7,0.7H372.8L372.8,118.3z
	 M378.1,113.7c0-0.8,0.1-1.5,0.2-2.2h-44.2c0,0.2,0,0.4,0.1,0.7c0.1,0.7,0.2,1.1,0,1.5H378.1z M379.6,109c0.3-0.6,0.5-1.3,0.6-2.2
	h-50.8c0.8,0.1,2.4,0.2,5.3,0.4c1.6,0.1,2.3,1,1.8,1.8L379.6,109L379.6,109z M380.3,104.3c0.1-0.9,0.2-1.8,0.4-2.2h-53.8
	c-0.2,0.3,0.2,1,1.1,1.8c0.1,0.1,0.2,0.2,0.3,0.4H380.3L380.3,104.3z M329.5,120.8c0.5,0.9,1.5,1,2.2,0l0,0H329.5L329.5,120.8z
	 M361.9,158.1c0.3,0.2,0.6,0.4,0.8,0.4c0.7,0,2-0.1,3.1-0.4H361.9L361.9,158.1z M401.5,151c0.4-0.5,0.9-1.2,1.6-2.2h-6.2
	c0,0,0,0.1,0,0.2c0,0.3-0.6,1-1.3,1.5c-0.2,0.1-0.4,0.3-0.5,0.5H401.5L401.5,151z M404.9,146.3c1-1.1,1.7-1.2,3.3-1.3
	c1.3,0,2.3-0.4,2.9-0.8h-18c0,0.5-0.1,1.2-0.4,2.2L404.9,146.3L404.9,146.3z M411.7,141.6c-0.5-0.9-1.6-1.8-3.3-2.2h-21.6
	c0,0.2-0.1,0.4-0.2,0.5c-0.4,0.7-0.4,1.2-0.3,1.7H411.7L411.7,141.6z M405,137c0-0.2,0-0.4,0-0.5c0-0.5,0-1.1,0.1-1.6h-14.2
	c-0.6,0.4-1.3,0.8-1.9,1.1c-0.9,0.4-1.5,0.7-1.8,1.1H405L405,137z M406.1,132.3c0.1-0.1,0.3-0.1,0.5,0h5.7c-0.2-0.9-1.7-1.5-4.2-1.6
	c-0.7,0-1.2-0.3-1.3-0.5h-9.4c-0.3,0.3-0.9,0.6-1.9,1c-0.7,0.3-1.5,0.7-2.2,1.2L406.1,132.3L406.1,132.3z M409.4,134.8
	c0.2,0.1,0.4,0.1,0.7,0H409.4z M410.3,127.7c0.3-0.2,0.5-0.5,0.6-0.7c0.2-0.5,0.7-0.7,1.3-0.5c0.6,0.2,0.9,0,0.9-0.6
	c0-0.1,0-0.2,0.1-0.4h-15.9c-0.3,0.6-0.4,1.1-0.4,1.6c0,0.2,0,0.4,0,0.6H410.3L410.3,127.7z M422.3,123c0.6-0.3,1.3-0.8,2.2-1.5
	c0.3-0.2,0.5-0.4,0.8-0.7h-23.4c-0.9,0.4-1.9,1.2-2.9,2.2H422.3z M427.9,118.3c0.1-0.4,0.2-1.2,0.2-2.2h-24.4
	c-0.1,0.6,0,1.3,0.1,2.2H427.9z M428,113.7c0-0.9-0.1-1.6-0.2-2.2h-4.6c-0.1,0.9-1,0.9-2.2,0h-3.6c-0.6,1.1-1.1,1.8-1.9,2.2H428
	L428,113.7z M426.9,109c-0.2-0.3-0.5-0.6-0.9-1c-1.6-1.4-1.7-1.4-2.5-0.3c-0.3,0.4-0.4,0.8-0.5,1.3C423.1,109,426.9,109,426.9,109z
	 M418.8,109l-0.1-0.1l0,0.1H418.8z M392.1,148.8c0,0.4,0.2,0.7,0.4,1c0.6,0.6,0.9,0.5,1.5-0.3c0.2-0.3,0.5-0.5,0.8-0.7L392.1,148.8
	L392.1,148.8z M423.2,148.9l0.1-0.1H420c0.1,0.1,0.2,0.2,0.2,0.3l1,1.2L423.2,148.9L423.2,148.9z M425.1,146.3
	c-0.1-0.6-0.4-1.3-1.1-2.2h-5.3c-1.4,0.7-1.8,1.4-1.9,2.2H425.1z M330.5,146.3c0.2-0.4,0.2-1,0.3-2v-0.1h-13.7
	c0.4,0.6,1.1,1.2,2.2,2.2L330.5,146.3L330.5,146.3z M330.7,141.6c-0.3-0.9-1.1-0.9-2.7-0.4c-0.7,0.2-1.2,0.4-1.5,0.4H330.7z
	 M326.2,141.6c-0.3,0-0.5-0.1-0.7-0.4c-0.2-0.4-1.6-0.8-3.1-1.1c-2.3-0.3-2.9-0.2-4.4,1.2c-0.1,0.1-0.2,0.1-0.2,0.2L326.2,141.6
	L326.2,141.6z M322.6,148.8c0.4,0.1,0.7,0.1,1,0H322.6z M221.3,130.4c0-0.1,0-0.1,0-0.2h-1.4C220.2,130.7,220.9,130.9,221.3,130.4
	L221.3,130.4z M463.1,127.6c1.8-0.8,2.8-1.5,3-2.1h-19.7c0,0.5,0.1,1.1,0.4,1.6c0.1,0.2,0.1,0.4,0.2,0.5L463.1,127.6L463.1,127.6
	L463.1,127.6z M461.5,123c-0.5-0.3-0.7-0.6-0.7-0.9c0-0.8,0.7-0.9,3.8-0.7l3.8,0.2l0-0.7h-18.7c-0.3,0.2-0.6,0.5-0.9,0.7
	c-0.7,0.4-1.2,0.9-1.6,1.5L461.5,123L461.5,123z M468.2,118.3L468.2,118.3c0-0.9-0.1-1.5-0.2-2.2h-14.3c-0.3,0.2-0.5,0.4-0.8,0.6
	c-0.7,0.4-1.3,1.1-1.7,1.6H468.2L468.2,118.3z M467.1,113.7c-0.7-1.1-1.9-1.6-4-2c-0.2,0-0.4-0.1-0.6-0.1h-2.9
	c-0.2,0.1-0.4,0.4-0.6,0.6c-0.5,0.6-1.7,1.3-2.6,1.5l-0.1,0L467.1,113.7L467.1,113.7z M441.9,127.7c-0.1-0.5-0.7-1-1.5-1
	c-0.7,0-1.6,0.4-2.2,1H441.9z M211.7,122.5c0.3-0.3,1.4-0.7,2.4-0.7c0.8-0.1,1.5-0.4,1.9-0.9h-5.3c-0.3,1.5-0.4,2-0.2,2.2h0.5
	C211.2,122.9,211.5,122.7,211.7,122.5z M216.6,118.3c-0.1-0.4-0.3-0.8-0.7-1.2c-0.3-0.3-0.5-0.6-0.7-1h-3.7c0,0.5-0.1,1-0.3,1.6
	l-0.1,0.6H216.6L216.6,118.3z M214.7,113.7c-0.1-0.4-0.4-0.8-0.6-1.1c-0.7-0.9-1-1-2.1-0.4c-0.7,0.5-1,0.8-0.8,1.4H214.7z
	 M15.8,121.2c0.1-0.1,0.3-0.3,0.4-0.4h-3.5c0,0,0,0.1,0,0.1C12.7,122.3,14.4,122.5,15.8,121.2z M477.4,117.8
	c0.5-0.4,1.1-0.9,1.4-1.6h-7.4c0.4,0.5,0.8,0.9,1.2,1.1C475.5,118,476.8,118.2,477.4,117.8L477.4,117.8z M479.7,113.7
	c0-0.2,0-0.4,0-0.6c-0.2-0.8-0.5-1.5-0.7-1.5c-0.1,0-0.1,0-0.2-0.1h-11.3c0.1,0.1,0.2,0.1,0.3,0.2c0.7,0.6,1.5,1.3,2.2,1.9H479.7
	L479.7,113.7z M477.8,109c-0.1-0.7-0.1-1.4-0.1-2.1v-0.1h-11.3c-0.7,0.8-1.3,1.6-1.3,2.1v0L477.8,109L477.8,109z M476.4,104.3
	c-1-0.4-2.6-0.4-5.1,0H476.4z M442.9,117.2c0.2-0.2,0.4-0.6,0.4-1.1h-3.7C440.6,117.7,442,118.2,442.9,117.2L442.9,117.2z
	 M445.5,113.7l1.8-1l-1.4-0.9c-0.1-0.1-0.2-0.2-0.3-0.3H440c-0.2,0.5-0.5,0.9-0.8,1.1c-0.5,0.4-0.7,0.6-0.7,1L445.5,113.7
	L445.5,113.7z M444.5,109c0-1-0.4-1.1-1.9-0.9c-1.2,0.1-1.7,0.3-1.9,0.9H444.5L444.5,109z M436.4,111.7c0-0.1,0-0.2,0-0.2h-4.3
	c0.5,0.4,0.9,0.8,1.1,1.1C434.1,114.1,436,113.6,436.4,111.7L436.4,111.7z M437.4,109c0.1-0.6-0.2-1.5-0.6-2.2h-6.6
	c-0.3,0.1-0.5,0.1-0.6,0.2c-0.7,0.2-0.6,1.1-0.1,2L437.4,109L437.4,109z M414.8,109c0.4-0.5,0.5-1,0.5-1.5c0-0.3,0-0.5-0.1-0.7h-1.6
	c-0.2,0.2-0.5,0.4-0.7,0.6c-0.9,0.7-1.6,1.1-1.6,0.8s-0.4-0.1-0.9,0.3c-0.2,0.1-0.3,0.3-0.4,0.4H414.8L414.8,109z M411.1,111.5
	c0,0,0.1,0,0.1,0H411.1z M77,109c0.3-0.7-0.6-1.8-1.7-2.2h-1c-0.8,0.3-1.4,1.4-1.1,2.2C73.2,109,77,109,77,109z M211.9,107.7
	c0-0.3-0.1-0.6-0.2-0.9h-2.3c0.3,0.2,0.6,0.5,1,0.7C211.7,108.4,211.9,108.4,211.9,107.7L211.9,107.7z M210.6,104.3
	c0-0.2-0.1-0.4-0.1-0.6c-0.1-0.5-0.2-1.1-0.3-1.5h-4.9c0.8,0.7,1.6,1.5,2.2,2.2H210.6L210.6,104.3z M426,102.8
	c0.4-0.2,1-0.4,1.6-0.7h-7.2c0.2,0.1,0.4,0.2,0.6,0.4C423.3,103.9,423.6,103.9,426,102.8L426,102.8z M416.4,102.2
	c0.3,0.2,0.6,0.2,1,0H416.4z M461.1,102.2c0.1,0,0.2,0.1,0.3,0.2c1,0.7,1.2,0.8,1.1-0.2H461.1z M78.7,102.2c0.6,0.8,0.8,0.8,2.3,0
	H78.7z M435,102.2c0.1,0,0.3,0,0.4,0H435z"/>
<g>
	<g>
		<path class="st17" d="M184.8,430c0,2.2-1.3,3.5-3.9,3.5h-10.7v7.3h-4v-19.2h14.7c2.7,0,3.9,1.1,3.9,3.4V430L184.8,430z M181,428.6
			v-2c0-1-0.3-1.6-1.1-1.6h-9.7v5.1h9.7C180.6,430,181,429.5,181,428.6L181,428.6z M211.6,440.8h-5.2l-6.5-7.3h-3.7v7.3h-4v-19.1h15
			c2.7,0,3.9,1.1,3.9,3.4v5.3c0,1.7-0.7,2.7-2,3.4h-4.3L211.6,440.8L211.6,440.8z M207.2,428.8v-2.4c0-1-0.3-1.5-1.1-1.5h-9.9v5.3
			h9.9C206.9,430.2,207.2,429.7,207.2,428.8L207.2,428.8z M241.6,436.3c0,1.8-0.3,2.9-0.9,3.6c-0.7,0.7-1.8,0.9-3.5,0.9h-12.8
			c-1.7,0-2.8-0.3-3.5-0.9c-0.7-0.7-0.9-1.8-0.9-3.6v-10.1c0-1.8,0.3-2.9,0.9-3.6c0.7-0.7,1.8-0.9,3.5-0.9h12.8
			c1.7,0,2.8,0.3,3.5,0.9c0.7,0.7,0.9,1.8,0.9,3.6V436.3z M237.4,437.1v-12H224v12H237.4z M288.2,440.8h-17.6v-19.2h4v15.6h13.5v3.6
			H288.2z M314.8,440.8h-3.9l-2.2-4.3h-11.5l-2.1,4.3h-4l9.9-19.2h3.9L314.8,440.8L314.8,440.8z M306.8,433.2l-3.9-7.9l-3.9,7.9
			H306.8z M340,437.1c0,2.5-1.7,3.7-5.2,3.7h-13.2v-19.2H336c2.7,0,3.9,1.2,3.9,3.7v2.4c0,1.9-1,2.9-3,3.3c2.1,0.3,3.1,1.6,3.1,3.7
			L340,437.1L340,437.1z M336.1,427.9v-2.1c0-0.7-0.7-1-1.9-1h-8.9v4.5h8.9C335.5,429.2,336.1,428.8,336.1,427.9z M336.2,436v-1.7
			c0-0.8-0.1-1.2-0.4-1.5c-0.3-0.2-0.9-0.3-1.6-0.3h-8.9v4.8h8.9c0.7,0,1.1-0.1,1.6-0.3C336,436.9,336.2,436.5,336.2,436L336.2,436z
			 M369.1,436.2c0,1.8-0.3,2.9-1,3.6s-1.9,0.9-3.5,0.9h-10.9c-1.9,0-3-0.3-3.7-1c-0.6-0.7-0.9-2.1-0.9-4.5h4v1.8h12.1v-4.4H354
			c-1.7,0-2.9-0.3-3.5-0.9c-0.7-0.7-0.9-1.9-0.9-3.6V426c0-1.8,0.3-2.9,0.9-3.6c0.7-0.7,1.8-0.9,3.5-0.9h14.6v3.4h-15.4v4.2h11.3
			c1.7,0,2.9,0.3,3.5,0.9c0.7,0.7,1,1.8,1,3.6L369.1,436.2L369.1,436.2z"/>
	</g>
	<polygon class="st5" points="348.6,524.9 366.4,524.9 366.4,542.4 348.6,542.4 	"/>
	<polygon class="st2" points="324.5,534.1 336.7,534.1 336.7,546.2 324.5,546.2 	"/>
	<polygon class="st2" points="346.3,554 355,554 355,562.7 346.3,562.7 	"/>
	<polygon class="st2" points="381.5,530.5 392.1,530.5 392.1,540.8 381.5,540.8 	"/>
	<polygon class="st5" points="414.4,525.9 421.9,525.9 421.9,533.4 414.4,533.4 	"/>
	<polygon class="st5" points="324.5,566.9 333.4,566.9 333.4,575.5 324.5,575.5 	"/>
	<polygon class="st5" points="186.6,524.9 169,524.9 169,542.4 186.6,542.4 	"/>
	<polygon class="st2" points="210.9,534.1 198.5,534.1 198.5,546.2 210.9,546.2 	"/>
	<polygon class="st2" points="189.1,554 180.2,554 180.2,562.7 189.1,562.7 	"/>
	<polygon class="st2" points="153.9,530.5 143.3,530.5 143.3,540.8 153.9,540.8 	"/>
	<polygon class="st5" points="120.9,525.9 113.4,525.9 113.4,533.4 120.9,533.4 	"/>
	<polygon class="st5" points="210.9,566.9 202,566.9 202,575.5 210.9,575.5 	"/>
	<path class="st17" d="M301.5,546.4C301.5,546.4,301.5,546.4,301.5,546.4c0-0.8-0.4-1.6-1-2.1c0,0-0.1-0.1-0.1-0.1c0,0,0,0,0,0
		c-0.1-0.1-0.2-0.2-0.3-0.2l-29.9-17.3c-0.1,0-0.1-0.1-0.2-0.1c-0.4-0.2-0.9-0.3-1.4-0.3c-0.2,0-0.5,0.1-0.7,0.2
		c-0.2,0.1-0.4,0.1-0.5,0.2L237.4,544c-0.9,0.5-1.4,1.4-1.4,2.4c0,0,0,0,0,0.1c0,0,0,0,0,0.1l0,34.5c0,1.1,0.6,2,1.5,2.4l29.9,17.3
		c0.1,0,0.1,0.1,0.2,0.1c0,0,0,0,0,0c0.1,0,0.2,0.1,0.3,0.1c0,0,0,0,0,0c0.1,0,0.2,0.1,0.3,0.1c0,0,0,0,0.1,0c0.1,0,0.2,0,0.3,0
		c0,0,0,0,0,0c0.1,0,0.2,0,0.3,0s0.2,0,0.3,0c0,0,0,0,0,0c0.1,0,0.2,0,0.3,0c0,0,0,0,0.1,0c0.1,0,0.2,0,0.3-0.1c0,0,0,0,0,0
		c0.1,0,0.2-0.1,0.3-0.1c0,0,0,0,0,0c0.1,0,0.1-0.1,0.2-0.1l29.9-17.3c0.9-0.5,1.5-1.4,1.5-2.4L301.5,546.4
		C301.5,546.5,301.5,546.5,301.5,546.4z M247.7,545.3l20.4-11.8c0.4-0.2,0.9-0.2,1.3,0l20.4,11.8c0.9,0.5,0.9,1.8,0,2.3l-20.4,11.8
		c-0.4,0.2-0.9,0.2-1.3,0l-20.4-11.8C246.8,547,246.8,545.8,247.7,545.3z M265.2,590c0,1-1.1,1.6-1.9,1.1l-20.3-11.7
		c-0.4-0.2-0.6-0.7-0.6-1.1v-23.5c0-1,1.1-1.6,1.9-1.1l20.3,11.7c0.4,0.2,0.6,0.7,0.6,1.1V590z M295.2,578.2c0,0.5-0.2,0.9-0.6,1.1
		l-20.3,11.7c-0.9,0.5-1.9-0.1-1.9-1.1v-23.5c0-0.5,0.2-0.9,0.6-1.1l20.3-11.7c0.9-0.5,1.9,0.1,1.9,1.1V578.2z"/>
	<path class="st18" d="M100.4,511.6c-4.8,0-9.7,0-14.5,0c1-2.6,1.9-5.2,2.9-7.9s2-5.2,3-7.9c-9.4,0-18.8,0-28.3,0
		c-1.1,2.6-2.3,5.2-3.4,7.9c-1.2,2.6-2.3,5.2-3.4,7.9c-4.8,0-9.6,0-14.4,0c3.4-7.1,6.7-14.1,10-21.2c3.3-7.1,6.6-14.2,10-21.2
		c5.2-4.1,10.3-8.2,15.4-12.3c10.7,0,21.5,0,32.2,0c1.7,4.1,3.5,8.2,5.4,12.3c-2.5,7.1-5,14.2-7.5,21.2
		C105.2,497.5,102.8,504.6,100.4,511.6L100.4,511.6z M96.4,483.9c1-2.4,1.9-4.9,2.8-7.4c0.9-2.4,1.9-4.9,2.8-7.4
		c-8.9,0-17.8,0-26.6,0c-1,2.4-2.2,4.9-3.3,7.4c-1.1,2.5-2.1,4.9-3.3,7.4C78,483.9,87.2,483.9,96.4,483.9L96.4,483.9z M179.4,473.8
		c-2.7,3.3-5.4,6.5-8,9.8c-2.7,3.3-5.5,6.5-8.2,9.8c-10.8,0-21.7,0-32.5,0c-0.9,3.1-1.8,6.1-2.7,9.2c-0.9,3.1-1.8,6.1-2.7,9.1
		c-4.8,0-9.7,0-14.5,0c3-9.1,6-18.2,9-27.3c3-9.1,6.1-18.2,9-27.4c14.8,0,29.6,0,44.4,0c1,2.8,2,5.6,3,8.5
		C177.2,468.1,178.3,470.9,179.4,473.8L179.4,473.8z M165.4,474.8c-0.7-1.9-1.4-3.8-2.1-5.7c-8.5,0-17,0-25.4,0
		c-1.2,3.9-2.4,7.9-3.5,11.8c8.7,0,17.4,0,26,0C162.1,478.9,163.8,476.8,165.4,474.8z M235.3,456.8c-3.5,4.1-7.1,8.2-10.7,12.3
		c-4.4,0-8.7,0-13,0c-1,7.1-1.9,14.2-2.9,21.2s-1.9,14.2-2.8,21.2c-4.8,0-9.6,0-14.4,0c1.1-7.1,2.3-14.1,3.5-21.2
		c1.2-7.1,2.3-14.2,3.5-21.2c-4.4,0-8.7,0-13,0c-2.4-4.1-4.8-8.2-7.1-12.3C197.2,456.8,216.3,456.8,235.3,456.8L235.3,456.8z
		 M292.5,499.3c-3.4,4.1-6.8,8.2-10.2,12.3c-15,0-30,0-44.9,0c0.6-9.1,1.2-18.2,1.9-27.3c0.7-9.1,1.3-18.2,1.9-27.3
		c0,0,0.1,0,0.1-0.1c4.3,0,8.5,0,12.7,0c-0.2,7.1-0.6,14.2-0.8,21.2c-0.3,7.1-0.6,14.2-0.9,21.2C265.7,499.3,279,499.3,292.5,499.3
		L292.5,499.3z M354.9,511.6c-4.8,0-9.7,0-14.5,0c-0.4-2.6-0.7-5.2-1.1-7.9c-0.4-2.6-0.7-5.2-1.1-7.9c-9.4,0-18.8,0-28.3,0
		c0.2,2.6,0.4,5.2,0.7,7.9c0.2,2.6,0.5,5.2,0.7,7.9c-4.8,0-9.7,0-14.5,0c-0.4-7.1-0.7-14.2-1.1-21.2s-0.7-14.2-1.1-21.2
		c3.1-4.1,6.1-8.2,9-12.3c10.7,0,21.5,0,32.2,0c3.8,4.1,7.8,8.2,11.8,12.3c1.2,7.1,2.4,14.2,3.6,21.2S353.7,504.5,354.9,511.6
		L354.9,511.6z M336.4,483.8c-0.3-2.4-0.7-4.9-1-7.4c-0.3-2.4-0.7-4.9-1-7.4c-8.9,0-17.8,0-26.6,0c0.2,2.4,0.4,4.9,0.6,7.4
		c0.2,2.4,0.4,4.9,0.6,7.4C318.1,483.8,327.3,483.8,336.4,483.8L336.4,483.8z M421.5,494.8c-0.9,2.8-1.9,5.6-2.7,8.4
		c-0.9,2.8-1.9,5.6-2.8,8.4c-16.9,0-33.8,0-50.7,0c-1.7-9.1-3.5-18.2-5.3-27.3c-1.7-9.1-3.5-18.2-5.3-27.4c15,0,30,0,45.1,0
		c2.4,2.8,4.9,5.6,7.3,8.4c2.5,2.8,5.1,5.6,7.7,8.4c-1,3.5-2,7.1-3.1,10.6C414.8,487.7,418.2,491.2,421.5,494.8L421.5,494.8z
		 M400.1,473.7c-1.6-1.5-3-3.1-4.5-4.6c-8.5,0-17,0-25.4,0c0.7,3.2,1.4,6.5,2.1,9.6c8.6,0,17.2,0,26,0
		C398.9,477,399.4,475.4,400.1,473.7L400.1,473.7z M406.2,494.8c-1.6-1.7-3.2-3.3-4.8-5c-8.9,0-17.8,0-26.6,0
		c0.7,3.1,1.4,6.3,2.1,9.5c9,0,18.1,0,27.1,0C404.7,497.8,405.4,496.3,406.2,494.8L406.2,494.8z M493,494.8c-0.5,2.8-1,5.6-1.5,8.4
		c-0.5,2.8-1,5.6-1.6,8.4c-18.6,0-37.1,0-55.7,0c2.1-4.1,4.2-8.2,6.3-12.3c11.8,0,23.7,0,35.5,0c0.5-1.5,0.9-3,1.4-4.5
		c-1.8-1.7-3.7-3.3-5.5-4.9c-11.6,0-23.2,0-34.8,0c-2.7-2.7-5.3-5.4-7.9-8.1c-2.5-2.7-5.1-5.4-7.6-8.1c0.7-2.8,1.4-5.6,2-8.4
		c0.7-2.8,1.4-5.6,2-8.4c16.4,0,32.9,0,49.4,0c-1.3,4.1-2.7,8.2-4.1,12.3c-11.1,0-22.2,0-33.3,0c-0.5,1.6-1,3.1-1.4,4.7
		c1.7,1.7,3.4,3.3,5.1,5c11.4,0,22.8,0,34.1,0c2.8,2.7,5.7,5.4,8.6,8C487,489.4,490,492.1,493,494.8L493,494.8z"/>
</g>
</svg>
