<svg width="24" height="25" viewBox="0 0 24 25" fill="none" xmlns="http://www.w3.org/2000/svg">
<path fill-rule="evenodd" clip-rule="evenodd" d="M4.00903 19.5573C4.01041 20.9103 5.10688 22.0068 6.45987 22.0081L18.3494 22.0066C19.256 22.0057 19.9906 21.2707 19.9911 20.3641V6.93409C19.9906 6.02748 19.256 5.29251 18.3494 5.29159L6.45987 5.29313C6.02665 5.29267 5.6757 4.94135 5.6757 4.50813C5.6757 4.0479 6.0488 3.6748 6.50903 3.6748L18.7411 3.67326C19.2013 3.67326 19.5744 3.30016 19.5744 2.83993C19.5744 2.37969 19.2013 2.00659 18.7411 2.00659L6.50903 2.00813C5.12832 2.00813 4.00903 3.12742 4.00903 4.50813V19.5573ZM12.2289 14.5537H15.8272C16.1999 14.5537 16.5019 14.8558 16.5019 15.2284C16.5019 15.601 16.1999 15.9031 15.8272 15.9031H12.2289C11.8563 15.9031 11.5542 15.601 11.5542 15.2284C11.5542 14.8558 11.8563 14.5537 12.2289 14.5537ZM7.71243 10.2623C7.4521 10.5224 7.44825 10.9431 7.70377 11.2079L9.31644 12.8242C9.35873 12.8664 9.3825 12.9236 9.3825 12.9834C9.3825 13.0431 9.35873 13.1004 9.31644 13.1426L7.70377 14.7516C7.52849 14.9211 7.45828 15.1719 7.52013 15.4078C7.58197 15.6436 7.76625 15.8277 8.00212 15.8893C8.238 15.9509 8.48877 15.8805 8.65806 15.705L10.9066 13.4565C11.0332 13.3301 11.1043 13.1586 11.1043 12.9798C11.1043 12.8009 11.0332 12.6295 10.9066 12.5031L8.65806 10.2545C8.39349 9.99875 7.97276 10.0022 7.71243 10.2623Z" fill="#A4B1CD"/>
</svg>
