<svg width="24" height="25" viewBox="0 0 24 25" fill="none" xmlns="http://www.w3.org/2000/svg">
<path fill-rule="evenodd" clip-rule="evenodd" d="M2.98328 19.5027C2.98328 18.1194 4.10464 16.998 5.48792 16.998H18.5121C19.8953 16.998 21.0167 18.1194 21.0167 19.5027C21.0167 20.886 19.8953 22.0073 18.5121 22.0073H5.48792C4.10464 22.0073 2.98328 20.886 2.98328 19.5027ZM6.99066 19.4841C6.99066 20.0374 6.54211 20.4859 5.9888 20.4859C5.43549 20.4859 4.98694 20.0374 4.98694 19.4841C4.98694 18.9307 5.43549 18.4822 5.9888 18.4822C6.54211 18.4822 6.99066 18.9307 6.99066 19.4841ZM9.21707 20.4859C9.77038 20.4859 10.2189 20.0374 10.2189 19.4841C10.2189 18.9307 9.77038 18.4822 9.21707 18.4822C8.66376 18.4822 8.21522 18.9307 8.21522 19.4841C8.21522 20.0374 8.66376 20.4859 9.21707 20.4859Z" fill="#A4B1CD"/>
<path fill-rule="evenodd" clip-rule="evenodd" d="M5.55948 11.024V8.26894C5.55948 4.81074 8.443 2.00732 12 2.00732C15.557 2.00732 18.4405 4.81074 18.4405 8.26894V11.024C19.8633 11.024 21.0167 12.1454 21.0167 13.5287C21.0167 14.912 19.8633 16.0333 18.4405 16.0333H5.55948C4.13668 16.0333 2.98328 14.912 2.98328 13.5287C2.98328 12.1454 4.13668 11.024 5.55948 11.024ZM15.8643 8.26894V11.024H8.13568V8.26894C8.13568 6.19402 9.86579 4.51197 12 4.51197C14.1342 4.51197 15.8643 6.19402 15.8643 8.26894ZM6.99066 13.5472C6.99066 14.1006 6.54211 14.5491 5.9888 14.5491C5.43549 14.5491 4.98694 14.1006 4.98694 13.5472C4.98694 12.9939 5.43549 12.5454 5.9888 12.5454C6.54211 12.5454 6.99066 12.9939 6.99066 13.5472ZM9.21707 14.5491C9.77038 14.5491 10.2189 14.1006 10.2189 13.5472C10.2189 12.9939 9.77038 12.5454 9.21707 12.5454C8.66376 12.5454 8.21522 12.9939 8.21522 13.5472C8.21522 14.1006 8.66376 14.5491 9.21707 14.5491Z" fill="#A4B1CD"/>
</svg>
