<svg xmlns="http://www.w3.org/2000/svg" xmlns:xlink="http://www.w3.org/1999/xlink" viewBox="0 0 1179.81 1296.48"><defs><style>.cls-1,.cls-2{fill:none;}.cls-1{clip-rule:evenodd;}.cls-3{clip-path:url(#clip-path);}.cls-4{fill:#111927;}.cls-5{clip-path:url(#clip-path-2);}.cls-6{fill:#8692ad;}.cls-7{clip-path:url(#clip-path-3);}.cls-8{clip-path:url(#clip-path-4);}.cls-9{clip-path:url(#clip-path-5);}.cls-10{clip-path:url(#clip-path-6);}.cls-11{fill:#d12f2f;}.cls-12{clip-path:url(#clip-path-7);}.cls-13{clip-path:url(#clip-path-8);}.cls-14{fill:#ff3e3e;}.cls-15{clip-path:url(#clip-path-9);}.cls-16{clip-path:url(#clip-path-10);}.cls-17{clip-path:url(#clip-path-11);}.cls-18{clip-path:url(#clip-path-12);}.cls-19{fill:#464e62;}.cls-20{clip-path:url(#clip-path-13);}.cls-21{clip-path:url(#clip-path-14);}.cls-22{clip-path:url(#clip-path-15);}.cls-23{clip-path:url(#clip-path-16);}.cls-24{clip-path:url(#clip-path-17);}.cls-25{clip-path:url(#clip-path-18);}.cls-26{clip-path:url(#clip-path-19);}.cls-27{fill:#5c8a3b;}.cls-28{clip-path:url(#clip-path-20);}.cls-29{clip-path:url(#clip-path-21);}.cls-30{clip-path:url(#clip-path-22);}.cls-31{fill:#a4b1cd;}.cls-32{clip-path:url(#clip-path-23);}.cls-33{clip-path:url(#clip-path-24);}.cls-34{clip-path:url(#clip-path-25);}.cls-35{clip-path:url(#clip-path-26);}.cls-36{clip-path:url(#clip-path-27);}.cls-37{clip-path:url(#clip-path-28);}.cls-38{clip-path:url(#clip-path-29);}.cls-39{clip-path:url(#clip-path-30);}.cls-40{clip-path:url(#clip-path-31);}.cls-41{clip-path:url(#clip-path-32);}.cls-42{clip-path:url(#clip-path-33);}.cls-43{clip-path:url(#clip-path-34);}.cls-44{clip-path:url(#clip-path-35);}.cls-45{clip-path:url(#clip-path-36);}.cls-46{clip-path:url(#clip-path-37);}.cls-47{clip-path:url(#clip-path-38);}.cls-48{clip-path:url(#clip-path-39);}.cls-49{fill:#fff;}.cls-50{clip-path:url(#clip-path-40);}.cls-51{clip-path:url(#clip-path-41);}.cls-52{clip-path:url(#clip-path-42);}.cls-53{clip-path:url(#clip-path-43);}.cls-54{fill:#919cb3;}.cls-55{clip-path:url(#clip-path-44);}.cls-56{fill:#fefefe;}.cls-57{clip-path:url(#clip-path-45);}.cls-58{clip-path:url(#clip-path-46);}</style><clipPath id="clip-path" transform="translate(5 5)"><path class="cls-1" d="M676.35,241.91c139.92,6.15,266.76,59.55,351.79,144.35C1130.91,488.74,1189,658.45,1164.05,800.85c-85.17,487.42-877.5,682.82-1100.91,232.1C-4.41,896.66-25.18,771.13,37.71,622.52,87.79,504.33,181.33,406,293.16,339.71,404.42,273.78,536.43,235.76,676.35,241.91Z"/></clipPath><clipPath id="clip-path-2" transform="translate(5 5)"><polygon class="cls-2" points="395.71 418.55 418.59 477.41 390.45 436.54 367.57 377.67 395.71 418.55"/></clipPath><clipPath id="clip-path-3" transform="translate(5 5)"><path class="cls-2" d="M431.5,471.26l2.47-1.13,4.16-1.88,2.51-1.11,2.9-1.26,6.95-3,2.23-.94q4.42-1.83,8.9-3.6l1.74-.67q3.7-1.44,7.44-2.85l2.67-1q3.94-1.45,7.92-2.86l1.43-.51,1.12-.39c1.87-.65,3.75-1.29,5.62-1.92l1.92-.64,5.7-1.86,1.11-.36,6.72-2.1,1.78-.54c1.75-.53,3.5-1.05,5.27-1.56l1.91-.56q3.39-1,6.81-1.92l.7-.19c1.9-.52,3.8-1,5.7-1.52,3.06-.81,6.13-1.6,9.21-2.35s6-1.44,9-2.13l.6-.14c2.86-.65,5.72-1.27,8.57-1.88l1-.2q4.17-.87,8.32-1.68l1.17-.22c2.72-.52,5.44-1,8.16-1.51l1.25-.22q3.81-.66,7.59-1.27l1.28-.21c2.85-.45,5.69-.87,8.53-1.28l2.41-.33,6.12-.81,3-.37,5.64-.65,3-.32,6-.6,2.4-.22q4.2-.36,8.39-.68l1.13-.08,7.36-.47,1.79-.09c2.33-.13,4.66-.23,7-.33l1.26-.05c2.63-.1,5.25-.17,7.87-.23H657c2.33-.05,4.65-.07,7-.08h10.77c2.31,0,4.61.1,6.91.16h1.07c2.58.09,5.14.19,7.7.32l1.8.09c2.3.12,4.59.25,6.88.41l1,.06c2.54.17,5.06.37,7.59.58l1.79.16c2.29.2,4.57.41,6.85.65l.87.08c2.5.26,5,.55,7.46.85l1.79.22q3.42.42,6.81.9l.76.1c2.46.35,4.9.72,7.34,1.11l1.78.28,6.78,1.15.63.11c2.41.43,4.82.89,7.21,1.36l1.77.35c2.26.46,4.51.92,6.75,1.41l.49.1c2.37.52,4.74,1.06,7.09,1.62l1.73.41c2.26.55,4.5,1.1,6.74,1.68l.33.08c2.33.6,4.64,1.23,7,1.87l1.7.48q3.39.94,6.73,1.95l.18.05c2.28.68,4.54,1.39,6.79,2.11l1.68.54c2.25.73,4.49,1.47,6.72,2.24l-23-58.76c-2.23-.77-4.47-1.51-6.72-2.24l-1.68-.54c-2.25-.72-4.51-1.42-6.79-2.12l-.18-.05c-2.22-.66-4.47-1.31-6.72-1.95l-1.71-.47c-2.3-.64-4.61-1.27-6.94-1.87l-.34-.08c-2.24-.59-4.49-1.13-6.74-1.68l-1.73-.41q-3.52-.84-7.09-1.62l-.5-.1c-2.23-.49-4.48-.95-6.74-1.41l-1.77-.35c-2.39-.47-4.79-.93-7.21-1.36l-.64-.12c-2.24-.39-4.5-.77-6.76-1.14l-1.79-.28c-2.44-.39-4.88-.76-7.34-1.11l-.77-.1c-2.25-.33-4.51-.62-6.79-.9l-1.79-.22c-2.49-.3-5-.59-7.47-.85l-.88-.09c-2.27-.23-4.54-.44-6.82-.65l-1.82-.16c-2.51-.21-5-.4-7.57-.58l-1-.06c-2.27-.14-4.54-.28-6.83-.4l-1.83-.09c-2.55-.12-5.1-.24-7.67-.32H658.7c-2.27-.07-4.56-.12-6.85-.16H650c-2.58,0-5.16-.05-7.76,0H641q-3.42,0-6.86.08h-1.86c-2.6.06-5.21.13-7.83.23a9.94,9.94,0,0,0-1.34.06l-6.88.31-1.87.11-1.26.06c-2,.11-4,.25-5.93.4a7,7,0,0,0-1.29.08c-2.78.2-5.56.43-8.35.67l-2.46.24q-3,.27-6,.59l-3,.32-5.58.64-3,.38c-2,.25-4,.53-6,.8L569,365c-2.83.4-5.67.82-8.51,1.28l-1.34.22-6,1-1.48.27c-.42.07-.85.14-1.28.23-2.7.47-5.42,1-8.14,1.5l-1.18.22c-2.77.54-5.53,1.1-8.3,1.68l-1,.2c-2.85.61-5.71,1.23-8.57,1.88l-.6.14q-4.47,1-9,2.13c-3.09.75-6.16,1.54-9.22,2.34l-1,.25-4.71,1.27-.72.2c-2.28.62-4.54,1.27-6.81,1.92l-1.92.56q-2.64.76-5.25,1.56l-1.79.54c-2.25.69-4.49,1.38-6.72,2.1l-1.12.36-5.67,1.85-1.94.65-5.59,1.91-1.15.4-.37.13-1,.37c-2.67.94-5.33,1.9-8,2.87l-2.65,1c-2.5.94-5,1.9-7.47,2.86l-1.71.67c-3,1.17-5.95,2.38-8.91,3.6l-2.22.93c-2.33,1-4.67,2-7,3l-1.46.63-1.44.64-2.51,1.11-4.16,1.88-2.46,1.12-4.4,2.06-2.1,1c-2.15,1-4.29,2.06-6.42,3.1l22.88,58.87c2.13-1,4.27-2.08,6.41-3.11l2.11-1,4.39-2.05Z"/></clipPath><clipPath id="clip-path-4" transform="translate(5 5)"><polygon class="cls-2" points="322.11 583.78 344.99 642.64 297.01 622.12 274.14 563.25 322.11 583.78"/></clipPath><clipPath id="clip-path-5" transform="translate(5 5)"><path class="cls-2" d="M354.53,632.6l2-2c1-1,1.94-1.94,2.92-2.9.72-.7,1.46-1.39,2.18-2.08l2.95-2.83.91-.84c1.29-1.2,2.58-2.38,3.89-3.57l1.27-1.15q2.36-2.13,4.77-4.23l.3-.25q2.28-2,4.61-3.94l1.36-1.13c1.42-1.18,2.85-2.36,4.3-3.52l.76-.63c1.67-1.34,3.36-2.67,5.05-4l1.33-1c1.06-.82,2.14-1.64,3.22-2.45q2-1.53,4.1-3c.81-.6,1.62-1.2,2.44-1.79l4.55-3.24,2.09-1.47c2.23-1.54,4.48-3.06,6.75-4.58l.28-.19c2.18-1.44,4.37-2.86,6.59-4.27l2.63-1.65c1.31-.82,2.62-1.64,3.94-2.44l2.85-1.71,3.87-2.3,3-1.71c1.29-.73,2.58-1.47,3.88-2.19l3-1.68,3.92-2.12,3.13-1.66,3.66-1.89,3.26-1.65,3.68-1.82,3.31-1.6,3.74-1.76,3.35-1.54c1.25-.58,2.52-1.14,3.78-1.7s2.25-1,3.39-1.49l3.81-1.63,3.43-1.43c1.28-.53,2.57-1,3.85-1.56s2.32-.93,3.49-1.38l3.89-1.49,3.51-1.32c1.31-.49,2.64-1,4-1.44L511,535l4.55-1.54,3.19-1.07c1.62-.53,3.24-1,4.86-1.55l3-.93c1.9-.58,3.81-1.14,5.72-1.7l2.17-.64c2.67-.74,5.33-1.47,8-2.19s5.08-1.32,7.63-1.95c2.17-.53,4.35-1,6.52-1.54l1.73-.39c1.87-.42,3.75-.83,5.62-1.22l1-.21c2.15-.45,4.3-.87,6.45-1.29l1.58-.29,5.31-1,1.48-.26,3.7-.61,1.65-.26c1.78-.28,3.55-.55,5.33-.81h.2l5.1-.69,1.76-.22c1.17-.15,2.35-.3,3.53-.43L603,514l3.22-.35,2.17-.21,3.1-.29,2.2-.2c1-.08,2-.17,3.08-.24l2.18-.17,3.11-.2,2.13-.13,2.94-.16,2.13-.1,3.15-.12,1.89-.07,3.84-.1h1.19c1.66,0,3.32-.05,5-.05h6.91l3,.05,2.07.06c1,0,1.91,0,2.86.09l2.14.08,2.77.13,2.17.11,2.72.16,2.18.14,2.7.2,2.16.17,2.68.23,2.14.2,2.7.27,2.1.22,2.73.32,2,.24,2.84.37,1.89.25,3.13.45,1.56.23c1.56.24,3.12.49,4.67.75l-22.88-58.87-4.67-.74-1.51-.22c-1.06-.16-2.12-.32-3.19-.46l-1.83-.25-2.89-.37-2-.24-2.78-.32-2.07-.22-2.73-.27-2.1-.2-2.73-.23-2.12-.17-2.74-.2-2.14-.14-2.76-.16-2.13-.11-2.81-.13-2.11-.08c-1,0-1.93-.07-2.9-.09l-2-.06-3.1-.05H621.4l-5,.06h-1l-4,.1-1.82.07-3.23.13-2,.1-3,.15h-.62l-1.44.09-3.16.21-2.18.16-3.07.25-2.22.19-3.06.29-2.22.22-3.15.35-2.13.24-3.42.41-1.87.24c-1.58.21-3.17.42-4.76.65l-.54.07c-1.76.26-3.52.52-5.29.8l-1.78.29-3.56.59-.56.09-1,.18c-1.75.3-3.49.62-5.24,1l-1.62.3c-2.14.42-4.29.84-6.44,1.29l-1,.21c-1.87.39-3.73.8-5.6,1.22l-1.74.39c-2.17.5-4.34,1-6.52,1.54-2.51.62-5,1.26-7.51,1.92h-.11c-2.67.7-5.33,1.44-8,2.19l-2.06.61c-2,.56-3.9,1.13-5.83,1.73l-2.94.92c-1.63.51-3.25,1-4.87,1.55-1.08.35-2.15.72-3.22,1.08-1.51.51-3,1-4.51,1.53l-.93.32-2.58.93-4,1.43-3.5,1.32-3.9,1.5c-1.29.5-2.33.92-3.49,1.38l-3.84,1.55-3.45,1.45-3.79,1.61-1.3.56c-.72.31-1.42.64-2.13.95l-3.73,1.67-3.4,1.58c-1.23.57-2.46,1.14-3.68,1.73L441,495.77c-1.22.6-2.43,1.19-3.63,1.8s-2.22,1.11-3.32,1.68l-3.59,1.85-1.65.86c-.52.27-1,.56-1.54.83l-3.87,2.1-3.07,1.7c-1.28.71-2.55,1.44-3.82,2.16-1,.58-2,1.15-3,1.74l-3.82,2.26-2.9,1.74-3.9,2.42-2.14,1.33-.54.35c-2.17,1.38-4.33,2.78-6.46,4.19l-.4.26c-2.27,1.51-4.51,3-6.74,4.58l-2.1,1.48q-2.28,1.6-4.53,3.22l-2.46,1.8-4.09,3-1.31,1-1.94,1.49-1.28,1c-1.7,1.32-3.4,2.66-5.07,4l-.75.61c-1.45,1.17-2.88,2.35-4.31,3.54l-1.35,1.13c-1.56,1.31-3.1,2.62-4.63,4l-.28.24q-2.42,2.1-4.78,4.23l-1.27,1.15c-1.31,1.18-2.6,2.37-3.89,3.57l-.9.84-.37.35-2.62,2.5-2.14,2-3,3-1.93,1.92c-1.11,1.13-2.2,2.27-3.29,3.4-.52.53-1,1.06-1.55,1.6q-2.39,2.5-4.71,5.06L345,642.64c1.56-1.7,3.13-3.36,4.72-5,.56-.6,1.13-1.18,1.7-1.76l3.13-3.23Z"/></clipPath><clipPath id="clip-path-6" transform="translate(5 5)"><path class="cls-2" d="M708,410.94l22.87,58.87-16.14,28.54q-9.48-3.18-19.39-5.69l-13.67-35.18Z"/></clipPath><clipPath id="clip-path-7" transform="translate(5 5)"><path class="cls-2" d="M171.94,935.5c-.32-.85-.63-1.71-.95-2.57-.13-.39-.28-.77-.42-1.16q-.67-1.86-1.32-3.75V928q-.63-1.85-1.23-3.69l-.39-1.21c-.27-.87-.55-1.74-.82-2.61-.14-.47-.29-.94-.43-1.41l-.73-2.47c-.14-.48-.28-1-.41-1.44-.25-.86-.49-1.71-.73-2.57-.11-.44-.24-.88-.36-1.32-.28-1.05-.56-2.11-.82-3.16-.07-.25-.13-.49-.2-.73l-1-3.93c0-.23-.1-.46-.16-.69-.32-1.36-.63-2.73-.92-4.1-.09-.4-.18-.79-.26-1.18-.33-1.56-.67-3.13-1-4.71a.74.74,0,0,0-.08-.41c-.28-1.46-.55-2.93-.81-4.4l-.21-1.23c-.28-1.6-.54-3.2-.79-4.81-.3-2-.57-3.9-.83-5.85l-.15-1.21c-.24-1.89-.46-3.79-.66-5.68a9.87,9.87,0,0,0-.11-1c-.15-1.48-.29-3-.41-4.45-.07-.78-.14-1.56-.2-2.34-.1-1.36-.2-2.72-.28-4.08,0-.68-.09-1.36-.13-2-.11-1.87-.19-3.74-.26-5.61v-.5q-.1-3-.13-6.1v-8.43c0-1.29,0-2.59.08-3.89l.09-2.35c.05-1.31.11-2.62.18-3.94,0-.74.07-1.48.12-2.22.11-1.84.24-3.68.38-5.52,0-.32.06-.65.08-1,.15-1.78.31-3.55.49-5.33a7.47,7.47,0,0,1,.08-.8c.19-1.91.4-3.82.65-5.72l.15-1.25c.25-1.92.5-3.84.78-5.76a4.5,4.5,0,0,1,.08-.51c.28-1.82.56-3.64.87-5.46.06-.37.11-.73.18-1.09q.48-2.84,1-5.67c.07-.38.14-.75.22-1.13.35-1.86.73-3.72,1.12-5.58a2.06,2.06,0,0,1,.07-.32c.41-1.92.84-3.85,1.29-5.77.09-.4.19-.8.28-1.19q.67-2.83,1.39-5.67c.07-.29.15-.58.23-.87.45-1.76.92-3.51,1.41-5.27.08-.29.15-.57.23-.85.53-1.9,1.07-3.79,1.64-5.68l.4-1.3c.5-1.66,1-3.32,1.55-5,.1-.3.19-.6.28-.9.61-1.88,1.23-3.75,1.88-5.63l.45-1.32c.58-1.65,1.16-3.31,1.76-5l.32-.87c.68-1.86,1.38-3.73,2.1-5.59.17-.44.34-.88.52-1.31.67-1.66,1.33-3.32,2-5,.1-.27.21-.53.32-.8.75-1.85,1.54-3.7,2.33-5.55l.58-1.32c.72-1.66,1.45-3.32,2.2-5l.32-.72c.84-1.84,1.7-3.68,2.56-5.51.21-.44.42-.88.64-1.32.79-1.66,1.6-3.32,2.42-5l.32-.65c.91-1.82,1.83-3.63,2.78-5.45l.69-1.32c.87-1.67,1.76-3.33,2.65-5l.31-.57c1-1.8,2-3.61,3-5.41L201,675c.95-1.68,1.91-3.34,2.89-5l.27-.47c1.06-1.78,2.14-3.57,3.23-5.35.26-.43.52-.86.79-1.29,1-1.68,2.08-3.36,3.15-5l.22-.35c1.13-1.77,2.28-3.53,3.44-5.3l.84-1.27q1.68-2.54,3.41-5.06l.16-.24c1.21-1.76,2.43-3.5,3.66-5.24l.88-1.25c1.22-1.7,2.44-3.41,3.69-5.1l.08-.12c1.27-1.72,2.56-3.45,3.87-5.16.3-.41.62-.82.93-1.23l4-5.12v-.05c1.33-1.68,2.67-3.35,4-5l.92-1.14q2-2.5,4.13-5l.44-.53c1.28-1.52,2.58-3,3.88-4.55l.93-1.08c1.41-1.63,2.84-3.26,4.28-4.87l.71-.79c1.29-1.45,2.6-2.88,3.91-4.32.3-.32.58-.64.88-1q2.21-2.4,4.46-4.77c.29-.32.59-.63.89-.94q2-2.1,4.07-4.22l.76-.78q2.31-2.34,4.65-4.68l1-1c1.45-1.43,2.9-2.85,4.38-4.27l.53-.52q2.31-2.22,4.66-4.42l2.08-1.93c1.07-1,2.14-2,3.23-3l2.18-2c1.07-1,2.15-1.94,3.24-2.89.74-.66,1.47-1.31,2.22-2,1.1-1,2.21-1.93,3.33-2.89l2.18-1.87,3.56-3c.68-.56,1.35-1.13,2-1.69,1.39-1.16,2.79-2.3,4.2-3.44l1.45-1.18c1.91-1.54,3.84-3.07,5.77-4.58l1.06-.82,4.82-3.71,1.34-1c1.44-1.09,2.9-2.18,4.36-3.26l1.73-1.27c1.52-1.11,3-2.22,4.58-3.32l1.17-.85c1.92-1.36,3.84-2.71,5.78-4.06l1.36-.94,4.56-3.11,1.82-1.21q2.33-1.56,4.67-3.1c.45-.28.89-.58,1.33-.87q3.15-2,6.33-4.05l-22.88-58.87-.85.54c-1.83,1.16-3.65,2.34-5.47,3.52l-1.35.88q-2.34,1.53-4.65,3.08L329.4,457l-4.52,3c-.46.33-.93.65-1.4,1l-5.75,4-1.22.88c-1.52,1.09-3,2.18-4.54,3.29l-1.75,1.29c-1.45,1.07-2.88,2.14-4.31,3.22l-1.39,1-.55.42-4.16,3.2c-.38.31-.78.6-1.17.91q-2.88,2.26-5.75,4.56l-1.5,1.22-4.16,3.4-2.07,1.73q-1.77,1.47-3.51,3l-2.23,1.92c-1.1.94-2.2,1.89-3.28,2.84-.76.66-1.51,1.33-2.26,2-1.07.94-2.14,1.89-3.19,2.84l-2.23,2c-1.07,1-2.12,1.94-3.17,2.92-.72.66-1.43,1.31-2.13,2-.28.26-.57.51-.85.78-1.27,1.19-2.53,2.4-3.79,3.61l-.58.56q-2.17,2.1-4.32,4.22l-1,1q-2.34,2.32-4.63,4.66l-.78.8c-1.36,1.4-2.72,2.8-4.06,4.21l-.89.93q-2.25,2.39-4.46,4.77l-.88,1c-1.31,1.44-2.62,2.88-3.91,4.32l-.7.78q-2.17,2.43-4.29,4.88c-.31.36-.62.71-.92,1.07-1.31,1.52-2.61,3-3.9,4.58l-.43.5c-1.39,1.67-2.76,3.34-4.13,5l-.91,1.13c-1.36,1.68-2.72,3.37-4,5.06-1,1.26-2,2.51-2.94,3.77l-1,1.32-1,1.27q-1.94,2.57-3.83,5.14l-.13.18q-1.84,2.5-3.64,5l-.91,1.29q-1.84,2.6-3.63,5.2l-.21.31c-1.14,1.66-2.25,3.32-3.36,5l-.87,1.31c-1.15,1.76-2.29,3.51-3.42,5.27-.08.14-.17.28-.26.41-1,1.65-2.08,3.31-3.11,5l-.81,1.33q-1.62,2.66-3.21,5.32l-.3.52c-1,1.64-1.93,3.29-2.86,4.94l-.77,1.35-3,5.38-.33.61c-.89,1.64-1.77,3.29-2.63,4.93l-.7,1.35c-.94,1.8-1.87,3.62-2.77,5.43l-.35.7c-.81,1.63-1.61,3.28-2.4,4.92-.21.45-.42.9-.64,1.35-.86,1.82-1.72,3.65-2.55,5.49-.12.25-.23.5-.34.76-.74,1.63-1.47,3.28-2.18,4.92l-.59,1.35q-1.19,2.76-2.33,5.54l-.33.81c-.67,1.65-1.32,3.29-2,4.94-.18.45-.36.89-.53,1.34q-1.08,2.79-2.1,5.58c-.11.29-.21.59-.32.89-.6,1.64-1.18,3.29-1.75,4.93-.16.44-.31.89-.46,1.33-.64,1.87-1.27,3.74-1.87,5.62l-.3.93c-.52,1.65-1,3.29-1.53,4.94-.14.44-.27.88-.41,1.33-.51,1.72-1,3.45-1.5,5.19l-.14.47-.23.86c-.48,1.75-.95,3.51-1.41,5.26-.07.29-.15.59-.23.88-.48,1.89-.94,3.77-1.39,5.66-.09.4-.18.8-.28,1.2-.45,1.92-.88,3.85-1.29,5.77l-.06.31c-.4,1.86-.78,3.73-1.13,5.59-.07.38-.15.75-.22,1.12-.36,1.89-.7,3.79-1,5.68l-.18,1.07c-.3,1.83-.6,3.67-.87,5.5a4,4,0,0,1-.07.48c-.29,1.93-.54,3.86-.79,5.79l-.15,1.21c-.24,1.91-.45,3.83-.65,5.74a6.87,6.87,0,0,1-.08.78c-.18,1.79-.34,3.57-.49,5.36,0,.32,0,.64-.07,1-.13,1.54-.24,3.08-.34,4.62v.91l-.12,2.22c-.06,1.31-.13,2.63-.18,3.94,0,.78-.06,1.56-.08,2.35q-.06,2-.09,3.9v8.41c0,2,.05,4.09.14,6.13v.33c.07,1.93.15,3.85.26,5.78,0,.65.08,1.31.13,2,.08,1.4.18,2.79.28,4.18.07.75.13,1.51.19,2.26s.11,1.4.18,2.1.16,1.63.25,2.45l.09,1c.21,1.9.43,3.81.67,5.71l.15,1.19c.27,2,.53,3.9.83,5.86.25,1.6.51,3.2.79,4.8.07.42.14.84.22,1.26.25,1.45.52,2.89.79,4.33l.09.46c.31,1.57.63,3.13,1,4.69.09.41.18.81.26,1.21.3,1.36.6,2.71.92,4.06l.12.53v.19l1,3.92.21.79c.27,1,.53,2.07.81,3.1.13.45.25.9.37,1.35.24.85.47,1.69.71,2.53l.42,1.47c.25.82.49,1.63.73,2.44.15.48.29,1,.44,1.43.26.87.54,1.73.81,2.59.13.41.26.82.4,1.23.39,1.22.8,2.44,1.21,3.65a.2.2,0,0,0,0,.11q.65,1.89,1.32,3.75c.13.39.28.77.42,1.16.31.86.62,1.71.95,2.57l.19.52c.26.7.53,1.4.8,2.1q2.08,5.37,4.16,10.72L173,938.16a.11.11,0,0,1,0-.08.11.11,0,0,0,0,.08c-.35-.88-.68-1.77-1-2.66Z"/></clipPath><clipPath id="clip-path-8" transform="translate(5 5)"><path class="cls-2" d="M708,410.94l-26.33,46.54c-47.6-7.94-100.26-6.17-154.48,7.14-83,20.36-154.66,64.06-205,119.16l-48-20.53c59.73-67,145.92-120.21,245.93-144.76C586.21,402.27,650.37,400.49,708,410.94Z"/></clipPath><clipPath id="clip-path-9" transform="translate(5 5)"><polygon class="cls-2" points="839.33 403.94 862.21 462.81 830.99 503.42 796.05 548.87 773.18 490 808.11 444.56 839.33 403.94"/></clipPath><clipPath id="clip-path-10" transform="translate(5 5)"><path class="cls-2" d="M773.18,490l20.74,53.38A216.52,216.52,0,0,0,739.35,508l-15.07-38.78A287.16,287.16,0,0,1,773.18,490Z"/></clipPath><clipPath id="clip-path-11" transform="translate(5 5)"><path class="cls-2" d="M287.66,628.34l22.88,58.86-.72,1.12c-.24.37-.47.74-.7,1.11l-.69,1.11c-.22.37-.46.74-.68,1.1l-.68,1.1c-.23.36-.45.73-.67,1.09-.45.73-.89,1.47-1.33,2.2v.07l-.6,1-.07.12q-1.29,2.17-2.53,4.37l-.12.2L300.47,704l-.14.26-.43.77-.21.38-.47.87-.15.27c-.38.69-.75,1.38-1.12,2.07l-.13.25-.38.71-.24.46-.48.92-.1.2-.48.92-.13.25-.42.82-.18.36-.38.75-.22.42-.32.65-.27.54-.3.6-.28.56-.33.67-.23.48-.36.75-.2.41-.38.8-.17.37-.34.7-.24.51-.36.79-.16.32-.39.85-.16.35-.35.78-.18.4-.34.73-.21.48L289,727l-.24.55-.31.69-.2.46-.31.71-.21.5-.31.72-.18.44-.29.68-.23.54-.25.6-.25.59-.25.62-.23.56-.27.67-.2.49-.29.74-.19.46-.25.63-.23.61-.23.59-.22.57-.23.6-.25.64-.2.53-.24.64-.2.55-.25.66-.2.56-.23.62-.21.6-.22.6-.22.62-.2.57-.21.59-.23.65-.18.53-.22.65-.19.56-.23.7-.13.38-.28.85-.13.39-.26.79-.13.4-.26.84-.12.36-.26.81-.13.43-.24.79-.13.4-.25.84-.09.32c-.1.31-.19.62-.28.93l-.08.24-.27,1-.08.28c-.09.3-.18.6-.26.89l-.11.38-.13.49-22.88-58.86.11-.39.15-.54.21-.72.13-.46.23-.79.12-.42.23-.77.14-.45.23-.7.16-.52.2-.67.17-.54.22-.69.15-.49.23-.72.17-.52.22-.66.17-.52.24-.73.16-.49.23-.67.18-.55.22-.62.19-.58.26-.73.14-.4.3-.86.13-.35L259,686l.19-.54.25-.68.17-.46.26-.71L260,683l.22-.6.22-.57.26-.69.19-.5.27-.69.19-.49.31-.78.15-.39.32-.81.16-.39.31-.76.18-.44.27-.68.23-.55.26-.64.22-.52.27-.66.24-.55.26-.61.24-.57.3-.69.2-.46.31-.72.22-.49.28-.62.25-.57.27-.6.26-.58.26-.59.27-.58.29-.63L268,664l.27-.6.28-.59.23-.51c.11-.22.22-.45.32-.67l.25-.51.31-.66.26-.53.3-.63.29-.59.29-.58.22-.46c.13-.25.25-.5.37-.75l.18-.35.38-.77.29-.57.31-.6.26-.52.34-.65.21-.41.4-.77.17-.34.43-.82.16-.3L275,650l.13-.24.49-.9.2-.38.41-.76.24-.45.4-.72.18-.33.45-.81.17-.31c.16-.29.32-.58.49-.87l0-.1.57-1,.22-.37c.36-.65.74-1.3,1.11-2s.87-1.5,1.31-2.24c.22-.36.43-.72.64-1.08l.2-.34,1.16-1.93c.22-.37.45-.73.67-1.09l.68-1.1.7-1.13c.23-.37.46-.74.7-1.11s.47-.74.7-1.12l.72-1.12Z"/></clipPath><clipPath id="clip-path-12" transform="translate(5 5)"><polygon class="cls-2" points="253.41 703.24 276.29 762.1 276.16 762.53 276.16 762.54 276.15 762.55 276.15 762.57 276.15 762.58 276.15 762.59 276.14 762.59 276.14 762.6 253.27 703.74 253.27 703.73 253.27 703.71 253.27 703.7 253.28 703.69 253.28 703.68 253.28 703.67 253.28 703.66 253.29 703.64 253.31 703.61 253.31 703.6 253.41 703.24"/></clipPath><clipPath id="clip-path-13" transform="translate(5 5)"><polygon class="cls-2" points="301.31 749.6 248.1 751.29 187.23 753.17 210.11 812.03 270.98 810.15 324.19 808.46 301.31 749.6"/></clipPath><clipPath id="clip-path-14" transform="translate(5 5)"><path class="cls-2" d="M1004.54,614.13l-22.88-58.86c-25.45-65.5-76-117.47-142.33-151.33l22.88,58.86q6.21,3.18,12.24,6.56C934.72,503.22,980.68,552.73,1004.54,614.13Z"/></clipPath><clipPath id="clip-path-15" transform="translate(5 5)"><path class="cls-2" d="M503.05,806.63c-.05-.17-.11-.33-.16-.5-.26-.82-.51-1.65-.74-2.5l-.06-.22c-.2-.76-.37-1.52-.54-2.29-.06-.25-.12-.5-.17-.76-.18-.88-.34-1.76-.48-2.66-.1-.67-.18-1.34-.27-2l-.06-.58-.12-1.28c0-.39-.06-.77-.08-1.16s-.05-.73-.06-1.1,0-.76,0-1.15v-3.36a8.47,8.47,0,0,1,.05-1.13l.06-1c.05-.58.09-1.16.15-1.75a2.32,2.32,0,0,1,.09-.78c.09-.85.19-1.69.33-2.53L478.08,721q-.19,1.26-.33,2.52a5.58,5.58,0,0,1-.09.81c-.05.57-.1,1.15-.14,1.73v6.68l.06,1.1c0,.38.05.77.08,1.15v.57l.09.72.05.58c.09.67.17,1.34.27,2,.14.9.31,1.79.49,2.67.05.26.1.5.16.76s.12.6.19.89c.11.47.23.93.35,1.4l.06.22c.23.85.48,1.68.75,2.51l.15.48c.24.71.48,1.41.74,2.11.06.14.11.29.17.43L504,809.16c-.33-.83-.62-1.68-.91-2.53Z"/></clipPath><clipPath id="clip-path-16" transform="translate(5 5)"><path class="cls-2" d="M389.68,816.82a2.6,2.6,0,0,0-.05-.62q-.13-1.65-.24-3.3a4.51,4.51,0,0,0,0-.52c-.06-1.19-.11-2.38-.14-3.58v-4.54c0-1.18,0-2.36.08-3.55V800c0-1.16.11-2.33.19-3.49,0-.51.07-1,.11-1.54.06-.8.13-1.6.2-2.4l.18-1.66c.08-.76.17-1.52.26-2.28.07-.57.15-1.14.23-1.71.1-.74.2-1.48.32-2.22l.27-1.73.39-2.21c.11-.58.21-1.15.32-1.73l.45-2.2c.12-.57.25-1.15.38-1.72.16-.74.33-1.48.51-2.21.14-.57.27-1.13.41-1.69.2-.75.39-1.5.59-2.24l.45-1.65c.2-.73.42-1.45.63-2.17s.36-1.2.55-1.8.45-1.43.68-2.14.39-1.2.59-1.79.5-1.43.75-2.14.42-1.19.64-1.78l.81-2.15c.27-.72.44-1.16.67-1.74l.9-2.19c.24-.56.46-1.12.7-1.68.32-.75.65-1.5,1-2.24.23-.54.46-1.08.71-1.61.36-.79.73-1.58,1.11-2.36.23-.49.45-1,.69-1.47.43-.89.89-1.78,1.34-2.67.19-.38.37-.75.57-1.13.65-1.26,1.32-2.52,2-3.77.11-.2.22-.4.34-.6q.87-1.58,1.77-3.15l.77-1.3c.47-.8.94-1.61,1.43-2.41.3-.5.61-1,.91-1.47.47-.74.92-1.48,1.39-2.22l1-1.54c.46-.71.92-1.41,1.39-2.11.35-.53.72-1,1.08-1.58l1.4-2c.38-.53.77-1,1.14-1.58s1-1.34,1.45-2,.79-1.06,1.19-1.58,1-1.31,1.48-2,.81-1,1.22-1.56l1.53-1.93c.42-.53.85-1,1.28-1.57l1.56-1.88,1.33-1.56c.53-.62,1.06-1.24,1.6-1.85s.92-1,1.38-1.55l1.63-1.82,1.42-1.53,1.68-1.79c.48-.51,1-1,1.46-1.52s1.14-1.17,1.72-1.75l1.51-1.51,1.74-1.71,1.56-1.5,1.49-1.4c1-1,2-1.89,3.08-2.82.38-.35.76-.7,1.16-1,1.39-1.24,2.8-2.46,4.23-3.68l.77-.65,3.63-3,1.42-1.13c1.09-.87,2.2-1.74,3.31-2.6l1.35-1c.88-.67,1.77-1.32,2.66-2l1.48-1.09c1.09-.79,2.2-1.58,3.31-2.36.3-.21.59-.43.9-.64q2.12-1.47,4.28-2.91c.41-.28.83-.54,1.25-.81,1-.68,2.07-1.36,3.12-2l2-1.27,2.19-1.35,2.08-1.25,2.22-1.32c.7-.41,1.41-.81,2.12-1.21l2.25-1.28c.71-.4,1.42-.78,2.14-1.17l2.3-1.25,2.35-1.23,2-1,2.4-1.2,2.06-1,2.44-1.16,2.07-1c.83-.39,1.67-.76,2.51-1.14l2.06-.92,2.58-1.11,2-.87c.88-.37,1.78-.73,2.67-1.09l2-.81,2.84-1.09,1.9-.73c1-.39,2.09-.76,3.14-1.14l1.64-.59c.81-.29,1.63-.56,2.44-.83l2.51-.86,2.41-.76,2.58-.83c.81-.25,1.63-.48,2.45-.72s1.72-.52,2.6-.77l2.51-.7,2.57-.71c1.61-.43,3.24-.84,4.86-1.24q6.89-1.68,13.72-3l1.42-.25c1-.2,2.09-.39,3.13-.57,1.36-.24,2.72-.45,4.09-.67l1.22-.18,3-.43,1.29-.17,3.29-.42.82-.1,4-.43,1-.1,3.07-.27,1.3-.1,3-.21,1.09-.08c1.26-.07,2.53-.14,3.79-.19h.32c1.37-.06,2.74-.11,4.1-.14h1.15l2.91,0h5.55c.89,0,1.77,0,2.65.06h1.37c1,0,2.07.07,3.1.12h.87c1.32.07,2.63.14,3.94.23l.94.07,3,.24c.46,0,.91.08,1.36.12l2.55.25,1.44.15c.83.1,1.67.19,2.5.3l1.38.17,2.74.37,1.06.15,3.78.59.59.11c1,.18,2.1.36,3.13.56.43.07.84.16,1.26.24.83.15,1.65.32,2.46.48l1.39.29,2.34.51,1.36.31,2.46.59,1.16.29,3.54.92c1.18.32,2.36.66,3.53,1l1.12.34,2.38.73,1.29.42c.74.23,1.47.47,2.2.72l1.3.44,2.24.79,1.18.42,2.73,1,.62.24c1.1.43,2.2.87,3.29,1.32l.93.4,2.33,1,1.18.52,2.06.94,1.21.56,2,1,1.13.56c.77.38,1.53.77,2.28,1.16l.82.42,3,1.64.67.38c.77.43,1.55.87,2.32,1.32l1,.62c.64.38,1.28.76,1.91,1.15.38.22.74.45,1.11.68.62.39,1.23.77,1.84,1.17.36.22.71.45,1.06.68.66.43,1.31.87,2,1.31.28.19.58.38.86.58.93.64,1.84,1.28,2.75,1.93l.3.22c.8.59,1.6,1.18,2.39,1.78l.89.68,1.77,1.38,1,.78,1.64,1.35,1,.81c.57.48,1.13,1,1.68,1.45l.84.73,2.14,2,.29.26c.8.75,1.59,1.51,2.37,2.27l.71.72c.54.53,1.08,1.07,1.61,1.62l.83.87c.49.51,1,1,1.44,1.54l.84.91c.47.53,1,1.06,1.41,1.6l.76.86c.55.64,1.08,1.28,1.62,1.93l.47.57c.69.84,1.36,1.69,2,2.54l.51.67c.48.64,1,1.28,1.44,1.93l.68.94c.41.57.82,1.14,1.22,1.72l.7,1c.39.57.77,1.15,1.15,1.74.22.33.44.66.65,1,.42.65.83,1.31,1.23,2,.17.26.33.52.49.78.56.93,1.1,1.86,1.64,2.8.1.16.19.33.28.5.43.78.86,1.56,1.28,2.34.18.33.35.66.52,1,.33.64.66,1.28,1,1.92l.54,1.1c.31.63.61,1.25.9,1.88l.51,1.11.9,2c.14.32.28.64.41,1,.42,1,.84,2,1.23,3L757,642.83q-.59-1.5-1.23-3c-.13-.32-.27-.64-.41-1l-.9-2-.45-1.22c-.3-.63-.59-1.26-.89-1.88-.18-.37-.36-.74-.55-1.11-.32-.64-.65-1.27-1-1.91l-.52-1c-.42-.79-.85-1.56-1.28-2.34-.09-.17-.18-.34-.28-.51-.53-.93-1.08-1.86-1.64-2.79l-.49-.79-1.23-2-.64-1-1.16-1.74-.7-1c-.4-.58-.8-1.15-1.21-1.72l-.68-.94c-.48-.65-1-1.3-1.45-1.94l-.51-.66c-.66-.86-1.33-1.7-2-2.54l-.47-.57c-.53-.64-1.07-1.29-1.62-1.93l-.75-.87-1.42-1.59-.84-.92-1.44-1.53-.83-.87c-.53-.55-1.07-1.09-1.61-1.63l-.7-.71c-.79-.76-1.57-1.52-2.38-2.27l-.28-.26c-.71-.66-1.43-1.32-2.15-2l-.83-.73-1.68-1.45-1-.81-1.65-1.35-1-.78c-.58-.47-1.18-.92-1.77-1.38l-.88-.68c-.8-.6-1.6-1.2-2.41-1.79l-.29-.21c-.91-.65-1.82-1.3-2.75-1.93-.28-.2-.57-.39-.86-.58-.65-.44-1.3-.88-2-1.31l-1.06-.69c-.6-.39-1.22-.78-1.84-1.16l-1.1-.68c-.64-.39-1.27-.78-1.92-1.16l-1-.61c-.77-.45-1.54-.89-2.32-1.32l-.67-.38c-1-.56-2-1.1-3-1.64l-.82-.42c-.75-.39-1.51-.78-2.28-1.16l-1.13-.56-2-1-1.22-.57c-.68-.31-1.37-.63-2.06-.93l-1.18-.53-2.33-1-.93-.39c-1.09-.45-2.19-.89-3.29-1.32l-.64-.24c-.89-.35-1.8-.69-2.71-1l-1.18-.42-2.23-.79-1.3-.44-2.2-.73-1.3-.41-2.37-.73L661,561c-1.17-.34-2.34-.68-3.53-1h-.07c-1.16-.31-2.32-.62-3.49-.91l-1.18-.29-2.45-.59-1.37-.31-2.32-.51-1.4-.29c-.81-.17-1.62-.33-2.44-.48l-1.28-.25c-1-.19-2.05-.37-3.07-.54l-.66-.12c-1.24-.21-2.5-.4-3.76-.59l-1.11-.15c-.89-.13-1.79-.26-2.69-.37l-1.42-.18-2.45-.29L624.8,554l-2.49-.24-1.42-.13-2.87-.22-1-.08c-1.29-.09-2.6-.17-3.91-.23h-1l-3-.13H595.44c-1.35,0-2.7.08-4.05.13h-.57l-3.07.16h-.47l-1.18.08-2.89.2-1.35.11-3,.27-1.05.1c-1.34.13-2.69.27-4,.43l-.85.11c-1.08.12-2.16.26-3.24.4l-1.33.18-2.92.42-1.27.19-3.9.64h-.22l-1.81.32-2.71.49-2.08.42-2.48.49-2.08.45-2.48.54c-1.53.35-3,.71-4.58,1.09s-3.07.76-4.59,1.17l-.26.07-2.72.74-2.38.66-2.67.8-2.37.7-2.64.84c-.78.25-1.57.49-2.35.75l-2.58.88-2.24.76h-.13l-1.75.64c-1,.36-2,.72-3,1.1-.66.24-1.32.51-2,.76-.91.35-1.83.69-2.74,1l-2.07.84L502.76,573l-2.09.89-2.16.93L498,575l-2,.92-2.52,1.14-2.07,1L489,579.24l-2.1,1-2.35,1.18-2.09,1.08-1.71.88-.57.32c-.78.41-1.55.83-2.32,1.25l-2.13,1.17-2.27,1.28c-.69.4-1.4.8-2.09,1.21l-2.24,1.32L467,591.2l-2.17,1.35c-.55.35-1.11.69-1.67,1l-.37.25c-1,.66-2.07,1.33-3.09,2l-1.28.84c-1.44,1-2.86,1.92-4.28,2.91l-.95.67c-1.09.77-2.18,1.54-3.25,2.32l-1.51,1.12-2.63,2-.49.37-.88.69c-1.11.85-2.22,1.72-3.31,2.59l-1.4,1.12-3.68,3-.72.6c-1.44,1.22-2.85,2.46-4.25,3.7l-1.14,1c-1,.94-2.06,1.88-3.08,2.83l-.71.65-.79.77-1.55,1.49c-.59.56-1.17,1.13-1.75,1.71l-1.52,1.52c-.57.57-1.13,1.15-1.7,1.73s-1,1-1.48,1.54l-1.66,1.76-1.43,1.56-1.63,1.8-1.39,1.56-1.57,1.83c-.46.53-.91,1-1.35,1.58l-1.53,2-1.31,1.6c-.5.62-1,1.25-1.48,1.88s-.86,1.07-1.27,1.61l-.33.42c-.37.48-.73,1-1.09,1.46s-.84,1.11-1.25,1.67l-1.39,1.91c-.46.64-.8,1.11-1.19,1.67s-.91,1.3-1.35,2-.77,1.11-1.14,1.66-.89,1.35-1.33,2-.71,1.09-1.07,1.63l-1.32,2.12c-.32.52-.66,1-1,1.56-.47.77-.92,1.54-1.37,2.3l-.84,1.42c-.57,1-1.12,2-1.67,3-.14.26-.29.51-.43.76-.68,1.25-1.35,2.51-2,3.77-.21.4-.4.8-.61,1.21-.43.86-.88,1.72-1.29,2.59-.25.5-.48,1-.71,1.5-.37.77-.74,1.55-1.1,2.33l-.72,1.62c-.33.74-.66,1.48-1,2.22-.24.57-.47,1.14-.7,1.71s-.61,1.44-.9,2.16-.44,1.18-.67,1.77-.55,1.42-.81,2.13-.43,1.19-.64,1.79-.51,1.41-.75,2.12l-.59,1.82c-.23.7-.46,1.41-.68,2.11s-.37,1.23-.55,1.84-.32,1-.46,1.53c-.06.2-.11.39-.16.59-.16.56-.31,1.13-.46,1.69-.2.74-.39,1.47-.58,2.2l-.42,1.72c-.17.73-.35,1.46-.51,2.19s-.25,1.16-.38,1.74-.3,1.45-.44,2.18L368.5,722c-.13.73-.26,1.47-.38,2.2s-.19,1.16-.28,1.73c-.11.74-.22,1.49-.32,2.23-.08.57-.16,1.14-.23,1.71-.09.76-.18,1.52-.26,2.28l-.18,1.66c-.07.79-.13,1.59-.2,2.38l-.12,1.56V738c-.07,1.06-.12,2.11-.16,3.17V742c-.05,1.18-.08,2.35-.09,3.53V750c0,1.19.08,2.38.14,3.57v.52c.06,1.1.14,2.2.23,3.29l.06.63v.39c.07.8.16,1.58.25,2.37.05.42.09.83.14,1.24.16,1.32.33,2.63.54,3.94.15,1,.32,2,.5,3,.05.28.11.56.16.84.14.78.3,1.56.45,2.33.06.26.1.51.16.76.2,1,.41,1.89.63,2.83v.1c.28,1.21.58,2.4.9,3.59.09.33.19.65.28,1,.24.87.48,1.73.74,2.58.13.42.26.85.4,1.27.23.75.48,1.51.73,2.25q.21.66.45,1.32c.25.74.52,1.48.8,2.21.09.27.18.55.29.81l.37,1,22.88,58.87c-.23-.6-.45-1.2-.67-1.81s-.54-1.47-.8-2.21c-.15-.44-.3-.87-.44-1.31-.25-.75-.5-1.5-.74-2.26l-.39-1.27c-.26-.86-.51-1.72-.75-2.59l-.27-1c-.32-1.2-.62-2.4-.91-3.6-.23-1-.44-1.94-.65-2.91-.06-.27-.11-.54-.17-.81-.15-.76-.3-1.51-.44-2.28,0-.29-.11-.58-.16-.87q-.27-1.5-.51-3c-.2-1.31-.37-2.62-.53-3.93-.05-.42-.09-.84-.14-1.27-.1-.91-.2-1.82-.29-2.74Z"/></clipPath><clipPath id="clip-path-17" transform="translate(5 5)"><path class="cls-2" d="M246.42,789.87l22.88,58.86c.24,1.87.51,3.75.79,5.62l.11.68v.07l.09.62v.13l.08.49v.06l.11.68c.1.66.22,1.32.34,2l.09.45v.22c.12.65.24,1.31.37,2l.13.68.12.64v.09l.1.49v.09l.13.64.1.47.05.2.42,2,.15.66v0c.17.73.33,1.45.5,2.18L250.1,811.08v-.49l-.06-.24v-.24l0-.1v-.48l-.05-.25v-.07l-.09-.4-.05-.24-.06-.24v-.25l-.05-.24c-.13-.57-.25-1.13-.37-1.7v-.25c-.17-.81-.33-1.62-.49-2.44l-.05-.24c-.23-1.23-.46-2.46-.67-3.7l-.05-.25-.08-.45v-1l-.07-.5,0-.25v-1.49c-.29-1.87-.56-3.75-.8-5.62Z"/></clipPath><clipPath id="clip-path-18" transform="translate(5 5)"><path class="cls-2" d="M250.26,811.18,273.14,870c.7,3,1.48,6,2.32,8.89l.16.59q2.2,7.56,4.94,14.81L257.7,835.47l-.08-.19v-.21c-.14-.36-.27-.72-.41-1.09v0l-.12-.33-.11-.3v-.07l-.14-.37v-.05l-.09-.25v-.07l-.13-.37v-.14l-.16-.44v-.17l-.14-.37-.11-.33-.13-.38v-.08L256,830v-.13l-.09-.25-.13-.37-.11-.34-.13-.37-.11-.33-.12-.35-.12-.37v-.08l-.1-.3-.12-.38c-.33-1-.64-2-.95-3l-.08-.27v-.11l-.11-.38c-.11-.36-.22-.72-.32-1.07v-.14l-.1-.32-.11-.39c-.11-.37-.21-.74-.32-1.11v-.07l-.1-.35-.11-.39-.3-1.09V818l-.09-.32v-.07l-.11-.39-.1-.39-.1-.38-.1-.38-.09-.33v-.06l-.1-.39,0-.21v-.18l-.11-.39v-.08l-.07-.31-.09-.35-.1-.39V813l-.1-.39v-.17l-.13-.55v-.06l-.1-.39Z"/></clipPath><clipPath id="clip-path-19" transform="translate(5 5)"><path class="cls-2" d="M257.72,835.57l22.86,58.83c.15.39.3.78.44,1.16l-.41-1.06-.25-.66-22.05-56.73-.11-.27v-1.1Z"/></clipPath><clipPath id="clip-path-20" transform="translate(5 5)"><path class="cls-2" d="M732.75,753.42a26.37,26.37,0,0,0-.09-2.66V750q-.09-1.68-.24-3.36v-.19c-.06-.57-.13-1.13-.19-1.69a7.34,7.34,0,0,0-.1-.93c-.11-.94-.24-1.89-.38-2.83s-.36-2.12-.55-3.17a4.36,4.36,0,0,0-.16-.8c-.18-.92-.37-1.83-.59-2.73a.6.6,0,0,0-.07-.34v-.07c-.2-.88-.43-1.74-.66-2.61-.06-.23-.13-.45-.19-.68-.18-.63-.35-1.26-.54-1.88-.09-.31-.2-.62-.29-.93-.17-.54-.34-1.08-.53-1.61l-.32-1c-.19-.54-.38-1.08-.58-1.61l-.21-.58-.27-.71q-11.43-29.43-22.88-58.86c.17.42.32.85.48,1.27s.39,1.09.58,1.64c.11.31.22.62.32.93q.29.83.54,1.65c.09.3.19.6.28.9.19.63.37,1.26.54,1.9.07.22.14.45.2.67.23.86.44,1.72.65,2.59l.09.4c.21.91.4,1.82.59,2.73a4.9,4.9,0,0,0,.16.85c.2,1,.38,2.09.55,3.15s.27,1.89.39,2.84l.09.88c.07.64.14,1.28.2,1.92.1,1.12.18,2.23.24,3.35v.73c0,.89.08,1.77.09,2.66v4.61c0,.84-.06,1.69-.11,2.53a5.32,5.32,0,0,1,0,.89c0,.3,0,.75-.09,1.12,0,.58-.09,1.15-.14,1.73a11.63,11.63,0,0,1-.13,1.17c0,.56-.12,1.12-.19,1.68a8.23,8.23,0,0,1-.16,1.2c-.06.4-.15,1.09-.23,1.64s-.13.81-.2,1.22-.18,1.08-.28,1.62-.15.81-.23,1.22l-.33,1.62c-.09.4-.17.81-.26,1.21s-.25,1.09-.38,1.63-.19.79-.29,1.19-.29,1.1-.44,1.66c-.1.38-.2.76-.31,1.14-.15.54-.31,1.08-.47,1.62s-.25.83-.37,1.25-.35,1.07-.52,1.61l-.41,1.22c-.18.55-.37,1.09-.57,1.63l-.42,1.2-.63,1.65-.45,1.16c-.22.56-.46,1.12-.69,1.68-.15.37-.3.74-.46,1.11-.25.59-.51,1.17-.77,1.76-.15.34-.3.68-.46,1-.28.63-.58,1.25-.88,1.88l-.42.89c-.36.73-.73,1.46-1.1,2.19l-.27.55c-.48.92-1,1.83-1.46,2.74l-.1.18c-.46.84-.94,1.68-1.42,2.52-.16.28-.33.55-.49.82-.36.62-.72,1.24-1.1,1.86l-.63,1c-.34.55-.68,1.1-1,1.64-.23.37-.48.73-.71,1.09-.34.52-.67,1-1,1.54s-.51.75-.77,1.13l-1,1.48c-.27.39-.55.77-.82,1.15l-1,1.44-.87,1.15c-.36.47-.7.94-1.06,1.4l-.9,1.14-1.08,1.38-1,1.15c-.36.45-.73.89-1.1,1.33l-1,1.16-1.12,1.3c-.34.39-.68.77-1,1.15L675.42,777l-1.06,1.14c-.39.42-.78.84-1.18,1.25L672,780.64c-.4.41-.79.82-1.2,1.22L669.62,783l-1.22,1.19c-.38.38-.77.75-1.17,1.13l-1,1c-.75.7-1.5,1.4-2.27,2.09-.27.23-.52.47-.79.71-1,.9-2,1.8-3.08,2.68l-.5.42c-.88.74-1.77,1.48-2.67,2.2l-1,.82-2.38,1.86-1,.77c-.61.47-1.23.93-1.85,1.39l-1.13.83-2.31,1.65-.72.51q-1.53,1.07-3.09,2.1l-.91.59c-.74.49-1.48,1-2.24,1.45-.49.32-1,.63-1.49.94l-1.55,1-1.52.91-1.59.94c-.5.3-1,.59-1.52.88L631,812l-1.54.84-1.67.91-1.64.86-1.52.78-1.69.85-1.52.75-1.73.82-1.52.72-1.78.8-1.52.69-1.83.78-1.51.64-1.92.78-1.46.59-2,.78-1.39.54-2.13.77-1.33.48-1.61.55-2,.66c-.56.19-1.13.36-1.7.54l-1.91.61-1.69.51c-.65.19-1.3.39-2,.57l-1.67.47-2,.55c-1.16.31-2.33.6-3.5.89l-3.3.78-1,.22-2.28.5-.39.08-2.9.58-.33,0-2.94.54c-1.5.25-3,.48-4.49.7l-1.05.15c-1.48.21-2.95.41-4.41.57l-.46.05c-1.36.16-2.72.29-4.07.41l-1,.09c-1.45.12-2.89.23-4.34.31l-2.38.13h-.47c-1,0-1.94.08-2.9.1h-9.91l-2.13-.09h-.72c-.94,0-1.88-.1-2.81-.17a3.55,3.55,0,0,1-.8-.06l-2-.16-1.06-.09-1.76-.17-1.1-.12-1.73-.21-1-.13-1.89-.26a5,5,0,0,1-.86-.12c-.89-.13-1.79-.27-2.68-.42l-.58-.1-2.12-.37-1-.19-1.71-.34-1-.22-1.63-.35-1-.24-1.71-.41-.9-.22c-.8-.2-1.6-.41-2.39-.63l-.29-.07c-.81-.22-1.61-.45-2.41-.69l-.87-.26c-.55-.17-1.11-.33-1.65-.51l-1-.31-1.55-.51-1-.33-1.58-.55-.89-.32-1.89-.72-.52-.19-2.36-1-.72-.31-1.63-.7-.88-.39-1.45-.66-.91-.42-1.43-.69-.85-.42-1.6-.82-.64-.32c-.73-.38-1.45-.78-2.17-1.17l-.54-.31-1.62-.92-.78-.46-1.35-.82c-.28-.16-.55-.33-.82-.5l-1.3-.82-.79-.51-1.38-.93-.65-.44c-.67-.45-1.33-.92-2-1.38l-.27-.2-1.67-1.24-.67-.51-1.24-1-.73-.58a15,15,0,0,1-1.16-1l-.71-.59-1.19-1c-.21-.18-.42-.36-.62-.55-.51-.45-1-.92-1.53-1.39l-.23-.21c-.58-.54-1.14-1.08-1.7-1.63l-.53-.53c-.39-.38-.77-.77-1.14-1.16-.21-.21-.42-.42-.62-.64l-1-1.09-.62-.67-1-1.14-.56-.64c-.39-.45-.78-.91-1.15-1.37-.13-.14-.24-.28-.36-.43-.49-.6-1-1.21-1.46-1.83-.12-.16-.24-.33-.37-.49l-1-1.38-.5-.69q-.45-.62-.87-1.23l-.51-.74c-.28-.42-.56-.83-.83-1.25-.16-.24-.32-.48-.47-.72l-.89-1.42-.35-.57c-.4-.66-.8-1.33-1.18-2l-.21-.37c-.31-.56-.62-1.12-.92-1.69-.13-.23-.25-.47-.37-.71-.24-.46-.48-.92-.71-1.38l-.39-.8c-.22-.45-.44-.9-.65-1.36-.12-.26-.25-.53-.36-.8-.23-.48-.44-1-.65-1.46-.1-.24-.21-.47-.3-.71-.31-.72-.61-1.45-.89-2.18L450.78,830c.29.74.59,1.47.9,2.2.09.21.18.43.28.64l.67,1.53c.11.25.23.51.35.76.21.47.44.94.66,1.4l.38.76c.24.48.48,1,.73,1.43.12.22.23.45.35.68.31.58.64,1.17,1,1.75.06.1.12.2.17.3.39.68.79,1.36,1.19,2l.33.54c.3.49.6,1,.91,1.45.15.23.3.47.46.7.28.43.56.85.85,1.27l.49.72.89,1.26.48.66c.35.48.7.95,1.06,1.42l.35.46c.48.62,1,1.23,1.46,1.84l.33.39,1.18,1.41.54.62,1,1.16.6.66,1,1.1.61.63c.38.4.77.78,1.16,1.17l.51.52c.57.55,1.13,1.1,1.71,1.64l.21.19c.51.48,1,1,1.55,1.41l.61.54,1.2,1,.7.59,1.17,1,.72.58,1.25,1,.67.51c.55.42,1.11.83,1.68,1.24l.26.2c.65.47,1.31.93,2,1.39l.66.43c.45.32.91.62,1.38.93l.78.51,1.31.82.81.51,1.36.81.78.46,1.52.8.55.31c.71.4,1.44.79,2.17,1.17l.64.33,1.59.81.85.42,1.44.69.91.42c.47.23,1,.45,1.44.66l.89.4,1.63.69.72.31,2.36.95.52.2,1.89.71.89.32,1.57.56,1,.33,1.55.5,1,.32,1.64.5.88.27,2.41.68.29.08,2.39.62.9.22,1.71.41,1,.24,1.64.36,1,.21,1.71.34,1,.19,2.12.37.57.1,2.69.43.85.12,1.9.26,1,.13,1.73.2,1.1.12,1.76.17,1.06.1,2,.16.79.06c.94.06,1.88.12,2.81.16h.73l2.13.09h9.91a28,28,0,0,0,2.91-.1h.48l2.16-.11h.21c1.44-.09,2.89-.2,4.34-.32l1-.08c1.35-.13,2.7-.26,4.07-.41l.45,0c1.47-.17,2.94-.37,4.41-.57l1.06-.16c1.49-.21,3-.44,4.48-.7l1.8-.33,1.47-.27.4-.07c3.15-.6,6.31-1.3,9.48-2.08,1.11-.27,2.21-.55,3.32-.84h.17l2-.55,1.67-.46,2-.58c.57-.17,1.14-.33,1.7-.51l1.91-.6,1.69-.55,2-.66,1.52-.51h.09l1.33-.48,2.13-.77,1.39-.53,2-.78,1.46-.59,1.92-.78,1.51-.65,1.55-.66.27-.12,1.54-.69,1.76-.8,1.54-.73c.57-.26,1.15-.53,1.71-.81l1.56-.76,1.65-.83,1.54-.79c.4-.22.81-.42,1.21-.63l.42-.23,1.67-.91,1.54-.84c.54-.29,1.09-.61,1.63-.92L657,869l1.62-1,1.48-.88,1.63-1,1.15-.71.25-.16,2.36-1.53.79-.52c1.06-.7,2.09-1.41,3.12-2.12.19-.14.38-.28.58-.41.82-.58,1.64-1.16,2.45-1.75l1.07-.79,1.9-1.41.37-.28.64-.5q1.2-.91,2.37-1.86l1-.81c.9-.73,1.79-1.47,2.67-2.21l.5-.42c1-.88,2.07-1.78,3.08-2.68.27-.23.52-.47.79-.71l2.27-2.09.49-.45.54-.52c.4-.37.78-.75,1.17-1.12l1.22-1.2,1.13-1.13c.4-.4.8-.81,1.19-1.22l1.1-1.14,1.17-1.24,1.07-1.15,1.13-1.26,1-1.17c.37-.43.74-.85,1.1-1.28l1-1.19,1-1.28c.34-.4.67-.8,1-1.21s.68-.85,1-1.28l1-1.24.22-.29.74-1,1-1.28c.32-.43.63-.87,1-1.31s.61-.84.91-1.27l.93-1.35c.31-.45.58-.83.86-1.25s.62-.94.92-1.41.55-.81.81-1.22l.92-1.47c.24-.4.5-.79.74-1.19s.63-1.06.94-1.6l.65-1.08c.37-.65.73-1.3,1.09-2,.14-.25.28-.5.43-.75.49-.9,1-1.81,1.44-2.71l.49-1c.3-.58.59-1.17.88-1.75.19-.39.36-.78.55-1.17s.51-1.06.75-1.6.37-.82.55-1.24.46-1,.67-1.53.37-.87.55-1.3l.61-1.49.51-1.33.57-1.48c.16-.45.31-.9.48-1.35l.51-1.47.45-1.37c.16-.49.32-1,.47-1.47s.28-.92.41-1.38.22-.71.32-1.06l.12-.41c.11-.43.23-.85.34-1.28s.27-1,.4-1.52.21-.87.32-1.31l.36-1.51c.09-.44.19-.87.28-1.31s.21-1,.3-1.51.17-.88.25-1.32.18-1,.27-1.52l.21-1.31c.08-.52.15-1,.22-1.55l.18-1.28.18-1.6c0-.42.09-.83.13-1.24s.1-1.13.14-1.69l.09-1.15v-.89c0-.84.09-1.69.11-2.53v-4.61Z"/></clipPath><clipPath id="clip-path-21" transform="translate(5 5)"><polygon class="cls-2" points="217.12 977.98 240 1036.83 192.59 1076.52 169.72 1017.65 217.12 977.98"/></clipPath><clipPath id="clip-path-22" transform="translate(5 5)"><path class="cls-2" d="M343.56,447.72C200.69,537.87,113.72,683.61,135.08,823c9.41,61.37,38.65,114,82,155l-47.4,39.68c-51-47.22-85.38-108.14-96.31-179.5-24.6-160.56,76.49-328.45,242-431.33l28.16,40.9Z"/></clipPath><clipPath id="clip-path-23" transform="translate(5 5)"><path class="cls-2" d="M169.72,1017.65l22.87,58.86C138,1025.92,106.59,965.4,91.12,904l-.58-1.49C107.69,946.58,134.81,985.32,169.72,1017.65Z"/></clipPath><clipPath id="clip-path-24" transform="translate(5 5)"><path class="cls-2" d="M466.41,872.16,489.29,931l-12.11,27.7q-11.24-1-22.15-2.69l-11.91-30.64Z"/></clipPath><clipPath id="clip-path-25" transform="translate(5 5)"><path class="cls-2" d="M443.12,925.38,466,984.25C404.13,967,355.93,928.35,335.17,874.93l-22.88-58.87C333.06,869.49,381.29,908.16,443.12,925.38Z"/></clipPath><clipPath id="clip-path-26" transform="translate(5 5)"><path class="cls-2" d="M853.35,733.86v-1.07q-.06-2.34-.18-4.71v-.74c-.09-1.43-.19-2.87-.31-4.3a3.74,3.74,0,0,0-.07-.88,1.21,1.21,0,0,1,0-.51q-.15-1.5-.33-3c-.06-.61-.12-1.22-.19-1.83-.21-1.73-.44-3.46-.71-5.19-.21-1.35-.43-2.68-.67-4l-.21-1.15c-.19-1-.39-2-.59-3-.08-.35-.15-.7-.22-1-.26-1.24-.53-2.47-.82-3.69v-.17c-.38-1.6-.78-3.18-1.2-4.75l-.36-1.26c-.32-1.16-.65-2.32-1-3.46-.17-.56-.34-1.12-.52-1.68-.31-1-.64-2-1-3-.2-.58-.39-1.16-.6-1.74-.34-1-.69-2-1.06-2.94-.13-.36-.25-.73-.39-1.08s-.32-.87-.49-1.3Q831,648,819.55,618.54c.3.8.6,1.6.89,2.4.36,1,.71,1.94,1,2.91.21.59.41,1.18.61,1.78.33,1,.65,2,1,3,.18.57.36,1.13.53,1.7.34,1.14.67,2.3,1,3.45L825,635c.42,1.58.82,3.16,1.2,4.76q.45,1.92.87,3.87c.07.33.13.66.2,1,.21,1,.41,2.06.6,3.1l.21,1.11c.24,1.34.47,2.68.67,4,.27,1.73.5,3.47.71,5.21.07.57.12,1.14.19,1.71.13,1.19.27,2.39.37,3.58a3.36,3.36,0,0,0,.08.89c.11,1.44.22,2.88.31,4.32v.71c.08,1.57.15,3.15.19,4.73v1c0,1.6.06,3.21,0,4.81V680c0,1.57,0,3.14-.1,4.7v1c-.07,1.55-.15,3.1-.25,4.64,0,.67-.11,1.35-.16,2-.08,1.07-.17,2.14-.27,3.2-.07.73-.15,1.46-.23,2.19-.11,1-.22,2-.34,3-.1.76-.2,1.51-.31,2.27q-.2,1.5-.42,3c-.12.76-.25,1.53-.37,2.3-.17,1-.33,1.94-.51,2.9-.14.78-.29,1.55-.44,2.33-.19,1-.38,1.92-.58,2.88-.17.77-.33,1.54-.51,2.31-.21,1-.44,1.93-.67,2.9-.18.76-.37,1.52-.55,2.28-.25,1-.52,2-.77,2.93-.21.74-.4,1.48-.61,2.22-.26,1-.55,1.89-.83,2.84s-.47,1.61-.72,2.41-.6,1.88-.91,2.82-.52,1.6-.79,2.4-.65,1.87-1,2.81-.56,1.59-.85,2.38-.71,1.87-1.07,2.81-.6,1.57-.91,2.35c-.38,1-.77,1.89-1.16,2.84-.32.76-.63,1.53-1,2.3-.41,1-.84,1.91-1.27,2.87-.33.74-.65,1.49-1,2.23-.46,1-.93,2-1.4,3-.33.7-.65,1.4-1,2.1-.54,1.11-1.1,2.21-1.66,3.32-.29.57-.57,1.14-.87,1.72q-1.29,2.49-2.65,5c-.22.42-.47.84-.7,1.26-.69,1.24-1.38,2.48-2.08,3.71-.38.64-.77,1.28-1.15,1.93-.59,1-1.17,2-1.78,3l-1.3,2.1c-.58.93-1.16,1.86-1.75,2.79-.46.72-.94,1.44-1.41,2.15-.58.9-1.16,1.8-1.76,2.69-.49.73-1,1.46-1.5,2.19s-1.19,1.74-1.8,2.6-1,1.47-1.58,2.2-1.22,1.71-1.85,2.55l-1.64,2.2c-.55.73-1.26,1.67-1.9,2.5s-1.12,1.44-1.69,2.16-1.29,1.64-2,2.46-1.18,1.45-1.78,2.17-1.31,1.61-2,2.4-1.23,1.45-1.84,2.17-1.35,1.57-2,2.35-1.27,1.43-1.91,2.15L767,827.31l-2,2.13-2.13,2.27-2,2.11-2.18,2.23-2.13,2-2.23,2.19-2.15,2.06-3,2.8-.76.72c-1.33,1.22-2.67,2.44-4,3.64l-1,.9c-1.2,1.06-2.42,2.12-3.64,3.17l-.67.57q-2.1,1.8-4.24,3.54l-1.06.86c-1.3,1.06-2.62,2.12-3.94,3.16l-.54.43c-1.38,1.08-2.78,2.16-4.19,3.22-1.16.88-2.34,1.75-3.52,2.62-.65.48-1.29,1-2,1.45-1.47,1.06-3,2.12-4.45,3.17l-1.13.8q-2.82,2-5.7,3.87c-.51.35-1,.68-1.56,1-1.41.93-2.81,1.85-4.23,2.75l-2.62,1.64-3,1.84-2.69,1.6-3,1.79c-1,.59-1.82,1-2.73,1.57l-3,1.73c-.94.52-1.88,1-2.83,1.55s-2,1.11-3,1.65l-3.08,1.61-2.74,1.42-3.11,1.55-2.8,1.39-3.15,1.5L662,903.1l-3.23,1.46-2.83,1.27-3.32,1.42-2.82,1.21-3.43,1.39c-.92.37-1.85.76-2.78,1.12l-3.65,1.41-2.62,1c-1.37.51-2.75,1-4.13,1.5l-2.21.8-3.27,1.11-3.29,1.12c-1.06.35-2.14.68-3.2,1s-2.28.74-3.43,1.09l-3.12.93c-1.19.35-2.39.72-3.58,1.06-1,.29-2,.56-3.05.84-1.24.35-2.47.7-3.72,1-2.12.56-4.27,1.11-6.41,1.64s-4.1,1-6.15,1.45l-2.17.47-4,.86-2.56.51c-1.19.24-2.37.48-3.55.7l-2.69.49-3.51.62-1.5.25-4.2.67-1.72.26-4.74.66-.84.12c-1.84.24-3.68.46-5.5.66l-1.53.17-4.13.42-1.66.16c-1.65.15-3.29.29-4.93.41l-.56,0c-1.82.13-3.64.24-5.44.35l-1.61.08-4,.18-1.77.07-4.2.11H517l-4.12-.05h-1.79c-1.26,0-2.51-.07-3.76-.12l-1.66-.06c-1.77-.08-3.52-.16-5.27-.27l22.88,58.86c1.75.11,3.5.19,5.26.27l1.66.06c1.25,0,2.5.09,3.76.12h1.8c1.36,0,2.73,0,4.1,0h8c1.37,0,2.74-.06,4.11-.11l1.86-.07,3.81-.17,1.77-.09h.73c1.54-.09,3.07-.2,4.62-.31l.76-.06c1.57-.12,3.16-.25,4.73-.4l1.73-.16c1.36-.13,2.71-.27,4.07-.42l1.56-.16q2.75-.32,5.49-.67l.86-.12,4.73-.66,1.71-.26c1.4-.21,2.81-.44,4.21-.67l1.5-.25.65-.1,2.88-.53,2.66-.48c1.19-.22,2.39-.46,3.58-.7.85-.17,1.69-.33,2.53-.51l4-.86,2.15-.47c2-.46,4.1-1,6.15-1.45s4.07-1,6.08-1.55l.33-.09,3.77-1,3-.82c1.26-.36,2.52-.75,3.77-1.12,1-.29,2-.57,2.92-.87l3.73-1.19,2.9-.92,3.58-1.22,2.82-1,.18-.07c.78-.27,1.56-.56,2.33-.84,1.34-.48,2.69-1,4-1.46.88-.32,1.75-.67,2.63-1,1.21-.47,2.44-.93,3.65-1.41l2.76-1.11,3.45-1.4,2.78-1.19c1-.41,1.92-.8,2.86-1.22l.5-.22c.94-.41,1.86-.84,2.79-1.25l3.27-1.48,2.81-1.33,3.17-1.5,2.82-1.4,3.08-1.53,2.81-1.46c.75-.39,1.5-.76,2.23-1.15l.75-.41c1.06-.56,2.09-1.13,3.14-1.7l2.76-1.51,3.07-1.74,2.72-1.56,3-1.8,2.68-1.61,2.93-1.82c.73-.45,1.46-.89,2.17-1.34l.49-.32c1.4-.89,2.77-1.79,4.15-2.69L731.2,936c1.91-1.26,3.81-2.55,5.68-3.86l1.26-.9c1.45-1,2.89-2,4.31-3.07l2-1.5c1.15-.85,2.31-1.7,3.45-2.57l.67-.5c1.19-.9,2.37-1.82,3.54-2.74l.48-.38c1.33-1.06,2.67-2.13,4-3.21l1-.83c1.44-1.18,2.86-2.36,4.27-3.56l.64-.55c1.23-1.06,2.46-2.12,3.67-3.2l1-.88c1.37-1.22,2.71-2.43,4-3.66L772,904l2-1.87,1-1,2.08-2,2.3-2.24,2-2,2.25-2.29,2-2,2.19-2.33,1.92-2.08c.72-.78,1.42-1.57,2.13-2.36s1.25-1.4,1.86-2.1l2.08-2.4,1.81-2.12,2-2.44c.58-.71,1.17-1.42,1.75-2.14s1.31-1.64,2-2.47,1.14-1.44,1.69-2.16l.44-.56c.49-.63,1-1.27,1.44-1.91l1.67-2.23,1.82-2.52c.54-.74,1.07-1.48,1.6-2.23s1.19-1.71,1.77-2.57,1-1.48,1.53-2.22,1.16-1.77,1.74-2.65,1-1.46,1.44-2.19l1.73-2.77c.43-.71.88-1.41,1.31-2.12.6-1,1.19-2,1.78-3,.38-.64.77-1.28,1.14-1.93.72-1.24,1.41-2.49,2.1-3.73.23-.41.47-.82.69-1.24.91-1.64,1.8-3.31,2.65-5l.83-1.65c.57-1.13,1.14-2.26,1.7-3.39.33-.68.64-1.37,1-2,.48-1,1-2,1.43-3,.33-.73.65-1.46,1-2.2.43-1,.86-1.93,1.27-2.9.33-.76.63-1.52,1-2.28.39-1,.79-1.9,1.17-2.86.31-.77.6-1.55.9-2.33.36-.94.73-1.89,1.07-2.83s.57-1.59.86-2.38.66-1.87,1-2.81.54-1.61.8-2.41l.9-2.8c.25-.81.48-1.63.73-2.45s.41-1.34.6-2c.08-.26.14-.52.22-.78.21-.75.41-1.5.61-2.25.26-1,.51-1.93.76-2.91.19-.76.38-1.52.56-2.29.23-1,.46-1.92.67-2.89l.51-2.3c.19-1,.39-1.93.58-2.9.15-.77.3-1.54.44-2.31.18-1,.34-1.94.51-2.91.12-.77.25-1.53.37-2.3.15-1,.29-2,.42-3,.11-.76.21-1.51.3-2.27.13-1,.23-2,.34-3q.14-1.11.24-2.22c.1-1,.18-2.07.26-3.11,0-.71.12-1.41.16-2.12v-.4c.09-1.4.15-2.8.21-4.2v-1c.05-1.55.09-3.09.1-4.64v-5Z"/></clipPath><clipPath id="clip-path-27" transform="translate(5 5)"><path class="cls-2" d="M828.56,652.79c17.63,115-85.69,237.15-230.79,272.77a326.5,326.5,0,0,1-97.43,9.24l23.25-53.18a247.84,247.84,0,0,0,66.33-7.29c109.42-26.86,187.34-119,174.05-205.69S651.21,533.34,541.79,560.2s-187.32,118.94-174,205.7c7.88,51.44,46,89.45,98.64,106.26l-23.29,53.22c-74.43-20.71-129.06-72.48-140-143.62a172.26,172.26,0,0,1-1.84-32.17l-53.21,1.7-60.87,1.88a35.88,35.88,0,0,1,.21-5.48c.27-2.61.56-5.18.9-7.76s.7-5.16,1.11-7.73.86-5.15,1.33-7.72,1-5.15,1.57-7.7,1.16-5.13,1.78-7.67c.3-1.21.6-2.37.91-3.52,8.84-33.77,24.05-66.76,44.65-97.79l48,20.54a276.38,276.38,0,0,0-34.39,75.39l56.09-1.8c.25-1,41.62-148,224.58-192.94,145.1-35.62,277,28.76,294.62,143.8Z"/></clipPath><clipPath id="clip-path-28" transform="translate(5 5)"><path class="cls-2" d="M1084.84,699.7v-1.22c0-1.84-.08-3.67-.13-5.5v-.87c-.07-1.73-.14-3.46-.23-5.19v-.8c-.1-1.84-.22-3.68-.35-5.51l-.09-1.21c-.14-1.83-.3-3.66-.46-5.5v-.25c0-.37-.07-.73-.1-1.09-.1-.95-.19-1.9-.29-2.85-.06-.56-.12-1.12-.19-1.68-.09-.87-.2-1.74-.3-2.62-.07-.56-.13-1.13-.2-1.69-.13-.93-.25-1.85-.37-2.77-.06-.49-.13-1-.2-1.48-.19-1.41-.39-2.81-.61-4.22q-.42-2.75-.9-5.46c-.08-.48-.16-1-.25-1.44-.28-1.62-.58-3.24-.89-4.85a4.34,4.34,0,0,0-.11-.61c-.35-1.79-.72-3.57-1.09-5.35l-.3-1.33c-.33-1.52-.67-3-1-4.56l-.15-.65-.06-.26c-.36-1.52-.72-3-1.11-4.54a1.64,1.64,0,0,0-.09-.35c-.35-1.37-.71-2.74-1.07-4.11l-.39-1.41c-.28-1-.56-2-.85-3-.16-.54-.31-1.07-.46-1.61-.29-1-.57-1.91-.85-2.86-.17-.53-.33-1.07-.49-1.61-.31-1-.63-2-.94-3l-.45-1.43c-.43-1.31-.86-2.61-1.31-3.91a1.39,1.39,0,0,0-.14-.42c-.48-1.42-1-2.84-1.49-4.26-.17-.46-.35-.93-.51-1.4l-1.06-2.86-.23-.63c-.31-.82-.62-1.63-.94-2.44l-23-58.89a1,1,0,0,0,.08.21c.36.94.71,1.87,1.06,2.81l1.12,3c.16.42.31.84.46,1.26.51,1.43,1,2.86,1.51,4.3a1.63,1.63,0,0,0,.11.31c.45,1.33.89,2.67,1.33,4,.16.48.3,1,.46,1.45.31,1,.62,1.94.91,2.92.18.55.35,1.11.51,1.67.28.92.56,1.84.83,2.76.16.57.33,1.14.5,1.71.26,1,.54,1.92.79,2.88.15.53.3,1,.44,1.58.33,1.23.65,2.47,1,3.72a3.12,3.12,0,0,0,.18.73c.38,1.48.74,3,1.09,4.45l.24,1c.35,1.48.68,3,1,4.46.1.45.21.9.3,1.35.38,1.78.74,3.57,1.09,5.35a2.68,2.68,0,0,0,.11.55c.31,1.63.61,3.28.9,4.93.09.46.17.92.24,1.39.31,1.82.62,3.64.89,5.48.22,1.41.43,2.83.63,4.25l.18,1.33c.13,1,.26,2,.38,2.95.06.51.13,1,.19,1.53.12.95.22,1.89.33,2.83a12.75,12.75,0,0,0,.17,1.5c.1,1,.21,2.07.31,3.11,0,.37.08.74.1,1.11q.27,2.79.47,5.58c0,.38.06.75.08,1.13.14,1.85.26,3.71.36,5.56v.75c.09,1.75.17,3.5.23,5.26V634c.06,1.84.1,3.68.13,5.52V647c0,1.75,0,3.49-.08,5.23v.86q-.08,2.76-.18,5.52a7.78,7.78,0,0,1-.06,1.18c-.08,1.85-.18,3.69-.29,5.54l-.09,1.25c-.07,1-.13,2-.21,3,0,.54-.08,1.08-.13,1.63-.07.89-.14,1.79-.23,2.69,0,.55-.09,1.11-.14,1.67l-.27,2.78c-.06.5-.1,1-.16,1.51-.14,1.27-.27,2.54-.43,3.82a1.81,1.81,0,0,1-.06.56c-.16,1.36-.33,2.72-.51,4.07-.06.5-.13,1-.2,1.49l-.39,2.79c-.07.56-.16,1.11-.24,1.67-.14.89-.27,1.78-.41,2.67-.09.55-.17,1.09-.26,1.64-.15,1-.31,1.93-.48,2.9-.08.45-.16.91-.23,1.36-.25,1.4-.49,2.79-.76,4.19,0,.3-.11.61-.16.92-.21,1.1-.43,2.21-.65,3.32-.1.51-.21,1-.31,1.54l-.57,2.74c-.12.54-.24,1.09-.35,1.63l-.6,2.72c-.11.52-.23,1-.35,1.56-.24,1-.48,2.09-.73,3.13-.09.37-.17.74-.26,1.1-.34,1.39-.68,2.78-1,4.17-.1.4-.2.81-.31,1.21-.26,1-.51,2-.78,3-.14.53-.29,1.06-.42,1.58-.25.89-.49,1.79-.74,2.68-.14.48-.28,1-.41,1.44-.5,1.79-1,3.57-1.55,5.36-.09.29-.19.59-.27.89-.51,1.68-1,3.37-1.56,5-.08.24-.15.49-.24.74-.57,1.8-1.16,3.59-1.75,5.38l-.39,1.16q-.92,2.7-1.86,5.35l-.27.77q-.9,2.52-1.83,5c-.1.27-.2.55-.31.82-.66,1.77-1.34,3.54-2,5.31-.16.39-.3.77-.45,1.15-.71,1.78-1.41,3.55-2.14,5.33l-.27.64c-.68,1.67-1.38,3.33-2.09,5-.14.3-.26.61-.39.92-.75,1.74-1.52,3.48-2.29,5.22-.17.38-.34.76-.52,1.14-.79,1.77-1.6,3.53-2.41,5.29-.08.17-.16.33-.23.5-.78,1.67-1.58,3.33-2.39,5l-.47,1q-1.26,2.58-2.55,5.15l-.55,1.11c-.9,1.76-1.79,3.51-2.71,5.26-.06.1-.1.2-.16.3-.88,1.7-1.79,3.39-2.7,5.08-.19.33-.36.67-.54,1-.93,1.7-1.86,3.4-2.81,5.1l-.59,1-3,5.26,22.89,59q1.52-2.61,3-5.28l.56-1q1.42-2.55,2.82-5.13c.18-.31.35-.63.52-1q1.4-2.58,2.76-5.17l.11-.22c.93-1.77,1.83-3.54,2.73-5.32l.53-1c.87-1.74,1.72-3.47,2.57-5.21.15-.3.29-.61.44-.91.82-1.7,1.64-3.41,2.43-5.12l.19-.4c.84-1.78,1.65-3.57,2.45-5.35l.47-1.07c.8-1.76,1.56-3.52,2.32-5.28l.36-.86c.73-1.69,1.44-3.39,2.14-5.08l.24-.58q1.1-2.68,2.15-5.36c.14-.38.3-.75.43-1.12.69-1.77,1.38-3.55,2-5.33l.3-.81c.62-1.68,1.24-3.36,1.83-5l.28-.75c.63-1.78,1.25-3.56,1.84-5.36.13-.39.27-.77.4-1.16.6-1.79,1.17-3.58,1.75-5.37l.24-.77c.53-1.67,1-3.33,1.55-5,.09-.31.19-.62.28-.93.53-1.78,1-3.55,1.54-5.33.06-.19.12-.39.17-.58s.17-.6.25-.91l.72-2.62c.14-.54.3-1.08.44-1.62.26-1,.52-2,.77-3,.11-.42.21-.84.33-1.26.35-1.38.69-2.77,1-4.16.09-.36.17-.72.26-1.09.25-1,.49-2.09.74-3.14.11-.52.23-1,.35-1.56.2-.9.41-1.81.6-2.72.12-.54.23-1.08.34-1.62.2-.92.39-1.84.58-2.77.1-.5.21-1,.3-1.51.23-1.13.45-2.26.66-3.4a4.17,4.17,0,0,1,.17-.84c.25-1.41.5-2.81.76-4.22.07-.42.13-.85.2-1.27l.51-3c.07-.53.16-1.06.24-1.58.15-.92.28-1.83.42-2.74.09-.54.16-1.07.23-1.61.14-1,.27-1.92.4-2.88.07-.47.13-.94.2-1.4.18-1.4.36-2.8.52-4.19v-.39c.15-1.31.3-2.61.43-3.91l.15-1.48c.09-.94.19-1.87.27-2.81.06-.55.11-1.11.16-1.66.07-.89.15-1.78.22-2.67,0-.56.09-1.11.13-1.67.08-1,.14-1.91.2-2.86,0-.38.06-.76.08-1.14v-.23c.11-1.83.21-3.65.3-5.48v-1.25c.08-1.82.14-3.64.19-5.46v-.93c0-1.72.07-3.43.07-5.15v-6.35Z"/></clipPath><clipPath id="clip-path-29" transform="translate(5 5)"><path class="cls-2" d="M1058.32,596.39c12.45,81.17-7.24,164.21-51.16,239.79l-53.54-17.89c37.17-65.32,53.75-136.84,43-206.76-14.13-92.2-73-164.53-157.33-207.59l-31.22,40.62L773.18,490a287.75,287.75,0,0,0-48.9-20.73l34.94-45.42,31.24-40.64c-80.18-27.59-176.64-32.12-276.94-7.49a580.8,580.8,0,0,0-117.81,42.82l-28.14-40.87A664.56,664.56,0,0,1,506,326.81c272-66.76,519.26,53.92,552.3,269.58Z"/></clipPath><clipPath id="clip-path-30" transform="translate(5 5)"><polygon class="cls-2" points="1007.16 836.18 1030.05 895.04 976.5 877.15 953.62 818.29 1007.16 836.18"/></clipPath><clipPath id="clip-path-31" transform="translate(5 5)"><path class="cls-1" d="M651.22,144.3c6.69-2.89,13.35-5.86,20.07-8.7,27.91-11.81,55.8-21.31,85.62-27.12,43.22-8.42,87.81-4,126.5,17.82a145.74,145.74,0,0,1,32.47,24.58,85.73,85.73,0,0,1,9.1,10.85c11.33,16.3,11.41,38.47-5.3,52.64a37.67,37.67,0,0,1-24.34,8.92c-4.33,0-8.86-.83-13.29-1a116.73,116.73,0,0,0-22.32,1.7c-31,5.2-61.21,20.52-86.91,38.07-27,18.46-54.27,38.52-82,55.75-19.44,12.08-40.35,22.69-63.9,16.43A55.47,55.47,0,0,1,615.86,330a52,52,0,0,1-22.3-21.49,54.93,54.93,0,0,1-4.43-10.45c-5.9,3.25-11.51,6.78-14.52,8.76-11.8,7.75-23.05,16.36-34.11,25.12-4.06,3.21-8.09,6.48-12.19,9.63a71.82,71.82,0,0,1-6,4.28c-21,13.39-50.38,4.91-57.52-21.26L415,141.92l34-11.77c8.25-2.86,17.12-7.2,25.26-10.6a425.39,425.39,0,0,1,45.16-16.37c32.58-9.46,70.84-14.4,101.18,4.47,14.55,9,24.51,21.82,30.67,36.65Z"/></clipPath><clipPath id="clip-path-32" transform="translate(5 5)"><path class="cls-1" d="M464.25,166.89l.88-.3c26.18-9.07,146.16-74.53,156.87,10.13,4.62,36.57,51.42-12.71,140.41-30.05s132.33,39.87,128.86,39.87S832.33,175,750.28,231s-100.54,72.5-116.72,64.29-3.47-33.64-15-40c-31.23-17.17-113.6,60.77-114.41,57.79l-39.87-146.2Z"/></clipPath><clipPath id="clip-path-33" transform="translate(5 5)"><path class="cls-2" d="M968.37,719v-1.55q0-2.64-.12-5.28V711c0-1.36-.12-2.73-.19-4.1l-.12-1.89q-.11-1.73-.24-3.45c-.06-.68-.12-1.36-.17-2s-.09-1.13-.15-1.69c-.06-.75-.14-1.49-.23-2.23,0-.28,0-.56-.07-.85-.18-1.64-.38-3.27-.59-4.91a8.57,8.57,0,0,0-.14-1.12c-.22-1.68-.45-3.36-.71-5q-.45-2.88-1-5.74c-.1-.57-.21-1.14-.31-1.7-.27-1.43-.54-2.85-.84-4.27-.1-.53-.21-1.06-.32-1.59q-.57-2.7-1.2-5.37a.33.33,0,0,0-.05-.21,5.1,5.1,0,0,1-.15-.58c-.4-1.73-.85-3.46-1.3-5.18-.07-.29-.15-.58-.22-.87-.48-1.77-1-3.54-1.5-5.29-.11-.37-.21-.74-.33-1.1q-.78-2.64-1.63-5.25c-.08-.25-.16-.49-.25-.73-.55-1.67-1.11-3.33-1.7-5-.07-.22-.15-.44-.23-.66q-.68-1.92-1.41-3.81c-.22-.61-.46-1.21-.69-1.81v-.06l-22.88-58.86c.74,1.88,1.44,3.78,2.13,5.68.07.22.15.43.22.65q.88,2.49,1.72,5c.07.23.15.46.22.69q.86,2.64,1.65,5.28c.11.36.22.72.32,1.08.52,1.76,1,3.52,1.49,5.3.08.29.16.58.23.86q.69,2.58,1.31,5.19a3.06,3.06,0,0,0,.14.58c.45,1.85.86,3.71,1.25,5.59.11.51.22,1,.32,1.56.29,1.43.57,2.87.84,4.31.11.55.21,1.1.31,1.66q.51,2.87,1,5.76c.26,1.69.49,3.38.7,5.07.06.35.1.71.14,1.06.22,1.65.41,3.3.58,5l.09.83c.13,1.31.25,2.62.37,3.93.06.68.12,1.36.16,2,.1,1.15.17,2.3.25,3.45,0,.63.09,1.26.12,1.89.08,1.38.13,2.77.19,4.16a9.08,9.08,0,0,0,0,1.16c.06,1.76.11,3.53.13,5.3V666c0,1.13,0,2.26-.08,3.39l-.07,2.09c0,1.1-.09,2.2-.14,3.3l-.12,2.08c-.09,1.58-.19,3.16-.31,4.73v.48c-.13,1.56-.27,3.13-.42,4.69,0,.34-.07.68-.1,1-.17,1.64-.35,3.28-.56,4.93a9.67,9.67,0,0,1-.12,1c-.19,1.56-.39,3.12-.62,4.68a1.29,1.29,0,0,1-.07.51c-.24,1.67-.5,3.33-.77,5L942,705c-.28,1.66-.57,3.32-.88,5a2.82,2.82,0,0,1-.11.55c-.29,1.54-.6,3.08-.93,4.63-.06.31-.12.63-.19,1q-.51,2.46-1.08,4.89c-.07.34-.15.67-.23,1q-.55,2.34-1.14,4.68l-.09.42c-.42,1.64-.86,3.29-1.31,4.93l-.3,1.1q-.69,2.49-1.42,5c-.05.15-.09.3-.14.45-.45,1.52-.92,3-1.39,4.56-.13.41-.27.82-.4,1.23-.53,1.65-1.06,3.29-1.61,4.92a1.21,1.21,0,0,1-.11.32c-.54,1.55-1.07,3.1-1.63,4.65-.15.4-.3.81-.44,1.21-.59,1.64-1.19,3.28-1.82,4.9l-.08.2c-.6,1.58-1.23,3.15-1.86,4.72l-.48,1.2q-1,2.44-2,4.89c-.69,1.61-1.38,3.22-2.1,4.82-.18.39-.36.79-.53,1.18-1.47,3.24-3,6.46-4.56,9.67-.18.39-.37.77-.57,1.16-.78,1.58-1.57,3.17-2.38,4.74V793c-.82,1.6-1.66,3.2-2.51,4.78-.2.38-.41.76-.62,1.14-.83,1.54-1.66,3.07-2.51,4.6l-.1.16c-.88,1.58-1.78,3.16-2.69,4.72l-.67,1.13c-.87,1.48-1.74,3-2.63,4.44l-.17.28q-1.43,2.32-2.87,4.65c-.24.37-.47.74-.7,1.11l-2.76,4.3c-.08.12-.17.24-.24.37q-1.51,2.3-3,4.57-.39.56-.75,1.11c-1,1.39-1.9,2.77-2.87,4.15l-.31.45c-1.06,1.51-2.12,3-3.21,4.5l-.79,1.09c-1,1.35-2,2.69-3,4-.13.17-.26.35-.4.52-1,1.38-2.07,2.74-3.12,4.1-1.52,2-3,3.92-4.61,5.86l-.51.63q-2.1,2.61-4.26,5.19c-.49.6-1,1.2-1.5,1.79-1.18,1.4-2.36,2.78-3.56,4.16-.5.59-1,1.17-1.52,1.76q-2.34,2.67-4.72,5.31l-.33.36c-1.7,1.87-3.43,3.73-5.17,5.58l-1.56,1.64q-1.92,2-3.87,4c-.57.58-1.14,1.17-1.72,1.74q-2.22,2.26-4.5,4.5l-1,1c-1.84,1.8-3.69,3.57-5.56,5.33l-3,2.76L827.25,902c-1.5,1.37-3,2.75-4.53,4.11l-.11.09c-1.57,1.4-3.16,2.8-4.75,4.18-.45.4-.92.79-1.38,1.19-1.14,1-2.27,1.95-3.42,2.91L811.28,916l-3.09,2.57-2,1.59-3,2.42-2.05,1.62-3,2.34-2.09,1.61-2.21,1.68q-2.67,2-5.38,4L786.93,935c-2.27,1.65-4.54,3.28-6.84,4.9L778.56,941c-1.88,1.3-3.77,2.6-5.67,3.88l-2,1.33c-2.37,1.59-4.75,3.16-7.16,4.71l22.88,58.86q3.61-2.31,7.17-4.71l2-1.32q2.87-1.94,5.7-3.9c.49-.35,1-.69,1.5-1,2.3-1.62,4.59-3.26,6.85-4.91l1.56-1.15c1.81-1.33,3.61-2.68,5.4-4,.37-.28.74-.54,1.1-.82L819,987l2.09-1.61q1.5-1.15,3-2.34l2.06-1.63q1.5-1.18,3-2.4l2-1.61,3-2.52,1.84-1.54,3.31-2.83,1.48-1.27c1.59-1.38,3.17-2.76,4.73-4.16l.29-.26,4.35-3.94,1.52-1.42c.83-.77,1.67-1.53,2.49-2.31l.44-.42c1.87-1.76,3.72-3.53,5.56-5.33l1-1q2.28-2.24,4.5-4.49c.58-.58,1.15-1.17,1.72-1.75,1.3-1.33,2.58-2.67,3.87-4l1.56-1.64c1.74-1.86,3.47-3.71,5.17-5.59l.32-.36q2.4-2.64,4.73-5.31l1.52-1.75c1.2-1.39,2.38-2.77,3.56-4.16l1.5-1.8q2.16-2.58,4.26-5.19l.51-.63q2.34-2.91,4.6-5.85c.14-.19.29-.37.43-.55.91-1.18,1.81-2.37,2.7-3.55l.41-.55c1-1.33,2-2.66,2.94-4l.82-1.12c1.07-1.49,2.13-3,3.18-4.47.12-.17.25-.34.37-.52.94-1.35,1.88-2.71,2.8-4.07l.79-1.16q1.53-2.26,3-4.53c.1-.16.2-.32.31-.47q1.35-2.08,2.67-4.18c.25-.39.51-.79.75-1.19q1.44-2.28,2.84-4.59c.09-.13.16-.27.25-.4q1.29-2.14,2.54-4.3c.24-.4.48-.8.71-1.2.9-1.55,1.8-3.1,2.66-4.66l.18-.3c.82-1.48,1.62-3,2.43-4.44l.66-1.23q1.26-2.35,2.48-4.71l.11-.2c.78-1.52,1.54-3,2.3-4.59.21-.41.41-.82.61-1.24.78-1.58,1.55-3.16,2.3-4.76v-.08c.74-1.58,1.46-3.17,2.18-4.75l.56-1.25c.7-1.57,1.38-3.13,2.06-4.71l.06-.14c.69-1.61,1.35-3.23,2-4.85.17-.41.34-.82.5-1.24.63-1.55,1.25-3.1,1.84-4.65,0-.09.07-.17.1-.25.62-1.63,1.22-3.25,1.81-4.88l.45-1.25c.55-1.53,1.09-3.07,1.61-4.6l.12-.35c.56-1.63,1.09-3.27,1.61-4.91.14-.41.27-.83.4-1.25.49-1.51,1-3,1.4-4.54a2.13,2.13,0,0,1,.13-.46c.39-1.29.76-2.58,1.12-3.87.11-.37.21-.73.3-1.1s.2-.73.31-1.1c.44-1.64.88-3.28,1.3-4.93a2.41,2.41,0,0,1,.1-.43c.4-1.55.77-3.1,1.13-4.66l.24-1c.37-1.62.74-3.24,1.08-4.86.07-.34.13-.67.21-1,.31-1.52.61-3,.9-4.55l.12-.62q.46-2.46.87-4.92c.07-.38.13-.77.19-1.15.27-1.64.53-3.29.76-4.93l.09-.61c.22-1.52.42-3,.61-4.56a6.2,6.2,0,0,1,.13-1c.2-1.62.37-3.25.55-4.88a9.5,9.5,0,0,1,.1-1.06c.14-1.55.29-3.09.41-4.64v-.51c.1-1.24.19-2.47.27-3.7a6.57,6.57,0,0,1,0-1c0-.7.08-1.4.11-2.1.06-1.09.1-2.18.15-3.27,0-.71,0-1.42.07-2.13,0-1.11,0-2.21.07-3.32V719.1Z"/></clipPath><clipPath id="clip-path-34" transform="translate(5 5)"><path class="cls-2" d="M690.71,1057.61l7.87-3,2-.8q3.49-1.38,6.94-2.8l1-.39c2.56-1.07,5.1-2.16,7.64-3.26l.82-.35,1.3-.58,5-2.23,2.07-.94c2.29-1,4.57-2.11,6.82-3.19L709.3,981.21c-2.26,1.08-4.54,2.15-6.83,3.19l-2.06.94-5,2.23-2.13.93c-2.53,1.1-5.07,2.19-7.62,3.25l-1,.42c-2.27.94-4.55,1.87-6.84,2.77l-2.08.82-7.84,3-.45.17c-2.5.93-5,1.84-7.54,2.73l-2.06.72c-2.77,1-5.55,1.92-8.34,2.84l-.32.1c-2.72.89-5.45,1.75-8.19,2.6l-2,.62c-2.82.86-5.65,1.71-8.49,2.52l-.84.24q-4,1.11-7.93,2.18l-2,.54c-2.66.7-5.32,1.39-8,2q-7.82,1.92-15.58,3.56c-.61.12-1.21.26-1.81.39-1.79.37-3.57.71-5.35,1.06-1.1.22-2.22.46-3.33.67-1.36.26-2.73.49-4.09.74-1.52.27-3,.56-4.55.82h-.27q-3.78.66-7.55,1.23l-2.39.36q-2.79.42-5.58.8l-2.51.34c-2.07.28-4.14.54-6.19.78l-1.6.2c-2.57.29-5.12.57-7.68.82l-2,.19-5.75.51-2.54.2c-1.85.15-3.7.28-5.55.4l-2.19.14q-3.47.21-6.9.36h-.92q-3.87.17-7.73.26h-2.34c-1.79,0-3.59.07-5.38.08H491.2c-1.66,0-3.31-.06-5-.1l-2.67-.08c-1.95-.06-3.89-.13-5.83-.23l-1.72-.08c-2.49-.12-5-.26-7.46-.44l-1.91-.14c-1.85-.14-3.69-.28-5.53-.44l-2.64-.24c-1.6-.15-3.2-.3-4.79-.47l-2.78-.3c-1.57-.17-3.14-.36-4.7-.55l-2.67-.33c-1.73-.22-3.45-.46-5.17-.71l-2.07-.29c-2.39-.35-4.77-.73-7.15-1.12l-1.25-.22c-2-.33-3.91-.67-5.85-1l-2.42-.46c-1.55-.3-3.1-.6-4.65-.92l-2.64-.55c-1.49-.32-3-.64-4.45-1l-2.59-.58c-1.56-.37-3.12-.74-4.68-1.13-.73-.18-1.48-.35-2.21-.54-2.25-.57-4.49-1.15-6.72-1.76h-.07c-2.25-.61-4.48-1.25-6.71-1.9l-2.13-.64-4.53-1.39-2.46-.79c-1.4-.45-2.8-.91-4.19-1.38l-2.47-.83c-1.43-.5-2.85-1-4.26-1.51l-2.23-.8-5.21-2-1.16-.44q-3.15-1.23-6.26-2.52l-1.77-.75q-2.24-.93-4.44-1.9l-2.24-1c-1.31-.58-2.62-1.17-3.92-1.78l-2.3-1.07c-1.3-.62-2.6-1.24-3.88-1.87l-2.15-1.06q-2.19-1.1-4.36-2.22l-1.54-.79c-1.94-1-3.86-2.05-5.77-3.11l-1.29-.73c-1.48-.83-2.95-1.66-4.4-2.51l-2-1.17c-1.22-.72-2.43-1.45-3.64-2.19l-2.1-1.3c-1.17-.73-2.34-1.47-3.5-2.22l-2-1.3q-1.87-1.23-3.73-2.49l-1.63-1.1c-1.76-1.21-3.5-2.44-5.24-3.68l-.54-.4q-2.31-1.68-4.58-3.4l-1.68-1.29c-1.13-.87-2.25-1.74-3.36-2.62l-1.86-1.5c-1.05-.85-2.09-1.7-3.12-2.56l-1.83-1.53c-1.07-.91-2.13-1.84-3.19-2.76l-1.59-1.39c-1.37-1.24-2.75-2.48-4.1-3.74-.17-.17-.36-.33-.53-.49q-2.28-2.14-4.51-4.32c-.45-.45-.89-.91-1.35-1.35-1-1-2-2.06-3.05-3.1l-1.59-1.66c-.92-1-1.83-1.93-2.73-2.91l-1.59-1.74c-.91-1-1.81-2-2.69-3q-.74-.82-1.44-1.65c-1.05-1.21-2.08-2.44-3.09-3.67l-.9-1.08q-2-2.37-3.84-4.83l-1-1.27q-1.4-1.81-2.75-3.66l-1.3-1.8q-1.17-1.64-2.31-3.27L226.33,905c-.74-1.1-1.47-2.2-2.2-3.31l-1.23-1.89c-.79-1.24-1.57-2.48-2.34-3.74l-.93-1.5q-1.59-2.64-3.11-5.31l-.54-1c-.82-1.48-1.64-3-2.44-4.45-.33-.63-.65-1.26-1-1.88-.63-1.21-1.25-2.43-1.86-3.65-.36-.7-.7-1.4-1-2.1-.57-1.19-1.14-2.38-1.7-3.58-.32-.7-.65-1.4-1-2.11-.58-1.28-1.15-2.58-1.71-3.88l-.79-1.83q-1.2-2.87-2.34-5.77L225,917.86q1.14,2.91,2.35,5.79l.76,1.77c.57,1.32,1.14,2.64,1.74,3.94.31.69.63,1.38,1,2.07.56,1.21,1.14,2.42,1.72,3.62.34.69.67,1.38,1,2.07.61,1.23,1.24,2.46,1.88,3.68.32.62.64,1.24,1,1.85.81,1.51,1.63,3,2.47,4.51l.5.9c1,1.8,2.06,3.57,3.13,5.33.29.49.6,1,.9,1.46.78,1.27,1.56,2.53,2.36,3.78L247,960.5q1.09,1.66,2.22,3.33c.43.64.87,1.28,1.32,1.91.76,1.11,1.53,2.2,2.32,3.29l1.28,1.78c.91,1.24,1.84,2.47,2.77,3.69.32.42.63.84.95,1.25q1.89,2.44,3.84,4.84c.29.36.6.71.89,1.06q1.53,1.86,3.09,3.69c.48.55,1,1.09,1.43,1.64l2.71,3c.52.58,1.06,1.16,1.59,1.74q1.35,1.47,2.73,2.91l1.58,1.67c1,1,2,2.07,3.07,3.09l1.34,1.35c1.49,1.46,3,2.9,4.51,4.32l.51.48c1.36,1.26,2.74,2.51,4.12,3.75l1.59,1.39c1.06.93,2.12,1.85,3.19,2.76l1.83,1.53c1,.86,2.07,1.72,3.12,2.57.62.5,1.23,1,1.86,1.49,1.11.88,2.23,1.75,3.36,2.62l1.68,1.3q2.26,1.71,4.58,3.39l.54.4c1.73,1.25,3.48,2.47,5.24,3.68.54.37,1.08.74,1.63,1.1,1.24.84,2.48,1.68,3.73,2.5.67.43,1.35.86,2,1.3,1.16.74,2.33,1.48,3.51,2.21l2.1,1.3c1.2.74,2.42,1.47,3.64,2.19l2,1.17q2.19,1.27,4.41,2.51l1.29.73c1.91,1.06,3.83,2.09,5.77,3.11l1.54.8,4.35,2.22,2.16,1c1.28.63,2.57,1.26,3.88,1.87l2.3,1.08,3.92,1.78,2.24,1c1.47.67,2.94,1.3,4.43,1.89l1.77.75q3.12,1.29,6.27,2.52l1.15.44q2.6,1,5.22,2l2.22.8,4.27,1.51,2.46.84,4.2,1.38,2.45.78c1.51.48,3,.94,4.54,1.39l2.12.64c2.23.66,4.47,1.29,6.72,1.91h.07c2.22.6,4.46,1.19,6.71,1.75l2.22.54c1.55.39,3.11.76,4.68,1.13l2.59.59,4.44,1,2.65.55c1.54.32,3.1.62,4.65.92l2.42.47c1.94.36,3.9.7,5.85,1l1.25.22c2.38.4,4.76.78,7.15,1.12l2.07.3c1.72.24,3.44.48,5.17.7l2.67.34,4.69.55,2.79.3c1.59.16,3.19.32,4.78.46l2.65.25,5.52.43,1.92.14q3.72.27,7.46.45l1.71.07q2.91.13,5.83.24l2.67.07,5,.11h10.63c1.78,0,3.57,0,5.37-.08h2.34c2.57-.06,5.14-.14,7.73-.26h.92q3-.12,6-.3l.89-.06,2.2-.14,5.55-.39,2.54-.21c1.91-.15,3.83-.33,5.75-.51l2-.19c2.55-.24,5.11-.52,7.68-.82l1.6-.2c2.06-.24,4.12-.49,6.18-.77l2.52-.35q2.79-.36,5.58-.8l2.39-.36c2.51-.39,5-.79,7.55-1.22h.32c1.49-.25,3-.54,4.5-.81s2.73-.48,4.09-.74l3.33-.66c1.78-.36,3.56-.7,5.34-1.07.61-.12,1.21-.26,1.81-.39q7.77-1.65,15.58-3.55l8-2,.93-.24,1.13-.31c2.65-.71,5.3-1.43,7.92-2.18l.84-.24c2.85-.81,5.68-1.66,8.5-2.52l2-.61c2.75-.85,5.5-1.72,8.22-2.62l.29-.09c2.8-.92,5.59-1.88,8.37-2.85l1-.33,1-.37c2.55-.9,5.1-1.82,7.63-2.76l.38-.14Z"/></clipPath><clipPath id="clip-path-35" transform="translate(5 5)"><polygon class="cls-2" points="733.89 1017.03 756.77 1075.89 732.13 1040.07 709.26 981.2 733.89 1017.03"/></clipPath><clipPath id="clip-path-36" transform="translate(5 5)"><path class="cls-2" d="M922.16,865.71c-35,45.91-80.48,87.31-133.78,121l-24.63-35.79c122.93-79,197.47-205.3,179-326.13C933,561.34,899,508.66,849.1,470.73l-40.56,40.48c40.48,31.89,68,75.55,76,127.84,21.37,139.53-104,287.66-279.95,330.86S268.6,935,247.22,795.49c-.29-1.87-.56-3.75-.8-5.62l-58.84,8.65q.58,5.64,1.46,11.25c25.28,165,214.49,257.36,422.6,206.27a507.92,507.92,0,0,0,97.62-34.84L733.89,1017a580.25,580.25,0,0,1-115.7,41.79c-139.41,34.22-271.41,12.12-362.63-50l-47.43,39.68c104.37,72.58,256.64,98.71,417.55,59.21C773.38,1071.46,898,987.4,975.73,883.59Z"/></clipPath><clipPath id="clip-path-37" transform="translate(5 5)"><path class="cls-2" d="M954.93,993.62c.93-1,1.84-1.93,2.76-2.89.45-.46.88-.92,1.32-1.38q2-2.13,4-4.28l.7-.77q1.65-1.77,3.27-3.57l1.41-1.57c.85-.94,1.69-1.87,2.52-2.81l1.56-1.77c.78-.88,1.54-1.76,2.31-2.65.54-.61,1.07-1.23,1.6-1.85l2.24-2.61,1.57-1.86,2.25-2.69,1.49-1.8c.79-1,1.58-1.93,2.36-2.9.43-.54.87-1.07,1.31-1.61l3.18-4c.13-.18.28-.35.42-.53l3.3-4.24.18-.24c1.31-1.71,2.62-3.43,3.91-5.15l-22.87-58.87c-1.29,1.73-2.59,3.45-3.92,5.16-1.16,1.5-2.31,3-3.48,4.48l-.45.56c-1,1.33-2.09,2.64-3.15,4-.44.54-.89,1.08-1.32,1.63-.78,1-1.55,1.91-2.35,2.87l-1.51,1.83-2.21,2.65-1.6,1.89c-.74.86-1.47,1.73-2.22,2.59-.53.62-1.07,1.25-1.62,1.87l-2.27,2.61c-.54.6-1.07,1.21-1.6,1.81-.81.92-1.64,1.84-2.47,2.76l-1.45,1.61c-1.07,1.17-2.13,2.34-3.2,3.5l-.78.84c-1.33,1.43-2.67,2.85-4,4.27l-1.35,1.41c-.91,1-1.82,1.91-2.74,2.86l-1.65,1.7L927.89,939l-1.75,1.77-2.48,2.47L921.88,945c-.84.82-1.69,1.65-2.55,2.47l-1.76,1.71c-.89.86-1.78,1.72-2.69,2.58l-1.65,1.56-1.59,1.49c-1.23,1.16-2.48,2.31-3.73,3.46l-1.85,1.7-3.54,3.21-1.88,1.67q-1.92,1.71-3.84,3.39l-1.58,1.38c-1.82,1.58-3.64,3.14-5.48,4.7-.13.11-.27.22-.39.34L884.21,979l-1.78,1.46c-1.29,1-2.58,2.11-3.89,3.15l-2,1.62-3.83,3-2,1.54c-1.46,1.14-2.94,2.28-4.42,3.41l-1.29,1-3.24,2.44-2,1.54-3.43,2.52-1.89,1.4-3.73,2.68L849,1006l-4.3,3-1.14.81q-5.5,3.82-11.11,7.55l-.81.53-4.79,3.14-1.91,1.23-3.74,2.39c-1.75,1.11-3.5,2.21-5.27,3.31a2.9,2.9,0,0,1-.33.2c-1.77,1.1-3.55,2.2-5.34,3.28l-2,1.18c-1.18.72-2.38,1.43-3.57,2.14l-2.35,1.38-3.25,1.9-2.51,1.44-3.14,1.79-2.58,1.45-3.12,1.74-2.62,1.43-3.14,1.71-2.62,1.4-3.25,1.72-2.41,1.27-3.35,1.73c-.81.41-1.61.83-2.42,1.23l-3.45,1.74-2.35,1.18-3.72,1.82-2.1,1c-1.61.77-3.21,1.54-4.83,2.3l-1,.5q-2.94,1.38-5.89,2.73l-1.84.84-4.09,1.85-2.38,1-3.59,1.58-2.58,1.12-3.44,1.47-2.65,1.12-3.45,1.42c-.87.37-1.76.73-2.64,1.09l-3.54,1.43-2.57,1-3.78,1.48-2.35.91-4.49,1.7-1.67.63q-3.12,1.17-6.27,2.3l-.71.25c-1.84.67-3.69,1.32-5.54,2l-2.28.79-4.1,1.41-2.62.87c-1.26.43-2.53.85-3.8,1.26l-2.8.91-3.66,1.17-2.91.91-3.6,1.11-3,.89-3.6,1.07-3,.87-3.61,1-3,.84-3.67,1-3,.8-4.26,1.12-2.06.53c-2.14.56-4.28,1.09-6.42,1.61s-4.53,1.11-6.8,1.63l-2,.46-5.07,1.15-2,.43q-6.79,1.5-13.57,2.83l-1.88.37-5.11,1-1.92.35c-2.2.4-4.39.8-6.59,1.17h-.15l-.82.14-7.32,1.2c-.93.16-1.87.29-2.8.44l-5.33.8-3.18.45-5,.68-3.24.42-5,.62-3.11.36-5.49.6-2.54.26c-2.67.27-5.33.52-8,.75l-1.21.1-6.76.54-2.73.18c-1.75.13-3.51.25-5.25.35-1.51.1-3,.18-4.52.26l-1.62.09c-2.16.12-4.31.21-6.46.29h-1.47c-1.69.07-3.39.13-5.08.17l-2.07,0-4.84.11H485l-6.42.06h-8.28l-4.73-.08h-1.8c-2.13,0-4.25-.11-6.36-.18h-.53q-2.91-.11-5.81-.24l-1.89-.09-4.65-.25-1.84-.1c-2.07-.13-4.13-.26-6.19-.41h-.07l-6.26-.5c-.59,0-1.18-.1-1.76-.15-1.55-.14-3.08-.27-4.61-.43l-1.86-.17q-2.76-.27-5.49-.58l-.69-.07c-2-.22-4.1-.47-6.15-.72-.54-.06-1.09-.13-1.63-.21-1.54-.19-3.07-.38-4.6-.59l-1.85-.25c-1.68-.24-3.35-.47-5-.72-.36-.06-.71-.11-1.07-.15l-6-1-1.45-.24-4.62-.79-1.82-.32-4.71-.86-1.3-.24q-3-.57-5.93-1.17l-1.2-.25c-1.58-.32-3.15-.65-4.71-1l-1.78-.39-4.47-1-1.45-.33c-1.94-.45-3.87-.92-5.8-1.39l-.89-.22-4.88-1.23-1.71-.45-4.29-1.15-1.54-.42c-1.89-.52-3.79-1-5.67-1.6l-.45-.13q-2.6-.75-5.16-1.53L324,1104l-4.15-1.3-1.58-.5q-5.55-1.77-11-3.68l-1.53-.54-4-1.45-1.6-.58-4.82-1.81-.55-.21c-1.79-.68-3.56-1.38-5.33-2.08l-1.42-.57c-1.33-.53-2.67-1.07-4-1.62q-.79-.3-1.59-.66-2.18-.9-4.33-1.83l-.92-.39q-2.58-1.11-5.15-2.28l-1.28-.58-3.9-1.79-1.58-.74-4-1.89-1.13-.55c-1.67-.81-3.33-1.64-5-2.47-.37-.18-.73-.37-1.09-.56l-3.9-2-1.53-.8-3.7-2-1.24-.67c-1.61-.88-3.22-1.77-4.81-2.67l-.85-.48c-1.32-.74-2.63-1.5-3.94-2.26l-1.47-.86-3.48-2.07-1.32-.79c-1.55-.94-3.1-1.89-4.63-2.85l-.5-.32q-2.06-1.29-4.08-2.61l-1.4-.91c-1.11-.72-2.2-1.45-3.3-2.18l-1.34-.89-4.45-3L231,1107.36c1.47,1,3,2,4.45,3l1.34.89c1.09.74,2.19,1.46,3.3,2.18l1.4.92c1.35.87,2.71,1.74,4.07,2.59l.51.33c1.53,1,3.07,1.91,4.64,2.85.43.27.87.53,1.31.79,1.15.7,2.31,1.39,3.47,2.07l1.48.87c1.31.76,2.61,1.51,3.93,2.25l.86.49c1.59.9,3.2,1.78,4.8,2.66l1.25.67,3.7,2,1.53.8,3.89,2,1.1.56c1.65.84,3.31,1.66,5,2.48l1.13.54,4,1.89,1.58.74c1.29.6,2.59,1.2,3.9,1.79l1.28.58c1.71.77,3.42,1.53,5.15,2.28l.92.39,4.32,1.84,1.6.66,3.95,1.61,1.42.57c1.77.71,3.54,1.4,5.33,2.08l.57.21c1.59.62,3.2,1.21,4.8,1.8l1.61.59,4,1.45,1.54.54q5.46,1.9,11,3.68l1.59.51c1.37.44,2.76.86,4.14,1.29l1.64.5c1.72.52,3.43,1,5.16,1.53l.45.14,5.68,1.6,1.54.42,4.28,1.14,1.72.44c1.62.42,3.24.84,4.87,1.24l.9.22c1.92.47,3.86.94,5.8,1.38l1.45.34,4.47,1,1.77.39,4.71,1,1.21.25c2,.41,3.94.79,5.92,1.17l1.32.24,4.69.86,1.83.32c1.53.28,3.07.53,4.61.79l1.46.24c2,.33,4,.64,6,1l1.07.15,5,.72,1.85.25,4.59.6,1.64.2q3.06.39,6.15.72l.69.08c1.83.2,3.65.39,5.48.57l1.87.18c1.53.15,3.06.29,4.6.42l1.77.16,6.26.49h.07c2.06.15,4.12.28,6.19.41l1.84.1,4.65.25,1.89.09q2.9.15,5.8.24h.54c2.11.07,4.23.14,6.35.19h1.8l4.73.08h8.45c2.13,0,4.27,0,6.42-.06h1.72c1.61,0,3.22-.06,4.84-.11h2.06l5.09-.17,1.46-.06c2.15-.08,4.3-.17,6.47-.29.54,0,1.07-.06,1.61-.09l3.35-.18,1.18-.08c1.74-.1,3.49-.21,5.24-.34l2.74-.19c2.24-.17,4.49-.35,6.73-.54l1.24-.1c2.67-.23,5.33-.48,8-.75l2.56-.27c1.82-.19,3.64-.38,5.47-.59l3.11-.37c1.66-.19,3.32-.4,5-.61l3.26-.42,4.94-.67,3.21-.46,5.29-.8c.95-.15,1.89-.28,2.84-.44,2.4-.38,4.81-.78,7.22-1.18l.83-.14h.17c2.21-.38,4.43-.78,6.64-1.19l2-.36,5-1,2-.38c2.25-.44,4.51-.89,6.76-1.37h.09c2.23-.46,4.45-1,6.68-1.43l2-.45,5.06-1.14,2-.46q3.39-.79,6.8-1.63c2.15-.52,4.3-1,6.43-1.61l2-.51,3.18-.83,1.17-.32c1-.25,1.92-.51,2.88-.78l3.74-1,2.93-.82c1.22-.34,2.45-.69,3.67-1l2.94-.85,3.63-1.08,2.93-.89c1.21-.36,2.41-.73,3.62-1.11l2.9-.91,3.61-1.16,2.88-.92,3.63-1.21,2.82-.94,3.68-1.27,2.73-.94.43-.14,4.34-1.55,1.45-.52c2.06-.74,4.12-1.49,6.17-2.27.65-.23,1.28-.48,1.93-.72l4.25-1.61,2.41-.94,3.73-1.45,2.58-1,3.55-1.43,2.61-1.07,3.5-1.46,2.59-1.09,3.52-1.5,2.5-1.08,1-.42,2.73-1.21,2.29-1,4.23-1.92,1.71-.78c2-.91,4-1.82,5.92-2.75l.8-.38,5-2.42,2-1,3.83-1.88,2.28-1.14,3.52-1.78c.79-.39,1.57-.8,2.35-1.2,1.15-.58,2.29-1.17,3.43-1.77l2.35-1.23,1.53-.8,1.79-1,2.56-1.37c1.07-.57,2.13-1.15,3.2-1.74.86-.46,1.71-.93,2.56-1.4l3.17-1.76,2.54-1.43,3.18-1.81,2.47-1.42,3.28-1.92,2.32-1.36,3.61-2.16c.64-.39,1.3-.77,1.94-1.17q5.44-3.27,10.78-6.67l.19-.13,3.41-2.18,2.24-1.44,4.28-2.81,1.31-.86q5.61-3.72,11.09-7.54l1.24-.87q2.12-1.47,4.21-3l1.7-1.22c1.23-.89,2.47-1.77,3.69-2.66l1.94-1.42,3.39-2.5,2.14-1.6,3.13-2.36c.09-.08.19-.15.3-.23.4-.3.78-.61,1.17-.91,1.45-1.1,2.9-2.22,4.33-3.33l2-1.58,3.76-3c.69-.56,1.39-1.11,2.07-1.67l3.82-3.1,1.83-1.5q2.52-2.07,5-4.2l.52-.43q2.75-2.33,5.46-4.68l1.6-1.4c1.28-1.12,2.56-2.24,3.82-3.37l1.88-1.68c1.19-1.06,2.38-2.14,3.56-3.22l1.83-1.67,3.81-3.54,1.09-1,.41-.38,1.74-1.66c.87-.83,1.74-1.65,2.6-2.49l1.82-1.76c.83-.8,1.66-1.61,2.48-2.43l1.82-1.79c.82-.81,1.64-1.63,2.45-2.45l1.77-1.78c.84-.85,1.67-1.7,2.5-2.56.56-.56,1.11-1.13,1.66-1.69Z"/></clipPath><clipPath id="clip-path-38" transform="translate(5 5)"><polygon class="cls-2" points="507.47 671.95 530.34 730.82 479.53 716.07 456.65 657.2 507.47 671.95"/></clipPath><clipPath id="clip-path-39" transform="translate(5 5)"><path class="cls-2" d="M708.83,682.18c9.59,62.6-46.64,129.07-125.61,148.45S432.47,815,422.88,752.37a99.26,99.26,0,0,1,4.24-46.17l51,14.77a58.13,58.13,0,0,0-.06,17.86c5.9,38.46,50,60,98.5,48.08s83.09-52.75,77.2-91.2-50-60-98.54-48.09A116,116,0,0,0,507.51,672L456.69,657.2c22.58-24.64,54.71-44.17,91.83-53.28,79-19.39,150.75,15.66,160.35,78.26Z"/></clipPath><clipPath id="clip-path-40" transform="translate(5 5)"><path class="cls-1" d="M652.32,689.23c-9.6-34.36-51.41-52.84-97.14-41.61A116,116,0,0,0,507.47,672l7,18,15.89,40.88.61-.52.6-.51.61-.5.6-.49.6-.48h.06l.58-.45h.06l.55-.43.53-.41.08-.06.09-.06.5-.38.11-.08.47-.35.12-.09.55-.41h.07l.63-.45.6-.43c.89-.62,1.79-1.24,2.71-1.84l1.91-1.24c1-.62,2-1.22,3-1.82l.68-.4.68-.39.7-.4.71-.4.72-.39,1.1-.59.36-.18.69-.36h.06l.67-.34h.08l.61-.31.12-.05.13-.06.57-.28h.1l.61-.29h0l.67-.31h.08l.12-.06.57-.27.72-.33h.08l.69-.32h.08l.5-.22.12,0,.13-.06.63-.27.22-.09.59-.26.2-.08.6-.24.21-.09.46-.19h.13l.13,0h.13l.51-.21h.12l.77-.3.73-.28h.06l.78-.29.74-.27h.08l.74-.27,1.6-.55.78-.25h.1l.69-.22.76-.24.75-.23H571l.77-.23h0l1.63-.47h.07L576,707l.32-.09.78-.2h.13l.75-.19H578l2-.48c.68-.16,1.35-.3,2-.44l2-.39h.07c.65-.13,1.3-.25,2-.36s1.33-.22,2-.32l2-.28c2-.27,4-.48,5.92-.63.78-.07,1.55-.12,2.32-.16l1.44-.08H600l1.8-.06h6.06l1.34.06h.42c.58,0,1.16.06,1.74.1h.43l1.31.1.6.06,1.12.11.65.07,1.1.13.62.08,1.2.16.49.07,1.65.26.38.06,1.29.23.58.11,1.06.21.64.14,1,.22.61.14,1.1.26.5.12,1.5.4h.16l1.49.42.5.15,1.06.33.57.18,1,.32.57.2,1,.34.54.2,1.2.45.28.11,1.46.59.4.17,1,.44.52.24.91.41.54.25.9.43.51.26,1,.52.35.17,1.34.73.35.2,1,.55.47.28.84.51.5.31.8.5.48.32c.29.18.57.37.85.56l.41.27.68.48a59.71,59.71,0,0,0,.77-21.61,55.4,55.4,0,0,0-1.4-6.48Z"/></clipPath><clipPath id="clip-path-41" transform="translate(5 5)"><path class="cls-1" d="M475.61,146.29,621,661c-9.38,37.46-27.68,98.26-49.43,106.62-15.54,6-36-9.69-52.93-27.24L360.78,181.48a94.33,94.33,0,1,1,114.83-35.19Z"/></clipPath><clipPath id="clip-path-42" transform="translate(5 5)"><path class="cls-1" d="M405.87,198l21.6-81L576,645c9.14,64.29-15.32,100.75-15.32,100.75Z"/></clipPath><clipPath id="clip-path-43" transform="translate(5 5)"><circle class="cls-2" cx="396.89" cy="94.33" r="49.75"/></clipPath><clipPath id="clip-path-44" transform="translate(5 5)"><path class="cls-1" d="M386.28,58.36A28.69,28.69,0,1,1,357.59,87a28.7,28.7,0,0,1,28.69-28.65Z"/></clipPath><clipPath id="clip-path-45" transform="translate(5 5)"><path class="cls-1" d="M471.79,274.59,431.22,130.34a49.56,49.56,0,0,1-9.14,6.91L405.87,198,431,287l16.15,57.17,13.35,47.24,5.11,18.09q2.29-11.06,4.86-21.46a501.13,501.13,0,0,1,17.35-56.41v-.08l-16-57Z"/></clipPath><clipPath id="clip-path-46" transform="translate(5 5)"><path class="cls-1" d="M619.63,165.23c-16.78-56.13-96.79-23.11-136.73-6-7.63,3.27-13.79,6-17.77,7.34l26.4,100.33,12.59,46.17c.24.87,7.45-5.18,18.33-13.76,26.3-20.73,74-56.18,96.08-44,2.83,1.56,4.2,4.25,4.9,7.55l-.54-13.79-3.26-83.83Z"/></clipPath></defs><title>ic-challenges-big</title><g id="Layer_2" data-name="Layer 2"><g id="Layer_1-2" data-name="Layer 1"><g class="cls-3"><rect class="cls-4" y="241.27" width="1179.81" height="1055.21"/></g><g class="cls-5"><rect class="cls-6" x="367.57" y="377.67" width="61.02" height="109.74"/></g><g class="cls-7"><rect class="cls-4" x="395.68" y="359.71" width="427.74" height="127.83"/></g><g class="cls-8"><rect class="cls-4" x="274.14" y="563.25" width="80.85" height="89.39"/></g><g class="cls-9"><rect class="cls-4" x="322.09" y="452.76" width="392.36" height="199.88"/></g><g class="cls-10"><rect class="cls-11" x="681.67" y="410.94" width="59.2" height="97.41"/></g><g class="cls-12"><rect class="cls-4" x="131.97" y="447.63" width="244.37" height="500.54"/></g><g class="cls-13"><rect class="cls-14" x="274.19" y="404.41" width="443.81" height="189.37"/></g><g class="cls-15"><rect class="cls-4" x="773.18" y="403.94" width="99.03" height="154.92"/></g><g class="cls-16"><rect class="cls-6" x="724.28" y="469.23" width="79.64" height="84.16"/></g><g class="cls-17"><rect class="cls-4" x="253.45" y="628.34" width="67.09" height="143.77"/></g><g class="cls-18"><rect class="cls-19" x="253.27" y="703.23" width="33.02" height="69.36"/></g><g class="cls-20"><rect class="cls-4" x="187.23" y="749.59" width="146.96" height="72.44"/></g><g class="cls-21"><rect class="cls-4" x="839.33" y="403.94" width="175.21" height="220.19"/></g><g class="cls-22"><rect class="cls-6" x="477.52" y="721.01" width="36.48" height="98.15"/></g><g class="cls-23"><rect class="cls-4" x="366.28" y="552.98" width="423.59" height="307.77"/></g><g class="cls-24"><rect class="cls-11" x="246.42" y="789.88" width="36.56" height="90.07"/></g><g class="cls-25"><rect class="cls-11" x="250.26" y="811.18" width="40.3" height="93.12"/></g><g class="cls-26"><rect class="cls-27" x="257.72" y="835.57" width="33.3" height="69.99"/></g><g class="cls-28"><rect class="cls-4" x="427.91" y="663.46" width="314.84" height="241.24"/></g><g class="cls-29"><rect class="cls-6" x="169.72" y="977.97" width="80.28" height="108.54"/></g><g class="cls-30"><rect class="cls-31" x="69.7" y="406.86" width="283.86" height="620.83"/></g><g class="cls-32"><rect class="cls-6" x="90.54" y="902.46" width="112.05" height="184.05"/></g><g class="cls-33"><rect class="cls-6" x="443.12" y="872.16" width="56.17" height="96.55"/></g><g class="cls-34"><rect class="cls-4" x="312.29" y="816.06" width="163.71" height="178.19"/></g><g class="cls-35"><rect class="cls-4" x="500.39" y="618.54" width="362.99" height="385.51"/></g><g class="cls-36"><rect class="cls-31" x="187.19" y="499.18" width="653.33" height="446.13"/></g><g class="cls-37"><rect class="cls-4" x="1007.16" y="532.01" width="87.68" height="373"/></g><g class="cls-38"><rect class="cls-31" x="367.57" y="308.42" width="704.43" height="537.76"/></g><g class="cls-39"><rect class="cls-6" x="953.62" y="818.29" width="86.43" height="86.75"/></g><g class="cls-40"><rect class="cls-4" x="415" y="94.8" width="527.94" height="267.34"/></g><g class="cls-41"><rect class="cls-14" x="464.25" y="133.91" width="437.21" height="189.27"/></g><g class="cls-42"><rect class="cls-4" x="763.73" y="575.64" width="214.64" height="444.12"/></g><g class="cls-43"><rect class="cls-4" x="202.14" y="859.01" width="540.03" height="239.88"/></g><g class="cls-44"><rect class="cls-11" x="709.26" y="981.2" width="57.51" height="104.69"/></g><g class="cls-45"><rect class="cls-14" x="187.58" y="470.73" width="798.15" height="665.35"/></g><g class="cls-46"><rect class="cls-11" x="208.11" y="883.58" width="800.48" height="311.33"/></g><g class="cls-47"><rect class="cls-4" x="456.65" y="657.2" width="83.69" height="83.61"/></g><g class="cls-48"><rect class="cls-49" x="421.85" y="598.58" width="298.04" height="247.4"/></g><g class="cls-50"><rect class="cls-4" x="507.47" y="644.34" width="156.78" height="96.49"/></g><g class="cls-51"><rect class="cls-4" x="302.55" width="328.45" height="778.94"/></g><g class="cls-52"><rect class="cls-6" x="405.87" y="117.01" width="182.17" height="638.75"/></g><g class="cls-53"><rect class="cls-54" x="347.14" y="44.58" width="109.5" height="109.5"/></g><g class="cls-55"><rect class="cls-56" x="357.59" y="58.32" width="67.38" height="67.42"/></g><g class="cls-57"><rect class="cls-31" x="405.87" y="130.34" width="91.95" height="289.17"/></g><g class="cls-58"><rect class="cls-11" x="465.13" y="133.9" width="168.3" height="189.25"/></g></g></g></svg>