<svg xmlns="http://www.w3.org/2000/svg" viewBox="0 0 1187.24 1227.74"><defs><style>.cls-1{fill:#111927;}.cls-1,.cls-2,.cls-3,.cls-4,.cls-5,.cls-6,.cls-7,.cls-8,.cls-9{fill-rule:evenodd;}.cls-2{fill:#3c800c;}.cls-3{fill:#4eab0c;}.cls-4{fill:#fff;}.cls-5{fill:#6fe81a;}.cls-6{fill:#6ee71a;}.cls-7{fill:#4e981b;}.cls-8{fill:#68d61a;}.cls-9{fill:#fefefe;}</style></defs><title>ic-coin-big</title><g id="Layer_2" data-name="Layer 2"><g id="Layer_1-2" data-name="Layer 1"><path class="cls-1" d="M355.34,60a424.55,424.55,0,0,1,125.79-49.6C596-14.9,715,7.63,818.7,60.71c112.93,57.78,206,150.12,270.6,258.83S1190.36,554.22,1187,681c-3,116.49-40.21,231.72-117.36,320.49a424.48,424.48,0,0,1-103.75,86.7l-134,79.58a424.49,424.49,0,0,1-125.78,49.6c-114.87,25.24-233.83,2.72-337.57-50.36C255.61,1109.25,162.49,1016.91,97.94,908.2S-3.11,673.51.21,546.72C3.26,430.23,40.43,315,117.57,226.23a424.48,424.48,0,0,1,103.75-86.7L355.34,60Z"/><path class="cls-2" d="M252.77,202.9c-67.11,41-116.41,101.94-146.68,174.28q29.22-17.07,58.44-34.14l33.7-19.62c12.46-51.68,35.11-92.61,54.54-120.52ZM94.18,409.16a475.2,475.2,0,0,0-21.54,106l35-20.09c28-16,56-32.09,84-48.1a341.67,341.67,0,0,1,1-95.39q-9.62,5.6-19.21,11.21Q133.84,386,94.18,409.16ZM71,541.12a549.87,549.87,0,0,0,4,90.41q36.72-20.76,73.52-41.34,37.16-20.85,74.27-41.8c-5.57-7.17-10.71-17.59-15.3-31.76a389.89,389.89,0,0,1-12.12-46.83q-39.26,22.54-78.51,45Q93.93,528,71,541.12ZM78.3,654.4a603.58,603.58,0,0,0,19.51,81.45q45.74-25.3,91.55-50.6,49.26-27.18,98.54-54.48t98.59-54.49l8.51,19.9q-49.22,27.32-98.43,54.51T198.07,705q-46.71,25.77-93.35,51.59A642.38,642.38,0,0,0,136.36,831q46.77-25.5,93.72-50.83Q279.57,753.5,329,726.62t98.86-53.73l8.55,20q-49.44,27-98.86,53.74t-98.86,53.73c-30.78,16.6-61.53,33.37-92.28,50q5.94,10.93,12.35,21.75,14.41,24.28,30.49,46.7Q230.08,897.1,271,875.36c33.06-17.53,66.14-35.22,99.21-52.7s66.12-35.26,99.11-53c2.85,6.66,5.66,13.24,8.52,19.9q-49.6,26.6-99.22,53c-33.1,17.55-66.16,35.29-99.29,52.75C253.62,909,228,922.75,202.35,936.43a629.09,629.09,0,0,0,54.76,62.43q27.28-14.31,54.61-28.58,49.74-25.92,99.48-51.94t99.5-52l8.55,20q-49.75,26.24-99.61,52.22c-33.28,17.24-66.44,34.73-99.71,52q-23.22,12.09-46.38,24.2a588.72,588.72,0,0,0,69.67,55.46l9.3-4.74q15.68-8,31.35-16c-2-1.62-3.9-3.24-5.73-4.81-26-22.16-37.84-29.81-8.94-45.27L464,948.57c26.44-14.14,4.12-12.16,7.21-13.06l454,37.12c81.91-146.51,75.34-354.62-32.57-536.35-105.11-177-278.19-281.56-442.21-285.22-30.19,92.6-88.71,260.35-143.39,349.8q19-10.68,38-21.38l8.56,20q-39.15,22.08-78.27,44.1c-10.77,10.89-21.1,17.08-30.7,17.24-29.07,16.36-58.14,32.82-87.23,49.14q-39.51,22.3-79.12,44.46Zm285.92,429.31a524.91,524.91,0,0,0,92.08,45.08q17.58-8.82,35.14-17.65C454,1096.07,425,1079.39,403,1063.86l-38.74,19.85Zm120.84,54.73c59.86,18,120.92,23.56,179.44,15.12-57.46-7-105.5-18.51-145.43-32.16q-8.75,4.39-17.51,8.77l-16.5,8.27Z"/><path class="cls-3" d="M85.73,438.17c30.1-17.49,60.16-35.15,90.21-52.72l13.81-8.06q1-13.25,2.93-25.8-9.62,5.6-19.21,11.21Q133.84,386,94.18,409.16q-4.7,14.26-8.45,29Zm430.55,708.52c10.69-5.36,96-51.09,106.66-56.48l-29.26-9.16c-5.83,2.93-86.28,46.2-92.12,49.12l-16.5,8.27q15.56,4.69,31.22,8.25ZM386,1096.45l114.3-60.65-20.48-13.43-115.64,61.34q10.81,6.64,21.82,12.74Zm-95.56-66.68,31.92-16.65q29.3-15.18,58.52-30.51c17.55-11.13,50.88-27,66.58-36.61,13.16-8.06,10.09-10.81,12.24-11.44l11.51,1q25.25-13.26,50.47-26.58l-8.36-19.54q-46.82,24.68-93.72,49.11c-33.28,17.24-66.44,34.73-99.71,52q-23.22,12.09-46.38,24.2,8.35,7.74,16.93,15.1Zm-74.76-76.51q33-17.65,66-35.34c33.12-17.46,66.19-35.2,99.28-52.74s66.16-35.29,99.22-53l-8.35-19.5q-46.65,25-93.34,49.86c-33.1,17.55-66.16,35.29-99.29,52.75C253.62,909,228,922.75,202.35,936.43q6.57,8.57,13.37,16.83ZM156.8,868.7C184.91,853.49,213,838.18,241.18,823q49.43-26.81,98.86-53.73t98.86-53.73l-8.32-19.46q-46.51,25.35-93,50.54-49.44,26.8-98.86,53.73c-30.78,16.6-61.53,33.37-92.28,50q5,9.23,10.37,18.38Zm-44.68-92.15q44.16-24.46,88.42-48.86,49.22-27.15,98.51-54.35t98.43-54.51l-8.31-19.41q-46.31,25.68-92.6,51.27Q247.38,677.9,198.07,705q-46.71,25.77-93.35,51.59,3.51,10,7.4,19.92ZM82.35,676.17q38.75-21.78,77.55-43.58c32.7-18.34,65.37-36.88,98.07-55.23s65.41-36.79,98.12-55.25l-8.29-19.37q-36.23,20.44-72.45,40.82c-10.77,10.89-21.1,17.08-30.7,17.24-29.07,16.36-58.14,32.82-87.23,49.14q-39.51,22.3-79.12,44.46,1.8,10.88,4,21.77ZM70.58,565.41Q95,551.48,119.29,537.47q40.44-23.06,80.79-46.33-2.73-10.8-4.75-21.34-39.26,22.54-78.51,45Q93.93,528,71,541.12q-.48,12.07-.41,24.29Z"/><path class="cls-4" d="M392.2,120C189.53,240.37,145.82,541,294.55,791.46s433.6,356,636.26,235.63,246.38-420.95,97.65-671.43S594.86-.31,392.2,120Z"/><path class="cls-5" d="M392.2,120C189.53,240.37,145.82,541,294.55,791.46c125.5,211.35,347.92,319.48,536.1,275.8a349.61,349.61,0,0,0,46.57-23.13c403.12-239.38,50.56-878-41.07-780.84-27.86,29.56-19.85,79.14-19.85,79.14l-120.45-98.3s11.16-6.76,20.2-44.51C746.44,72.67,510.4,80.27,438.76,96.9A350.1,350.1,0,0,0,392.2,120Z"/><path class="cls-6" d="M468.56,248.64c-145.19,86.21-176.52,301.58-70,481s310.65,255,455.84,168.81,176.52-301.58,70-481-310.64-255-455.84-168.81Z"/><path class="cls-1" d="M441.94,320.33c145.2-86.21,349.28-10.63,455.84,168.82C957.37,589.49,973.84,701.07,951.4,795A311.55,311.55,0,0,0,980,714.49c19.39-92,2.13-199.82-55.6-297s-144.1-164-234.21-191C614,203.6,535.09,209.13,468.56,248.64c-64,38-105.88,101.1-123.57,175.16,22.37-42.66,54.88-78.48,96.95-103.47Z"/><path class="cls-4" d="M910.41,853.27c-354.64,160-528.94-155.12-574.86-357.17-2.26,76,18.17,158,63.05,233.57,106.56,179.45,310.65,255,455.84,168.81a251,251,0,0,0,56-45.21Z"/><path class="cls-7" d="M349.66,433c190.71-113.24,435.49-11,546.73,228.45a586.4,586.4,0,0,1,46.31,149q4.57-7.54,8.7-15.39c22.44-93.95,6-205.53-53.62-305.87-106.56-179.45-310.64-255-455.84-168.82-42.07,25-74.58,60.81-96.95,103.47q-1.64,6.87-3,13.87,3.79-2.39,7.67-4.69Z"/><path class="cls-3" d="M756.14,932C627.47,948.18,482.68,871.26,398.6,729.67c-44.88-75.6-65.31-157.57-63.05-233.58A360.81,360.81,0,0,1,342,437.68q1.36-7,3-13.88c13.28-55.56,40.16-104.95,79.78-142.2-24.64-4.72-49.34-15.53-68.15-37.31-22-25.47-31-49.87-33.83-70.2-141.25,141.78-158.1,398.68-28.24,617.37,118.94,200.3,324.94,307.89,506.33,281.41-21.77-17.94-39.3-40.48-46.19-68.5A140.68,140.68,0,0,1,756.14,932Z"/><path class="cls-1" d="M764.34,803.82a16.79,16.79,0,0,1-7,4.95,17.12,17.12,0,0,1-8.44,1q-45.48-5.34-90.94-10.75-49-5.85-98-11.59c-8.54-1-15.44-7.42-18.48-15.25q-28.41-73.11-56.81-146.24Q458.06,557.47,431.45,489A20.38,20.38,0,0,1,433,470.5l12.15-27.64s8.84,3.6,16.79,6.67L506.24,420Q537.13,399.36,568,378.7a16.81,16.81,0,0,1,7.52-2.76,18.69,18.69,0,0,1,7,.58q39.87,10.77,79.77,21.44c25.06,6.71,50.11,13.48,75.18,20.15l.16,0,.16.05c1.72.51,3.44,1,5.17,1.45a23.45,23.45,0,0,1,14.4,12.66q26.61,56.9,53.15,113.81,26.32,56.34,52.67,112.66l19.38-9.59c-2.91,6.07-15.28,36.17-17.87,39.13q-23.92,27.45-47.76,55l-52.57,60.53ZM566.74,690.38l85.84,48.77q25.51,3.42,51,6.81l-5.22-12.2-45.82,5.39q-35.13-4.71-70.25-9.36l-15.59-39.41Zm183.35,37.3,3.81-.45-2.71,3-1.1-2.55Zm27.18-26.39-32.76,13.52q-17-39.34-34.11-78.68Q689.1,587,667.79,537.94q18.12-16,36.23-32,13.61-12,27.19-24,19.18,41.51,38.37,83,22.11,47.89,44.23,95.81-16.75,18.6-33.54,37.19l-3,3.34Zm-84.07,20.3-39-2.14L605.52,707.2l-23.69-12.36L506.47,526.12q23.88,5.11,47.78,10.2,32.85,7,65.7,14,21.84,51.1,43.72,102.2l29.53,69.07ZM681.42,454l-35.9-9.28q-27-7-54-14-19.18,13.41-38.38,26.79-12.82,8.94-25.64,17.91,21.09,4.81,42.19,9.58l57.06,12.85q17.52-14.05,35.09-28.08,9.81-7.84,19.6-15.73Z"/><path class="cls-3" d="M778.32,772.59a17.33,17.33,0,0,1-15.47,5.92q-45.48-5.34-90.94-10.75-49-5.84-98-11.59c-8.55-1-15.44-7.41-18.49-15.24L498.62,594.69Q472,526.23,445.43,457.79c-3.28-8.43-1.28-18.27,6.49-23.46q34.14-22.81,68.3-45.6Q551.1,368.12,582,347.46a17.1,17.1,0,0,1,7.52-2.76,18.75,18.75,0,0,1,7,.59q39.87,10.77,79.77,21.44c25.06,6.7,50.1,13.47,75.17,20.14l.17.05.16.05c1.72.5,3.44,1,5.16,1.45a23.48,23.48,0,0,1,14.42,12.66q26.58,56.9,53.14,113.81Q852.55,575,880.66,635.1c3.31,7.08,3.35,15.85-2,22q-23.92,27.43-47.75,55-26.29,30.26-52.58,60.53ZM717.6,714.73q-20-46.72-40-93.44-21.85-51.1-43.73-102.2-32.85-7-65.69-14-26.44-5.62-52.88-11.29,18.1,45.78,36.19,91.55Q573.92,642,596.3,698.55q35.13,4.66,70.26,9.36l51,6.82Zm-22.2-292-35.9-9.29q-27-7-54-14L567.1,426.2q-12.83,9-25.64,17.92,21.09,4.8,42.19,9.58,28.51,6.44,57.06,12.84,17.53-14.06,35.08-28.07,9.83-7.86,19.61-15.73Zm-13.63,84q21.33,49.09,42.61,98.19Q744.8,651.94,765.17,699l29.08-32.28,33.54-37.2q-22.12-47.89-44.23-95.81-19.17-41.52-38.37-83-13.59,12-27.2,24-18.13,16-36.22,32Z"/><path class="cls-8" d="M745.19,450.69l13.23,28.62,25.14,54.4q22.11,47.91,44.23,95.81L809,650.36l-1,1.11q2.44,5.17,4.79,10.43a486.36,486.36,0,0,1,18.8,49.36q23.52-27.09,47.06-54.17l.26-.3a17.39,17.39,0,0,0,3.63-7.6,22.8,22.8,0,0,0-1.88-14.09l-12.79-27.39q-21.69-46.41-43.4-92.82Q797.89,458,771.33,401.08a23.48,23.48,0,0,0-14.42-12.66c-1.72-.48-3.44-.95-5.16-1.45l-.16-.05-.17-.05c-25.07-6.67-50.11-13.44-75.17-20.14q-39.9-10.68-79.77-21.44a18.75,18.75,0,0,0-7-.59,17.1,17.1,0,0,0-7.52,2.76q-29.47,19.74-59,39.43l-.61.4q10.05,4.14,19.88,8.62,20.31,9.25,39.7,19.92l23.52-16.41,18.21,4.73q17.91,4.67,35.81,9.3l35.9,9.29-9.69,7.78-9.92,8-13.28,10.61-13,10.37q6.45,4.85,12.74,9.86,16.19,12.92,31.29,26.95,12.2-10.8,24.4-21.57l16.07-14.16,11.13-9.84Z"/><path class="cls-6" d="M198.23,323.42c12.46-51.68,35.11-92.61,54.54-120.52-67.11,41-116.41,101.94-146.68,174.28q29.22-17.07,58.44-34.14l33.7-19.62Z"/><path class="cls-3" d="M175.94,385.45c-30.05,17.57-60.11,35.23-90.21,52.72a485.48,485.48,0,0,0-13.09,77l35-20.09c28-16,56-32.09,84-48.1a344.69,344.69,0,0,1-1.92-69.59l-13.81,8.06Z"/><path class="cls-6" d="M85.73,438.17c30.1-17.49,60.16-35.15,90.21-52.72l13.81-8.06q1-13.25,2.93-25.8-9.62,5.6-19.21,11.21Q133.84,386,94.18,409.16q-4.7,14.26-8.45,29Z"/><path class="cls-4" d="M402.14,207.16c17.25,21,35,14.87,46.42,8.78s48.73-34.26,92.51-39.21c26.55-3,38.69-2.95,46.08-2.51,29.37,1.73,33.29-26,14.83-41.27-47.91-39.64-253.23,9.38-199.84,74.21Z"/><polygon class="cls-9" points="351.56 265.39 365.03 343.56 438.52 357.9 365.03 372.23 351.56 450.4 338.08 372.23 264.59 357.9 338.08 343.56 351.56 265.39 351.56 265.39"/><polygon class="cls-9" points="450.1 894.86 463.55 972.88 536.9 987.18 463.55 1001.49 450.1 1079.5 436.65 1001.49 363.3 987.18 436.65 972.88 450.1 894.86 450.1 894.86"/><polygon class="cls-9" points="889.23 335.77 903.88 420.72 983.75 436.3 903.88 451.88 889.23 536.84 874.59 451.88 794.72 436.3 874.59 420.72 889.23 335.77 889.23 335.77"/></g></g></svg>