<svg xmlns="http://www.w3.org/2000/svg" viewBox="0 0 1351.63 1458.6"><defs><style>.cls-1{fill:#111927;}.cls-1,.cls-10,.cls-11,.cls-2,.cls-3,.cls-4,.cls-5,.cls-6,.cls-7,.cls-8,.cls-9{fill-rule:evenodd;}.cls-2{fill:#a4b1cd;}.cls-3{fill:#6fe81a;}.cls-4{fill:#357c03;}.cls-5{fill:#cdd4e3;}.cls-6{fill:#68748e;}.cls-7{fill:#8692ad;}.cls-8{fill:#303f61;}.cls-9{fill:#ff481f;}.cls-10{fill:#4eab0c;}.cls-11{fill:#fff;}</style></defs><title>ic-endgame-big</title><g id="Layer_2" data-name="Layer 2"><g id="Layer_1-2" data-name="Layer 1"><path class="cls-1" d="M115.84,854.64l-.53,7.32-5.82,4.9C96.72,877.57,82.87,895,73.28,908.34,45.66,946.83,26,991.08,14.35,1036.91c-12.07,47.42-23.86,110.69-2.63,157,12.46,27.2,34.41,44.67,61.57,56.17a102.71,102.71,0,0,0,36.42,7.85c23,.91,46.62-4.38,68.82-9.83,28.23-6.94,57-15.16,86.25-16,24.21-.67,48.58,0,72.73,1.73,12.82.93,24.81,3.5,35.11,11.63,8.44,6.67,14.33,16.15,20.8,24.63,25.1,32.85,56.72,63.75,87.36,91.33,37.47,33.72,83.54,59.06,130.43,77.1,19.95,7.67,43.28,15.53,64.6,20,21.33-4.49,44.66-12.35,64.61-20,46.89-18,93-43.38,130.43-77.1,30.64-27.58,62.26-58.48,87.36-91.33,6.47-8.48,12.36-18,20.8-24.63,10.3-8.13,22.29-10.7,35.11-11.63,24.15-1.75,48.53-2.4,72.73-1.73,29.23.81,58,9,86.25,16,22.2,5.45,45.83,10.74,68.82,9.83a102.61,102.61,0,0,0,36.41-7.85c27.17-11.5,49.11-29,61.57-56.17,21.24-46.34,9.45-109.61-2.62-157-11.67-45.83-31.31-90.08-58.93-128.57-9.59-13.37-23.44-30.77-36.2-41.48l-5.83-4.9-.53-7.32c-.5-3.94-2.29-9.32-3.52-13-3.71-11.12-14-22.46-22.93-33.41,65.64-78.72,51.55-149.93,52.88-189,.33-.48.26-210.29-.26-232.59-.73-31.12-1.55-62.32-1.55-93.45V282c0-17.8.34-37-1.67-54.64-1-8.43-2.68-18.17-7.64-25.27-6.14-8.75-18.31-14.65-27.79-18.84-22.6-10-47.63-17.87-71-26.07L784.93,28c-34.5-12.13-70-29.24-107.4-28H674.1C636.7-1.2,601.2,15.91,566.7,28L199.3,157.16c-23.35,8.2-48.38,16.1-71,26.07-9.48,4.19-21.65,10.09-27.78,18.84-5,7.1-6.69,16.84-7.64,25.27-2,17.66-1.68,36.84-1.68,54.64v11.19c0,31.13-.82,62.33-1.55,93.45-.52,22.3-.59,232.11-.27,232.59,1.34,39.07-12.75,110.28,52.89,189-9,10.95-19.22,22.29-22.93,33.41-1.23,3.7-3,9.08-3.52,13Zm788.85-35.58c1.1,5.16,1.62,11.61,2.24,16.85,1.27,10.64,2.42,21.3,3.55,32q2.78,26.05,5.33,52.13l1.51,15.24,15.18.95c9,.74,19.45,2.91,28.32,4.5,9.8,1.76,21.57,6.45,30.83,10.19,13.88,5.6,27.88,11.88,41.32,18.5l23.87,11.76,5.67-73.87-1.94-4.21c-5.35-11.77-8.61-29.18-9.73-41.84-1.44-16.2,2.87-24.35,7-39.2,7.25-26.35-2.61-64.09-29.46-79.35l-17.16,5.46L888.81,790.46l10.88,18.88c1.48,2.56,4,6.87,5,9.72Zm-457.75,0c-1.1,5.16-1.63,11.61-2.24,16.85-1.27,10.64-2.42,21.3-3.55,32q-2.76,26.05-5.34,52.13l-1.5,15.24-15.18.95c-9,.74-19.45,2.91-28.32,4.5-9.8,1.76-21.57,6.45-30.82,10.19-13.89,5.6-27.89,11.88-41.33,18.5l-23.87,11.76-5.68-73.87,1.95-4.21c5.34-11.77,8.61-29.18,9.73-41.84,1.44-16.2-2.87-24.35-7-39.2-7.25-26.35,2.61-64.09,29.46-79.35l17.16,5.46,122.37,42.34-10.89,18.88c-1.47,2.56-4,6.87-5,9.72Z"/><path class="cls-2" d="M1085.27,802a179,179,0,0,0-11.39-37.88c-8.66-20.42-17.78-31.68-8.2-44.63,17.79-24.09,35.66,16.06,44.07,19.78,19.37,8.54,46.1-6.75,68.51-35.05,11.44-14.45,14.21-26.07,15.92-36.12,16.46-9,27.24-19.28,34.24-29.24.32,5.63.32,12.43.09,17.3-1,22.07-2.79,45.38-7.41,58.61-7.29,20.9-36.47,64.83-44.21,77.12s-35.55,10-47.4,13.67-19.15,9.5-26.44,10.34-17.78-13.9-17.78-13.9Z"/><path class="cls-3" d="M1244.6,1209.32c-77.08,14.45-109.61-51.38-124.71-123.24-18.23-86.79-16.77-146.59-16.77-146.59s23.33-53.23,76.57-48.86,70.74,13.86,94.08,83.87c24.7,74.11,81.15,214.13-29.17,234.82Z"/><path class="cls-4" d="M1191.72,853.8s-21.87-5.1-50.32,3.65-39.74,22.61-39.74,22.61-4-25.16,17.5-39,41.94-11.49,52.69-7.66,19.87,20.42,19.87,20.42Z"/><path class="cls-4" d="M983.41,1098.11l-10.91,4.25s-4.14-7.92-7.93,7.66S946,1119,946,1119l11.75-34.18,16.85.25,8.84,13.08ZM791.84,1255l-4.18-15.88s-21.78,12.32-15.62-1.26,4.41-14.13,4.41-14.13-21,22.54-20.36,23.39,6.66,11.75,8.6,11.75,5-1.33,9.94-1.33,17.21-2.54,17.21-2.54Zm80.45-178.13-2.61,25.43s-6.57-30.08-13-19.27-10.56,9.35-10.56,9.35l7.27-35.39,18.9,19.88Zm33.81,17.93-9.13-13s-1.14,8.9-8.24-1.84-11.22-6-11.22-6l15.26,31.14s-2.3,3.27,4.49-.12a18.47,18.47,0,0,0,8.84-10.18Zm18.36-45.68-14.6,9.06s-4.43,7.18-7.09-2-4-8.27-4-8.27l2.43,18.72s7.15,4.18,7.63,3.94,7.21-5.88,8.3-7.88,7.33-13.57,7.33-13.57Z"/><path class="cls-2" d="M175.91,235.72,674.52,403.91l498.61-168.19c17.06-5.76,31,5.81,31,25.71v301c0,19.9-14,40.89-31,46.64L674.52,777.3,175.91,609.1c-17.06-5.75-31-26.74-31-46.64v-301c0-19.9,14-31.47,31-25.71Z"/><path class="cls-2" d="M175.91,235.72,674.52,403.91l498.61-168.19c17.06-5.76,31,5.81,31,25.71v301c0,19.9-14,40.89-31,46.64L674.52,777.3,175.91,609.1c-17.06-5.75-31-26.74-31-46.64v-301c0-19.9,14-31.47,31-25.71Z"/><path class="cls-5" d="M175.91,235.72l130.62,44.06c-14.6,12.13-32.85,33.52-41.56,68.53L608.33,464.15c5.78,2,10.51,9.06,10.51,15.8h0c0,6.74-4.73,10.65-10.51,8.7L260.94,371.45c-.24,2.26-.44,4.55-.6,6.89-.7,10.29-1.23,20.52-1.64,30.56l349.63,118c5.78,1.95,10.51,9.06,10.51,15.8h0c0,6.74-4.73,10.65-10.51,8.7L258,433.15c-1.34,64.73,2.36,116.35,2.36,116.35s0,58.59,130.7,123.72c18,8.95,33.83,17.13,47.85,24.6l-263-88.72c-17.06-5.75-31-26.74-31-46.64v-301c0-19.9,14-31.47,31-25.71Z"/><path class="cls-6" d="M674.52,403.91l498.61-168.19c17.06-5.76,31,5.81,31,25.71v301c0,19.9-14,40.89-31,46.64L674.52,777.3V403.91Z"/><path class="cls-7" d="M1052.53,276.4l120.6-40.68c17.06-5.76,31,5.81,31,25.71v301c0,19.9-14,40.89-31,46.64L897.78,702c66.26-51.21,146-127.31,175.8-214.19,54.67-159.19-21-211.39-21-211.39Z"/><path class="cls-8" d="M827.94,725.55,808.77,732V638.77c0-6.7,4.31-14.22,9.58-16.72h0c5.28-2.49,9.59.94,9.59,7.64v95.86Zm-32.48,11L776.29,743V539.7c0-6.69,4.32-14.22,9.58-16.72h0c5.28-2.49,9.59.95,9.59,7.64V736.5Zm-35.14,11.86-19.17,6.46v-141c0-6.7,4.31-14.22,9.59-16.72h0c5.27-2.5,9.58.94,9.58,7.64V748.36Z"/><path class="cls-7" d="M1120.88,186.9,766.42,64.26c-28.68-9.92-62-26.06-91.9-24.47-29.91-1.59-63.23,14.55-91.91,24.47L228.15,186.9c-15.54,5.38-6.72,17.23,19.6,26.34L535,312.61c41.19,14.25,97,38.69,139.57,40.95,42.54-2.26,98.36-26.7,139.56-40.95l287.2-99.37c26.33-9.11,35.15-21,19.6-26.34Z"/><path class="cls-6" d="M932.34,121.67,766.42,64.26c-28.68-9.92-62-26.06-91.9-24.47-29.91-1.59-63.23,14.55-91.91,24.47L228.15,186.9c-15.54,5.38-6.72,17.23,19.6,26.34L350.24,248.7c.9-15.43,8.87-35.21,39.42-48.13C446,176.73,737.8,77.49,932.33,121.66Z"/><path class="cls-1" d="M1003.37,195.25,742.23,104.9c-21.13-7.31-45.68-19.21-67.71-18-22-1.18-46.59,10.72-67.72,18L345.66,195.25c-11.45,4-5,12.69,14.44,19.4l211.6,73.21C602,298.36,643.17,316.37,674.52,318c31.34-1.67,72.47-19.68,102.81-30.18l211.6-73.21c19.4-6.71,25.9-15.44,14.44-19.4Z"/><polygon class="cls-1" points="361.17 176.41 340.03 179.3 340.03 200.57 1009.03 200.57 1009.03 178.87 361.17 176.41 361.17 176.41"/><path class="cls-2" d="M1003.37,173.54,742.23,83.19c-21.13-7.31-45.68-19.21-67.71-18-22-1.18-46.59,10.72-67.72,18L345.66,173.54c-11.45,4-5,12.69,14.44,19.4l211.6,73.21c30.34,10.5,71.47,28.51,102.82,30.18,31.34-1.67,72.47-19.68,102.81-30.18l211.6-73.21c19.4-6.71,25.9-15.44,14.44-19.4Z"/><path class="cls-6" d="M211.36,504.81,608.81,639.49c9.09,3.09,16.54,13.91,16.54,24.06v40.17c0,10.14-7.45,15.92-16.54,12.84L211.36,581.88c-9.1-3.09-16.55-13.91-16.55-24.06V517.66c0-10.15,7.45-15.93,16.55-12.85Z"/><path class="cls-1" d="M212,505,609.39,639.69c8.78,3,16,13.72,16,23.86v40.17c0,.71,0,1.4-.1,2.08L227.86,571.14c-8.77-3-16-13.72-16-23.87V507.12A20.14,20.14,0,0,1,212,505Z"/><path class="cls-9" d="M498.8,627.38l79.5,27.14c3.7,1.26,6.72,5.8,6.72,10.08h0c0,4.28-3,6.74-6.72,5.48l-79.5-27.15c-3.69-1.26-6.72-5.79-6.72-10.07h0c0-4.28,3-6.75,6.72-5.48Zm-264-98.44,16.47,5.69c2.85,1,5.18,4.49,5.18,7.79v16.4c0,3.3-2.33,5.19-5.18,4.21l-16.47-5.69c-2.85-1-5.17-4.49-5.17-7.79V533.16c0-3.31,2.32-5.2,5.17-4.22Zm40.92,14.13,16.47,5.69c2.85,1,5.18,4.49,5.18,7.79V573c0,3.3-2.33,5.2-5.18,4.21l-16.47-5.68c-2.85-1-5.17-4.49-5.17-7.8V547.29c0-3.3,2.32-5.2,5.17-4.22Zm40.92,14.13,16.47,5.69c2.85,1,5.18,4.49,5.18,7.8v16.39c0,3.3-2.33,5.2-5.18,4.21l-16.47-5.68c-2.85-1-5.18-4.49-5.18-7.79v-16.4c0-3.3,2.33-5.2,5.18-4.22Zm60.14,28.53,79.5,27.14c3.7,1.26,6.72,5.8,6.72,10.07h0c0,4.28-3,6.75-6.72,5.49l-79.5-27.15c-3.7-1.26-6.72-5.79-6.72-10.07h0c0-4.28,3-6.75,6.72-5.48Z"/><path class="cls-5" d="M1144.14,291.38l-153.82,54.5c-3.14,1.11-5.71,5-5.71,8.73h0c0,3.69,2.57,5.8,5.71,4.69l153.82-54.49c3.14-1.11,5.71-5.05,5.71-8.74h0c0-3.69-2.57-5.81-5.71-4.7Zm0,34-66.9,23.7c-3.14,1.12-5.71,5-5.71,8.74h0c0,3.7,2.57,5.81,5.71,4.7l66.9-23.7c3.14-1.11,5.71-5,5.71-8.74h0c0-3.69-2.57-5.81-5.71-4.7Zm-177.92,29-66.9,23.7c-3.14,1.11-5.7,5-5.7,8.74h0c0,3.69,2.56,5.81,5.7,4.7l66.9-23.7c3.14-1.12,5.71-5.05,5.71-8.74h0c0-3.7-2.57-5.81-5.71-4.7Zm177.92,10.73L971.42,426.33c-3.15,1.11-5.71,5-5.71,8.74h0c0,3.7,2.56,5.81,5.71,4.7l172.72-61.19c3.14-1.11,5.71-5.05,5.71-8.74h0c0-3.69-2.57-5.81-5.71-4.7Zm-95-6.07L831.29,436.23c-3.14,1.11-5.71,5-5.71,8.74h0c0,3.7,2.57,5.81,5.71,4.7l217.81-77.16c3.14-1.11,5.71-5.05,5.71-8.74h0c0-3.7-2.57-5.81-5.71-4.7Z"/><path class="cls-2" d="M211.86,323.16l396,133.59c6,2,11,9.22,11,16h0c0,6.74-5,10.58-11,8.54l-396-133.59c-6.05-2-11-9.22-11-16h0c0-6.74,4.95-10.58,11-8.54Z"/><path class="cls-6" d="M211.36,323l397,133.93c5.78,1.95,10.51,9.05,10.51,15.79h0a13.82,13.82,0,0,1-.16,2.08l-.52-.16-397-133.92c-5.78-1.95-10.5-9.06-10.5-15.8h0a12.71,12.71,0,0,1,.16-2.08l.51.16Z"/><path class="cls-2" d="M211.86,384.5l396,133.59c6,2,11,9.22,11,16h0c0,6.74-5,10.58-11,8.54L211.86,409c-6.05-2-11-9.22-11-16h0c0-6.74,4.95-10.58,11-8.54Z"/><path class="cls-6" d="M211.36,384.34l397,133.92c5.78,2,10.51,9.06,10.51,15.79h0a13.72,13.72,0,0,1-.16,2.08,5.08,5.08,0,0,1-.52-.15l-397-133.93c-5.78-1.95-10.5-9.05-10.5-15.79h0a12.75,12.75,0,0,1,.16-2.09,5.08,5.08,0,0,1,.51.17Z"/><path class="cls-5" d="M636.87,391.2h0l-195-65.88L634.13,404c16.65,6.81,24.18,10,26.41,25.14l10.63,162.42h0l.21,3.2a12.52,12.52,0,0,0,3.14,6.68V435.13c0-20.34,18.47-28.4,19-28.65h0c12.34-4.94,24.69-10.66,33-20.1-26.5,10.93-60.85,12.55-89.67,4.83Zm-7.65,2.86-6.73-7.69,6.73,7.69Z"/><path class="cls-5" d="M526.92,110.83,345.66,173.54c-4.09,1.41-5.89,3.44-5.63,5.76.41,3.74,6.17,8.25,16.31,12.25,1.19.48,2.45.94,3.76,1.39l22,7.63,4.21,1.46L571.7,266.15c3.37,1.17,6.88,2.43,10.49,3.75-43.24-23.69-85-49.48-103.27-69.33-7.58-8.21-11.29-16.18-12.21-23.76a28.86,28.86,0,0,1-.23-3.46c-.11-8,2.84-15.6,7.47-22.49,16.18-24.06,53-40,53-40Z"/><path class="cls-2" d="M266.35,802a68.31,68.31,0,0,1,4.5-38.48c8.66-20.42,24.67-31.08,15.1-44-17.79-24.09-35.66,16.06-44.07,19.78-19.37,8.54-46.1-6.75-68.5-35.05-11.45-14.45-14.22-26.07-15.93-36.12-16.46-9-27.24-19.28-34.24-29.24-.32,5.63-.32,12.43-.09,17.3,1,22.07,2.8,45.38,7.41,58.61,7.29,20.9,36.46,64.83,44.21,77.12s35.55,10,47.4,13.67,19.14,9.5,26.44,10.34S266.35,802,266.35,802Z"/><path class="cls-3" d="M107,1209.32c77.08,14.45,109.61-51.38,124.71-123.24,18.23-86.79,16.77-146.59,16.77-146.59s-23.33-53.23-76.57-48.86S101.2,904.49,77.86,974.5c-24.7,74.11-81.15,214.13,29.17,234.82Z"/><path class="cls-4" d="M159.9,853.8s21.88-5.1,50.32,3.65S250,880.06,250,880.06s4-25.16-17.5-39-41.93-11.49-52.7-7.66S159.9,853.8,159.9,853.8Z"/><path class="cls-4" d="M368.22,1098.11l10.91,4.25s4.13-7.92,7.93,7.66,18.6,8.94,18.6,8.94l-11.76-34.18-16.84.25-8.84,13.08ZM559.79,1255l4.18-15.88s21.78,12.32,15.62-1.26-4.41-14.13-4.41-14.13,21,22.54,20.36,23.39-6.66,11.75-8.6,11.75-5-1.33-9.94-1.33-17.21-2.54-17.21-2.54Zm-80.46-178.13,2.62,25.43s6.57-30.08,13-19.27,10.56,9.35,10.56,9.35L498.24,1057l-18.91,19.88Zm-33.8,17.93,9.12-13s1.14,8.9,8.25-1.84,11.23-6,11.23-6l-15.27,31.14s2.3,3.27-4.49-.12a18.47,18.47,0,0,1-8.84-10.18Zm-18.36-45.68,14.6,9.06s4.43,7.18,7.09-2,4-8.27,4-8.27l-2.43,18.72s-7.14,4.18-7.63,3.94-7.21-5.88-8.3-7.88-7.33-13.57-7.33-13.57Z"/><path class="cls-10" d="M135.66,1050.47c-39.47,7.1-63.63-6.26-76.88-18.55-22.51,73.26-37.44,161.33,48.25,177.4,77.08,14.45,109.61-51.38,124.71-123.24a790.75,790.75,0,0,0,16.2-121.62c-14.24,20.46-57.49,76.15-112.28,86Z"/><path class="cls-1" d="M502.69,755.58s126-64.22,143.6-69.67,28.23-5.15,28.23-5.15,10.65-.31,28.22,5.15,143.59,69.67,143.59,69.67L674.52,802.84,502.69,755.58Z"/><path class="cls-3" d="M905.12,1066.39s-8-38.65-22.61-72.56S861,949.71,861,949.71s-5.1-110.12-11.67-129.08c-4.82-13.92-96.65-56.48-146.74-78.72-7.35-3.27-17.05-4.84-26.78-4.8s-19.42,1.53-26.77,4.8C599,764.15,507.11,806.71,502.3,820.63c-6.56,19-11.67,129.08-11.67,129.08s-6.93,10.21-21.51,44.12-22.61,72.56-22.61,72.56-7.66-8.75-14.22-37.56-2.19-45.21-2.19-45.21-10.21-.37-43.39,8.38-79.49,36.47-79.49,36.47,9.11,12,14.21,54.33-4.73,102.09-4.73,102.09l52.87-.73s-5.47-9.11-3.65-40.1,19-49.6,19-49.6,2.18,67.83,76.57,156.8,156.06,123.61,156.06,123.61-12.4-99.18.73-104.65,17.14,5.1,17.14,5.1l12,110.85,28.39,8.75,28.4-8.75,12-110.85s4-10.57,17.14-5.1.73,104.65.73,104.65,81.68-34.64,156.06-123.61,76.57-156.8,76.57-156.8,17.14,18.6,19,49.6-3.64,40.1-3.64,40.1l52.87.73s-9.84-59.8-4.74-102.09,14.22-54.33,14.22-54.33S998.1,1000.75,964.92,992s-43.39-8.38-43.39-8.38,4.38,16.4-2.18,45.21-14.23,37.56-14.23,37.56Zm-229.31-65.63s77.26,5.1,99.14,19.32,74.38,94.08,74.38,94.08l10.94-46.31s7.66,20.78,12.4,50.68S876,1155,876,1155s-27.34,42.29-58.89,65.63-52.14,27.71-52.14,27.71,15.13-19.69,22.25-41.75,5.64-34.64,5.64-34.64-18.77,28.44-56.88,51.23-60.12,27.17-60.12,27.17-22-4.38-60.11-27.17S558.81,1172,558.81,1172s-1.46,12.58,5.66,34.64,22.24,41.75,22.24,41.75-20.6-4.37-52.15-27.71S475.68,1155,475.68,1155s-1.46-6.57,3.28-36.47,12.4-50.68,12.4-50.68l10.94,46.31s52.51-79.86,74.38-94.08,99.13-19.32,99.13-19.32Z"/><path class="cls-10" d="M905.12,1066.39s-8-38.65-22.61-72.56S861,949.71,861,949.71s-5.1-110.12-11.67-129.08c-4.82-13.92-96.65-56.48-146.74-78.72-7.35-3.27-17.05-4.84-26.78-4.8s-19.42,1.53-26.77,4.8c0,0,59.26,17.75,59.26,51.64v65.09l-48,27.69s45.57-3.09,72.57,14.31,29.4,28.2,29.4,28.2-24.3-4.5-36-6.3-18,0-18,0v50.7s47.73-11.9,116.1,60c13.47,14.17,25,27.26,34.79,39.17l1.08-4.56s1.3,3.53,3.16,9.76c36.57,45.38,47.37,72,47.37,72l55.35-64.74-16-96.56c-21.54-5-28.63-4.72-28.63-4.72s4.38,16.4-2.18,45.21-14.23,37.56-14.23,37.56Z"/><path class="cls-10" d="M675.81,1000.76s-77.25,5.1-99.13,19.32-74.38,94.08-74.38,94.08l-10.94-46.31s-7.66,20.78-12.4,50.68-3.28,36.47-3.28,36.47,27.34,42.29,58.88,65.63,52.15,27.71,52.15,27.71-15.13-19.69-22.24-41.75-5.66-34.64-5.66-34.64,18.78,28.44,56.89,51.23,60.11,27.17,60.11,27.17,22-4.38,60.12-27.17S792.81,1172,792.81,1172c-6.91,18.14-19.19,34.88-33.28,49.56,14.08-14.68,26.37-31.42,33.28-49.56,0,0,1.46,12.58-5.64,34.64s-22.25,41.75-22.25,41.75,20.6-4.37,52.14-27.71S876,1155,876,1155s1.46-6.57-3.28-36.47-12.4-50.68-12.4-50.68l-10.94,46.31s-52.5-79.86-74.38-94.08-99.14-19.32-99.14-19.32Zm0,394.16-14.19-4.37-14.2-4.38-12-110.85s-4-10.57-17.14-5.1-.73,104.65-.73,104.65-81.68-34.64-156.06-123.61-76.57-156.8-76.57-156.8-17.14,18.6-19,49.59,3.65,40.11,3.65,40.11l-52.87.73s9.84-59.8,4.73-102.09-14.21-54.33-14.21-54.33,46.31-27.72,79.49-36.47,43.39-8.38,43.39-8.38-4.38,16.4,2.19,45.21,14.22,37.56,14.22,37.56,3-14.37,8.62-33.28c-1,12.86-1.76,27.12-1.14,37.52,1.46,24.06,1.46,28.07,1.46,28.07s3.65-24.06,45.95-72.19,59.07-53.24,74.38-56.89c37.1-8.83,68.57-13.24,100-13.24s62.94,4.41,100,13.24c15.31,3.65,32.08,8.76,74.38,56.89s45.94,72.19,45.94,72.19,0-4,1.46-28.07c.63-10.4-.1-24.66-1.13-37.52,5.64,18.91,8.62,33.28,8.62,33.28s7.66-8.75,14.23-37.56,2.18-45.21,2.18-45.21,10.21-.37,43.39,8.38,79.49,36.47,79.49,36.47-9.12,12-14.22,54.33,4.74,102.09,4.74,102.09l-52.87-.73s5.47-9.11,3.64-40.11-19-49.59-19-49.59-2.18,67.83-76.57,156.8-156.06,123.61-156.06,123.61,12.4-99.18-.73-104.65-17.14,5.1-17.14,5.1l-12,110.85-14.2,4.38-14.2,4.37Z"/><path class="cls-11" d="M587.1,791.74s-47.1,26.4-54.6,33.9-11.4,120.6-11.4,120.6-14,16.65-20.85,30.9a193.26,193.26,0,0,0-10.05,24.45s26.1-32.7,62.7-52.2,93-18.9,93-18.9-22.5-9-42.15-10.65-31.35,5.7-31.35,5.7-2.1-76.5,3.3-99.3,11.4-34.5,11.4-34.5Z"/><path class="cls-11" d="M171.94,890.63C118.7,895,101.2,904.49,77.86,974.5c-1.18,3.56-2.44,7.28-3.76,11.13,0,0,17.4-38.79,73.2-61.59s84.25-9.2,84.25-9.2c-12.44-13.26-32-26.48-59.61-24.21Z"/><path class="cls-10" d="M1273.77,974.5c-17.91-53.73-32.39-71.81-62.21-79.29,0,0,32.84,75-5,142.82-21.71,39-58.67,49-86.19,50.48,15.32,70.91,48,135.1,124.19,120.81,110.32-20.69,53.87-160.71,29.17-234.82Z"/><path class="cls-11" d="M1113.6,942s4.5,64.5,9.6,94.8,6,34.2,6,34.2,26.1-9.3,30.3-40.8S1145.1,909,1145.1,909s-11.1,4.05-18.45,13.05A134.6,134.6,0,0,0,1113.6,942Z"/><path class="cls-2" d="M584.91,1121.66c3.75,13.43,11.19,35.93,21,44.92,14.4,13.2,36.9,25.2,49.8,28.8a155.49,155.49,0,0,0,20.1,4.5,155.37,155.37,0,0,0,20.11-4.5c12.9-3.6,35.4-15.6,49.8-28.8,9.81-9,17.25-31.49,21-44.92-10.41-16.19-24.52-36.14-32.55-38.93-13.8-4.8-58.36-3.15-58.36-3.15s-44.55-1.65-58.35,3.15c-8,2.79-22.14,22.74-32.55,38.93Z"/><path class="cls-3" d="M392.81,1132.12c9,28.37,28.07,70.61,68.65,119.14a503.25,503.25,0,0,0,54.8,56c39.41,22.67,80.21,31.53,80.21,31.53s-7.21-6.9-24.61-20.7-36.89-34.8-36.89-34.8l47.69,6.3a529.54,529.54,0,0,1-61.8-44.4,476.56,476.56,0,0,1-56.7-56.7l7.81,36.6s-12-11.7-31.5-33.3-47.66-59.67-47.66-59.67Z"/><path class="cls-6" d="M728.17,1130.59c-.54,15.07,1.34,36.42-4.34,51.91a136.7,136.7,0,0,0,21.89-15.92c9.81-9,17.25-31.49,21-44.92-10.41-16.19-24.52-36.14-32.55-38.93-13.8-4.8-58.36-3.15-58.36-3.15s-44.55-1.65-58.35,3.15c-8,2.79-22.14,22.74-32.55,38.93.82,2.94,1.82,6.31,3,9.88,0,0,32-29.75,50.87-31.85s63.6-.9,71.71,1.5,18.29,12.6,17.7,29.4Z"/></g></g></svg>