<svg xmlns="http://www.w3.org/2000/svg" viewBox="0 0 1219.75 1505.88"><defs><style>.cls-1{fill:#111927;}.cls-1,.cls-2,.cls-3,.cls-4,.cls-5,.cls-6,.cls-7{fill-rule:evenodd;}.cls-2{fill:#6ee71a;}.cls-3{fill:#a4b1cd;}.cls-4{fill:#8692ad;}.cls-5{fill:#fff;}.cls-6{fill:#4eab0c;}.cls-7{fill:#3a7a0c;}</style></defs><title>ic-fortress-big</title><g id="Layer_2" data-name="Layer 2"><g id="Layer_1-2" data-name="Layer 1"><path class="cls-1" d="M953,504.09a31.17,31.17,0,0,1-3.52,1.1l-1.13.31c-4.81,1.45-9.73,5.16-10.84,10.3q3,118,6.79,236a69.89,69.89,0,0,1,15.6-34.32c15.27-18.07,38.31-26.82,61.72-25.39,35.94,2.2,71.84,4.89,107.73,7.81,42.48,3.45,80.53,39.64,82.8,82.75,2.56,48.56,4.9,97.13,7.47,145.69.7,13.29-1.92,26.92-11.54,36.73-8.31,8.46-19.59,11.81-31.07,12.38q6.83,144.42,13.89,288.83l.46,9.42-9.4-.71c-6.93-.52-13.86-1-20.78-1.53-12.51-1-25-2-37.53-2.94q-30.48-2.16-61-4.12c1.29,36,2.68,72,4,108l.32,9-9-.43c-2.86-.14-5.72-.28-8.56-.52q-16-1-32-1.78-16.54-.86-33.1-1.63.8,25.43,1.52,50.85a43.8,43.8,0,1,1-57.34-1.84q-.66-29.64-1.6-59.27c-.27-8.56-.37-17.13-.63-25.69-.12-3.71-.26-7.41-.26-11.12v-8.69l8.68.37q36.65,1.55,73.28,3.38-1.07-32-2.11-64c-6.44-.35-12.87-.73-19.31-1.07a43.81,43.81,0,1,1,.55-53.24q63.44,3.57,126.87,7.93c-.8-16.48-1.49-33-2.24-49.45q-27-1.86-54-3.64a43.81,43.81,0,1,1,4.34-52.91q23.73,1.58,47.45,3.25-.43-10.67-.92-21.32-99.1-6.63-198.34-10.88l.31,11.75a43.82,43.82,0,1,1-56-.12q-.18-6.83-.31-13.64-61.87-1.8-123.76-2.81.13,19,.34,38.06l72.54,1.38,7.9.15.27,7.89c.12,3.66.13,7.33.25,11v.16c.12,8.51.23,17,.38,25.54.15,9,.28,17.9.48,26.85a43.81,43.81,0,1,1-56.2-1.69c-.09-5.87-.17-11.74-.27-17.61l-33.28-.61c-10.46,0-20.92-.16-31.38-.26-2.72,0-5.43-.13-8.15-.13h-8.26l-.06-8.25c-.23-27.68-.36-55.36-.57-83q-32.31-.16-64.63-.21t-64.63.21c-.21,27.68-.33,55.36-.56,83l-.07,8.25h-8.26c-2.71,0-5.43.1-8.14.13-10.47.1-20.93.25-31.39.26l-33.27.61q-.15,8.8-.28,17.61a43.81,43.81,0,1,1-56.19,1.69c.19-9,.32-17.9.48-26.85.15-8.52.25-17,.38-25.54v-.16c.13-3.66.13-7.33.26-11l.27-7.89,7.89-.15L488.9,1115q.24-19,.34-38.06-61.87,1-123.75,2.81-.14,6.83-.31,13.64a43.81,43.81,0,1,1-56,.12l.31-11.75q-99.24,4.2-198.34,10.88-.49,10.65-.92,21.32,23.72-1.65,47.45-3.25a43.81,43.81,0,1,1,4.34,52.91q-27,1.76-54,3.64c-.74,16.48-1.43,33-2.23,49.45q63.39-4.37,126.86-7.93a43.82,43.82,0,1,1,.56,53.24c-6.44.34-12.88.72-19.31,1.07q-1.07,32-2.11,64,36.63-1.85,73.28-3.38l8.68-.37V1332c0,3.71-.15,7.41-.26,11.12-.27,8.56-.37,17.13-.63,25.69q-.93,29.63-1.61,59.27a43.81,43.81,0,1,1-57.34,1.84q.71-25.42,1.53-50.85-16.56.78-33.11,1.63-16,.82-32,1.78c-2.85.24-5.7.38-8.56.52l-9,.43.32-9c1.28-36,2.67-72,4-108q-30.5,2-61,4.12c-12.51.89-25,2-37.52,2.94-6.93.54-13.86,1-20.78,1.53l-9.41.71.47-9.42Q36,1121.85,42.71,977.42C31.24,976.85,20,973.5,11.65,965,2,955.23-.6,941.6.11,928.31,2.67,879.75,5,831.18,7.57,782.62c2.27-43.11,40.33-79.3,82.81-82.75,35.88-2.92,71.79-5.61,107.72-7.81,23.41-1.43,46.45,7.32,61.72,25.38a69.89,69.89,0,0,1,15.23,32.12l1-40.89c1.62-64.35,4.33-128.66,6.15-193-1.3-5.48-6.65-9.16-11.87-10.46a27.07,27.07,0,0,1-5.17-1.8c-25.1-9.31-42-32.68-41.1-59.79.73-23.46,1.56-46.91,2.34-70.36q.39-11.82.76-23.65c1.23-39.55,35.22-70.21,74-71.65,25.76-1,51.53-1.89,77.3-2.63,40.54-1.16,76.17,30.28,75.3,71.72l-.3,14.91.3.79v14.47a1.74,1.74,0,0,0,1.72,1.71h10a1.73,1.73,0,0,0,1.71-1.71V363.84l0-2.7c.08-6.64.17-13.28.2-19.92,0-3,0-5.89,0-8.84.5-45.35,39.6-79.46,83.84-79.73q16.11-.09,32.22-.09V69.25a39.68,39.68,0,1,1,62-11.88,297.15,297.15,0,0,1,80.25,7c15.81,3.57,29.69,11.23,38.18,25.48,5.14,8.62,7.21,17.85,7.88,27.54,22.22,6.46,44.21,13.77,65.72,22.3,19.72,7.81,39,16.61,58.06,26l.26.13,90.88,49.29-34.19-.67C878.39,213,802,221.68,730.74,242.58a47.93,47.93,0,0,1-7.57,1.63c-10.59,1.31-20.69-3-20.69-15.15V213.57a214.18,214.18,0,0,0-21.94-3.28,242.88,242.88,0,0,0-44.06.37v42.05l32,.19c44.35.27,83.34,34.36,83.85,79.73,0,2.91,0,5.81,0,8.71,0,6.6.12,13.2.19,19.8v16.08a1.74,1.74,0,0,0,1.72,1.71h10a1.75,1.75,0,0,0,1.71-1.69V362.8l.25-.63q-.15-7.57-.31-15.12c-.86-41.44,34.77-72.88,75.29-71.72,25.78.74,51.55,1.67,77.31,2.63,30.16,1.12,58,19.87,69.14,48.09a70.71,70.71,0,0,1,5,23.81c1,31.3,2.13,62.59,3.11,93.88.87,27.72-16.75,51.47-42.65,60.35ZM782.44,1425.62c-.22-14.25-.4-28.5-.63-42.75a43.81,43.81,0,1,1,56.82,0q.47,21.67.82,43.36a43.8,43.8,0,1,1-57-.62Zm-344.51-42.75q-.33,21.38-.63,42.75a43.81,43.81,0,1,1-57,.62q.38-21.67.82-43.36a43.81,43.81,0,1,1,56.81,0Zm250.5-52.74q2,8.11,4,16.23c4,16,7.82,32,11.83,48l11.64,46.41L668,1440.5q-29-.16-58-.11c-19.41.06-38.83.22-58.25.32l-47.85.27,11.64-46.42c4-16,7.75-32.08,11.74-48.09q2-8.07,4-16.15c-12.53-15.44-16.7-32.54-16.56-52.88.19-26.33,10.29-49.92,31-66.52,17.86-14.3,41-21.21,63.73-21.32,52-.25,95.2,33.28,95.58,87.73.14,20.38-4.06,37.36-16.6,52.8Z"/><path class="cls-1" d="M280.76,853.43l3.63-144.56c1.62-68.7,4.48-127.39,6.17-193.7V515c-.3-1.75-2.91-14-18.2-17.84a19,19,0,0,1-3.92-1.38c-21.23-7.71-36.82-27.38-36-51.87.73-23.45,1.56-46.9,2.34-70.34q.39-11.84.76-23.67c1.1-35.14,31.56-62.31,66-63.59,25.74-1,51.48-1.89,77.23-2.63,35.89-1,67.5,26.59,66.74,63.22l-.34,16.51c.1.32.22.64.34.95v12.89a10.07,10.07,0,0,0,10,10h10a10.07,10.07,0,0,0,10-10v-13.5l0-2.48c.07-6.66.16-13.32.2-20,0-2.92,0-5.85,0-8.78.46-40.69,35.75-71.26,75.57-71.5,39-.24,78,0,117,.25,39.89.24,75.12,30.75,75.58,71.5,0,2.88,0,5.77,0,8.66,0,6.61.12,13.23.2,19.84v16a10.07,10.07,0,0,0,10,10h10a10.06,10.06,0,0,0,10-9.93h.58v-.1h-.58V364.4c.1-.25.2-.51.29-.77q-.18-8.37-.35-16.76c-.76-36.63,30.85-64.24,66.74-63.22,25.75.74,51.49,1.67,77.23,2.63,26.86,1,51.74,17.68,61.7,42.83a62.1,62.1,0,0,1,4.41,21c1,31.3,2.13,62.59,3.11,93.88.78,24.93-15.38,44.85-37.18,52.27a22,22,0,0,1-2.75.86l-.11,0-1.19.32c-15.27,4.5-16.93,17.69-16.93,17.69,2.84,111.6,6.13,223.31,10.28,338.28-15.85-44.25-84.23,46.25-116.35,52-88.31,15.81-161-52.49-263.33-29.72-157.35,35-271.89-42.82-279-22.31Zm194.79-489.7h0v0Z"/><path class="cls-1" d="M628.15,65.26V269.1H591.84V65.26a31.37,31.37,0,1,1,36.31,0Z"/><path class="cls-1" d="M679.32,1328q2.5,10.2,5,20.39c3.94,16,7.82,32,11.83,48l9,36-37.12-.21q-29.05-.15-58.12-.1c-19.42,0-38.85.21-58.27.32l-37.13.2,9-36c4-16,7.76-32.08,11.75-48.09q2.53-10.17,5.06-20.34c-12.2-13.43-17.51-28.66-17.35-50.65.73-105.94,172.93-106.23,173.67-.11.15,22-5.21,37.13-17.39,50.57Z"/><path class="cls-2" d="M643.27,1317.78c2.75,11,5.43,22.06,8.14,33.06,3.53,14.33,7,28.67,10.6,43-17.32-.1-34.82-.15-52.14-.1s-34.82.19-52.13.29c3.59-14.34,6.93-28.69,10.5-43,2.77-11.1,5.49-22.07,8.23-33.16-11.45-8.6-18.59-15.86-18.45-36.31.42-61,103.28-61.27,103.7-.1.15,20.41-7.09,27.62-18.45,36.32Z"/><path class="cls-3" d="M308.66,325.75c25-.93,50.31-1.84,75.47-2.56,17.61-.5,32,12.46,31.64,28.45s-.66,32.12-1.06,48v.86h.14c.39,8.42,7.94,14.93,17.21,14.77,20.39-.33,40.65-.76,60.9-1.09,9.4-.16,17.22-7,17.75-15.39h0v-.86c.12-17,.39-33.95.53-50.93,0-2.8,0-5.49,0-8.42.23-20.64,18.93-37.48,41.44-37.62,38.13-.23,76.26,0,114.39.24,22.64.14,41.21,17,41.44,37.62,0,2.81,0,5.62,0,8.31.14,17,.4,34.07.53,51.05V399h0c.53,8.31,8.34,15,17.74,15.15,20.26.33,40.52.88,60.91,1.22,9.27.15,16.81-6.35,17.21-14.66H805v-.85c-.4-16-.66-32-.93-48s13.91-29,31.52-28.46c25.16.72,50.45,1.45,75.46,2.44,17.75.71,32.61,14.66,33.11,30.66.95,30.78,2.08,61.43,3,92.09.37,11.72-10.06,20.9-23.17,20.39-21.71-.84-43.16-1.46-64.75-2.2-17.73-.48-35.48-1-53.09-1.34-42.36-.85-84.73-1.59-127.1-2-56.4-.25-112.81-.37-168.94,0-32.31.48-64.62,1.1-96.66,1.71-17.74.36-35.35.85-53.09,1.34-21.71.73-43.16,1.48-64.74,2.32-13.11.51-23.54-8.67-23.17-20.4,1-30.65,2.08-61.42,3-92.2.5-16,15.36-29.88,33.1-30.54Z"/><path class="cls-3" d="M870.35,495.27c-37.37-1.33-74.73-2.44-111.86-3.3-10.64-.24-19.27,9.65-19.11,22,.21,16,.4,32.12.61,48.12.16,12.33,9.07,22.47,19.83,22.71,37.37.85,75.1,2,112.58,3.3,10.89.38,19.31-9.4,19-21.74-.41-16-.8-32-1.21-48.12-.31-12.34-9.19-22.58-19.83-23Zm-194.94-4.52c-21.76-.15-43.65-.24-65.42-.37q-33,0-65.66.25c-12.45.09-22.87,10.26-23,22.59-.13,16-.22,32.12-.36,48.12-.11,12.34,10.16,22.2,22.74,22.11,22-.16,44.14-.25,66.26-.12s44,.09,66,.24c12.58.09,23-9.77,22.86-22.11-.14-16-.35-32.12-.49-48.11a23.08,23.08,0,0,0-23-22.6Zm-325.77,4.52c37.85-1.33,75.58-2.56,113.43-3.42,10.76-.24,19.63,9.65,19.47,22-.21,16-.47,32.12-.61,48.12-.1,12.34-9.19,22.47-20.19,22.72q-57.14,1.27-114.28,3.42c-10.76.4-19.42-9.4-19.1-21.74.41-16,.8-32.12,1.21-48.12.31-12.34,9.43-22.59,20.07-23Z"/><path class="cls-4" d="M870.35,495.27c-37.37-1.33-74.73-2.44-111.86-3.3-10.64-.24-19.27,9.65-19.11,22,.17,12.84.33,25.77.49,38.65a20.85,20.85,0,0,0,15.66,8q60.18,1.35,120.37,3.6a18.38,18.38,0,0,0,15.25-7.4c-.33-12.84-.64-25.69-1-38.62-.31-12.34-9.19-22.58-19.83-23ZM482.06,549.43c-3.8,6.6-10.41,11.06-17.85,11.22Q404,562,343.85,564.25a18.38,18.38,0,0,1-15.25-7.4c.32-12.87.64-25.78,1-38.62.31-12.34,9.43-22.59,20.07-23,37.85-1.33,75.58-2.56,113.43-3.42,10.76-.24,19.63,9.65,19.47,22-.16,11.84-.34,23.73-.48,35.6Zm39.06-4.6a23.14,23.14,0,0,0,21.09,12.91c22.51-.16,45.15-.26,67.78-.13s45,.09,67.54.25A23.29,23.29,0,0,0,698.71,545c-.11-10.55-.23-21.11-.32-31.62a23.08,23.08,0,0,0-23-22.6c-21.76-.15-43.65-.24-65.42-.37q-33,0-65.66.25c-12.45.09-22.87,10.26-23,22.59-.08,10.51-.15,21.07-.23,31.61Z"/><path class="cls-3" d="M325.94,615.32c9.68-.36,19.34-.77,29.27-1.1,12.57-.4,22.92,9.17,22.6,21.5-.41,16.12-.93,32.24-1.2,48.24-.21,12.21-10.89,22.48-23.7,23-9.93.37-19.6.86-29.39,1.22q1.08-46.35,2.42-92.82ZM558.72,610c-22,.16-44.26.49-66.15.73-22.24.37-44.26.8-66.26,1.35-12.7.31-23.2,10.5-23.46,22.84-.34,16.12-.82,32.24-1.09,48.24-.21,12.21,10.16,21.93,23,21.61q33.18-.81,66.75-1.34c22.13-.24,44.5-.58,66.75-.73,12.82-.09,23.34-10.14,23.34-22.35,0-16,0-32.12.12-48.24,0-12.34-10.28-22.2-23-22.11ZM788.24,612c-22-.55-44.26-.86-66.27-1.35-22.13-.24-44.14-.45-66.15-.61-12.57-.09-23,9.77-23,22.11,0,16.24-.07,32.24,0,48.24,0,12.21,10.64,22.26,23.46,22.35,22.13.15,44.38.37,66.63.61,22.25.49,44.62.8,66.87,1.34,12.82.32,23-9.4,22.74-21.61C812.2,667,812,651,811.7,634.87c-.21-12.34-10.76-22.53-23.46-22.84Zm104.48,3.29c-9.92-.36-19.47-.6-29.26-1-12.7-.48-22.76,9-22.5,21.37.34,16.12.56,32.12,1,48.24.31,12.22,11,22.6,23.7,23.08,9.8.38,19.59.61,29.5,1-.84-30.78-1.56-61.67-2.41-92.7Z"/><path class="cls-4" d="M325.94,615.32c9.68-.36,19.34-.77,29.27-1.1,12.57-.4,22.92,9.17,22.6,21.5-.27,10.69-.59,21.37-.85,32a30.6,30.6,0,0,1-23.86,13.11c-9.65.36-19.29.84-28.94,1.2q.84-33.31,1.78-66.74Zm255.65,49.43a29.26,29.26,0,0,1-23.32,11.84q-33.36.23-66.71.73c-22.24.31-44.47.8-66.7,1.34a28.06,28.06,0,0,1-22.8-10.53c.25-11.06.55-22.16.79-33.26.26-12.34,10.76-22.53,23.46-22.84,22-.55,44-1,66.27-1.35,21.88-.24,44.13-.58,66.14-.73,12.7-.09,23,9.77,23,22.11q-.08,16.37-.11,32.69Zm230.67,3.51a27.75,27.75,0,0,1-22.57,10.4q-33.42-.81-66.84-1.34c-22.19-.36-44.38-.45-66.57-.61a29.4,29.4,0,0,1-23.46-11.94c0-10.8,0-21.64,0-32.59,0-12.34,10.4-22.2,23-22.11,22,.16,44,.37,66.15.61,22,.49,44.26.8,66.27,1.35,12.7.31,23.25,10.5,23.46,22.84.19,11.16.35,22.26.56,33.39Zm82.19,13.68c-9.67-.35-19.35-.59-29-1a30.52,30.52,0,0,1-23.87-13.33c-.21-10.64-.38-21.26-.61-31.93-.26-12.33,9.8-21.85,22.5-21.37,9.79.37,19.34.61,29.26,1q.91,33.4,1.73,66.62Z"/><path class="cls-3" d="M676.87,731.23c-22.37-.16-44.63-.13-67-.25s-44.86.09-67.11.25c-12.82.09-23.36,10.26-23.46,22.47-.14,16.12-.22,32.24-.36,48.24-.11,12.21,10.4,22.07,23.34,22,22.37-.15,45-.24,67.71-.24,22.5.12,45,.09,67.48.24,12.94.09,23.5-9.77,23.34-22-.21-16-.35-32-.48-48.24-.11-12.21-10.65-22.38-23.46-22.47Z"/><path class="cls-4" d="M666.78,731.17c-19-.09-37.9-.08-56.91-.19s-38.06.07-57,.18c-.06,11.13-.1,22.25-.16,33.3-.06,12.21,6.53,22.08,14.66,22q21.09-.24,42.54-.25c14.13.12,28.26.09,42.39.25,8.12.09,14.76-9.78,14.65-22-.08-11.07-.16-22.14-.21-33.29Z"/><path class="cls-1" d="M308.2,780.37c.13-5.62.25-11.24.38-17,1.14-38,33.79-69.91,73.14-71.32,35.81-.89,71.37-1.66,107.31-2.3,39.23-.51,71,29.91,70.73,67.86,0,9.21,0,18.28-.13,27.35,0,15.34.89,22.37,20.13,22.24H640c19.23.13,20.12-6.9,20.12-22.24-.12-9.07-.12-18.14-.12-27.35-.26-38,31.5-68.37,70.73-67.86,35.94.64,71.5,1.41,107.31,2.3,39.35,1.41,72,33.36,73.14,71.32.13,5.75.25,11.37.38,17a12.65,12.65,0,0,0-.13,2.43c.11,4.86.25,9.71.38,14.44a27.82,27.82,0,0,1,.13,2.94c.23,10.61,9.74,19.81,21,20.2h0c11.38.51,20.23-7.67,19.86-18.41-.13-4-.25-7.92-.38-12.14,0-1.66,0-3.45-.12-5.24-.13-6.39-.38-12.91-.51-19.42-1.27-38,29.86-67,69.34-64.8q53.72,3.64,107.56,7.8c39.48,3.32,73.14,37.06,75.17,74.89q3.8,73,7.47,145.69c1.51,28.12-14.18,42.18-43,40.26q7,148.76,14.3,297.65c-6.84-.51-13.67-1-20.75-1.53-12.53-1-25.06-2.05-37.59-2.94q-35.12-2.49-70.23-4.73c1.4,39.11,2.91,78.09,4.3,117.19-2.65-.12-5.43-.25-8.34-.51-10.76-.64-21.39-1.15-32.15-1.79-14-.64-28.09-1.4-42.14-2q1,31.73,1.92,63.53a35.49,35.49,0,1,1-40.7-1.62q-.7-31.93-1.71-63.7c-.25-8.44-.38-17-.63-25.69-.13-3.58-.25-7.28-.25-10.86q41,1.72,82.25,3.83c-.89-26.84-1.78-53.8-2.66-80.64-6.37-.34-21.15-1.19-31.57-1.74a35.48,35.48,0,1,1,.15-36.59c43.43,2.42,99.83,6,140.24,8.81-1.13-22.11-2-44.1-3-66.21-22-1.5-43.82-3-65.76-4.43a35.47,35.47,0,1,1,3.07-36.31c20.36,1.35,40.67,2.77,61.17,4.19-.51-12.65-1-25.3-1.64-38.08q-107.62-7.29-214.87-11.76l.65,24.66a35.49,35.49,0,1,1-39.32-.24c-.23-8.53-.45-17.23-.56-25.83-47-1.4-93.64-2.42-140.33-3.19.12,18.28.25,36.55.5,54.7l80.61,1.53c.12,3.71.12,7.29.25,11,.13,8.57.26,17.13.38,25.56.21,10.25.33,20.5.57,30.75a35.49,35.49,0,1,1-39.56-1.47c-.17-10-.29-20-.49-30l-41.38-.77c-10.5,0-21-.13-31.38-.26-2.79,0-5.44-.12-8.23-.12-.25-30.42-.38-60.84-.63-91.25-24.13-.13-48.5-.26-72.89-.26s-48.75.13-72.88.26c-.26,30.41-.38,60.83-.64,91.25-2.78,0-5.44.12-8.22.12-10.38.13-20.88.26-31.39.26l-41.37.77c-.2,10-.32,20-.49,30a35.48,35.48,0,1,1-39.56,1.47c.24-10.25.36-20.5.56-30.75.13-8.43.26-17,.39-25.56.12-3.7.12-7.28.25-11l80.61-1.53c.25-18.15.38-36.42.5-54.7q-70,1.15-140.33,3.19c-.12,8.6-.33,17.3-.56,25.83a35.48,35.48,0,1,1-39.32.24l.65-24.66q-107.25,4.41-214.87,11.76c-.63,12.78-1.14,25.43-1.64,38.08,20.49-1.42,40.81-2.84,61.17-4.19A35.5,35.5,0,1,1,165.8,1155c-22,1.42-43.8,2.93-65.76,4.43-1,22.11-1.9,44.1-3,66.21,40.42-2.83,96.81-6.39,140.24-8.81a35.49,35.49,0,1,1,.15,36.59c-10.42.55-25.2,1.4-31.56,1.74-.89,26.84-1.78,53.8-2.66,80.64q41.19-2.1,82.25-3.83c0,3.58-.12,7.28-.25,10.86-.26,8.69-.38,17.25-.64,25.69q-1,31.8-1.7,63.7a35.49,35.49,0,1,1-40.7,1.62Q243,1402,244,1370.31c-14,.64-28.09,1.4-42.14,2-10.75.64-21.38,1.15-32.14,1.79-2.91.26-5.69.39-8.35.51,1.39-39.1,2.91-78.08,4.3-117.19q-35.11,2.3-70.23,4.73c-12.52.89-25,1.91-37.58,2.94-7.09.51-13.92,1-20.75,1.53q7.4-148.76,14.3-297.65c-28.86,1.92-44.55-12.14-43-40.26,2.54-48.43,4.94-97,7.46-145.69,2-37.83,35.69-71.57,75.17-74.89q53.91-4.23,107.56-7.8c39.49-2.17,70.61,26.84,69.35,64.8-.13,6.51-.38,13-.5,19.42-.13,1.79-.13,3.58-.13,5.24-.13,4.22-.25,8.18-.39,12.14-.36,10.74,8.48,18.92,19.87,18.41h0c11.26-.39,20.77-9.59,21-20.2a27.82,27.82,0,0,1,.13-2.94c.12-4.73.27-9.58.38-14.44a13.51,13.51,0,0,0-.13-2.43ZM609.87,935.65c-23.87,0-47.75.1-71.37.26-13.66.09-24.94,10.73-25,23.51-.14,17-.37,33.74-.51,50.49-.11,12.78,11.27,23.22,24.93,23.13q35.8-.24,72-.38,36.2.18,72,.38c13.66.09,25-10.35,24.92-23.13-.14-16.75-.36-33.49-.5-50.49-.11-12.78-11.39-23.42-25.06-23.51-23.62-.16-47.49-.26-71.37-.26ZM810.23,1314a35.48,35.48,0,0,0-20.15,64.69c.27,17,.48,34,.75,51a35.49,35.49,0,1,0,40.36.59c-.29-17.18-.6-34.29-1-51.47a35.48,35.48,0,0,0-20-64.8ZM917,941.53c-47.45-1.88-95.16-3.12-142.74-4.22-13.67-.31-24.71,10-24.55,22.75.22,17,.42,33.74.63,50.49.17,12.77,11.52,23.58,25.31,23.89,48,1.1,96.05,2.3,144,4.09,13.67.51,24.75-9.46,24.42-22.23-.43-16.75-1-33.49-1.52-50.49-.38-12.77-11.89-23.74-25.56-24.28ZM1088.07,951c-25.94-1.84-51.87-3.56-77.95-5-13.53-.74-24.47,9.21-24,22,.58,17,1.14,33.74,1.65,50.48.38,12.78,12,23.92,25.81,24.66,26.33,1.43,52.39,3.06,78.58,5,13.8,1,24.85-8.82,24.3-21.6-.72-16.74-1.55-33.48-2.28-50.48-.54-12.78-12.4-24.08-26.07-25ZM409.52,1314a35.48,35.48,0,0,1,20.15,64.69c-.27,17-.49,34-.76,51a35.48,35.48,0,1,1-40.36.59c.3-17.18.6-34.29,1-51.47a35.48,35.48,0,0,1,20-64.8ZM302.76,941.53c47.45-1.88,95.16-3.12,142.73-4.22,13.68-.31,24.72,10,24.56,22.75-.22,17-.42,33.74-.64,50.49-.16,12.77-11.51,23.58-25.31,23.89-48,1.1-96.05,2.3-144,4.09-13.67.51-24.75-9.46-24.42-22.23.43-16.75,1-33.49,1.52-50.49.38-12.77,11.89-23.74,25.56-24.28ZM131.67,951c25.94-1.84,51.88-3.56,78-5,13.54-.74,24.48,9.21,24,22-.58,17-1.15,33.74-1.65,50.48-.38,12.78-12,23.92-25.81,24.66-26.33,1.43-52.39,3.06-78.59,5-13.79,1-24.84-8.82-24.29-21.6.72-16.74,1.55-33.48,2.27-50.48.55-12.78,12.41-24.08,26.07-25Z"/><path class="cls-3" d="M88.9,752.9c36.06-2.88,72-5.58,108.07-7.8,13.79-.85,24.5,9.33,24,22.49-.94,27.22-1.77,54.32-2.66,81.29,3.3,11.24,10.63,12.52,21.27,12,29.48-1.53,59-2.81,88.19-4,11.77-.39,21.13-.26,25.82-14.06.63-27,1.17-54.06,1.77-81.28.29-13.17,11.76-24.41,25.31-24.8,35.93-1,71.75-1.65,107.81-2.3,13.54-.24,24.51,10.35,24.42,23.52-.16,23.64-.38,47.41-.5,71.06-.25,21.34,5.82,23.39,25.81,23.13,23.79-.13,47.71-.26,71.75-.26,23.79.13,47.71.13,71.62.26,19.87.26,25.94-1.79,25.69-23.13-.12-23.65-.34-47.29-.5-70.93a23.74,23.74,0,0,1,24.42-23.65c35.93.65,71.75,1.28,107.81,2.3,13.54.39,25,11.76,25.31,24.92q.89,40.65,1.77,81.16c4.68,13.8,14,13.67,25.69,14.06q44,1.73,88.32,4c10.63.51,18-.77,21.26-12-.88-27-1.72-54.07-2.65-81.16-.46-13.16,10.25-23.5,24-22.62,36.07,2.31,72,4.83,108.07,7.8C1144.51,754,1156.4,765.8,1157,779c1.51,31.43,2.91,62.88,4.43,94.32.5,11.24,1.09,20.31,1.26,27.47.46,19.56-20,21.42-37,20.2-86-6.2-172.2-11.31-258.14-14.19S695.8,903.06,610,902.68c-86,.38-172,1.22-257.89,4.09S180,914.76,94,921c-17,1.22-37.41-.64-36.95-20.2.17-7.16.77-16.35,1.27-27.47,1.52-31.44,2.91-62.89,4.43-94.45C63.34,765.67,75.23,754,88.9,752.9Z"/><path class="cls-5" d="M296.53,368.25,394,364.63a26.18,26.18,0,0,1,21.34,9.22c.16-7.4.31-14.82.46-22.21.33-16-14-28.95-31.64-28.45-25.16.72-50.45,1.63-75.47,2.56-17.74.66-32.6,14.54-33.1,30.54q-.36,11.64-.75,23.28a28.25,28.25,0,0,1,21.72-11.32Z"/><path class="cls-5" d="M923.12,368.25l-97.44-3.62a26.14,26.14,0,0,0-21.33,9.22c-.17-7.4-.32-14.82-.47-22.21-.33-16,14-28.95,31.65-28.45,25.15.72,50.44,1.63,75.46,2.56,17.75.66,32.6,14.54,33.1,30.54q.36,11.64.76,23.28a28.31,28.31,0,0,0-21.73-11.32Z"/><path class="cls-5" d="M528.92,360.68H690.83a28.81,28.81,0,0,1,17.88,6.11q-.12-9.85-.2-19.66c0-2.69,0-5.5,0-8.31-.23-20.64-18.8-37.48-41.44-37.62-38.13-.23-76.26-.47-114.39-.24-22.51.14-41.21,17-41.44,37.62,0,2.93,0,5.62,0,8.42q-.09,9.9-.21,19.79a28.84,28.84,0,0,1,17.89-6.11Z"/><path class="cls-5" d="M76.7,796.73,205,787.18a19.08,19.08,0,0,1,15.2,5.62q.41-12.59.84-25.21c.46-13.16-10.25-23.34-24-22.49-36.07,2.22-72,4.92-108.07,7.8C75.23,754,63.34,765.67,62.71,778.84q-.62,12.9-1.22,25.78a22.28,22.28,0,0,1,15.21-7.89Z"/><path class="cls-5" d="M355.4,761.59q-.34,15.23-.66,30.4A21.06,21.06,0,0,1,370,785l128.06-2.31a20.3,20.3,0,0,1,14.65,5.85q.13-15.28.23-30.52c.09-13.17-10.88-23.76-24.42-23.52-36.06.65-71.88,1.28-107.81,2.3-13.55.39-25,11.63-25.31,24.8Z"/><path class="cls-5" d="M1143,796.73l-128.27-9.55a19.08,19.08,0,0,0-15.2,5.62q-.4-12.59-.84-25.21c-.45-13.16,10.25-23.34,24-22.49,36.07,2.22,72,4.92,108.07,7.8,13.67,1.09,25.56,12.77,26.19,25.94q.61,12.9,1.22,25.78a22.28,22.28,0,0,0-15.21-7.89Z"/><path class="cls-5" d="M864.25,761.59q.33,15.23.65,30.4a21,21,0,0,0-15.25-7l-128.06-2.31a20.3,20.3,0,0,0-14.65,5.85q-.12-15.28-.23-30.52c-.09-13.17,10.88-23.76,24.42-23.52,36.06.65,71.88,1.28,107.81,2.3,13.55.39,25,11.63,25.31,24.8Z"/><path class="cls-1" d="M246.7,804.72l24.68,9.57s10.25,4.42,10.86-19.79,10-20.07,10-20.07l9,78.68-52-21.86-2.51-26.53Z"/><path class="cls-1" d="M972.87,804.72l-24.69,9.57s-10.24,4.42-10.85-19.79-10-20.07-10-20.07l-9,78.68,52-21.86,2.51-26.53Z"/><path class="cls-3" d="M986.08,968c.58,17,1.14,33.74,1.65,50.48.38,12.78,12,23.92,25.81,24.66,26.33,1.43,52.39,3.06,78.58,5,13.8,1,24.85-8.82,24.3-21.6-.72-16.74-1.55-33.48-2.28-50.48-.54-12.78-12.4-24.08-26.07-25-25.94-1.84-51.87-3.56-77.95-5-13.53-.74-24.47,9.21-24,22ZM105.6,976c-.72,17-1.55,33.74-2.27,50.48-.55,12.78,10.5,22.61,24.29,21.6,26.2-1.93,52.26-3.56,78.59-5,13.78-.74,25.43-11.88,25.81-24.66.5-16.74,1.07-33.48,1.65-50.48.43-12.78-10.51-22.73-24-22-26.07,1.43-52,3.15-78,5-13.66,1-25.52,12.27-26.07,25Zm171.6-10.23c-.51,17-1.09,33.74-1.52,50.49-.33,12.77,10.75,22.74,24.42,22.23,47.95-1.79,96-3,144-4.09,13.8-.31,25.15-11.12,25.31-23.89.22-16.75.42-33.49.64-50.49.16-12.78-10.88-23.06-24.56-22.75-47.57,1.1-95.28,2.34-142.73,4.22-13.67.54-25.18,11.51-25.56,24.28Zm236.25-6.39c-.14,17-.37,33.74-.51,50.49-.11,12.78,11.27,23.22,24.93,23.13q35.8-.24,72-.38,36.2.18,72,.38c13.66.09,25-10.35,24.92-23.13-.14-16.75-.36-33.49-.5-50.49-.11-12.78-11.39-23.42-25.06-23.51-23.62-.16-47.49-.26-71.37-.26s-47.75.1-71.37.26c-13.66.09-24.94,10.73-25,23.51Zm236.25.64c.22,17,.42,33.74.63,50.49.17,12.77,11.52,23.58,25.31,23.89,48,1.1,96.05,2.3,144,4.09,13.67.51,24.75-9.46,24.42-22.23-.43-16.75-1-33.49-1.52-50.49-.38-12.77-11.89-23.74-25.56-24.28-47.45-1.88-95.16-3.12-142.74-4.22-13.67-.31-24.71,10-24.55,22.75Z"/><path class="cls-4" d="M986.08,968c.39,11.47.77,22.82,1.14,34.13a33.73,33.73,0,0,0,26,15q39.27,2.13,78.48,5c9.13.67,18.22-2.69,24-9.72-.55-12-1.13-24.15-1.65-36.37-.54-12.78-12.4-24.08-26.07-25-25.94-1.84-51.87-3.56-77.95-5-13.53-.74-24.47,9.21-24,22Zm-753.55,34.13a33.77,33.77,0,0,1-26.05,15q-39.25,2.13-78.48,5c-9.12.67-18.21-2.69-24-9.72.55-12,1.12-24.15,1.64-36.37.55-12.78,12.41-24.08,26.07-25,25.94-1.84,51.88-3.56,78-5,13.54-.74,24.48,9.21,24,22-.39,11.47-.78,22.82-1.14,34.13Zm237.08-7.22a32,32,0,0,1-25.39,13.56c-48,1.1-96,2.3-143.93,4.09a29.52,29.52,0,0,1-24.21-10.76c.36-11.92.75-23.88,1.12-36,.38-12.77,11.89-23.74,25.56-24.28,47.45-1.88,95.16-3.12,142.73-4.22,13.68-.31,24.72,10,24.56,22.75-.15,11.71-.29,23.29-.44,34.84Zm237,0a30.87,30.87,0,0,1-24.82,12.16c-24-.16-48-.38-72-.38s-48,.22-72,.38a30.84,30.84,0,0,1-24.82-12.16c.12-11.76.26-23.56.36-35.48.11-12.78,11.39-23.42,25-23.51,23.62-.16,47.5-.26,71.37-.26s47.75.1,71.37.26c13.67.09,25,10.73,25.06,23.51.1,11.92.24,23.72.36,35.48Zm237,6.89a29.52,29.52,0,0,1-24.22,10.76c-48-1.79-95.94-3-143.92-4.09a32,32,0,0,1-25.4-13.56c-.14-11.55-.28-23.13-.43-34.84-.16-12.78,10.88-23.06,24.55-22.75,47.58,1.1,95.29,2.34,142.74,4.22,13.67.54,25.18,11.51,25.56,24.28.36,12.1.76,24.06,1.12,36Z"/><path class="cls-6" d="M608.78,1270.14a67.61,67.61,0,0,1,51.79,24.07,57.49,57.49,0,0,0,1.15-12.75c-.42-61.17-103.28-60.93-103.7.1a61.74,61.74,0,0,0,.74,10.63,67.58,67.58,0,0,1,50-22Z"/><path class="cls-1" d="M763.76,123.71A735.61,735.61,0,0,1,834.5,147.4c19.51,7.73,38.62,16.43,57.44,25.71l.12.06,60.67,32.9C889,204.84,809,211,728.4,234.6c-6.22,1.82-17.6,3.84-17.6-5.54V206.83A233.27,233.27,0,0,0,681.31,202c-18.11-1.69-36.39-.75-54.44,1.25l-23.93,2.66V70.05l18.94-2.31c34.77-4.24,67.86-3,102.06,4.72,13.53,3.05,25.57,9.38,32.86,21.62,5.47,9.17,6.82,19.29,7,29.63Z"/><path class="cls-6" d="M882.4,192.45c-63.35-2.53-89.91,6.26-150,20.38V137.59c31.39,8,62.76,17.41,94.19,29.85,18.62,7.38,37.24,15.83,55.84,25Z"/><path class="cls-2" d="M624.5,89.14c32.7-4,62.36-3,94.7,4.35,21.86,4.94,23.37,17.56,23,36.5-.15,6.76,0,17.1,0,24.3v38.55c-19.62-5.84-39.23-10.47-58.85-12.3s-39.22-.89-58.82,1.28V89.14Z"/><path class="cls-7" d="M742.17,192.84q-4.9-1.46-9.8-2.81v22.8c10.7-9.1,9.8-20,9.8-20Z"/></g></g></svg>