<svg width="24" height="25" viewBox="0 0 24 25" fill="none" xmlns="http://www.w3.org/2000/svg">
<path d="M21.0358 12.5242H2.96424C2.43137 12.5242 2 12.9578 2 13.4884V19.9959C2 20.5265 2.43368 20.9602 2.96424 20.9602H21.0358C21.5663 20.9602 22 20.5265 22 19.9959V13.4907C22 12.9578 21.5663 12.5242 21.0358 12.5242ZM6.3045 18.2843C5.45329 18.2843 4.76125 17.5922 4.76125 16.741C4.76125 15.8898 5.45329 15.1978 6.3045 15.1978C7.15571 15.1978 7.84775 15.8898 7.84775 16.741C7.84775 17.5922 7.15571 18.2843 6.3045 18.2843ZM12.9804 16.7433C12.9804 16.9981 12.7738 17.2047 12.519 17.2047H10.4383C10.1835 17.2047 9.97693 16.9981 9.97693 16.7433C9.97693 16.4885 10.1835 16.282 10.4383 16.282H12.519C12.7738 16.282 12.9804 16.4885 12.9804 16.7433ZM18.722 16.7433C18.722 16.9981 18.5155 17.2047 18.2607 17.2047H16.1799C15.9251 17.2047 15.7186 16.9981 15.7186 16.7433C15.7186 16.4885 15.9251 16.282 16.1799 16.282H18.2607C18.5155 16.282 18.722 16.4885 18.722 16.7433Z" fill="#A4B1CD"/>
<path d="M2.22873 8.26474C2.03385 8.45314 1.95579 8.73202 2.02455 8.99421C2.09331 9.2564 2.29819 9.46109 2.56044 9.5296C2.8227 9.59811 3.10151 9.51979 3.28973 9.32474L5.78973 6.82474C5.93042 6.68424 6.00948 6.49357 6.00948 6.29474C6.00948 6.09591 5.93042 5.90523 5.78973 5.76474L3.28973 3.26474C2.99558 2.98037 2.52779 2.98421 2.23836 3.27338C1.94892 3.56254 1.94463 4.03032 2.22873 4.32474L4.02173 6.11774C4.06875 6.16464 4.09517 6.22832 4.09517 6.29474C4.09517 6.36115 4.06875 6.42484 4.02173 6.47174L2.22873 8.26474Z" fill="#A4B1CD"/>
<path d="M7.75977 8.54468H11.7598C12.174 8.54468 12.5098 8.20889 12.5098 7.79468C12.5098 7.38046 12.174 7.04468 11.7598 7.04468H7.75977C7.34555 7.04468 7.00977 7.38046 7.00977 7.79468C7.00977 8.20889 7.34555 8.54468 7.75977 8.54468Z" fill="#A4B1CD"/>
</svg>
