<svg width="24" height="25" viewBox="0 0 24 25" fill="none" xmlns="http://www.w3.org/2000/svg">
<path d="M3.23858 7.89297C3.34879 8.00198 3.38063 8.16778 3.31866 8.31001L2.70204 9.72988C2.63744 9.88547 2.67899 10.065 2.80535 10.1762C2.9317 10.2874 3.11471 10.3055 3.26029 10.2212L4.81604 9.34434C4.92989 9.2802 5.06887 9.2802 5.18272 9.34434L6.73848 10.2212C6.88405 10.3055 7.06707 10.2874 7.19342 10.1762C7.31977 10.065 7.36133 9.88547 7.29673 9.72988L6.68011 8.31001C6.61814 8.16778 6.64997 8.00198 6.76018 7.89297L7.87593 6.79188C7.99229 6.68895 8.0314 6.52375 7.97359 6.37939C7.91578 6.23504 7.77357 6.14279 7.6185 6.14907H6.35983C6.21423 6.14885 6.08199 6.06399 6.02084 5.93155L5.35184 4.48918C5.28379 4.35698 5.1478 4.27393 4.99938 4.27393C4.85097 4.27393 4.71498 4.35698 4.64692 4.48918L3.97344 5.9338C3.91207 6.06595 3.77987 6.15048 3.63445 6.15057H2.38026C2.22565 6.1445 2.08394 6.23657 2.02633 6.38051C1.96871 6.52445 2.00766 6.68916 2.12359 6.79188L3.23858 7.89297Z" fill="#A4B1CD"/>
<path d="M10.2386 7.89297C10.3488 8.00198 10.3806 8.16778 10.3187 8.31001L9.70204 9.72988C9.63744 9.88547 9.67899 10.065 9.80535 10.1762C9.9317 10.2874 10.1147 10.3055 10.2603 10.2212L11.816 9.34434C11.9299 9.2802 12.0689 9.2802 12.1827 9.34434L13.7385 10.2212C13.8841 10.3055 14.0671 10.2874 14.1934 10.1762C14.3198 10.065 14.3613 9.88547 14.2967 9.72988L13.6801 8.31001C13.6181 8.16778 13.65 8.00198 13.7602 7.89297L14.8759 6.79188C14.9923 6.68895 15.0314 6.52375 14.9736 6.37939C14.9158 6.23504 14.7736 6.14279 14.6185 6.14907H13.3598C13.2142 6.14885 13.082 6.06399 13.0208 5.93155L12.3518 4.48918C12.2838 4.35698 12.1478 4.27393 11.9994 4.27393C11.851 4.27393 11.715 4.35698 11.6469 4.48918L10.9734 5.9338C10.9121 6.06595 10.7799 6.15048 10.6344 6.15057H9.38026C9.22565 6.1445 9.08394 6.23657 9.02633 6.38051C8.96871 6.52445 9.00766 6.68916 9.12359 6.79188L10.2386 7.89297Z" fill="#A4B1CD"/>
<path d="M17.2386 7.89297C17.3488 8.00198 17.3806 8.16778 17.3187 8.31001L16.702 9.72988C16.6374 9.88547 16.679 10.065 16.8053 10.1762C16.9317 10.2874 17.1147 10.3055 17.2603 10.2212L18.816 9.34434C18.9299 9.2802 19.0689 9.2802 19.1827 9.34434L20.7385 10.2212C20.8841 10.3055 21.0671 10.2874 21.1934 10.1762C21.3198 10.065 21.3613 9.88547 21.2967 9.72988L20.6801 8.31001C20.6181 8.16778 20.65 8.00198 20.7602 7.89297L21.8759 6.79188C21.9923 6.68895 22.0314 6.52375 21.9736 6.37939C21.9158 6.23504 21.7736 6.14279 21.6185 6.14907H20.3598C20.2142 6.14885 20.082 6.06399 20.0208 5.93155L19.3518 4.48918C19.2838 4.35698 19.1478 4.27393 18.9994 4.27393C18.851 4.27393 18.715 4.35698 18.6469 4.48918L17.9734 5.9338C17.9121 6.06595 17.7799 6.15048 17.6344 6.15057H16.3803C16.2256 6.1445 16.0839 6.23657 16.0263 6.38051C15.9687 6.52445 16.0077 6.68916 16.1236 6.79188L17.2386 7.89297Z" fill="#A4B1CD"/>
<path d="M21.0358 13.2761H2.96424C2.43137 13.2761 2 13.7098 2 14.2404V20.7479C2 21.2784 2.43368 21.7121 2.96424 21.7121H21.0358C21.5663 21.7121 22 21.2784 22 20.7479V14.2427C22 13.7098 21.5663 13.2761 21.0358 13.2761ZM6.3045 19.0362C5.45329 19.0362 4.76125 18.3442 4.76125 17.493C4.76125 16.6418 5.45329 15.9497 6.3045 15.9497C7.15571 15.9497 7.84775 16.6418 7.84775 17.493C7.84775 18.3442 7.15571 19.0362 6.3045 19.0362ZM12.9804 17.9566H9.97693V17.0339H12.9804V17.9566ZM18.722 17.9566H15.7186V17.0339H18.722V17.9566Z" fill="#A4B1CD"/>
</svg>
