<?xml version="1.0" encoding="utf-8"?>
<!-- Generator: Adobe Illustrator 24.1.3, SVG Export Plug-In . SVG Version: 6.00 Build 0)  -->
<svg version="1.1" id="Layer_1" xmlns="http://www.w3.org/2000/svg" xmlns:xlink="http://www.w3.org/1999/xlink" x="0px" y="0px"
	 viewBox="0 0 1045.3 1259.5" style="enable-background:new 0 0 1045.3 1259.5;" xml:space="preserve">
<style type="text/css">
	.st0{clip-path:url(#SVGID_2_);}
	.st1{fill:#111927;}
	.st2{clip-path:url(#SVGID_4_);}
	.st3{clip-path:url(#SVGID_6_);}
	.st4{fill:#4EAB0C;}
	.st5{clip-path:url(#SVGID_8_);}
	.st6{fill:#9FEF00;}
	.st7{clip-path:url(#SVGID_10_);}
	.st8{clip-path:url(#SVGID_12_);}
	.st9{clip-path:url(#SVGID_14_);}
	.st10{clip-path:url(#SVGID_16_);}
	.st11{clip-path:url(#SVGID_18_);}
	.st12{clip-path:url(#SVGID_20_);}
	.st13{fill:#68748E;}
	.st14{clip-path:url(#SVGID_22_);}
	.st15{fill:#A4B1CD;}
	.st16{clip-path:url(#SVGID_24_);}
	.st17{clip-path:url(#SVGID_26_);}
	.st18{fill:#3A7613;}
	.st19{clip-path:url(#SVGID_28_);}
	.st20{clip-path:url(#SVGID_30_);}
	.st21{clip-path:url(#SVGID_32_);}
	.st22{clip-path:url(#SVGID_34_);}
	.st23{fill:#FEFEFE;}
	.st24{clip-path:url(#SVGID_36_);}
	.st25{clip-path:url(#SVGID_38_);}
	.st26{fill:#8692AD;}
	.st27{clip-path:url(#SVGID_40_);}
	.st28{clip-path:url(#SVGID_42_);}
	.st29{clip-path:url(#SVGID_44_);}
	.st30{clip-path:url(#SVGID_46_);}
	.st31{clip-path:url(#SVGID_48_);}
	.st32{fill:#FFAF00;}
	.st33{clip-path:url(#SVGID_50_);}
	.st34{clip-path:url(#SVGID_52_);}
	.st35{clip-path:url(#SVGID_54_);}
	.st36{clip-path:url(#SVGID_56_);}
	.st37{clip-path:url(#SVGID_58_);}
	.st38{clip-path:url(#SVGID_60_);}
	.st39{clip-path:url(#SVGID_62_);}
	.st40{fill:#BFFF22;}
	.st41{fill:#111927;stroke:#101927;stroke-width:7;stroke-miterlimit:10;}
</style>
<g>
	<defs>
		<path id="SVGID_1_" d="M150.6,225.8c-0.7,16.9-1.3,33.8-2,50.7c-1,25.4-3.2,25.2,22.8,27.8s29.3,29.4,29.3,29.4l-6.6-80.1
			c46.5-16.1,94.2-28.7,142.5-37.8c122.9-23.4,249.2-23.4,372.1,0c48.4,9.1,96,21.8,142.5,37.8l-6.6,80.1c0,0,3.3-26.8,29.3-29.4
			s22.8-27.8,22.8-27.8c-0.7-16.9-1.3-33.8-2-50.7c-0.7-18.1-3.9-33.6-17.6-39c-55.8-21.9-113.4-38.7-172.3-50
			c-120.3-23.4-244-23.4-364.3,0c-58.8,11.3-116.5,28.1-172.3,50C154.6,192.2,151.4,207.7,150.6,225.8L150.6,225.8z"/>
	</defs>
	<clipPath id="SVGID_2_">
		<use xlink:href="#SVGID_1_"  style="overflow:visible;"/>
	</clipPath>
	<g class="st0">
		<rect x="143.5" y="114.3" class="st1" width="758.3" height="224.5"/>
	</g>
</g>
<g>
	<defs>
		<path id="SVGID_3_" d="M162.9,470c3.8,55.5,23.3,113.7,67.4,145.7c-4.6-48.9-8.9-97.9-13-146.8c-7.1,0.4-14.1,0.8-21.2,1.1
			L162.9,470z M830.3,468.9c-4,49-8.2,97.9-12.6,146.8c44-32,63.5-90.3,67.1-145.7h-33.2C844.6,469.7,837.4,469.4,830.3,468.9
			L830.3,468.9z M388.3,1012.6c2.3-4.6,5.1-9,8.3-13v-7.4c0.1-12.6,3.5-24.9,10-35.7c-74.3-27.3-136.3-79.6-179.6-145.3
			c-70.7-26.9-129.2-74.9-168.3-135.8c-38.8-60.6-58-134.3-53-212.1c2.8-39.5,5.7-79.2,8.7-118.8c1.9-25.7,26.5-39.8,47.9-40.1
			h109.1c1.2-20.8,2.4-41.6,3.7-62.5c0-0.3,0-0.5,0.1-0.8c2.2-11,6.3-21.5,13.6-29.9c6.5-7.6,15.2-12.9,24.9-15.2
			c200.7-65.3,416.9-65.3,617.6,0c9.7,2.3,18.4,7.6,24.9,15.2c7.3,8.4,11.4,18.9,13.6,29.9c0,0.3,0,0.5,0.1,0.8
			c1.3,20.8,2.6,41.6,3.7,62.5h109.1c21.3,0.3,46,14.4,48.1,40.1c3,39.6,5.9,79.2,8.6,118.8c5.1,77.7-14.3,151.4-53.2,212.1
			c-39,61-97.6,109-168.2,135.9c-43.3,65.7-105.3,117.9-179.6,145.3c6.5,10.8,9.9,23.1,10,35.7v7.4c3.2,4,6,8.4,8.3,13h79.4
			c16.8,14.7,33.4,29.5,50.2,44.1c0.1,1.3,0.3,2.7,0.5,4c3,22,5.9,44.1,8.8,66.1s5.8,44.1,8.6,66.1c2.5,20.6,5,41.1,7.7,61.6H233.2
			c2.4-20.5,5-41,7.6-61.6c2.8-22,5.7-44,8.7-66.1c2.8-22,5.7-44.1,8.7-66.1c0.1-1.3,0.2-2.7,0.4-4c16.8-14.6,33.5-29.3,50.3-44.1
			L388.3,1012.6L388.3,1012.6z"/>
	</defs>
	<clipPath id="SVGID_4_">
		<use xlink:href="#SVGID_3_"  style="overflow:visible;"/>
	</clipPath>
	<g class="st2">
		<rect y="142.1" class="st1" width="1045.3" height="1117.4"/>
	</g>
</g>
<g>
	<defs>
		<path id="SVGID_5_" d="M960.5,359.3H652.2c1.3,70.1,2.5,140.2,3.6,210.2c1.1,70,2,140,2.7,210h32.3c31.9,0,63.6-5,93.9-14.8
			c11.5-28,23-56,34.5-84c-30.7,19.6-65.4,32-101.6,36.1c-0.8-49.4-1.8-98.8-2.8-148.2s-2.3-98.8-3.6-148.3h197.5
			c8.9,0,17.5,4.4,18.2,15c0.4,9.2,1,18.4,1.4,27.6c2.7,51.2-9.7,99-33.4,139.1c0,0,70.4,9.6,85.6-55c5.7-27.6,7.7-55.9,6-84
			c-1.6-25.3-3.2-50.7-4.8-76.2c-0.7-12.9-7.7-27.2-21.2-27.2L960.5,359.3z"/>
	</defs>
	<clipPath id="SVGID_6_">
		<use xlink:href="#SVGID_5_"  style="overflow:visible;"/>
	</clipPath>
	<g class="st3">
		<rect x="647.2" y="354.3" class="st4" width="344.9" height="430.2"/>
	</g>
</g>
<g>
	<defs>
		<path id="SVGID_7_" d="M118.4,435.1c-0.4,9.2-1,18.4-1.5,27.6c-6.4,130.9,86.8,239.7,210.8,253.9c0.8-49.4,1.8-98.8,2.8-148.2
			s2.3-98.8,3.6-148.3H136.5C127.6,420.2,119,424.6,118.4,435.1z M84.8,359.3H393c-1.3,70.1-2.5,140.2-3.6,210.2s-2,140-2.7,210
			h-32.3c-85.6,0-162.8-35.5-216.9-93c-53.7-57.2-84-136.6-78.9-223.7c1.5-25.4,3.3-50.7,4.9-76.2C64.2,373.7,71.3,359.3,84.8,359.3
			L84.8,359.3z"/>
	</defs>
	<clipPath id="SVGID_8_">
		<use xlink:href="#SVGID_7_"  style="overflow:visible;"/>
	</clipPath>
	<g class="st5">
		<rect x="53.1" y="354.3" class="st6" width="344.9" height="430.2"/>
	</g>
</g>
<g>
	<defs>
		<path id="SVGID_9_" d="M118.4,435.1c-0.4,9.2-1,18.4-1.5,27.6c-6.4,130.9,86.8,239.7,210.8,253.9c0.8-49.4,1.8-98.8,2.8-148.2
			s2.3-98.8,3.6-148.3H136.5C127.6,420.2,119,424.6,118.4,435.1L118.4,435.1z M105.4,392.4h261.1c-1.3,59-2.5,118.2-3.6,177.1
			s-2,118-2.7,177h-27.3c-143.8,0-256.6-120.2-249-267c1.1-21.4,2.5-42.8,3.8-64.1C88.1,404.5,94.1,392.4,105.4,392.4L105.4,392.4z"
			/>
	</defs>
	<clipPath id="SVGID_10_">
		<use xlink:href="#SVGID_9_"  style="overflow:visible;"/>
	</clipPath>
	<g class="st7">
		<rect x="78.5" y="387.4" class="st4" width="293" height="364.1"/>
	</g>
</g>
<g>
	<defs>
		<path id="SVGID_11_" d="M219.4,210.3c196.9-64.7,409.4-64.7,606.3,0c9,10.6,18.4,21.3,27.6,31.9c2.9,52.3,5.7,104.5,8.4,156.6
			s4.9,104.3,6.8,156.5c3.2,79.7-15.1,159.7-53,227.2c-38,67.8-95.7,123.2-169.7,154.6c-78.8,33.7-168,33.7-246.8,0
			c-75-31.8-132.9-88.6-171.2-157.7H349c1-58.8,1.9-117.7,2.8-176.5c-44.4,9.7-88.8,19.4-133.4,29.1c-13.8-9.6-27.6-19.4-41.2-29.1
			c-1-15.9-1.2-31.7-0.5-47.6c3.3-81.2,7.1-162.4,11.3-243.7c9.7-20,19.5-40.1,29-60.1C217.8,237.8,218.6,224.1,219.4,210.3
			L219.4,210.3z"/>
	</defs>
	<clipPath id="SVGID_12_">
		<use xlink:href="#SVGID_11_"  style="overflow:visible;"/>
	</clipPath>
	<g class="st8">
		<rect x="171.3" y="156.8" class="st1" width="702.6" height="810.6"/>
	</g>
</g>
<g>
	<defs>
		<path id="SVGID_13_" d="M223.7,280.7c-2.2,43.9-4.3,87.9-6.1,131.6c-2.1,47.6-3.9,95.3-5.5,143c-3.6,100.9,29.3,192.8,85.7,259.1
			c56.6,66.6,136.7,107.8,225,107.8c88,0,167.9-41.1,224.6-107.8c56.4-66.3,89.5-158.3,85.9-259.1c-1.7-47.6-3.5-95.3-5.5-143
			c-1.9-43.8-3.9-87.7-6.1-131.5c2.8-0.3,5.7-0.8,8.4-1.5c9.7-2.4,8.8-9.4,8.8-9.4l-1-1.9c-0.5-10.6-1-21.2-1.5-31.8
			c-0.6-12-3.5-22.3-15.1-25.8c-47.6-14.7-96.1-25.8-145.3-33.2c-50.8-7.7-102-11.6-153.3-11.6c-28.7,0-56.9,1.2-84.8,3.6
			c-5.1,5-8,10.8-8,17c0,5.7,2.5,11.1,7,15.9c1.1,1.2,2.3,2.3,3.6,3.4c-21.5,1.8-42.8,4.3-63.8,7.5c-46.8,7.1-92.9,17.6-138.1,31.6
			c-11,3.4-13.6,13.2-14.1,24.6C224.1,273,223.9,276.8,223.7,280.7L223.7,280.7z"/>
	</defs>
	<clipPath id="SVGID_14_">
		<use xlink:href="#SVGID_13_"  style="overflow:visible;"/>
	</clipPath>
	<g class="st9">
		<rect x="206.8" y="160.6" class="st4" width="637.2" height="766.6"/>
	</g>
</g>
<g>
	<defs>
		<path id="SVGID_15_" d="M223.7,280.7c-2.2,43.9-4.3,87.9-6.1,131.6c-2.1,47.6-3.9,95.3-5.5,143c-3.4,98,27.6,187.4,80.9,253.3
			C326.8,837.5,366,854,408,854c66.1,0,126.3-41.2,169.3-107.8S645.5,588,644,487.1c-0.7-46.3-1.4-92.6-2.3-139
			c-0.6-31.5-1.2-63.2-1.8-94.9c-0.6-29.3-9.5-45.9-43-48.5c-24.4-1.9-49.1-2.8-74.2-2.9c-24.9,0-49.9,0.7-73.7,2.8
			c-19.4,1.7-23-23.8-11.1-35.5c-23.2,1.9-46.1,4.6-68.7,8.1c-49.2,7.4-97.7,18.5-145.2,33.2c-1.6,0.5-3.1,1.2-4.6,2
			c-7.8,4.6-9.8,13.6-10.3,23.8c-0.2,4.2-0.4,8.4-0.6,12.6c-0.4,7-0.7,14-1.1,21c0,0.5,0,1.1,0.1,1.6c0.4,2.2,2,6.1,8.8,7.8
			C218.6,279.9,221.2,280.3,223.7,280.7L223.7,280.7z"/>
	</defs>
	<clipPath id="SVGID_16_">
		<use xlink:href="#SVGID_15_"  style="overflow:visible;"/>
	</clipPath>
	<g class="st10">
		<rect x="202.3" y="164.2" class="st6" width="446.8" height="694.8"/>
	</g>
</g>
<g>
	<defs>
		<path id="SVGID_17_" d="M696.3,226c28.2,1.5,60.3,9.4,78,17.8c1.1,43.5,2.2,91.9,3.2,135.3s1.8,86.9,2.7,130.3
			c1.2,67.6-4.9,138-25.6,193c-20.8,55.2-66.4,133.8-122.6,141.1c25.4-34.4,56.8-118.7,71.3-170.9s22.2-110.7,21.6-170.6
			c-0.6-45.3-1.2-90.6-1.9-135.9C722.3,320.7,727.3,272.3,696.3,226L696.3,226z"/>
	</defs>
	<clipPath id="SVGID_18_">
		<use xlink:href="#SVGID_17_"  style="overflow:visible;"/>
	</clipPath>
	<g class="st11">
		<rect x="627" y="221" class="st1" width="158.4" height="627.5"/>
	</g>
</g>
<g>
	<defs>
		<path id="SVGID_19_" d="M733,1090.7H312.3c-2.8,18.2-5.7,36.3-8.5,54.4s-5.8,36.3-8.5,54.5h454.5c-2.7-18.2-5.5-36.3-8.4-54.5
			C738.6,1127,735.7,1108.9,733,1090.7L733,1090.7z"/>
	</defs>
	<clipPath id="SVGID_20_">
		<use xlink:href="#SVGID_19_"  style="overflow:visible;"/>
	</clipPath>
	<g class="st12">
		<rect x="290.4" y="1085.7" class="st13" width="464.5" height="118.9"/>
	</g>
</g>
<g>
	<defs>
		<path id="SVGID_21_" d="M339.5,1199.6c4.4-36.2,8.9-72.5,13.5-108.9h-40.7c-2.8,18.2-5.7,36.3-8.5,54.4s-5.8,36.3-8.5,54.5H339.5z
			"/>
	</defs>
	<clipPath id="SVGID_22_">
		<use xlink:href="#SVGID_21_"  style="overflow:visible;"/>
	</clipPath>
	<g class="st14">
		<rect x="290.4" y="1085.7" class="st15" width="67.6" height="118.9"/>
	</g>
</g>
<g>
	<defs>
		<path id="SVGID_23_" d="M226.8,681c-36.7-23.5-66.2-56.6-85.4-95.7c-5.8,11.1-47.5-19.8-43-4.9c6.6,22,1.6,32.8-5.9,42.8
			c36.2,67.7,97.3,118.7,170.4,142.2C247.5,738.8,235.4,710.5,226.8,681z"/>
	</defs>
	<clipPath id="SVGID_24_">
		<use xlink:href="#SVGID_23_"  style="overflow:visible;"/>
	</clipPath>
	<g class="st16">
		<rect x="87.5" y="571.3" class="st4" width="180.4" height="199.1"/>
	</g>
</g>
<g>
	<defs>
		<path id="SVGID_25_" d="M939.8,392.4h-78.4c0.4,9.3,0.9,18.6,1.3,27.8h46c8.9,0,17.5,4.4,18.2,15c0.4,9.2,1,18.4,1.4,27.6
			c3.5,66-18.3,126.3-56.7,171.9c0.7,17.8,1.2,35.7,1.7,53.4c57.8-49.1,92.6-124.4,88-208.5c-1.2-21.4-2.5-42.8-3.8-64.1
			C957.1,404.5,951.1,392.4,939.8,392.4L939.8,392.4z"/>
	</defs>
	<clipPath id="SVGID_26_">
		<use xlink:href="#SVGID_25_"  style="overflow:visible;"/>
	</clipPath>
	<g class="st17">
		<rect x="856.4" y="387.4" class="st18" width="110.4" height="305.6"/>
	</g>
</g>
<g>
	<defs>
		<path id="SVGID_27_" d="M582.3,953.7H462.9c-6.4,0-11.6,6.6-11.6,14.6v36.1c-10,3.7-17.3,15.5-17.4,29.4c-0.1,6.1-0.1,12.1-0.1,18
			h177.8c0-6-0.1-11.9-0.1-18c-0.1-13.9-7.4-25.7-17.4-29.4v-36.1C593.9,960.3,588.7,953.7,582.3,953.7z"/>
	</defs>
	<clipPath id="SVGID_28_">
		<use xlink:href="#SVGID_27_"  style="overflow:visible;"/>
	</clipPath>
	<g class="st19">
		<rect x="428.7" y="948.7" class="st4" width="187.7" height="108.1"/>
	</g>
</g>
<g>
	<defs>
		<path id="SVGID_29_" d="M522.8,973.3v31.2c10,3.7,17.4,15.5,17.4,29.4v18h71.3c0-6-0.1-11.9-0.1-18c-0.1-13.9-7.4-25.7-17.4-29.4
			v-36.1c0-8-5.2-14.6-11.6-14.6h-71c5.6,0,10.4,5.2,11.3,12.1c0.1,0.8,0.2,1.7,0.2,2.5L522.8,973.3L522.8,973.3z"/>
	</defs>
	<clipPath id="SVGID_30_">
		<use xlink:href="#SVGID_29_"  style="overflow:visible;"/>
	</clipPath>
	<g class="st20">
		<rect x="506.3" y="948.7" class="st18" width="110.2" height="108.1"/>
	</g>
</g>
<g>
	<defs>
		<path id="SVGID_31_" d="M622.3,992.1l-20.2,12.3H437.7v-10.7c0-5.9,5.3-10.8,11.8-10.8h172.9V992.1z"/>
	</defs>
	<clipPath id="SVGID_32_">
		<use xlink:href="#SVGID_31_"  style="overflow:visible;"/>
	</clipPath>
	<g class="st21">
		<rect x="432.7" y="978" class="st1" width="194.7" height="31.5"/>
	</g>
</g>
<g>
	<defs>
		<path id="SVGID_33_" d="M261.5,293.3c-0.7,28.6-1.4,57.1-2.1,85.7c-1,45.2-2,90.4-2.8,135.5c-1.3,70.3,5.2,143.5,27.1,200.8
			c20.9,54.7,55.7,95.5,110.3,105.4c3.9,0.7,8.5,1.2,4.8-3.9c-25.1-35.1-46.2-80.8-60.7-132.5c-15.3-54.2-22.3-109-21.6-171.3
			c0.6-47.1-0.6-100.6,0.1-147.7c0.1-7.2-0.1-28.1-0.1-47.8c0-15.6,0.1-29.8,0.1-36.6c0-13.3-37-5-42.9-2.9
			c-12.1,4.2-12.1,15.2-12.1,15.2L261.5,293.3L261.5,293.3z"/>
	</defs>
	<clipPath id="SVGID_34_">
		<use xlink:href="#SVGID_33_"  style="overflow:visible;"/>
	</clipPath>
	<g class="st22">
		<rect x="251.4" y="268.5" class="st23" width="153.8" height="557.6"/>
	</g>
</g>
<g>
	<defs>
		<path id="SVGID_35_" d="M304.5,236.9c-3.2-7.1-4.9-14.7-4.9-22.5c0-1.5,0.1-3.1,0.2-4.6c0.4-4.3-5.6-3.8-7.9-3.2
			c-15.8,3.6-31.5,7.6-46.9,12c-9.5,2.7-3.9,31.1-0.1,36.8c1,1.5,3.7,4.5,8,3.4c15.7-4.6,31.6-8.8,47.8-12.5
			C307,244.9,306.8,241.7,304.5,236.9L304.5,236.9z"/>
	</defs>
	<clipPath id="SVGID_36_">
		<use xlink:href="#SVGID_35_"  style="overflow:visible;"/>
	</clipPath>
	<g class="st24">
		<rect x="234.6" y="201.3" class="st23" width="76.3" height="62.8"/>
	</g>
</g>
<g>
	<defs>
		<path id="SVGID_37_" d="M578.7,1090.7l-82.4,108.9h253.5c-2.7-18.2-5.5-36.3-8.4-54.5c-2.8-18.1-5.8-36.2-8.5-54.4H578.7z"/>
	</defs>
	<clipPath id="SVGID_38_">
		<use xlink:href="#SVGID_37_"  style="overflow:visible;"/>
	</clipPath>
	<g class="st25">
		<rect x="491.3" y="1085.7" class="st26" width="263.5" height="118.9"/>
	</g>
</g>
<g>
	<defs>
		<polygon id="SVGID_39_" points="144.9,313 154.6,369.6 207.8,380 154.6,390.4 144.9,446.9 135.1,390.4 81.9,380 135.1,369.6 		"/>
	</defs>
	<clipPath id="SVGID_40_">
		<use xlink:href="#SVGID_39_"  style="overflow:visible;"/>
	</clipPath>
	<g class="st27">
		<rect x="76.9" y="308" class="st23" width="135.9" height="143.9"/>
	</g>
</g>
<g>
	<defs>
		<polygon id="SVGID_41_" points="803.1,193.3 818.6,283.2 903.1,299.6 818.6,316.1 803.1,406 787.6,316.1 703.1,299.6 787.6,283.2 
					"/>
	</defs>
	<clipPath id="SVGID_42_">
		<use xlink:href="#SVGID_41_"  style="overflow:visible;"/>
	</clipPath>
	<g class="st28">
		<rect x="698.1" y="188.3" class="st23" width="210" height="222.7"/>
	</g>
</g>
<g>
	<defs>
		<polygon id="SVGID_43_" points="628.6,842.6 637.9,896.3 688.3,906.1 637.9,915.9 628.6,969.6 619.4,915.9 568.9,906.1 
			619.4,896.3 		"/>
	</defs>
	<clipPath id="SVGID_44_">
		<use xlink:href="#SVGID_43_"  style="overflow:visible;"/>
	</clipPath>
	<g class="st29">
		<rect x="563.9" y="837.6" class="st23" width="129.4" height="137"/>
	</g>
</g>
<g>
	<defs>
		<polygon id="SVGID_45_" points="332.7,1027.2 341.9,1080.9 392.4,1090.7 341.9,1100.6 332.7,1154.2 323.4,1100.6 273,1090.7 
			323.4,1080.9 		"/>
	</defs>
	<clipPath id="SVGID_46_">
		<use xlink:href="#SVGID_45_"  style="overflow:visible;"/>
	</clipPath>
	<g class="st30">
		<rect x="268" y="1022.2" class="st23" width="129.4" height="137"/>
	</g>
</g>
<g>
	<defs>
		<path id="SVGID_47_" d="M109.8,266.1c0,0-11,1.9-37.2-9.2C46.4,245.8,33.8,218,33.8,218l22.4-13c0,0,3.6,23,24.8,35s34.3,9,34.3,9
			L109.8,266.1L109.8,266.1z"/>
	</defs>
	<clipPath id="SVGID_48_">
		<use xlink:href="#SVGID_47_"  style="overflow:visible;"/>
	</clipPath>
	<g class="st31">
		<rect x="28.8" y="200" class="st32" width="91.5" height="71.2"/>
	</g>
</g>
<g>
	<defs>
		<polygon id="SVGID_49_" points="319.1,953.2 254.9,929.7 248.8,978.1 322.2,977.3 		"/>
	</defs>
	<clipPath id="SVGID_50_">
		<use xlink:href="#SVGID_49_"  style="overflow:visible;"/>
	</clipPath>
	<g class="st33">
		<rect x="243.8" y="924.7" class="st32" width="83.3" height="58.4"/>
	</g>
</g>
<g>
	<defs>
		<path id="SVGID_51_" d="M939.1,215c1.1,8.9-12.8,31.5-18,31.9l15.4,12.3c13-8.6,31.8-29.1,29.2-45.7L939.1,215z"/>
	</defs>
	<clipPath id="SVGID_52_">
		<use xlink:href="#SVGID_51_"  style="overflow:visible;"/>
	</clipPath>
	<g class="st34">
		<rect x="916.1" y="208.5" class="st6" width="54.8" height="55.7"/>
	</g>
</g>
<g>
	<defs>
		<path id="SVGID_53_" d="M377.7,57.5l22.4,14.7c0,0-6.2,12.9-30.3,19.1s-40.3-2.8-40.3-2.8l4-22.4c0,0,14.9,5.5,26.4,4.6
			S377.7,57.5,377.7,57.5L377.7,57.5z"/>
	</defs>
	<clipPath id="SVGID_54_">
		<use xlink:href="#SVGID_53_"  style="overflow:visible;"/>
	</clipPath>
	<g class="st35">
		<rect x="324.5" y="52.5" class="st6" width="80.6" height="45.9"/>
	</g>
</g>
<g>
	<defs>
		<path id="SVGID_55_" d="M615.1,76.4c0,0-1.4-13.3-23-39.7S534.5,5,534.5,5L527,35.1c0,0,27.5-3.5,48.5,16.9s21.8,36.4,21.8,36.4
			L615.1,76.4L615.1,76.4z"/>
	</defs>
	<clipPath id="SVGID_56_">
		<use xlink:href="#SVGID_55_"  style="overflow:visible;"/>
	</clipPath>
	<g class="st36">
		<rect x="522" y="0" class="st32" width="98.1" height="93.4"/>
	</g>
</g>
<g>
	<defs>
		<polygon id="SVGID_57_" points="737.8,99.5 774.4,77.5 753.3,55.6 724.8,91.5 		"/>
	</defs>
	<clipPath id="SVGID_58_">
		<use xlink:href="#SVGID_57_"  style="overflow:visible;"/>
	</clipPath>
	<g class="st37">
		<rect x="719.8" y="50.6" class="st4" width="59.6" height="53.9"/>
	</g>
</g>
<g>
	<defs>
		<path id="SVGID_59_" d="M850.8,836.3l33,2.6c0,0,0.9,17.7-21.5,38.8S817,898.7,817,898.7l-9-26.7c0,0,19.4-2.9,31.4-10.8
			S850.8,836.3,850.8,836.3L850.8,836.3z"/>
	</defs>
	<clipPath id="SVGID_60_">
		<use xlink:href="#SVGID_59_"  style="overflow:visible;"/>
	</clipPath>
	<g class="st38">
		<rect x="803" y="831.3" class="st6" width="85.8" height="72.4"/>
	</g>
</g>
<g>
	<defs>
		<path id="SVGID_61_" d="M197.4,855.4l11.9,24c0,0-11.9,7.9-35.7,1.2s-33.4-22.8-33.4-22.8l14.8-17.3c0,0,10,12.3,20.5,17.3
			S197.4,855.5,197.4,855.4L197.4,855.4z"/>
	</defs>
	<clipPath id="SVGID_62_">
		<use xlink:href="#SVGID_61_"  style="overflow:visible;"/>
	</clipPath>
	<g class="st39">
		<rect x="135.2" y="835.6" class="st6" width="79.1" height="52.7"/>
	</g>
</g>
<g>
	<path class="st4" d="M666.8,382.1L666.8,382.1c0-3.2-1.1-6.4-3.2-8.5l0,0c0,0,0,0-1.1-1.1c0,0-1.1,0-1.1-1.1l0,0l-133.1-75.6h-1.1
		c-1.1-2.1-3.2-2.1-5.3-2.1c-1.1,0-2.1,0-3.2,1.1c-1.1,0-1.1,1.1-2.1,1.1l-132.1,75.6l0,0l0,0l0,0c-2.1,1.1-3.2,2.1-3.2,2.1l0,0
		c-2.1,2.1-3.2,5.3-3.2,8.5l0,0l0,0v152.3c0,4.3,2.1,8.5,6.4,10.7l132.1,75.6c0,0,0,0,1.1,0l0,0c1.1,0,1.1,1.1,2.1,1.1l0,0
		c1.1,0,2.1,0,2.1,0c1.1,0,2.1,0,2.1,0l0,0c1.1,0,1.1,0,2.1-1.1l0,0c0,0,0,0,1.1,0l132.1-75.6c4.3-2.1,6.4-6.4,6.4-10.7L666.8,382.1
		L666.8,382.1z M430.4,376.8l89.5-51.1c2.1-1.1,4.3-1.1,5.3,0l89.5,52.2c4.3,1.1,4.3,7.5,0,9.6l-89.5,52.2c-2.1,1.1-4.3,1.1-5.3,0
		l-89.5-52.2C426.1,385.3,426.1,378.9,430.4,376.8z M507,573.8c0,4.3-4.3,7.5-8.5,5.3L409,527c-2.1-1.1-3.2-3.2-3.2-4.3V419.4
		c0-4.3,4.3-7.5,8.5-5.3l89.5,52.2c2.1,1.1,3.2,3.2,3.2,5.3V573.8z M639.1,522.7c0,2.1-1.1,4.3-3.2,5.3l-89.5,52.2
		c-4.3,2.1-8.5-1.1-8.5-5.3V471.6c0-2.1,1.1-4.3,3.2-5.3l89.5-52.2c4.3-2.1,8.5,1.1,8.5,5.3V522.7z"/>
	<path class="st40" d="M666.8,408.6L666.8,408.6c0-3.2-1.1-6.4-3.2-8.5l0,0c0,0,0,0-1.1-1.1c0,0-1.1,0-1.1-1.1l0,0l-133.1-75.6h-1.1
		c-1.1-2.1-3.2-2.1-5.3-2.1c-1.1,0-2.1,0-3.2,1.1c-1.1,0-1.1,1.1-2.1,1.1L384.6,398l0,0l0,0l0,0c-2.1,1.1-3.2,2.1-3.2,2.1l0,0
		c-2.1,2.1-3.2,5.3-3.2,8.5l0,0l0,0V561c0,4.3,2.1,8.5,6.4,10.7l132.1,75.6c0,0,0,0,1.1,0l0,0c1.1,0,1.1,1.1,2.1,1.1l0,0
		c1.1,0,2.1,0,2.1,0c1.1,0,2.1,0,2.1,0l0,0c1.1,0,1.1,0,2.1-1.1l0,0c0,0,0,0,1.1,0l132.1-75.6c4.3-2.1,6.4-6.4,6.4-10.7L666.8,408.6
		L666.8,408.6z M430.4,403.3l89.5-51.1c2.1-1.1,4.3-1.1,5.3,0l89.5,52.2c4.3,1.1,4.3,7.5,0,9.6l-89.5,52.2c-2.1,1.1-4.3,1.1-5.3,0
		L430.4,414C426.1,411.8,426.1,405.4,430.4,403.3z M507,600.4c0,4.3-4.3,7.5-8.5,5.3L409,553.5c-2.1-1.1-3.2-3.2-3.2-4.3V445.9
		c0-4.3,4.3-7.5,8.5-5.3l89.5,52.2c2.1,1.1,3.2,3.2,3.2,5.3V600.4z M639.1,549.2c0,2.1-1.1,4.3-3.2,5.3l-89.5,52.2
		c-4.3,2.1-8.5-1.1-8.5-5.3V498.1c0-2.1,1.1-4.3,3.2-5.3l89.5-52.2c4.3-2.1,8.5,1.1,8.5,5.3V549.2z"/>
	<path class="st41" d="M666.8,396L666.8,396c0-3.2-1.1-6.4-3.2-8.5l0,0c0,0,0,0-1.1-1.1c0,0-1.1,0-1.1-1.1l0,0l-133.1-75.6h-1.1
		c-1.1-2.1-3.2-2.1-5.3-2.1c-1.1,0-2.1,0-3.2,1.1c-1.1,0-1.1,1.1-2.1,1.1l-132.1,75.6l0,0l0,0l0,0c-2.1,1.1-3.2,2.1-3.2,2.1l0,0
		c-2.1,2.1-3.2,5.3-3.2,8.5l0,0l0,0v152.3c0,4.3,2.1,8.5,6.4,10.7l132.1,75.6c0,0,0,0,1.1,0l0,0c1.1,0,1.1,1.1,2.1,1.1l0,0
		c1.1,0,2.1,0,2.1,0c1.1,0,2.1,0,2.1,0l0,0c1.1,0,1.1,0,2.1-1.1l0,0c0,0,0,0,1.1,0L659.4,559c4.3-2.1,6.4-6.4,6.4-10.7L666.8,396
		L666.8,396z M430.4,390.7l89.5-51.1c2.1-1.1,4.3-1.1,5.3,0l89.5,52.2c4.3,1.1,4.3,7.5,0,9.6l-89.5,52.2c-2.1,1.1-4.3,1.1-5.3,0
		l-89.5-52.2C426.1,399.2,426.1,392.8,430.4,390.7z M507,587.7c0,4.3-4.3,7.5-8.5,5.3L409,540.9c-2.1-1.1-3.2-3.2-3.2-4.3V433.3
		c0-4.3,4.3-7.5,8.5-5.3l89.5,52.2c2.1,1.1,3.2,3.2,3.2,5.3V587.7z M639.1,536.6c0,2.1-1.1,4.3-3.2,5.3l-89.5,52.2
		c-4.3,2.1-8.5-1.1-8.5-5.3V485.5c0-2.1,1.1-4.3,3.2-5.3l89.5-52.2c4.3-2.1,8.5,1.1,8.5,5.3V536.6z"/>
</g>
</svg>
