<svg width="24" height="25" viewBox="0 0 24 25" fill="none" xmlns="http://www.w3.org/2000/svg">
<path fill-rule="evenodd" clip-rule="evenodd" d="M14.5 8.42065C13.8096 8.42065 13.25 7.86101 13.25 7.17065C13.25 6.4803 13.8096 5.92065 14.5 5.92065H20.75C21.4404 5.92065 22 6.4803 22 7.17065V13.4206C22 14.111 21.4404 14.6706 20.75 14.6706C20.0596 14.6706 19.5 14.111 19.5 13.4206V10.1884L14.1339 15.5545C13.6457 16.0427 12.8543 16.0427 12.3661 15.5545L9.5 12.6884L4.13388 18.0545C3.64573 18.5427 2.85427 18.5427 2.36612 18.0545C1.87796 17.5664 1.87796 16.7749 2.36612 16.2868L8.61612 10.0368C9.10427 9.54861 9.89573 9.54861 10.3839 10.0368L13.25 12.9029L17.7322 8.42065H14.5Z" fill="#A4B1CD"/>
</svg>
