<?xml version="1.0" encoding="UTF-8"?>
<svg width="24px" height="24px" viewBox="0 0 24 24" version="1.1" xmlns="http://www.w3.org/2000/svg" xmlns:xlink="http://www.w3.org/1999/xlink">
    <!-- Generator: Sketch 59.1 (86144) - https://sketch.com -->
    <title>Work-Office-Companies / Meetings/Collaboration / team-meeting-message-question-1</title>
    <desc>Created with Sketch.</desc>
    <g id="Work-Office-Companies-/-Meetings/Collaboration-/-team-meeting-message-question-1" stroke="none" stroke-width="1" fill="none" fill-rule="evenodd" stroke-linecap="round" stroke-linejoin="round">
        <g id="Group">
            <g id="team-meeting-message-question_1">
                <path d="M20.5,8.5 C20.5,9.05228475 20.0522847,9.5 19.5,9.5 L15.5,9.5 L12.5,12.5 L12.5,9.5 L5.5,9.5 C4.94771525,9.5 4.5,9.05228475 4.5,8.5 L4.5,1.5 C4.5,0.94771525 4.94771525,0.5 5.5,0.5 L19.5,0.5 C20.0522847,0.5 20.5,0.94771525 20.5,1.5 L20.5,8.5 Z" id="Shape" stroke="#9FEF00"></path>
                <circle id="Oval" stroke="#A4B1CD" cx="4.88" cy="16.25" r="2.75"></circle>
                <path d="M9.259,23.5 C8.79634436,21.4533118 6.97782859,19.9999898 4.8795,19.9999898 C2.78117141,19.9999898 0.962655644,21.4533118 0.5,23.5" id="Shape" stroke="#A4B1CD"></path>
                <circle id="Oval" stroke="#A4B1CD" cx="19.12" cy="16.25" r="2.75"></circle>
                <path d="M23.5,23.5 C23.0373444,21.4533118 21.2188286,19.9999898 19.1205,19.9999898 C17.0221714,19.9999898 15.2036556,21.4533118 14.741,23.5" id="Shape" stroke="#A4B1CD"></path>
                <path d="M11,4 C11,3.17157288 11.6715729,2.5 12.5,2.5 C13.3284271,2.5 14,3.17157288 14,4 C14,4.82842712 13.3284271,5.5 12.5,5.5" id="Shape" stroke="#9FEF00"></path>
                <path d="M12.5,7 C12.6380712,7 12.75,7.11192881 12.75,7.25 C12.75,7.38807119 12.6380712,7.5 12.5,7.5 C12.3619288,7.5 12.25,7.38807119 12.25,7.25 C12.25,7.11192881 12.3619288,7 12.5,7" id="Shape" stroke="#9FEF00"></path>
            </g>
        </g>
    </g>
</svg>