<svg width="24" height="24" viewBox="0 0 24 24" fill="none" xmlns="http://www.w3.org/2000/svg">
<path d="M10.75 5.88981C9.4285 5.24584 7.94395 4.88452 6.375 4.88452C4.80605 4.88452 3.32149 5.24584 2 5.88981V16.7901C2 17.529 2.78055 18.0205 3.48811 17.8075C4.40214 17.5324 5.3713 17.3845 6.375 17.3845C8.21678 17.3845 9.94226 17.8824 11.4242 18.751C11.7789 18.9589 12.2211 18.9589 12.5758 18.751C14.0577 17.8824 15.7832 17.3845 17.625 17.3845C18.6287 17.3845 19.5979 17.5324 20.5119 17.8075C21.2195 18.0205 22 17.529 22 16.7901V5.88981C20.6785 5.24584 19.1939 4.88452 17.625 4.88452C16.0561 4.88452 14.5715 5.24584 13.25 5.88981V14.8845C13.25 15.5749 12.6904 16.1345 12 16.1345C11.3096 16.1345 10.75 15.5749 10.75 14.8845V5.88981Z" fill="#A4B1CD"/>
</svg>
