<svg width="24" height="25" viewBox="0 0 24 25" fill="none" xmlns="http://www.w3.org/2000/svg">
<path d="M8.25 3.25732C7.55964 3.25732 7 3.81697 7 4.50732C7 5.19768 7.55964 5.75732 8.25 5.75732H15.75C16.4404 5.75732 17 5.19768 17 4.50732C17 3.81697 16.4404 3.25732 15.75 3.25732H8.25Z" fill="#A4B1CD"/>
<path d="M4.5 8.25732C4.5 7.56697 5.05964 7.00732 5.75 7.00732H18.25C18.9404 7.00732 19.5 7.56697 19.5 8.25732C19.5 8.94768 18.9404 9.50732 18.25 9.50732H5.75C5.05964 9.50732 4.5 8.94768 4.5 8.25732Z" fill="#A4B1CD"/>
<path d="M2 13.2573C2 11.8766 3.11929 10.7573 4.5 10.7573H19.5C20.8807 10.7573 22 11.8766 22 13.2573V18.2573C22 19.638 20.8807 20.7573 19.5 20.7573H4.5C3.11929 20.7573 2 19.638 2 18.2573V13.2573Z" fill="#A4B1CD"/>
</svg>
