<?xml version="1.0" encoding="UTF-8"?>
<svg width="24px" height="24px" viewBox="0 0 24 24" version="1.1" xmlns="http://www.w3.org/2000/svg" xmlns:xlink="http://www.w3.org/1999/xlink">
    <!-- Generator: Sketch 59.1 (86144) - https://sketch.com -->
    <title>Entertainment-Event-Hobbies / Ticketing / ticket-1</title>
    <desc>Created with Sketch.</desc>
    <g id="Entertainment-Event-Hobbies-/-Ticketing-/-ticket-1" stroke="none" stroke-width="1" fill="none" fill-rule="evenodd" stroke-linecap="round" stroke-linejoin="round">
        <g id="Group">
            <g id="Light">
                <line x1="14.739" y1="7.14" x2="8.375" y2="13.504" id="Shape" stroke="#9FEF00"></line>
                <line x1="15.092" y1="11.028" x2="12.264" y2="13.856" id="Shape" stroke="#9FEF00"></line>
                <path d="M10.117984,3.88156275 L15.117984,3.88156275 C16.2225535,3.88156275 17.117984,4.77699325 17.117984,5.88156275 L17.117984,16.8815627 C17.117984,17.9861322 16.2225535,18.8815627 15.117984,18.8815627 L10.117984,18.8815627 C9.01341448,18.8815627 8.11798398,17.9861322 8.11798398,16.8815627 L8.11798398,5.88156275 C8.11798398,4.77699325 9.01341448,3.88156275 10.117984,3.88156275 Z" id="Rectangle-path" stroke="#9FEF00" transform="translate(12.617984, 11.381563) rotate(45.000000) translate(-12.617984, -11.381563) "></path>
                <path d="M23.4,10.6 C22.6034947,9.53476181 22.6034947,8.07223819 23.4,7.007 C23.548826,6.80791029 23.5288034,6.52972435 23.353,6.354 L17.646,0.647 C17.4702756,0.471196603 17.1920897,0.451174032 16.993,0.6 C15.9277618,1.39650531 14.4652382,1.39650531 13.4,0.6 C13.2009103,0.451174032 12.9227244,0.471196603 12.747,0.647 L0.5,12.893 C0.687777043,13.0805683 0.793286656,13.3350908 0.793286656,13.6005 C0.793286656,13.8659092 0.687777043,14.1204317 0.5,14.308 L9.692,23.5 C9.87956826,23.312223 10.1340908,23.2067133 10.3995,23.2067133 C10.6649092,23.2067133 10.9194317,23.312223 11.107,23.5 L23.353,11.253 C23.5288034,11.0772756 23.548826,10.7990897 23.4,10.6 Z" id="Shape" stroke="#A4B1CD"></path>
            </g>
        </g>
    </g>
</svg>