<svg xmlns="http://www.w3.org/2000/svg" viewBox="0 0 172.4845 173.61312"><path d="M136.22163,126.42038c-.94382,19.75928-17.19077,33.92308-38.84035,33.92308H52.46838V116.19838l-15.74709-6.9519v64.36664h60.66c31.34983,0,54.53389-21.43307,54.53389-49.72339,0-.39782-.05057-.77612-.05974-1.17039A71.259,71.259,0,0,1,136.22163,126.42038Z" fill="#335eea"/><path d="M146.04877,57.78659C134.02137,31.25546,127.6539,7.20041,111.02749,1.54047,101.37327-1.74616,96.60378.92,91.94905,3.1158a2.15073,2.15073,0,0,0-.51286,3.60163c2.64455,2.22974,5.84441,5.02675,9.699,8.534C87.05164,7.0738,48.13234-5.19261,44.16889,9.67662c-3.58,13.43142-9.5512,33.2526-9.5512,33.2526S3.84143,39.74549.30393,52.83405c-3.53749,13.08869,24.05517,38.205,69.68881,51.64747,45.6334,13.44245,81.00845,9.905,96.21958-6.72123C181.42382,81.13423,166.727,58.17461,146.04877,57.78659Zm-9.05138.2083c-3.50761,3.455-14.97486,12.15911-40.17844,10.348C69.84562,66.40466,47.53484,50.40408,41.89161,46.02569a2.68138,2.68138,0,0,1-.9713-2.82084c.34274-1.34474.91724-3.431,1.78291-6.08459a2.76379,2.76379,0,0,1,3.97436-1.574c11.40631,6.50084,29.63093,16.09412,49.04927,17.3714,17.35942,1.1419,27.78364-3.90192,34.55122-7.67059a2.733,2.733,0,0,1,3.86647,1.37675l3.429,8.4055A2.71437,2.71437,0,0,1,136.99739,57.99489Z" fill="#335eea"/></svg>