<?xml version="1.0" encoding="utf-8"?>
<!-- Generator: Adobe Illustrator 24.1.3, SVG Export Plug-In . SVG Version: 6.00 Build 0)  -->
<svg version="1.1" id="Layer_1" xmlns:xodm="http://www.corel.com/coreldraw/odm/2003"
	 xmlns="http://www.w3.org/2000/svg" xmlns:xlink="http://www.w3.org/1999/xlink" x="0px" y="0px" viewBox="0 0 449.8 610"
	 style="enable-background:new 0 0 449.8 610;" xml:space="preserve">
<style type="text/css">
	.st0{fill-rule:evenodd;clip-rule:evenodd;fill:#FF3E3E;}
	.st1{fill-rule:evenodd;clip-rule:evenodd;fill:#CED8F0;}
	.st2{fill-rule:evenodd;clip-rule:evenodd;fill:#111927;}
	.st3{fill:#A3B1CC;}
	.st4{fill-rule:evenodd;clip-rule:evenodd;fill:#CF3434;}
	.st5{fill:#FF3E3E;}
	.st6{fill-rule:evenodd;clip-rule:evenodd;fill:#FFFFFF;}
	.st7{fill-rule:evenodd;clip-rule:evenodd;fill:#303F61;}
	.st8{fill-rule:evenodd;clip-rule:evenodd;fill:#68748E;}
	.st9{fill-rule:evenodd;clip-rule:evenodd;fill:#A4B1CD;}
	.st10{fill-rule:evenodd;clip-rule:evenodd;fill:#424E63;}
	.st11{fill:#424E63;}
	.st12{fill-rule:evenodd;clip-rule:evenodd;fill:#868C93;}
	.st13{fill-rule:evenodd;clip-rule:evenodd;fill:#DAE3FA;}
	.st14{fill-rule:evenodd;clip-rule:evenodd;fill:#FFAF02;}
	.st15{fill-rule:evenodd;clip-rule:evenodd;fill:#8A5E01;}
	.st16{fill-rule:evenodd;clip-rule:evenodd;fill:#6B809B;}
	.st17{fill-rule:evenodd;clip-rule:evenodd;fill:#FFD67F;}
	.st18{fill-rule:evenodd;clip-rule:evenodd;fill:#B87F05;}
	.st19{fill-rule:evenodd;clip-rule:evenodd;fill:#573E08;}
	.st20{fill-rule:evenodd;clip-rule:evenodd;fill:url(#SVGID_1_);}
	.st21{fill:#FFAF02;fill-opacity:0.7882;}
	.st22{fill:#111927;}
</style>
<g id="Layer_x0020_1">
	<g id="_2003134607728">
		<path class="st0" d="M22.7,218.8l-0.3,0.5c-2.4,4.5-3.9,10.5-5.4,15.4c-2.5,8.4-5,16.8-7.3,25.2c-2.4,8.5-4.6,17.1-6.6,25.6
			c-0.6,2.7-1.4,5.4-1.9,8.2c-0.5,2.5-1.1,5.5-1.1,8.1c0,0.3,0,0.5,0,0.8s0,0.5,0.1,0.7c0.6,4.5,3,9.9,4.9,14.1
			c2.6,6.1,5.5,12,8.4,18c2.2,4.6,4.4,9.2,6.4,13.8v64.9c-2.5,2.6-5,5.3-7.5,8c-1.1,1.2-2.2,2.2-3,3.6c-1,1.7-1.3,3.4-1.6,5.3
			c-0.8,4.2-1.7,8.4-2.5,12.6c-0.9,4.2-1.7,8.4-2.6,12.6c-0.8,3.7,0.1,9.2,2,12.5c2.1,3.6,4.2,7.3,6.4,10.9c0.5,0.8,0.9,1.5,1.5,2.4
			c1.7,2.7,4.5,5.1,7.6,6.1V513l0.3,1c0.5,1.5,1.1,2.8,2.1,4c2,2.5,4.6,3.6,7.4,4.5c2.9,1,5.9,1.8,8.8,2.8l69.3,24.2
			c0.3,0.1,0.5,0.2,0.8,0.3c0.1,0.2,0.1,0.5,0.2,0.6l3.5,11.1l0.1,0.3c2,5,3.1,5.4,7.6,7.5l0.2,0.1l93.6,37.7
			c3.5,1.4,7.2,2.9,11,2.9s7.5-1.5,11-2.9l93.6-37.7l0.2-0.1c4.5-2.2,5.6-2.5,7.6-7.5l0.1-0.3l3.5-11.1c0.1-0.2,0.1-0.5,0.2-0.6
			c0.3-0.1,0.5-0.2,0.8-0.3l69.3-24.2c2.9-1,5.9-1.8,8.8-2.8s5.5-2.1,7.4-4.5c1-1.2,1.6-2.5,2.1-4l0.3-1v-24.9
			c3.2-1.1,5.9-3.5,7.6-6.1c0.5-0.7,1-1.5,1.5-2.4c2.2-3.6,4.3-7.3,6.4-10.9c1.9-3.4,2.8-8.8,2-12.5c-0.9-4.2-1.7-8.4-2.6-12.6
			s-1.7-8.4-2.5-12.6c-0.4-1.9-0.6-3.5-1.6-5.3c-0.8-1.5-1.9-2.5-3-3.6c-2.5-2.6-5-5.3-7.5-8V350c1-1.9,1.8-3.9,2.6-5.5
			c2.5-5.3,5.1-10.5,7.4-15.9c2-4.5,4-8.8,5.8-13.3c1.4-3.3,4-10,4-13.4c0-2.5-0.8-5.8-1.5-8.3c-0.7-2.8-1.5-5.6-2.3-8.4
			c-2.5-9.4-5.2-18.7-7.9-28c-2.7-9.5-5.5-19.1-8.4-28.6c-1-3.3-2-6.5-3.1-9.8c-0.5-1.7-1.1-3.7-1.9-5.4c-1.5-2.9-4.5-5.8-6.6-8.2
			c-4.3-4.6-8.4-9.4-12.4-14.3c-4.3-5.2-7.9-10.9-11.4-16.6c-3.6-5.8-7.1-11.7-10.5-17.6c-1.5-2.5-4.8-9.2-7.2-10.7
			c-1.2-0.8-2.8-1.4-4.3-1.6L371,144l-5.5-10.4l-7.9-18.1l-0.1-0.2c-1.5-4.6-9.8-7.1-13.9-8.6c-7.4-2.8-15-5.4-22.4-8
			c-4.5-1.5-8.9-3.1-13.4-4.6l-3-1l0.6-3.1c0.3-1.2,0.4-2.4,0.4-3.6c-0.2-4.2-2.2-8.2-3.1-12.2l-0.5-1.9l1.5-1.4
			c0.4-0.4,0.8-0.8,1.3-1.2c1.5-1.4,3.1-2.8,4.5-4.4c5-5.6,12.4-14.3,10.4-22.5l-0.7-3.2l3.1-1.1c3.7-1.3,6.4-4.7,6.7-8.6
			c0.2-2.3-0.2-4.4-1.4-6.3c-3.9-6.3-14.4-8.6-21.3-7.1h-0.2h-0.2c-6.1,0.6-13.4,3.9-18.5,7c-1.1,0.7-2.2,1.4-3.3,2.2l-3.6,2.5
			l-1.8-4.1c-1.7-4-5-6.4-9.2-7.4c-2-0.5-4.2-0.9-6.3-1.3c-3-0.5-6-1.1-9-1.7c-4.5-0.9-14.1-2.6-17.6-5.2
			c-5.3-3.8-10.8-7.8-17.4-8.4c-6.4-0.6-11.9,1.9-16.3,6.4c-6.4,6.4-10.7,18.4-13.2,27.2l-0.9,3.3l-3.3-0.6
			c-3.3-0.6-6.5-1.1-9.8-1.4c-4.4-0.3-8.5,0.8-11.9,3.6c-7.4,6.1-7.9,17-5.2,25.5c2.4,7.1,6.9,13.1,13.3,17l6.8,4.2l-7.6,2.3
			c-8.7,2.6-17.5,4.8-26.3,7.1c-8.3,2.2-16.5,4.3-24.7,6.6c-6.2,1.8-12.7,3.6-18.5,6.3c-2.6,1.2-5.2,2.5-6.9,4.9
			c-1.2,1.5-1.7,3.5-2.5,5.3v0.1L79,144.2l-1.7,0.4c-1.4,0.3-2.8,0.7-4,1.5c-2.4,1.6-5.7,8.2-7.2,10.8c-3.5,5.9-6.9,11.8-10.5,17.6
			c-3.5,5.7-7.2,11.4-11.4,16.6c-7.3,8.9-13.8,18.3-21,27.2L22.7,218.8L22.7,218.8z"/>
		<path class="st1" d="M293.8,28.8l12.9-5.8c0,0,6.3-1.7,11.9,1.4c5.5,3,3.5,7.5,0.9,8.2c-2.5,0.7-4.6-1.3-4.8-2.7s0.7-2.2,0.7-2.2
			s0.1,2,2.1,1.7c1.9-0.3,0.1-5.2-5.9-2c-6,3.1-8.7,6.8-6.5,10.6c2.1,3.7,4.7,6.6,4.7,7.4s-0.1,4.4-2,6.3c-1.9,1.9-5.5,5.4-6.4,7
			s-2.6,3.7-4,5.4c-1.4,1.6-3.4,5.4-4.5,8.1s1.1,7.4,0.3,12.5c-0.9,5.1-2.9,11-5.5,10.7s-5.1,0-6.4-1s-0.1-3.3,0.4-6
			s0.7-3.1,0.9-7.3c0.1-4.1,1-7.6,1.5-10.4c0.5-2.7,1.1-5.5,2.7-7.6c1.6-2.1,4.3-3.7,5-4.7s1.9-2.1,2-2.9c0.1-0.7,0.6-3-0.3-3.5
			s-1.1,0.1-3.6-2.1c-2.5-2.3-5-4.3-5-6.7c0-2.5,0.7-5.5,1.9-6.7C287.9,35.1,293.9,28.9,293.8,28.8L293.8,28.8z"/>
		<path class="st2" d="M40.8,518.6l69.3,24.2c5.1,1.8,4,1,5.4,5.5l3.4,10.8c1.2,2.8,0.8,2.2,4.1,3.7l93.5,37.6
			c4.9,2,6.5,2.4,8.3,2.4s3.5-0.5,8.3-2.4l93.5-37.6c3.3-1.5,2.9-0.9,4.1-3.7l3.4-10.8c1.5-4.6,0.4-3.8,5.4-5.5l69.3-24.2
			c9.6-3.5,12.8-3.2,13.8-6.6v-30.5h0.3c1.5,0,2.6,0,3.5,0.1c1.8,0,4-1.9,5-3.4c0.4-0.5,0.8-1.3,1.3-2.2c2.2-3.5,4.2-7.2,6.3-10.8
			c1-1.8,1.6-5.4,1.2-7.4c-0.9-4.2-1.7-8.4-2.6-12.6s-1.7-8.4-2.6-12.6c-0.4-1.8-0.5-2.5-0.8-3.1c-0.4-0.5-0.8-1.1-2-2.3
			c-3.2-3.4-6.4-6.7-9.5-10.1V241.9l-52.5-24c0-21.5-16.1-14.8-37.9-26.5l16.3-50c-3.4-8.5-2-7.2-11.8-10.4
			c-61.3-18.5-55.2-20.5-112-37.7h-0.1h-0.1c-56.8,17.2-50.6,19.2-112,37.7c-9.7,3.3-8.4,1.9-11.8,10.4l16.3,50
			c-21.8,11.6-37.8,5-37.9,26.5l-52.5,24V417c-3.2,3.4-6.4,6.7-9.5,10.1c-1.1,1.2-1.6,1.6-2,2.3c-0.4,0.6-0.5,1.3-0.8,3.1
			c-0.8,4.2-1.7,8.4-2.6,12.6s-1.7,8.4-2.6,12.6c-0.5,2,0.2,5.6,1.2,7.4c2.1,3.6,4.2,7.2,6.3,10.8c0.5,0.9,1,1.5,1.3,2.2
			c0.9,1.5,3.1,3.4,5,3.4c0.9,0,2-0.1,3.5-0.1h0.3V512c1,3.5,4.2,3.2,13.8,6.6H40.8z"/>
		<polygon class="st3" points="224.9,579.6 140,548.9 131.7,531.6 77.5,511.9 78.6,509.5 135,529.2 141.6,542 224.9,572.7 
			308.2,542 314.8,529.2 371.2,509.5 372.4,511.9 318.1,531.6 309.8,548.9 		"/>
		<polygon class="st0" points="296.1,485.8 311.5,485.8 311.5,501.1 296.1,501.1 		"/>
		<polygon class="st4" points="274.8,493.9 285.5,493.9 285.5,504.5 274.8,504.5 		"/>
		<polygon class="st4" points="293.9,511.4 301.7,511.4 301.7,519 293.9,519 		"/>
		<polygon class="st4" points="324.9,490.7 334.1,490.7 334.1,499.8 324.9,499.8 		"/>
		<polygon class="st0" points="353.7,486.8 360.4,486.8 360.4,493.2 353.7,493.2 		"/>
		<polygon class="st0" points="274.8,522.6 282.5,522.6 282.5,530.3 274.8,530.3 		"/>
		<polygon class="st0" points="153.8,485.8 138.2,485.8 138.2,501.1 153.8,501.1 		"/>
		<polygon class="st4" points="175,493.9 164.3,493.9 164.3,504.5 175,504.5 		"/>
		<polygon class="st4" points="155.9,511.4 148.1,511.4 148.1,519 155.9,519 		"/>
		<polygon class="st4" points="125,490.7 115.7,490.7 115.7,499.8 125,499.8 		"/>
		<polygon class="st0" points="96.1,486.8 89.5,486.8 89.5,493.2 96.1,493.2 		"/>
		<polygon class="st0" points="175,522.6 167.3,522.6 167.3,530.3 175,530.3 		"/>
		<path class="st5" d="M152.1,402.5c0,2-1.2,3-3.5,3h-9.4v6.4h-3.5V395h12.9c2.3,0,3.5,1,3.5,2.9V402.5L152.1,402.5z M148.8,401.2
			v-1.8c0-0.9-0.4-1.4-1-1.4h-8.4v4.5h8.4C148.4,402.4,148.8,402,148.8,401.2L148.8,401.2z M175.6,412h-4.5l-5.7-6.4h-3.3v6.4h-3.5
			v-16.8h13.2c2.3,0,3.5,1,3.5,2.9v4.6c0,1.5-0.6,2.4-1.8,2.9h-3.7L175.6,412L175.6,412z M171.8,401.4v-2c0-0.9-0.4-1.4-1-1.4h-8.6
			v4.7h8.6C171.5,402.8,171.8,402.3,171.8,401.4L171.8,401.4z M202,408c0,1.5-0.3,2.6-0.8,3.2c-0.5,0.5-1.5,0.8-3,0.8h-11.3
			c-1.5,0-2.5-0.3-3-0.8s-0.8-1.6-0.8-3.2v-8.8c0-1.5,0.3-2.6,0.8-3.2c0.5-0.5,1.5-0.8,3-0.8h11.3c1.5,0,2.5,0.3,3,0.8
			s0.8,1.6,0.8,3.2V408z M198.4,408.8v-10.5h-11.8v10.5H198.4z M242.9,412h-15.4v-16.9h3.5v13.7h11.9V412L242.9,412z M266.3,412
			h-3.5l-2-3.7h-10l-1.9,3.7h-3.5l8.6-16.9h3.5L266.3,412L266.3,412z M259.3,405.2l-3.5-6.8l-3.5,6.8H259.3L259.3,405.2z
			 M288.4,408.7c0,2.2-1.5,3.3-4.5,3.3h-11.6v-16.9h12.6c2.3,0,3.5,1.1,3.5,3.3v2.1c0,1.6-0.9,2.6-2.6,2.8c1.8,0.3,2.8,1.4,2.8,3.3
			L288.4,408.7L288.4,408.7z M285,400.6v-1.8c0-0.5-0.5-0.9-1.6-0.9h-7.7v3.9h7.7C284.4,401.8,285,401.4,285,400.6z M285.1,407.8
			v-1.5c0-0.6-0.2-1.1-0.5-1.3c-0.3-0.2-0.7-0.3-1.4-0.3h-7.7v4.2h7.7c0.6,0,1.1-0.1,1.4-0.3S285.1,408.1,285.1,407.8L285.1,407.8z
			 M314,408.1c0,1.5-0.3,2.6-0.9,3.2c-0.5,0.5-1.6,0.8-3.1,0.8h-9.5c-1.6,0-2.7-0.3-3.2-0.9s-0.7-1.9-0.7-3.9h3.5v1.5h10.6V405h-10
			c-1.5,0-2.5-0.3-3.1-0.8s-0.8-1.6-0.8-3.2v-1.8c0-1.5,0.3-2.6,0.8-3.2c0.5-0.5,1.6-0.8,3.1-0.8h12.9v3h-13.5v3.6h10
			c1.5,0,2.5,0.3,3.1,0.8c0.5,0.5,0.9,1.6,0.9,3.2L314,408.1L314,408.1z"/>
		<path class="st6" d="M67.4,459.9c-3.4,3.5-6.7,7.1-10,10.6c-10.2,0-20.4,0-30.6,0c-2.1-3.5-4.2-7.1-6.2-10.6
			c0.9-4.3,1.7-8.4,2.6-12.7c0.9-4.3,1.7-8.4,2.6-12.7c3.4-3.5,6.7-7.1,10.1-10.6c9.7,0,19.4,0,29.2,0c2,3.5,4.2,7.1,6.4,10.6
			c-0.6,4.3-1.4,8.4-2,12.7C68.8,451.5,68.1,455.6,67.4,459.9L67.4,459.9z M56.4,460.1c0.7-4.3,1.5-8.5,2.2-12.9
			c0.7-4.3,1.5-8.6,2.2-12.9c-8.1,0-16.2,0-24.2,0c-0.8,4.3-1.6,8.6-2.5,12.9c-0.8,4.3-1.6,8.6-2.5,12.9
			C39.8,460.1,48.1,460.1,56.4,460.1z M122.3,423.9c-3,3.5-5.9,7-8.9,10.4c-8,0-15.9,0-23.9,0c-0.4,2.7-0.8,5.4-1.2,8.2
			c8.9,0,17.8,0,26.8,0c-2.8,3.2-5.6,6.4-8.4,9.4c-6.5,0-13.1,0-19.6,0c-0.5,3.1-0.8,6.2-1.3,9.3s-0.9,6.2-1.3,9.3
			c-0.2,0.1-0.4,0.3-0.5,0.4c-3.5,0-7.1,0-10.5,0c1.2-7.8,2.4-15.7,3.5-23.5c1.2-7.8,2.4-15.7,3.5-23.5
			C94.5,423.9,108.4,423.9,122.3,423.9L122.3,423.9z M168.3,423.9c-2.8,3.5-5.6,7-8.4,10.4c-7.9,0-15.9,0-23.9,0
			c-0.3,2.7-0.5,5.4-0.7,8.2c8.9,0,17.8,0,26.8,0c-2.7,3.2-5.3,6.4-7.9,9.4c-6.6,0-13.2,0-19.6,0c-0.3,3.1-0.5,6.2-0.8,9.3
			c-0.3,3.1-0.5,6.2-0.8,9.3c-0.2,0.1-0.4,0.3-0.5,0.4c-3.5,0-7.1,0-10.5,0c0.8-7.8,1.5-15.7,2.4-23.5c0.8-7.8,1.5-15.7,2.4-23.5
			c14,0,28,0,42,0L168.3,423.9z M213.4,456.3c-1.5,2.4-2.9,4.8-4.3,7.2c-1.5,2.4-2.8,4.7-4.3,7.2c-14.3,0-28.4,0-42.7,0
			c2.9-3.5,5.8-7,8.6-10.4c9.3,0,18.4,0,27.7,0c0.8-1.3,1.8-2.5,2.7-3.8c-0.8-1.4-1.7-2.8-2.5-4.2c-9.2,0-18.4,0-27.5,0
			c-1.3-2.3-2.5-4.6-3.6-6.9s-2.4-4.6-3.5-6.9c1.5-2.4,2.9-4.8,4.4-7.2c1.5-2.4,2.9-4.8,4.4-7.2c13.5,0,27.2,0,40.7,0
			c-2.7,3.5-5.4,7-8,10.4c-9,0-18,0-27,0c-0.9,1.4-1.8,2.6-2.7,4c0.8,1.5,1.5,2.8,2.4,4.3c9.1,0,18.2,0,27.2,0
			c1.3,2.3,2.5,4.5,3.8,6.8s2.6,4.5,4,6.8L213.4,456.3z M263.9,470.5c-3.6,0-7.4,0-11.1,0c-0.1-3.1-0.3-6.2-0.4-9.3
			s-0.2-6.2-0.3-9.3c-7.2,0-14.3,0-21.5,0c0,3.1,0.1,6.2,0.1,9.3s0.1,6.2,0.1,9.3c-0.2,0.1-0.4,0.3-0.5,0.4c-3.5,0-7.1,0-10.5,0
			c0-7.8,0-15.7,0-23.5s0-15.7,0-23.5c3.5,0,7.1,0,10.5,0c0.1,3.1,0.1,6.2,0.1,9.4c0,3.1,0,6.2,0.1,9.4c7.1,0,14.3,0,21.3,0
			c-0.1-3.1-0.2-6.2-0.3-9.4c-0.1-3.1-0.2-6.2-0.4-9.4c3.5,0,7.1,0,10.5,0c0.4,7.8,0.7,15.5,1,23.3c0.4,7.8,0.6,15.5,1,23.3
			L263.9,470.5L263.9,470.5z M318,459.9c-2.4,3.5-4.8,7.1-7.3,10.6c-10.3,0-20.4,0-30.7,0c-3-3.5-5.9-7.1-8.9-10.6
			c-0.2-4.3-0.4-8.4-0.6-12.7c-0.2-4.3-0.4-8.4-0.6-12.7c2.5-3.5,4.9-7.1,7.4-10.6c9.7,0,19.4,0,29.2,0c3,3.5,6,7.1,9,10.6
			c0.4,4.3,0.8,8.4,1.2,12.7C317.1,451.5,317.5,455.6,318,459.9L318,459.9z M307,460.1c-0.4-4.3-0.7-8.6-1.1-12.9s-0.8-8.6-1.2-12.9
			c-8.1,0-16.2,0-24.2,0c0.3,4.3,0.5,8.6,0.8,12.9s0.5,8.6,0.8,12.9C290.3,460.1,298.6,460.1,307,460.1z M373.5,470.5
			c-3.7,0-7.4,0-11.1,0c-0.5-3.8-1.1-7.6-1.6-11.4c-1.3-1.4-2.6-2.7-3.9-4.1c-7,0-14,0-21,0c0.4,2.6,0.6,5.2,0.9,7.8
			c0.3,2.6,0.6,5.2,0.9,7.8c-0.3,0.2-0.4,0.3-0.6,0.5c-3.5,0-7,0-10.4,0c-0.8-7.8-1.6-15.7-2.5-23.5c-0.8-7.8-1.7-15.7-2.5-23.5
			c12.2,0,24.4,0,36.7,0c1.6,2.4,3.4,4.8,5.1,7.2c1.7,2.4,3.5,4.8,5.1,7.2c-1.5,3.6-3.1,7.2-4.6,10.8c2.5,2.7,5,5.4,7.4,8.1
			c0.4,2.3,0.7,4.5,1.1,6.7C372.8,466.2,373.2,468.4,373.5,470.5L373.5,470.5z M357.6,439.2c-1.2-1.6-2.4-3.2-3.5-4.8
			c-6.9,0-13.7,0-20.6,0c0.4,3.4,0.8,6.7,1.2,10c6.9,0,13.8,0,20.8,0C356.3,442.7,356.9,440.9,357.6,439.2z M415.6,423.9l8.9,10.4
			c-8,0-30.5,0-38.5,0c0.5,2.7,1,5.4,1.5,8.2c8.9,0,17.8,0,26.7,0l2.5,9.4c-6.6,0-21.1,0-27.6,0c0.5,2.7,1,5.4,1.4,8.1
			c10.4,0,26.8,0,37.2,0c-2.1,3.5-4.1,7-6.1,10.4c-11.5,0-29,0-40.5,0c-1.3-7.8-2.5-15.5-3.8-23.3s-2.5-15.5-3.7-23.3L415.6,423.9
			L415.6,423.9z"/>
		<path class="st2" d="M6.4,302L6.4,302z"/>
		<path class="st2" d="M235.8,148.9c-19.3-0.8-36.9-9.5-44.2-21.8C200.6,138.5,217.2,146.7,235.8,148.9z"/>
		<path class="st2" d="M80.2,150.5L80.2,150.5H80l0,0h-0.1h-0.1l0,0h-0.1h-0.1l0,0h-0.1h-0.1l0,0l0,0h-0.1l0,0h-0.1l0,0l0,0h-0.1
			l0,0H79h0h-0.1l0,0h-0.1h-0.1l0,0h-0.1h-0.1l0,0l0,0h-0.1l0,0l0,0h-0.1l0,0l0,0h-0.1l0,0h-0.1H78l0,0h0h-0.1l0,0l0,0h-0.1l0,0l0,0
			h-0.1l0,0l0,0h-0.1l0,0l0,0h-0.1l0,0h-0.1l0,0l0,0h-0.1l0,0l0,0l0,0l0,0l0,0h-0.1l0,0h-0.1l0,0l0,0l0,0l0,0H77l0,0l0,0
			c0,0-0.1,0-0.1,0.1l0,0l0,0h-0.1C75.6,151.4,60,181,49,194.4c-5.4,6.6-13.2,17.5-21,27.2c-3.8,7.4-21.6,71.8-21.6,79.6
			c0,0.1,0,0.2,0,0.3l0,0c0,0.1,0,0.2,0,0.4l0,0c1.1,7.6,13.6,31,20.4,47C58.4,362,74.6,382,92.4,382.3
			c71.1,1.3,52.5,28.2,103.1-12.5l0,0h0.1l0,0h0.1l0,0h0.1l0,0h0.1h0.1l0,0h0.1l0,0h0.1l0,0h0.1l0,0h0.1l0,0h0.1l0,0h0.1l0,0
			c6.1-0.4,21.3,11.1,28.7,9.3c0,0,1.8,0.5,4.5,0c2.6-0.5,20.1-8.7,22.9-9.2c2.7-0.5,2.4,0,5.3,6.7c2.9,6.7,7.9,13.3,12.7,15.3
			c4.8,2,31.1,0.5,39.8-2.9c8.7-3.5,10.4-7.4,18.3-10.1s12.7,3.9,29.2,3.6c16.4-0.3,23.1-6.7,31.3-14.7c8.3-8,32.6-17,34-18.7
			c1.3-1.7,20.6-41.8,20.6-47.6c0-5.8-22.8-82.6-24.2-85.6s-7.4-7.9-18.3-21.3c-10.9-13.4-26.6-43-27.8-43.8
			c-1.2-0.8-6.4-1.3-6.4-1.3l-7.3-13.7l-8.3-19c0.2-1.8-35.8-13.8-54.3-20.2c-1.2-0.5-1.5-1.1-1.1-1.9l0,0l0,0
			c0.2-0.5,0.6-1.1,1.1-1.8c1-1.8,2.3-4.5,2.2-6.9c-0.2-3.8-2.3-7-3.3-12.7s4.3-8.1,8.5-12.9c7-7.8,9.9-13.3,8.9-16.9
			c-1.9-7.1-12.9-9.1,1.6-19.3c0,0-2.3-0.2-6,1.1s-13.5,6-12.9,11.6c0.5,5.7,5.7,3.9,9.3,6.2c3.5,2.3,1,6.4,1,6.4s0.6-1.9-1.2-3.6
			c-1.8-1.6-4.5-1.1-4.5-1.1s4.4,1.9,1.7,8.4c-2.6,6.5-12.2,10.7-12.9,16.1c-1.3,10.2,6.4,14.3-5,22.3c0,0,3.3-2.5,3.8-6.4
			c1.2-8.9-7.5-15.3,5.3-25.3c7.2-5.6,6.9-12.9,3.7-14.3c-3.2-1.4-11.2,0.4-8.7-7.7s18.3-15.5,18.3-15.5c-9.4,0.6-31.9,12.4-28.5,24
			c2,6.7,12.4,5.4,13.9,6.9s-4.3,4.5-7.3,5.5c-3,1.1-3.9,4.6-3.9,4.6s-5.9-2.4-6.7-7.8c-0.9-5.4-0.2-24.7-1.6-28.8
			c-0.4-1.1-1.2-3.3-5.1-4.4c-9.5-2.5-28.1-4.1-35.1-9.3c-7.1-5.2-16.2-12.1-25.4-2.8c-9.3,9.3-13.6,33.9-13.6,33.9
			s-9.9-2.9-18.5-3.5c-17.3-1.2-15.9,31.4,7.4,37.2c0,0-3.5,5.3,0.2,11.9c-20.2,7.2-64.4,16.4-78.7,22.9c-5.1,2.4-4.4,2.6-6.3,7.1
			l-14.3,29.7c0,0-1.5,0.1-3,0.4L80.2,150.5z"/>
		<path class="st7" d="M108.7,273.2l32-6c0,0,2.2-3.9,1.5-4s-10.4-2.9-16.2-1S108.7,273.1,108.7,273.2L108.7,273.2z"/>
		<path class="st6" d="M73.7,337.8c0,0-2.9-4.7-2.3-16.5s4.8-30.3,9.4-36.7c4.5-6.4,10.4-8.4,10.4-8.4s-6.2-2.8-13.8,5.1
			c-7.6,7.9-10.9,35.3-10.7,42.8C66.8,331.5,73.7,337.8,73.7,337.8L73.7,337.8z"/>
		<path class="st6" d="M175.8,167.1c-5.8,5.8-13.3,13.3-13.2,13.8c0,0.6,2.1,5.1,3.4,7.8l-7.4,2.9c0,0-4.7-8.5-4.4-9.4
			c0.4-1,28.2-30,28.2-30s-3.1-4.5-10.4-4.7c-7.3-0.3-10.5,1-10.5,1s1.7-15.3,2.4-16.3c0.6-1,26.1-22.9,26.1-22.9s0.1,2.4-0.2,4.6
			l-19.9,17.3l-1.5,11.6c0,0,4,0.1,8.4,1.5c4.4,1.5,6.5,4.5,6.5,4.5l3,3.8c0,0-4.9,4.8-8,10c-1.1,1.8-1.8,3.3-2.3,4.4L175.8,167.1z"
			/>
		<path class="st8" d="M183.5,164c0,0-15.8,15.7-15.8,16.3c0,0.5,1.5,4,2.6,6.6l23.3-9.3c0,0-8-36-9.1-42c-0.8-4.3,0.1-9.5,1.8-14.1
			l-13.4,10.9l-1.2,6.9c0,0,4.6,0.6,7.9,2.4c3.3,1.8,4.1,3,4.1,3l0.6,3.5l-1.4,0.6l3,3.8c0,0-4.9,4.8-8,10c-1.1,1.8-1.8,3.3-2.3,4.4
			c3.7-3.7,6.8-6.7,6.8-6.7L183.5,164L183.5,164z"/>
		<path class="st7" d="M337.7,273.2l-32-6c0,0-2.2-3.9-1.5-4c0.6-0.1,10.4-2.9,16.2-1C326.1,264.1,337.7,273.1,337.7,273.2
			L337.7,273.2z"/>
		<path class="st6" d="M372.6,337.8c0,0,2.9-4.7,2.3-16.5s-4.8-30.3-9.4-36.7c-4.5-6.4-10.4-8.4-10.4-8.4s6.2-2.8,13.8,5.1
			c7.6,7.9,10.9,35.3,10.7,42.8C379.4,331.5,372.5,337.8,372.6,337.8L372.6,337.8z"/>
		<path class="st9" d="M263.9,135.8c-1.1,6.1-9.1,42-9.1,42l23.3,9.3c1.1-2.5,2.6-6.2,2.6-6.6c0-0.6-15.8-16.3-15.8-16.3l0.9-3.6
			c0,0,20.1,19.7,20.1,20.6c0,0.6-2.1,5.1-3.4,7.8l7.4,2.9c0,0,4.7-8.5,4.4-9.4c-0.4-1-28.2-30-28.2-30s3.1-4.5,10.4-4.7
			c7.3-0.3,10.5,1,10.5,1s-1.7-15.3-2.4-16.3l-11.6-8.9l-0.9,2.3l6.4,5.6l1.5,11.6c0,0-4,0.1-8.4,1.5c-4.4,1.5-6.5,4.5-6.5,4.5
			l-1.4-0.6l0.6-3.5c0,0,0.8-1.3,4.1-3c3.3-1.8,7.9-2.4,7.9-2.4l-0.6-4c-3.3-2.7-11.2-9.2-11.3-9.3c-0.2-0.1,0.2,1.4,0.2,4.3
			C264.7,133.5,263.8,135.8,263.9,135.8L263.9,135.8z"/>
		<path class="st8" d="M265,164c0,0,15.8,15.7,15.8,16.3c0,0.5-1.5,4-2.6,6.6l-23.3-9.3c0,0,8-36,9.1-42c0,0,0.9-2.4,0.9-5.2
			c0-2.9-0.4-4.4-0.2-4.3c0.2,0.1,8,6.5,11.3,9.3l0.6,4c0,0-4.6,0.6-7.9,2.4c-3.3,1.8-4.1,3-4.1,3l-0.6,3.5l1.4,0.6l-3,3.8
			c0,0,4.9,4.8,8,10c1.1,1.8,1.8,3.3,2.3,4.4c-3.7-3.7-6.8-6.7-6.8-6.7L265,164L265,164z"/>
		<path class="st0" d="M43.6,293.5c-2.1-0.6-4.7,1.7-5.9,5.4c-1.2,3.6-0.4,7.2,1.7,7.8c2.1,0.6,4.7-1.7,5.9-5.4
			C46.5,297.7,45.7,294.2,43.6,293.5z"/>
		<path class="st0" d="M406,293.9c2-0.6,4.5,1.6,5.6,5.2c1.1,3.5,0.4,6.8-1.6,7.4s-4.5-1.6-5.6-5.2
			C403.3,297.9,404.1,294.5,406,293.9z"/>
		<path class="st7" d="M333.1,357.8c0,0,20.9-4.3,27.3-16.5c6.4-12.3,8-30,0.1-43.5c-7.9-13.4-32.1-17.2-32.1-17.2s2.8,3.5,2.2,6.9
			c-0.6,3.4-2.5,3.7-2,6.2s4.1,3.4,5.2,7.4c1.1,4.1,0.8,7.1,0.1,8.4c-0.7,1.2-1.7,1.5-1.6,3.1s4.3,2.4,5,6.7
			c0.7,4.4,0.6,9.1,0.1,9.9s-4,4.3-4.1,5.4c-0.1,1.2-2.3,8.7-2.3,8.7s-1.4-11.7-0.9-13.2s2.2-2.5,2.5-4.1c0.4-1.5-0.3-6.4-0.9-7.6
			c-0.6-1.3-5-3.7-5-5.6s1.9-5.4,1.9-7.2c0-1.9,0.3-3.9-0.5-5.2c-0.7-1.3-6-5-6.1-6.9s2.3-5.4,2.2-6.9c-0.1-1.5-1.1-4.2-2.5-5.4
			c-1.4-1.1-2.7-1.8-2.7-1.8s-34.5-6.1-40.1-6.1s-28.9,8.2-28.9,8.2s3.2,7.1,6,7.3c2.8,0.2,19.7-3.7,22.2-3.5s30.2,11.2,29.4,12.2
			c-0.6,1-34.5,3.2-36.9,4s-28.2,13.2-28.2,13.2s1.6,8.8,5.3,9.8c3.6,1,27.6-6.9,30.4-7.8c2.8-0.8,32.4,4.5,30.9,5.8
			c-1.5,1.4-23.5,13.8-30.5,13.8c-6.9,0-28.4,0.3-29.2,0.7c-0.7,0.5,0.5,7.8,3.8,10.4c3.3,2.5,29.2,3.6,30.7,2.9s29.8-5.3,31.1-5.1
			c1.3,0.2,4.4,1.8-1.7,7.9c-6.2,6.1-11,11.4-13.2,12s-30,5.4-29.9,6.9s3.5,7.8,11,7.4c7.5-0.5,24.2-4.3,26.8-5.1
			c2.6-0.8,22.2-15.6,23.4-16.2c1.3-0.5,1.3-0.5,1.3-0.5L333.1,357.8z"/>
		<path class="st8" d="M354.8,291.4c-5.4-0.8-14.3-2.2-24.1-3.6l0,0c0.6-3.4-2.2-6.9-2.2-6.9S344.7,283.3,354.8,291.4L354.8,291.4z"
			/>
		<path class="st6" d="M330.2,283.6c-0.6-1.7-1.6-2.9-1.6-2.9s10.9,1.6,20.4,6.8C348.9,287.5,341.8,285.7,330.2,283.6z"/>
		<path class="st8" d="M322,281.5c1.4,1.1,2.3,3.6,2.5,5.2c-22.2-3.4-46.6-7-48-6.9c-2.3,0.1-18.3,3.5-24.5,4.9
			c-0.9-1.5-1.5-2.9-1.5-2.9s23.2-8.2,28.9-8.2c5.6,0,40.1,6.1,40.1,6.1S320.7,280.4,322,281.5L322,281.5z"/>
		<path class="st6" d="M322,281.5c0.3,0.3,0.5,0.5,0.8,0.8c-2.5-0.4-5-0.8-7.7-1.2c-20.3-2.8-35.6-5.2-37.4-4.8
			c-1.4,0.3-17.4,4.3-26.7,6.6c-0.4-0.7-0.5-1.2-0.5-1.2s23.2-8.2,28.9-8.2c5.6,0,40.1,6.1,40.1,6.1s1.3,0.6,2.7,1.8H322V281.5z"/>
		<path class="st8" d="M274.2,308.1c0.6-0.1,21.4-1,22.6-1.5c1.3-0.5,8.3-8.4,8.3-8.4c-8.4,1.1-32.1,2.7-34.1,3.5
			c-2.4,0.8-28.2,13.2-28.2,13.2s0.4,2,1.2,4.2C252.1,316.1,273.5,308.2,274.2,308.1L274.2,308.1z"/>
		<path class="st8" d="M309.2,322.9c-2.5,1.8-23.6,13.7-30.3,13.7c-6.9,0-28.4,0.3-29.2,0.7c-0.4,0.3-0.2,2.2,0.5,4.4
			c0,0,29.5,0.3,32.9-0.1c3.4-0.5,19.2-9,22.3-12.2C308.4,326.2,309.1,322.9,309.2,322.9L309.2,322.9z"/>
		<path class="st7" d="M113.2,357.8c0,0-20.9-4.3-27.3-16.5c-6.4-12.3-8-30-0.1-43.5c7.9-13.4,32.1-17.2,32.1-17.2s-2.8,3.5-2.2,6.9
			c0.6,3.4,2.5,3.7,2,6.2s-4.1,3.4-5.2,7.4c-1.1,4.1-0.8,7.1-0.1,8.4c0.7,1.2,1.7,1.5,1.6,3.1s-4.3,2.4-5,6.7
			c-0.7,4.4-0.6,9.1-0.1,9.9s4,4.3,4.1,5.4s2.3,8.7,2.3,8.7s1.4-11.7,0.9-13.2s-2.2-2.5-2.5-4.1c-0.4-1.5,0.3-6.4,0.9-7.6
			c0.6-1.3,5-3.7,5-5.6s-1.9-5.4-1.9-7.2c0-1.9-0.3-3.9,0.5-5.2s6-5,6.1-6.9s-2.3-5.4-2.2-6.9s1.1-4.2,2.5-5.4
			c1.4-1.1,2.7-1.8,2.7-1.8s34.5-6.1,40.1-6.1c5.6,0,28.9,8.2,28.9,8.2s-3.2,7.1-6,7.3s-19.7-3.7-22.2-3.5s-30.2,11.2-29.4,12.2
			c0.6,1,34.5,3.2,36.9,4c2.4,0.8,28.2,13.2,28.2,13.2s-1.6,8.8-5.3,9.8c-3.6,1-27.6-6.9-30.4-7.8c-2.8-0.8-32.4,4.5-30.9,5.8
			c1.5,1.4,23.5,13.8,30.5,13.8c6.9,0,28.4,0.3,29.2,0.7c0.7,0.5-0.5,7.8-3.8,10.4c-3.3,2.5-29.2,3.6-30.7,2.9s-29.8-5.3-31.1-5.1
			c-1.3,0.2-4.4,1.8,1.7,7.9c6.2,6.1,11,11.4,13.2,12s30,5.4,29.9,6.9s-3.5,7.8-11,7.4c-7.5-0.5-24.2-4.3-26.8-5.1
			c-2.6-0.8-22.2-15.6-23.4-16.2c-1.3-0.5-1.3-0.5-1.3-0.5L113.2,357.8z"/>
		<path class="st7" d="M115.2,343.6c0,0,1.4-11.7,0.9-13.2s-2.2-2.5-2.5-4.1c-0.4-1.5,0.3-6.4,0.9-7.6c0.6-1.3,5-3.7,5-5.6
			s-1.9-5.4-1.9-7.2c0-1.9-0.3-3.9,0.5-5.2s6-5,6.1-6.9s-2.3-5.4-2.2-6.9s1.1-4.2,2.5-5.4c1.4-1.1,2.7-1.8,2.7-1.8
			s34.5-6.1,40.1-6.1c5.6,0,28.9,8.2,28.9,8.2s-3.2,7.1-6,7.3c-2.8,0.2-19.7-3.7-22.2-3.5s-30.2,11.2-29.4,12.2
			c0.6,1,34.5,3.2,36.9,4c2.4,0.8,28.2,13.2,28.2,13.2s-1.6,8.8-5.3,9.8c-3.6,1-27.6-6.9-30.4-7.8c-2.8-0.8-32.4,4.5-30.9,5.8
			c1.5,1.4,23.5,13.8,30.5,13.8c6.9,0,28.4,0.3,29.2,0.7c0.7,0.5-0.5,7.8-3.8,10.4c-3.3,2.5-29.2,3.6-30.7,2.9s-29.8-5.3-31.1-5.1
			c-1.3,0.2-4.4,1.8,1.7,7.9c6.2,6.1,11,11.4,13.2,12s30,5.4,29.9,6.9s-3.5,7.8-11,7.4c-7.5-0.5-24.2-4.3-26.8-5.1
			c-2.6-0.8-22.2-15.6-23.4-16.2l-0.6-0.3l0,0c-4.3-9.2,1.3-14.5,1.3-14.5L115.2,343.6z"/>
		<path class="st8" d="M91.5,291.4c5.4-0.8,14.3-2.2,24.1-3.6l0,0c-0.6-3.4,2.2-6.9,2.2-6.9S101.7,283.3,91.5,291.4L91.5,291.4z"/>
		<path class="st6" d="M116.2,283.6c0.6-1.7,1.6-2.9,1.6-2.9s-10.9,1.6-20.4,6.8C97.4,287.5,104.6,285.7,116.2,283.6z"/>
		<path class="st8" d="M124.3,281.5c-1.4,1.1-2.3,3.6-2.5,5.2c22.2-3.4,46.6-7,48-6.9c2.3,0.1,18.3,3.5,24.5,4.9
			c0.9-1.5,1.5-2.9,1.5-2.9s-23.2-8.2-28.9-8.2c-5.6,0-40.1,6.1-40.1,6.1S125.7,280.4,124.3,281.5L124.3,281.5z"/>
		<path class="st6" d="M124.3,281.5c-0.3,0.3-0.5,0.5-0.8,0.8c2.5-0.4,5-0.8,7.7-1.2c20.3-2.8,35.6-5.2,37.4-4.8
			c1.4,0.3,17.4,4.3,26.7,6.6c0.4-0.7,0.5-1.2,0.5-1.2s-23.2-8.2-28.9-8.2c-5.6,0-40.1,6.1-40.1,6.1s-1.3,0.6-2.7,1.8h0.2V281.5z"/>
		<path class="st8" d="M172.2,308.1c-0.6-0.1-21.4-1-22.6-1.5c-1.3-0.5-8.3-8.4-8.3-8.4c8.4,1.1,32.1,2.7,34.1,3.5
			c2.4,0.8,28.2,13.2,28.2,13.2s-0.4,2-1.2,4.2C194.3,316.1,172.8,308.2,172.2,308.1L172.2,308.1z"/>
		<path class="st8" d="M137,322.9c2.5,1.8,23.6,13.7,30.3,13.7c6.9,0,28.4,0.3,29.2,0.7c0.4,0.3,0.2,2.2-0.5,4.4
			c0,0-29.5,0.3-32.9-0.1c-3.4-0.5-19.2-9-22.3-12.2C137.9,326.2,137.1,322.9,137,322.9L137,322.9z"/>
		<path class="st0" d="M81,326.5c-0.2-1-0.3-2-0.4-2.9l5.6,0.1l6.9,9.4l7-0.3l6.7,12.4c0.1,0,0.1,0,0.2,0c1.7,0,3.2,1.4,3.2,3.2
			c0,1.7-1.4,3.2-3.2,3.2c-1.7,0-3.2-1.4-3.2-3.2c0-0.5,0.2-1.2,0.5-1.6l-5.9-11l-6.7,0.3l-7-9.4L81,326.5L81,326.5z M80.7,313.1
			c0.1-1,0.3-2,0.5-2.9h9.7l4.7,10.4h3.5c0.5-1,1.5-1.6,2.7-1.6c1.7,0,3.2,1.4,3.2,3.2c0,1.7-1.4,3.2-3.2,3.2
			c-1.2,0-2.3-0.7-2.8-1.7h-5.3L89,313.2L80.7,313.1L80.7,313.1z M83.4,302.7c0.4-1,0.8-2,1.3-2.9l4.4,0.1l5.8-6.6l9.5-0.5
			c0.5-1.1,1.5-1.8,2.8-1.8c1.7,0,3.2,1.4,3.2,3.2c0,1.7-1.4,3.2-3.2,3.2c-1.2,0-2.2-0.6-2.7-1.5l-8.4,0.5l-3.4,3.8l5.3,0.1
			c0.5-1,1.5-1.7,2.8-1.7c1.7,0,3.2,1.4,3.2,3.2c0,1.7-1.4,3.2-3.2,3.2c-1.2,0-2.2-0.6-2.7-1.6l-14.9-0.2L83.4,302.7z"/>
		<path class="st10" d="M107.3,292.7c0.7,0,1.4,0.6,1.4,1.4s-0.6,1.4-1.4,1.4s-1.4-0.6-1.4-1.4S106.5,292.7,107.3,292.7z"/>
		<path class="st10" d="M101,300c0.7,0,1.4,0.6,1.4,1.4s-0.6,1.4-1.4,1.4s-1.4-0.6-1.4-1.4S100.3,300,101,300z"/>
		<path class="st11" d="M107.1,347c0.7,0,1.4,0.6,1.4,1.4s-0.6,1.4-1.4,1.4s-1.4-0.6-1.4-1.4S106.3,347,107.1,347z"/>
		<path class="st10" d="M101.8,320.8c0.7,0,1.4,0.6,1.4,1.4s-0.6,1.4-1.4,1.4s-1.4-0.6-1.4-1.4S101.1,320.8,101.8,320.8z"/>
		<path class="st0" d="M365.3,326.5c0.2-1,0.3-2,0.4-2.9l-5.6,0.1l-6.9,9.4l-7-0.3l-6.7,12.4c-0.1,0-0.1,0-0.2,0
			c-1.7,0-3.2,1.4-3.2,3.2c0,1.7,1.4,3.2,3.2,3.2c1.7,0,3.2-1.4,3.2-3.2c0-0.5-0.2-1.2-0.5-1.6l5.9-11l6.7,0.3l7-9.4L365.3,326.5
			L365.3,326.5z M365.5,313.1c-0.1-1-0.3-2-0.5-2.9h-9.7l-4.7,10.4h-3.5c-0.5-1-1.5-1.6-2.7-1.6c-1.7,0-3.2,1.4-3.2,3.2
			c0,1.7,1.4,3.2,3.2,3.2c1.2,0,2.3-0.7,2.8-1.7h5.3l4.7-10.4L365.5,313.1L365.5,313.1z M362.9,302.7c-0.4-1-0.8-2-1.3-2.9l-4.4,0.1
			l-5.8-6.6l-9.5-0.5c-0.5-1.1-1.5-1.8-2.8-1.8c-1.7,0-3.2,1.4-3.2,3.2c0,1.7,1.4,3.2,3.2,3.2c1.2,0,2.2-0.6,2.7-1.5l8.4,0.5
			l3.4,3.8l-5.3,0.1c-0.5-1-1.5-1.7-2.8-1.7c-1.7,0-3.2,1.4-3.2,3.2c0,1.7,1.4,3.2,3.2,3.2c1.2,0,2.2-0.6,2.7-1.6l14.9-0.2
			L362.9,302.7z"/>
		<path class="st10" d="M339.1,292.7c-0.7,0-1.4,0.6-1.4,1.4s0.6,1.4,1.4,1.4s1.4-0.6,1.4-1.4S339.8,292.7,339.1,292.7z"/>
		<path class="st10" d="M345.4,300c-0.7,0-1.4,0.6-1.4,1.4s0.6,1.4,1.4,1.4s1.4-0.6,1.4-1.4S346.1,300,345.4,300z"/>
		<path class="st11" d="M339.3,347c-0.7,0-1.4,0.6-1.4,1.4s0.6,1.4,1.4,1.4s1.4-0.6,1.4-1.4S340,347,339.3,347z"/>
		<path class="st10" d="M344.6,320.8c-0.7,0-1.4,0.6-1.4,1.4s0.6,1.4,1.4,1.4c0.7,0,1.4-0.6,1.4-1.4S345.3,320.8,344.6,320.8z"/>
		<path class="st6" d="M197.8,126l-2.7,7.4c0,0,2.1,6.6,8.5,13.8c6.4,7.3,8.4,8.3,8.4,8.3s1.1-5.8,3.2-8.7c2.1-2.8,2.6-2.9,3.8-2.7
			s1.6-0.2-3-2.5c-4.6-2.4-8.9-5.3-12.5-8.7C199.7,129.3,197.9,125.9,197.8,126L197.8,126z"/>
		<path class="st6" d="M204.3,175.2l-5.4-23.5c-2-1.8-2.9-3.1-2.9-3.1l6.4,27.2L204.3,175.2L204.3,175.2z"/>
		<path class="st6" d="M203.2,155.2l4.1,19l3-1l-3.4-15.4c-0.2-0.1-0.3-0.2-0.5-0.3C205.2,156.7,204.2,155.9,203.2,155.2
			L203.2,155.2z"/>
		<path class="st6" d="M210.2,159.9l2.2,12.6l2.3-0.7l-2-10.5C211.9,160.9,211.1,160.5,210.2,159.9z"/>
		<path class="st6" d="M215.6,162.6l0.9,4.5l0.9-3.9C217.4,163.2,216.8,163,215.6,162.6z"/>
		<path class="st12" d="M215.9,141.5c-4.6-2.4-8.9-5.3-12.5-8.7c-1.8-1.7-3.3-3.4-4.2-4.7c0,0,2.9,12.9,12.7,27.3
			c0,0,1.1-5.8,3.2-8.7c2.1-2.8,2.6-2.9,3.8-2.7S220.5,143.8,215.9,141.5L215.9,141.5z"/>
		<path class="st0" d="M224.9,159.3v-11.9c-1.5,0-3.1,0.3-4,1c-2.3,1.8-3.9,7.9-3.7,8.4s0.9,1.4,3,1.9S224.9,159.3,224.9,159.3z"/>
		<path class="st0" d="M224.9,162.7h-2.1c0,0-1,0.1-1.2,0.9c-0.3,0.8-1.5,6.6-1.5,6.6s1.1-0.4,2.3-0.5s2.5,0,2.5,0V162.7
			L224.9,162.7z"/>
		<path class="st6" d="M252,126l2.7,7.4c0,0-2.1,6.6-8.5,13.8c-6.4,7.3-8.4,8.3-8.4,8.3s-1.1-5.8-3.2-8.7c-2.1-2.8-2.6-2.9-3.8-2.7
			s-1.6-0.2,3-2.5c4.6-2.4,8.9-5.3,12.5-8.7C250.1,129.3,251.9,125.9,252,126L252,126z"/>
		<path class="st6" d="M245.5,175.2l5.4-23.5c2-1.8,2.9-3.1,2.9-3.1l-6.4,27.2L245.5,175.2L245.5,175.2z"/>
		<path class="st6" d="M246.7,155.2l-4.1,19l-3-1l3.4-15.4c0.2-0.1,0.3-0.2,0.5-0.3C244.6,156.7,245.7,155.9,246.7,155.2
			L246.7,155.2z"/>
		<path class="st6" d="M239.6,159.9l-2.2,12.6l-2.3-0.7l2-10.5C237.9,160.9,238.7,160.5,239.6,159.9z"/>
		<path class="st6" d="M234.2,162.6l-0.9,4.5l-0.9-3.9C232.4,163.2,233,163,234.2,162.6z"/>
		<path class="st4" d="M224.9,159.3v-11.9c1.5,0,3.1,0.3,4,1c2.3,1.8,3.9,7.9,3.7,8.4s-0.9,1.4-3,1.9S224.9,159.3,224.9,159.3z"/>
		<path class="st4" d="M224.9,162.7h2.1c0,0,1,0.1,1.2,0.9c0.3,0.8,1.5,6.6,1.5,6.6s-1.1-0.4-2.3-0.5s-2.5,0-2.5,0V162.7
			L224.9,162.7z"/>
		<path class="st12" d="M246.1,133.1c-2.1,5.3-5.4,13.2-8.9,19.3c0.5,1.6,0.7,3,0.7,3s1.9-1,8.4-8.3c6.4-7.3,8.5-13.8,8.5-13.8
			l-2.7-7.4c0,0-1.8,3.4-5.5,6.8C246.5,133,246.3,133.1,246.1,133.1L246.1,133.1z"/>
		<g>
			<path class="st9" d="M184.4,70c0,0-10.5-3.4-12-12.6c-1.5-9.3,9.6-7.5,17.3-4.4c7.6,3.2,42,12.5,45.3,13.9
				c3.3,1.5,5.7,3.2,5.9,3.6s-51.3-14.2-54.3-15.2c-2.1-0.7-6.2-0.5-7.8,1.2C176.1,59.4,181.9,68,184.4,70L184.4,70z"/>
			<path class="st13" d="M199.7,85.6c0,0,0.2,6.4,1.5,10.1c1.4,3.6,1.3,9,1,13.3c-0.2,4.3,0.6,6.9,2.9,10.2s4.8,4.5,4.8,4.5
				s0.1-1.5,0.8-3.1c0.6-1.5,1.4-2.1,1.4-2.1s0.8,7.4,6.2,11.6s8.5,3.8,8.5,3.8s6.3,0.6,8.8-2.7c2.5-3.4,5.6-12.4,6.5-11.9
				c1,0.5,0.7,3,1.5,3.2s5-3.1,6.9-4.7c2-1.6,1.8-1.7,1.8-1.9c0-0.2,0.2-1.1,0.2-1.1l-9.4-1.4c0,0-3.5,7.2-8.9,8s-8.7-6.4-15.4-5.3
				c-6.7,1.2-9.7-1.4-10.1-6.8c-0.4-5.4,1.6-9.6,6-9.4c4.4,0.3,9.4,3.8,11.1,5.3c1.7,1.5,2.1,2.3,2.1,2.3s-3.6-1.2-6.6-2
				c-1.3-0.4-2.5-0.5-3.1-0.5c-2.3-0.1-3.1,1.7-3.1,1.7s3.6,0.5,4.8,0.8c1.2,0.4,3.3,1.7,3.2,1.7s-3.5-0.5-5.3-0.3s-2.9,1.2-2.9,1.2
				s-0.4,1.7,2.3,1.7c2.6-0.1,4.8-0.8,7.2-0.2c2.3,0.6,4.5,4.2,8.6,4.8s5.4-3,5.4-3s-10-3.2-10.7-3.9c-0.6-0.7,19.3-9.2,19.3-9.2
				s-5.8,0.4-6.9,0c-1.2-0.5-3.7-1.5-5.2-1.4c-1.5,0.3-1,2.1-3.2,3.4s-3.5,1.4-3.5,1.4V90.8c0,0-0.5-1.1-1.5,0.1
				c-1.1,1.2-5.4,5.9-8.4,6.5c-3,0.5-9.6-3.4-13.1-5.6c-3.5-2.3-5.3-6-5.3-6L199.7,85.6z"/>
			<path class="st8" d="M199.7,85.6c0,0,0.2,6.4,1.5,10.1c0.5,1.3,0.7,2.7,0.9,4.3c1.1,0.6,2.4,1.2,3.9,1.5c1.9,0.3,3.5,0.2,4.7-0.1
				c1-1.1,2.4-1.7,4.1-1.6c1.7,0.1,3.6,0.7,5.3,1.5c1.6-1.4,4.8-4.7,5.2-5.4c0.3-0.5,1.5-0.9,2.7-0.4v-4.8c0,0-0.5-1.1-1.5,0.1
				c-1.1,1.2-5.4,5.9-8.4,6.5c-3,0.5-9.6-3.4-13.1-5.6C201.5,89.4,199.7,85.6,199.7,85.6L199.7,85.6z"/>
			<path class="st8" d="M224,133.1c1.9,0.6,2.9,0.5,2.9,0.5s6.3,0.6,8.8-2.7c2.5-3.4,5.6-12.4,6.5-11.9c1,0.5,0.7,3,1.5,3.2
				s5-3.1,6.9-4.7c2-1.6,1.8-1.7,1.8-1.9s0.2-1.1,0.2-1.1l-9.4-1.4c0,0-2.5,5.2-6.6,7.3l0,0c0,0-1.2,2-4.7,2.2s-6.2-2.5-7.7-3.3
				c-1.6-0.7-3.4-0.5-3.4-0.5s1.8,1.1,3,2.8c1.2,1.7,3.8,2.5,3.8,2.5s1.3,3.4-2,7.4C225,132.2,224.6,132.8,224,133.1L224,133.1z
				 M232.2,106.4c5.7-2.7,14.5-6.4,14.5-6.4s-5.8,0.4-6.9,0c-1.2-0.5-3.7-1.5-5.2-1.4c-1.3,0.3-1.1,1.7-2.5,2.9
				c0.5,1.1,1,2.5,0.6,3.5L232.2,106.4z"/>
			<path class="st6" d="M205.8,83.9c0,0,1.9,3.8,6.4,4.8c4.5,1.1,5.6-2,5.6-2s-11.4-4.2-13-5.4c-1.7-1.2-1.8-3.3-3.8-4.4
				c-2-1-3.5,0.2-5.2,0.4c-1.7,0.1-2.7-1.2-2.7-1.2s0.9,2.5,3.4,2.2s2.5-0.8,3.9-0.2c1.4,0.7,1.5,2.4,2.9,3.7S205.8,83.8,205.8,83.9
				L205.8,83.9z"/>
			<path class="st8" d="M197,55.7l3.9,4.1c16.2,4.6,40.2,11.4,40.1,11c-0.2-0.5-2.6-2.3-5.9-3.6C232.4,65.9,209.8,59.8,197,55.7z"/>
			<path class="st8" d="M258.9,73c0,0,2.3,1.4,7.1,3.2s8.7,2.1,9.3,6.4c0.5,4.4-3.7,5.6-3.7,5.6s6.3,0.2,6.9-4.5
				c0.6-4.6-3-6.7-5.8-7.7C269.8,75,258.9,73.1,258.9,73L258.9,73z"/>
			<path class="st6" d="M248.8,83.9c0,0-1.9,3.8-6.4,4.8c-4.5,1.1-5.6-2-5.6-2s11.4-4.2,13-5.4c1.7-1.2,1.8-3.3,3.8-4.4
				c2-1,3.5,0.2,5.2,0.4c1.7,0.1,2.7-1.2,2.7-1.2s-0.9,2.5-3.4,2.2s-2.5-0.8-3.9-0.2c-1.4,0.7-1.5,2.4-2.9,3.7
				S248.8,83.8,248.8,83.9L248.8,83.9z"/>
			<path class="st0" d="M201.9,46.1c0,0,2.3-8.6,3.3-9.7c1-1.2,3.7-1.7,11.5,0.5s22.4,6.6,22.4,6.6s2.6,2.9,0.5,6.4
				s-8.2,5.5-16.7,2.8C214.3,50,202,46.1,201.9,46.1L201.9,46.1z"/>
			<path class="st9" d="M207.8,28.2c0,0,0.9,2.1,4.1,3.2c3.2,1.1,35.3,10.7,35.3,10.7s-7.9-4.5-11.2-10s2.8-6.5,2.8-6.5
				s-6.5-2.4-11.7-4.9c-5.3-2.6-6.7-4.3-10.6-3.9c-4,0.5-6,2.6-7.4,6.4S207.8,28.3,207.8,28.2L207.8,28.2z"/>
			<path class="st8" d="M250.7,29c0.3,0.2,9,3.7,10.1,4.3c1.1,0.6,1.7,11.6,1.7,11.6s1.9-10.9,0.9-12.3
				C262.4,31.2,250.7,29,250.7,29L250.7,29z"/>
			<path class="st4" d="M264,51c0,0-1.1,0.6-1.1,2.5s0.3,6.4,1.1,8.3c0.9,1.8,2.5,3.5,2.1,2.6C265.6,63.5,264,51,264,51z"/>
			<path class="st4" d="M239.1,43.4c0,0-10.4-3.2-18.3-5.4c0.8,1.2,1.5,2.6,1.5,4.2c0.1,2.4-0.6,6.7-1.3,10c0.6,0.2,1.3,0.4,1.9,0.6
				c8.6,2.7,14.7,0.7,16.7-2.8C241.8,46.4,239.1,43.5,239.1,43.4L239.1,43.4z"/>
			<path class="st8" d="M224.3,35.2c10.3,3.1,22.9,6.9,22.9,6.9s-7.9-4.5-11.2-10s2.8-6.5,2.8-6.5s-6.5-2.4-11.7-4.9
				c-1.9-0.9-3.3-1.7-4.5-2.4c2.6,2.9,5.2,6.5,5.1,9.7C227.7,32.1,225.7,34.2,224.3,35.2L224.3,35.2z"/>
			<path class="st6" d="M211.2,35.5c-3.7-0.5-5.4-0.1-6.1,0.7c-1,1.2-3.3,9.7-3.3,9.7s1.3,0.4,3.2,1c0.9-3.1,2-6.5,2.8-8.2
				C208.7,37.1,210.2,36.1,211.2,35.5L211.2,35.5z"/>
			<path class="st6" d="M207.8,28.2c0,0,0.7,1.7,3.3,2.8c0.4-1.8,1.2-5.6,2.5-9.1c0.9-2.3,3.2-4.1,5.2-5.3c-0.7-0.1-1.5-0.1-2.4,0
				c-4,0.5-6,2.6-7.4,6.4C207.7,26.9,207.7,28.2,207.8,28.2L207.8,28.2z"/>
			<path class="st14" d="M240.9,106.9c0,0,7.7-2.1,15.3-4.1c-0.5,1.2-0.7,2.5-0.6,4.1c0.1,1,0.3,1.8,0.6,2.5c-0.6,0-1.3-0.1-2-0.1
				c-8.2-0.4-14.4-1.7-14.7-1.9S240.9,106.9,240.9,106.9z M259.6,101.9c3.7-1,7.2-1.9,9.2-2.4c-1.1,1.2-1.8,2.7-1.8,4.5
				c0,2.4,1.3,4.5,3.2,5.5c-2.8,0.3-6.6,0.3-10.8,0.2c-0.6-0.6-1.2-1.6-1.3-2.8c-0.1-2.3,0.8-3.9,1.5-4.8L259.6,101.9L259.6,101.9z"
				/>
			<path class="st13" d="M193.3,81.8l1.5,12.3C190.8,91.2,185.6,82.3,193.3,81.8z"/>
			<path class="st8" d="M261.2,81.8l-1.5,12.3C263.6,91.2,268.8,82.3,261.2,81.8z"/>
			<path class="st9" d="M269.1,104.9c0-0.1,0-0.3-0.1-0.4c0-0.1,0.1-0.2,0.1-0.3c0.1-0.3-0.1-0.9,0-1.5s0.5-0.8,0.5-0.8
				s0.3-0.4,0.4-0.5s0.2-0.3,0.3-0.5s0.2-0.2,0.4-0.4c0.2-0.2,0.5-0.4,0.6-0.5s0.2-0.2,0.4-0.5s0,0,0.4,0s0.7-0.1,0.7-0.1
				s0.3-0.2,0.5-0.3c0.2-0.1,0.2-0.1,0.5-0.1s0.3,0,0.5,0s0.2,0,0.5,0.1s0.4,0.2,0.9,0.3c0.5,0.2,0.3,0.1,0.5,0.2
				c0.3,0.1,0.2,0,0.3,0.2c0.2,0.2,0.3,0.4,0.5,0.5c0.2,0.2,0.5,0.4,0.5,0.6s0.2,0.3,0.4,0.5s0.3,0.4,0.4,0.5s0,0.3,0,0.5
				c0.1,0.3,0.1,0.3,0.2,0.5c0.1,0.1,0,0.5,0,0.6c0,0.2,0.2,1,0.2,1s-0.3,0.5-0.3,0.7c-0.1,0.2-0.1,0.3-0.1,0.5s-0.3,1-0.5,1.2
				c-0.1,0.2-0.5,0.5-0.5,0.5s-0.3,0.5-0.4,0.6c-0.1,0.2-0.5,0.5-0.7,0.5c-0.3,0-0.2,0.1-0.5,0.2s-0.5,0.2-0.9,0.3
				c-0.5,0.1-0.5,0.1-0.6,0c-0.2,0-0.2,0-0.4-0.1c-0.2,0-0.9-0.1-1.1-0.2c-0.3-0.1-0.7-0.5-1-0.7s-0.5-0.4-0.6-0.5
				c-0.2,0-0.3-0.1-0.5-0.5c-0.2-0.3-0.2-0.4-0.2-0.9s0-0.3-0.5-0.8c-0.2-0.2-0.3-0.3-0.3-0.5L269.1,104.9z"/>
			<path class="st15" d="M255.6,105.5c-5.3,0.6-10.3,1.3-11,1.4c-0.8,0.2-0.7-0.3-0.4-0.9c-2,0.5-3.1,0.8-4.1,1.1
				c-0.2,0-0.9,0.3-0.6,0.3c0.3,0.2,6.6,1.5,14.8,1.9c0.6,0,1.3,0.1,2,0.1c-0.4-0.7-0.6-1.5-0.6-2.5
				C255.7,106.4,255.7,105.9,255.6,105.5L255.6,105.5z"/>
			<path class="st16" d="M266.9,104l-8.8,1.2c-0.1,0.5-0.1,1-0.1,1.5c0,1.3,0.6,2.4,1.3,3c4.2,0.1,8,0.1,10.8-0.2
				C268.2,108.4,266.9,106.3,266.9,104L266.9,104z"/>
			<path class="st6" d="M258.1,105.2l8.8-1.2l0,0c0-1.7,0.7-3.3,1.8-4.5c-2,0.5-5.4,1.4-9.2,2.4C259,102.6,258.4,103.7,258.1,105.2z
				"/>
			<path class="st8" d="M272.1,106.4c-0.3-0.2-0.4-0.5-0.8-0.9c-0.5-0.3-0.3-0.1-0.4-0.2s0-0.3-0.1-0.9s-0.3-0.5-0.5-0.6
				c-0.3-0.2,0.1-3.2,0.1-3.2c-0.1,0.1-0.1,0.1-0.2,0.2c-0.1,0.2-0.2,0.3-0.3,0.5s-0.4,0.5-0.4,0.5s-0.5,0.3-0.5,0.8
				c-0.1,0.6,0.1,1.3,0,1.5c0,0.1-0.1,0.2-0.1,0.3c0,0.1,0,0.3,0.1,0.4s0.2,0.3,0.3,0.5c0.5,0.5,0.5,0.3,0.5,0.8s-0.1,0.6,0.2,0.9
				c0.2,0.3,0.3,0.5,0.5,0.5c0.2,0.2,0.4,0.4,0.6,0.5c0.3,0.2,0.7,0.5,1,0.7c0.3,0.1,0.9,0.2,1.1,0.2s0.2,0,0.4,0.1
				c0.2,0,0.3,0,0.6,0c0.5-0.1,0.5-0.2,0.9-0.3c0.4-0.1,0.4-0.2,0.5-0.2c0.3,0,0.7-0.3,0.7-0.5c0.1-0.2,0.4-0.6,0.4-0.6
				s0.4-0.4,0.5-0.5c0.1-0.2,0.5-1.1,0.5-1.2c0-0.2,0-0.3,0.1-0.5s0.3-0.7,0.3-0.7s-0.1-0.8-0.2-1c0-0.2,0.1-0.5,0-0.6
				c0-0.1-0.1-0.1-0.1-0.2c-0.2,0.2-0.5,0.3-0.5,0.4c-0.2,0.2,0,0.1,0.2,0.4c0.2,0.2-0.1,0.6-0.2,0.7c-0.1,0-0.8,0.4-0.8,0.5
				s0,0.6,0.2,1.3c0.1,0.6-0.4,0.8-0.5,0.8s-0.7-0.5-1.2-0.4c-0.5,0.2-0.5,0.6-0.5,0.8s-0.6,0.3-1.2,0.1
				C272.6,107,272.4,106.7,272.1,106.4L272.1,106.4z"/>
			<path class="st6" d="M271.5,99.5c-0.2,0.3-0.3,0.4-0.4,0.5s-0.2,0.2-0.4,0.3l0.5,0.1l0.5-0.2c0,0,0.2,0,0.4,0
				c0.3,0.1,0.3,0.1,0.5,0.2s0,0.1,0.3,0.1s0.8-0.2,0.9-0.3c0.1,0,0.2-0.2,0.5,0c0.4,0.2,0.5,0.3,0.6,0.4s0.1,0,0.4,0.1
				s0.2-0.1,0.4,0.2c0.2,0.3,0.2,0.4,0.5,0.6s0.2,0.2,0.4,0.3c0.2,0.1,0.2,0,0.4,0.2s0.2,0.3,0.4,0.4c0.1,0.1,0.2,0.1,0.3,0.1
				s0.2,0,0.3,0c0-0.3,0-0.4,0-0.5c-0.1-0.2-0.2-0.5-0.4-0.5c-0.2-0.2-0.3-0.3-0.4-0.5c0-0.2-0.4-0.5-0.5-0.6
				c-0.2-0.2-0.3-0.4-0.5-0.5c-0.2-0.2,0-0.1-0.3-0.2s0.1,0-0.5-0.2c-0.5-0.2-0.6-0.2-0.9-0.3c-0.3-0.1-0.3-0.1-0.5-0.1
				s-0.2,0-0.5,0s-0.3,0-0.5,0.1s-0.5,0.3-0.5,0.3s-0.4,0.1-0.7,0.1s-0.2-0.2-0.4,0L271.5,99.5z"/>
			<path class="st8" d="M209.5,103.4c0.9-2.5,2.7-4.1,5.4-3.9c3.9,0.3,8.4,3.1,10.4,4.7c-1.5-1.4-8.4-6.8-11.9-6
				C210,99.2,209.5,103.4,209.5,103.4L209.5,103.4z"/>
			<path class="st6" d="M228,107.1c0,0-3.6-1.2-6.6-2c-1.3-0.4-2.5-0.5-3.1-0.5c-2.3-0.1-3.1,1.7-3.1,1.7s3.6,0.5,4.8,0.8
				c1.2,0.4,3.3,1.7,3.2,1.7s-3.5-0.5-5.3-0.3s-2.9,1.2-2.9,1.2s-0.4,1.7,2.3,1.7c2.6-0.1,4.8-0.8,7.2-0.2c2.1,0.5,4,3.5,7.3,4.5
				c1.4,0,2.8,0,4.2,0c1.8-0.8,2.5-2.7,2.5-2.7s-10-3.2-10.7-3.9c-0.2-0.2,0.8-0.7,2.5-1.5C229,107.4,228.1,107.2,228,107.1
				L228,107.1z"/>
			<path class="st6" d="M221.1,115.8c-2.4,0.4-4.2,0.4-5.7-0.1c-0.4,0-0.7,0-1.2,0c1,1.1,2.1,2.1,3,2.4c2,0.5,8,0.1,10.2,1.9
				c1.6,1.1,3.8,2.8,6.7,2.6c3.5-0.2,4.7-2.2,4.7-2.2c-0.7,0.4-1.5,0.6-2.3,0.7c-4.9,0.7-8.1-5.1-13.6-5.4c-0.3,0-0.6,0-0.9,0
				S221.3,115.9,221.1,115.8L221.1,115.8z"/>
		</g>
		<path class="st9" d="M353.6,366.9c0,0,29.4-9.4,36.9-30.5c2.5-7.2,2.6-16.1,1.5-25c2.7-1.2,6.9-3.1,11.3-5.1
			c2.5,4.5,6.2,7.1,9.3,6.2c3.5-1.1,5-6.4,3.7-12.3c2.4-1.2,4.2-2.2,5.1-2.8c2.1-1.5,3.5-5.5,4.5-10.2c2.1,8,3.3,13.9,2.8,15.2
			c-1.7,4.6-13.3,33.9-14.5,34.6c-1.4,0.7-9.6,4.5-22.8,14.4c-13.3,10-16.3,12.2-26,14.4C355.5,368.2,353.5,366.9,353.6,366.9
			L353.6,366.9z M390.3,204.4c-1.5-8,0.5-8.3-6.7-10.4l0,0l-21.8-5.7c-2.6-0.7-5.1-1.8-0.5-2l14-0.6c1.9-0.1,5-0.6,3.4-3.3
			c-4.5-7.2-9.3-13-15.1-19c-6.7-6.8-29.8-10.9-29.8-10.9l18.7-3.6l-5.1-10.5c0,0-6.3-10.2-7.5-10.5c-2.3-0.6-53.2-16.4-53.4-16.6
			c-2-1.4-4.7-2.5-7.6-3.5c0,0,5.7,3.5,6.3,13.6c0,0.5,0,1,0,1.5c4.2,3.7,7.4,6.6,7.5,7.1c0.7,1.4,0,0.1,0.7,4.6s2.2,22.4,2.2,22.4
			l-15.9-2.2c0,0,1.8,1.7,7.4,7.3s17.5,21.6,17.5,21.6l-6.9,13.8l2.1,51.5c0,0,1,2.3,1.5,2.5s3.4-1.9,4.8-2.3
			c1.5-0.5,27.2,1.6,27.2,1.6s0-4.8-11.4-33.8c-11.5-29-18.3-64.6-16.9-65s16.5,35.8,20.2,41.3c3.6,5.4,28,24.2,28.5,25.2
			c0.5,0.9-17.3-7.1-17.3-7.1s-1.5,2.5-1.2,4.6c0.4,2.3,13.1,31.2,13.5,32.2c0.5,1,21.3-6.5,21.3-6.5l-0.5-9.4
			c0,0,15.2,9.8,24.2,25.6s7.4,19.9,7.4,19.9s-15.2-19.9-23.8-22.1c-8.6-2.2-20.9,4.1-20.9,4.1s15.8,1,21.9,10.2
			c3.5,5.3,9.4,19.3,12.4,34.1c2.7-1.2,6.4-2.8,10.2-4.5c-1.1-5.8,0.4-10.9,3.8-12c3-1,6.6,1.5,9.1,5.9c1.6-0.8,2.9-1.5,3.5-2
			c1.6-1.2,2.8-12.4,3.5-19.2c0.1-0.8,0.2-1.6,0.3-2.5c-5.7-20.1-12.7-42.2-13.3-43.3c-0.9-1.8-6.2-5.5-17.5-22.4l0,0L390.3,204.4z
			 M383.6,194l-0.2-0.4L383.6,194z"/>
		<path class="st8" d="M296.3,123.4c-0.1,2.7,14.7,35,21.6,44c6.9,9.1,4.3,12,4.3,12l-5.1-2.1c-5.4-11.8-11.5-25.5-12.4-25.3
			c-0.6,0.2,0.7,9.2,3.6,21.8l-6.4-2.6l-6.6-38l-8-14.6l0.4-6.9c17.1,5.4,34.4,10.8,51.6,16h0.1l0,0h0.1h0.1l0,0l0,0h0.1l0,0
			c0,0,0,0,0.1,0l0,0c0,0,0,0,0.1,0l0,0h0.1l0,0l0,0h0.1l0,0c0.1,0.1,0.2,0.1,0.2,0.2l0,0l0,0l0.1,0.1l0,0l0,0l0.1,0.1l0,0l0,0
			l0.1,0.1l0,0l0.1,0.1l0,0l0.1,0.1v0.1l0,0c0.1,0.1,0.2,0.2,0.2,0.3l0,0l0.1,0.1v0.1l0,0l0.1,0.1l0,0l0.1,0.1l0.1,0.1l0,0l0.1,0.1
			l0,0v0.1l0.1,0.1l0,0l0.1,0.2l0,0l0.1,0.1l0,0l0.1,0.1c2.5,3.3,4.2,5.7,5.7,8.5c1.5,2.9,2.8,6.1,4.8,10.3l-6.7,1.3
			C332.2,126.7,296.6,116.8,296.3,123.4L296.3,123.4z M340.8,128.6c0.1,0.1,0.2,0.2,0.2,0.3L340.8,128.6z"/>
		<path class="st9" d="M96.3,366.9c0,0-29.4-9.4-36.9-30.5c-2.5-7.2-2.6-16.1-1.5-25c-2.7-1.2-6.9-3.1-11.3-5.1
			c-2.5,4.5-6.2,7.1-9.3,6.2c-3.5-1.1-5-6.4-3.7-12.3c-2.4-1.2-4.2-2.2-5.1-2.8c-2.1-1.5-3.5-5.5-4.5-10.2c-2.1,8-3.3,13.9-2.8,15.2
			c1.7,4.6,13.3,33.9,14.5,34.6c1.4,0.7,9.6,4.5,22.8,14.4c13.3,10,16.3,12.2,26,14.4C94.4,368.2,96.4,366.9,96.3,366.9L96.3,366.9z
			 M61.3,194.9c-2.4,1.6-1.6,2.8-0.1,6.9c-6.7,10.1-18.3,23.1-19.3,25c-0.5,1.1-7.5,23.2-13.3,43.3c0.1,0.7,0.2,1.5,0.3,2.5
			c0.7,6.9,1.9,18,3.5,19.2c0.6,0.5,1.9,1.2,3.5,2c2.5-4.4,6.1-6.8,9.1-5.9c3.4,1.1,4.9,6.2,3.8,12c3.7,1.7,7.4,3.4,10.2,4.5
			c3-15,9-28.9,12.4-34.1c6.1-9.3,21.9-10.2,21.9-10.2S81,253.7,72.4,256c-8.6,2.2-23.8,22.1-23.8,22.1s-1.7-4.1,7.4-19.9
			c9.1-15.8,24.2-25.6,24.2-25.6l-0.5,9.4c0,0,20.9,7.5,21.3,6.5c0.5-1,13.2-30,13.5-32.2s-1.2-4.6-1.2-4.6s-17.9,8-17.3,7.1
			c0.5-0.9,24.8-19.7,28.5-25.2c3.6-5.4,18.8-41.7,20.2-41.3s-5.4,36-16.9,64.8s-11.4,33.8-11.4,33.8s25.7-2.1,27.2-1.6
			s4.3,2.5,4.8,2.3s1.5-2.5,1.5-2.5l2.1-51.5l-6.9-13.8c0,0,11.9-16,17.5-21.6s7.4-7.3,7.4-7.3l-15.9,2.2c0,0,1.5-18,2.2-22.4
			c0.7-4.5,0-3.3,0.7-4.6s29.2-26.1,29.2-26.1s-15.8,2.8-22.9,7.5c0,0-10.6,19.5-11.4,19.2c-0.5-0.3,2.2-10.4,3.9-16.9
			c-14.3,4.5-44.3,13.8-46,14.3c-2.9,0.8-10.9,17.4-12.6,21.2l18.7,3.6c0,0-21.5,2.5-29.8,10.9c-5,5.1-8.5,11.2-13.4,19.4
			c0,0-0.2,1.4,1.5,1.5s15.9-3.2,16.3-2.9C93.3,183,62.6,194.1,61.3,194.9L61.3,194.9z"/>
		<path class="st8" d="M152.1,130.3l-7,23.8l0,0c0.1-1.4,0.1-2.1-0.1-2.2c-1.4-0.4-16.5,35.8-20.2,41.3c-3.6,5.4-28,24.2-28.5,25.2
			c-0.5,0.9,17.3-7.1,17.3-7.1s1.5,2.5,1.2,4.6c-0.4,2.3-13.1,31.2-13.5,32.2c-0.5,1-21.3-6.5-21.3-6.5l0.5-9.4
			c0,0-15.2,9.8-24.2,25.6s-7.4,19.9-7.4,19.9s0.7-0.9,1.9-2.4c0,0,8.9-5.3,12.2-5.5c1.5-0.1,4.5,0.8,7.6,2
			c-3.5,6.3-8.5,18.9-11.3,32.2c-2.7-1.2-6.4-2.8-10.2-4.5c1.1-5.8-0.4-10.9-3.8-12c-3-1-6.6,1.5-9.1,5.9c-1.6-0.8-2.9-1.5-3.5-2
			c-1.6-1.2-2.8-12.4-3.5-19.2c-0.1-0.8-0.2-1.6-0.3-2.5c3.5-12.2,7.4-25.2,10.1-33.7c0-0.1,0.1-0.2,0.1-0.3l0.3,0.2
			c0,0-4,12.1,5.9,13c4.5,0.5,18.7-18,33.3-31c13.4-11.9,27.3-18.4,28.8-19.5c7.4-5.5,11-11.3,10.6-12.2s-25.2,2.9-26.3,2.7
			c-1.1-0.1,5-4.6,19.6-13s21.6-15.5,24.3-21.3c2.7-5.7,8.5-22.3,9.7-28c1.3-5.7-6.4-8.4-6.4-8.4c6.4-2,12.6-3.9,17.3-5.4
			c-1.7,6.4-4.5,16.6-3.9,16.9v0.6H152.1z"/>
		<path class="st8" d="M304.8,152l-16.3-40.2c-1.3-0.5-2.1-0.6-2.1-0.6c-2-1.4-4.7-2.5-7.6-3.5c0,0,5.7,3.5,6.3,13.6
			c0,0.5,0,1,0,1.5c4.2,3.7,7.4,6.6,7.5,7.1c0.7,1.4,0,0.1,0.7,4.6s2.2,22.4,2.2,22.4l-15.9-2.2c0,0,1.8,1.7,7.4,7.3
			s17.5,21.6,17.5,21.6l-6.9,13.8l2.1,51.5c0,0,1,2.3,1.5,2.5s3.4-1.9,4.8-2.3c1.5-0.5,27.2,1.6,27.2,1.6s0-4.8-11.4-33.8
			C310.2,188,303.4,152.4,304.8,152L304.8,152z"/>
		<path class="st7" d="M412.5,312.4c-3.1,1-6.8-1.6-9.3-6.2c-4.4,2-8.5,3.8-11.3,5.1c1.2,9,1.1,17.8-1.5,25
			c-7.5,21.2-36.9,30.5-36.9,30.5s2,1.3,11.7-1s12.7-4.5,26-14.4s21.5-13.7,22.8-14.4c1.4-0.7,12.9-30,14.5-34.6
			c0.5-1.3-0.7-7.2-2.8-15.2c-1,4.6-2.4,8.7-4.5,10.2c-0.9,0.6-2.7,1.6-5.1,2.8C417.5,306.1,416,311.3,412.5,312.4L412.5,312.4z"/>
		<path class="st6" d="M356.5,260c0,0,6.4,0.4,12.5,3c3.5-1.1,7.9-2.5,10.9-2.8c1.6-0.2,3.3-0.3,4.6-0.2c-2.5-2.1-5-3.6-7.2-4.2
			C368.7,253.7,356.5,259.9,356.5,260L356.5,260z"/>
		<path class="st7" d="M37.5,324c-4.6-2-8-4.5-10.5-7.1c3.7,9.3,8,19.4,8.8,19.9c1.4,0.7,9.6,4.5,22.8,14.4
			c13.3,10,16.3,12.2,26,14.4c9.7,2.3,11.7,1,11.7,1s-29.4-9.4-36.9-30.5c-0.4-1-0.6-1.9-0.9-3c-8.1-3.6-16-7.2-21-9.4L37.5,324z"/>
		<path class="st8" d="M128.1,216.9c-11.4,28.9-11.4,33.8-11.4,33.8s25.7-2.1,27.2-1.6s4.3,2.5,4.8,2.3s1.5-2.5,1.5-2.5l1.8-45.1
			c-3.2,4.7-7.2,9.5-11.4,11.8c-4.5,2.4-8.6,1.7-11.9,0.3C128.4,216.2,128.3,216.5,128.1,216.9z"/>
		<path class="st9" d="M72.5,255.9c-6.8,1.7-17.6,14.3-21.9,19.7c0,0,8.9-5.3,12.2-5.5c1.5-0.1,4.5,0.8,7.6,2
			c0.4-0.7,0.8-1.4,1.2-1.9c6.1-9.3,21.9-10.2,21.9-10.2S81.2,253.7,72.5,255.9L72.5,255.9z"/>
		<path class="st14" d="M208.1,332.7c0,0-0.6,10.9-2.6,16.7c-1.7,5.1-7.2,8.9-8.4,9.7c-0.4,0.1-0.5,0.1-0.3,0.2
			c0.6,0.3,25.7,12.2,25.7,12.2v-28.9c0,0,0-1.5,1.2-1.5c1.3,0,1.3,0,1.3,0s0,0,1.3,0s1.2,1.5,1.2,1.5v28.9c0,0,25.1-11.9,25.7-12.2
			c0.2-0.1,0-0.1-0.3-0.2c-1.4-0.8-6.7-4.6-8.4-9.7c-1.9-5.8-2.6-16.7-2.6-16.7s-0.3-1.6-1.5-2.5c-1.2-0.8-4-3.4-5.8-11.3
			c-1.8-8-1.9-7.9-0.7-9.1s18.3-9.3,19.2-9.6c0.9-0.3,0.1-2.6-1.1-4c-0.9-1.1-2.6-1.6-7,0c-0.5,0.2-0.9,0.4-0.9,0.4
			s-0.5,0.3-1.5,0.7c-0.2,0.1-0.4,0.2-0.5,0.3l0,0l0,0c-2.5,1.2-6.4,3.1-9.5,4.6c-4.6,2.4-7.5,2.2-7.5,2.2s-2.8,0.2-7.5-2.2
			c-3.1-1.5-7.1-3.5-9.5-4.6l0,0l0,0c-0.2-0.1-0.4-0.2-0.5-0.3c-0.9-0.5-1.5-0.7-1.5-0.7s-0.4-0.2-0.9-0.4c-4.3-1.6-6-1.2-7,0
			c-1.1,1.4-1.9,3.6-1.1,4c0.9,0.3,18,8.4,19.2,9.6s1.1,1.1-0.7,9.1s-4.6,10.5-5.8,11.3s-1.5,2.5-1.5,2.5H208.1z"/>
		<path class="st17" d="M208.1,332.7c0,0-0.5,9.4-2.2,15.4v15.6c2.5,1.2,5.1,2.5,7.5,3.5V325c-1.5,3.5-3.1,4.8-3.9,5.4
			C208.3,331.1,208.1,332.8,208.1,332.7L208.1,332.7z M213.4,300.3c-2.1-1-4.1-2-5.5-2.6l0,0l0,0c-0.2-0.1-0.4-0.2-0.5-0.3
			c-0.7-0.4-1.2-0.5-1.4-0.6v7.8c2.7,1.4,5.5,2.7,7.5,3.8L213.4,300.3L213.4,300.3z"/>
		<path class="st18" d="M208.1,332.7c0,0-0.6,10.9-2.6,16.7c-1.7,5.1-7.2,8.9-8.4,9.7c-0.4,0.1-0.5,0.1-0.3,0.2s1.7,0.8,4,1.9
			c1.8-1.4,5.1-4.2,6.8-7c2.4-4.1,3.7-19,3.9-20.3s2.8-1.3,4.1-8.3s1.2-12.9,1.2-12.9c-0.2,1.2-0.6,3.1-1.4,6.2
			c-1.8,8-4.6,10.5-5.8,11.3C208.3,331,208.1,332.7,208.1,332.7L208.1,332.7z M227.1,304.2c-1.5,0.3-2.3,0.3-2.3,0.3
			s-2.8,0.2-7.5-2.2c-3.1-1.5-7.1-3.5-9.5-4.6l0,0l0,0c-0.2-0.1-0.4-0.2-0.5-0.3c-0.9-0.5-1.5-0.7-1.5-0.7s-0.4-0.2-0.9-0.4
			c-4.3-1.6-6-1.2-7,0c-1.1,1.4-1.9,3.6-1.1,4c0.2,0.1,0.7,0.3,1.5,0.7c1-2.6,2.3-3.5,3.9-3c1.9,0.7,10.1,5,14.9,7.2
			c4.8,2.2,9.3,2.3,9.3,2.3L227.1,304.2L227.1,304.2z"/>
		<path class="st15" d="M224.9,341.2c0,0,0,0,1.3,0s1.2,1.5,1.2,1.5v28.9c0,0,25.1-11.9,25.7-12.2c0.2-0.1,0-0.1-0.3-0.2
			c-1.4-0.8-6.7-4.6-8.4-9.7c-1.9-5.8-2.6-16.7-2.6-16.7s-0.3-1.6-1.5-2.5c-1.2-0.8-4-3.4-5.8-11.3c-1.8-8-1.9-7.9-0.7-9.1
			s18.3-9.3,19.2-9.6c0.9-0.3,0.1-2.6-1.1-4c-0.9-1.1-2.6-1.6-7,0c-0.5,0.2-0.9,0.4-0.9,0.4s-0.5,0.3-1.5,0.7
			c-0.2,0.1-0.4,0.2-0.5,0.3l0,0l0,0c-2.5,1.2-6.4,3.1-9.5,4.6c-4.6,2.4-7.5,2.2-7.5,2.2L224.9,341.2L224.9,341.2z"/>
		<path class="st14" d="M162.4,207.8v53.7c0,0,9.1-0.5,10.7,0c1.2,0.4,21.3,7.8,30.8,11.6c4.6,1.8,6.2,3.8,4.3,9.1
			c-0.6,1.6,0.5,1.8,1.8,2.4c4.3,1.9,12.1,5.2,12.4,2.3c0.3-1.8,0.1-18.8,0.6-20.9s1.9-1.5,1.9-1.5s1.4-0.5,1.9,1.5
			c0.5,2.1,0.4,19.1,0.6,20.9c0.3,1.8,2.6,1.2,5.5,0.4s2.6-2.1,2.6-2.1s-1.5-7.1-0.7-7.9c0.7-0.8,40.3-15.3,41.9-15.8
			c1.5-0.5,10.7,0,10.7,0v-53.7c-0.2-2.6-0.5-3.3-3.1-2.9c0,0-51.9,15.8-54.4,16.6c-2.5,0.7-3.4,3.5-3.4,3.5s-0.1,2.5,0,6.5
			s-1.6,4.8-1.6,4.8s-1.7-0.7-1.6-4.8c0.1-4,0-6.5,0-6.5s-0.9-2.8-3.4-3.5s-54.4-16.6-54.4-16.6C163,204.4,162.6,205.2,162.4,207.8
			L162.4,207.8z"/>
		<path class="st17" d="M196.3,270.2c2.8,1.1,5.4,2.1,7.4,2.9c0.9,0.4,1.7,0.7,2.5,1.2v-51.9c0,0,0.4-1.5,2.3-1.1s11,3.8,12.3,4.4
			s2.5,2.4,2.5,4.5c0-3.2,0-5.1,0-5.1s-0.9-2.8-3.4-3.5c-1.2-0.4-13.8-4.2-26.5-8.1c1.2,1.3,2.5,3.1,2.9,5.2
			C197.1,222.1,196.6,255.4,196.3,270.2L196.3,270.2z"/>
		<path class="st15" d="M162.4,207.8v53.7c0,0,9.1-0.5,10.7,0c0.4,0.1,2.9,1,6.4,2.4c0-15.1-0.1-47.2,0-49.5c0.1-1.5,2.1-2.9,4-3.9
			l-17.9-5.4C163,204.5,162.7,205.3,162.4,207.8L162.4,207.8z"/>
		<path class="st18" d="M224.9,264.5c0.2-0.1,1.4-0.4,1.9,1.5c0.5,2.1,0.4,19.1,0.6,20.9c0.3,1.8,2.6,1.2,5.5,0.4s2.6-2.1,2.6-2.1
			s-1.5-7.1-0.7-7.9c0.7-0.8,40.3-15.3,41.9-15.8c1.5-0.5,10.7,0,10.7,0v-53.7c-0.2-2.6-0.5-3.3-3.1-2.9c0,0-51.9,15.8-54.4,16.6
			c-2.5,0.7-3.4,3.5-3.4,3.5s-0.1,2.5,0,6.5c0.1,3.8-1.5,4.7-1.6,4.8L224.9,264.5L224.9,264.5z"/>
		<path class="st14" d="M238.5,275.6c1.8-0.7,4.2-1.6,6.9-2.6v-52.1c0,0-0.2-3.7,3.7-5.2l-10.6,3.3L238.5,275.6L238.5,275.6z"/>
		<path class="st15" d="M260.6,267.4c8.3-3.1,15.5-5.7,16.2-5.9c1.5-0.5,10.7,0,10.7,0v-53.7c-0.2-2.6-0.5-3.3-3.1-2.9
			c0,0-14.3,4.4-28.3,8.6c0,0,2.5,2.2,5.5,1.4c3.1-0.9,8.8-3.6,9-1.4c0.1,2.3,0,43,0,43s1.3,4.6-6.1,8
			C262.9,265.2,261.6,266.2,260.6,267.4L260.6,267.4z"/>
		<path class="st14" d="M166.6,199.1c0,0,52.9,17.2,55,17.9c2.2,0.6,3.2,0.6,3.2,0.6s1,0,3.2-0.6s55-17.9,55-17.9s0.3-0.1,0.3-0.5
			c-0.1-0.5-0.6-0.6-0.6-0.6s-51.7-18.4-53.6-19c-2-0.6-6.9-0.6-8.9,0c-1.9,0.6-53.5,18.9-53.5,18.9s-0.5,0.2-0.6,0.6
			s0.3,0.5,0.3,0.5h0.2V199.1z"/>
		<path class="st18" d="M224.9,217.6c0,0,1,0,3.2-0.6s55-17.9,55-17.9s0.3-0.1,0.3-0.5c-0.1-0.5-0.6-0.6-0.6-0.6
			s-51.6-18.3-53.5-18.9c-1-0.3-2.5-0.5-4.2-0.5l-0.4,1.8v3.3c0,0,7.7,8.7,8.6,17c0.8,8.3-8.6,17.1-8.6,17.1L224.9,217.6z"/>
		<path class="st17" d="M170.5,244.1l39.3,13.6c1.8,0.6,3.4,2.9,3.4,5l0,0c0,2.1-1.5,3.3-3.4,2.6l-39.3-13.6c-1.8-0.6-3.4-2.9-3.4-5
			l0,0C167.1,244.7,168.7,243.5,170.5,244.1z M168.7,221l42.8,14.8c0.9,0.4,1.7,1.5,1.7,2.5l0,0c0,1-0.7,1.6-1.7,1.3l-42.8-14.8
			c-0.9-0.4-1.7-1.5-1.7-2.5l0,0C167,221.2,167.7,220.6,168.7,221L168.7,221z M168.7,232.3l42.8,14.8c0.9,0.4,1.7,1.5,1.7,2.5l0,0
			c0,1-0.7,1.6-1.7,1.3L168.7,236c-0.9-0.4-1.7-1.5-1.7-2.5l0,0C167,232.6,167.7,232,168.7,232.3L168.7,232.3z"/>
		<path class="st19" d="M171.3,243l39.3,13.6c1.8,0.6,3.4,2.9,3.4,5l0,0c0,2.1-1.5,3.3-3.4,2.6l-39.3-13.6c-1.8-0.6-3.4-2.9-3.4-5
			l0,0C167.9,243.6,169.5,242.4,171.3,243z M169.6,219.9l42.8,14.8c0.9,0.4,1.7,1.5,1.7,2.5l0,0c0,1-0.7,1.6-1.7,1.3l-42.8-14.8
			c-0.9-0.4-1.7-1.5-1.7-2.5l0,0C167.8,220.2,168.6,219.5,169.6,219.9L169.6,219.9z M169.6,231.2l42.8,14.8c0.9,0.4,1.7,1.5,1.7,2.5
			l0,0c0,1-0.7,1.6-1.7,1.3L169.6,235c-0.9-0.4-1.7-1.5-1.7-2.5l0,0C167.8,231.5,168.6,230.9,169.6,231.2L169.6,231.2z"/>
		<path class="st0" d="M186.2,251l24.2,8.4c0.5,0.2,0.8,0.7,0.8,1.2l0,0c0,0.5-0.4,0.8-0.8,0.6l-24.2-8.4c-0.5-0.2-0.8-0.7-0.8-1.2
			l0,0C185.4,251.1,185.7,250.8,186.2,251z"/>
		<path class="st0" d="M173.1,246.4c0.5,0.2,1,0.8,1,1.4s-0.5,0.9-1,0.6c-0.5-0.2-1-0.8-1-1.4S172.6,246.1,173.1,246.4z"/>
		<path class="st0" d="M177.5,247.9c0.5,0.2,1,0.8,1,1.4s-0.5,0.9-1,0.6c-0.5-0.2-1-0.8-1-1.4S176.9,247.7,177.5,247.9z"/>
		<path class="st0" d="M181.7,249.4c0.5,0.2,1,0.8,1,1.4s-0.5,0.9-1,0.6c-0.5-0.2-1-0.8-1-1.4S181.2,249.1,181.7,249.4z"/>
		<path class="st19" d="M281.1,211.7l-14.2,5.3c-0.5,0.2-1,0.9-1,1.5l0,0c0,0.6,0.5,1,1,0.8l14.2-5.3c0.5-0.2,1-0.9,1-1.5l0,0
			C282.1,211.9,281.6,211.5,281.1,211.7z"/>
		<path class="st19" d="M281.1,216.2l-24.3,9.1c-0.5,0.2-1,0.9-1,1.5l0,0c0,0.6,0.5,1,1,0.8l24.3-9.1c0.5-0.2,1-0.9,1-1.5l0,0
			C282.1,216.3,281.6,216,281.1,216.2z"/>
		<path class="st19" d="M281.1,220.7l-18.3,6.8c-0.5,0.2-1,0.9-1,1.5l0,0c0,0.6,0.5,1,1,0.8l18.3-6.8c0.5-0.2,1-0.9,1-1.5l0,0
			C282.1,220.9,281.6,220.5,281.1,220.7z"/>
		<polygon class="st6" points="246.6,232.6 248.2,237.9 253.5,239.5 248.2,241.1 246.6,246.4 244.9,241.1 239.7,239.5 244.9,237.9 
					"/>
		<path class="st19" d="M177.5,197.2c0,0,43,14,44.8,14.5s2.6,0.5,2.6,0.5s0.8,0,2.6-0.5s44.8-14.5,44.8-14.5s0.3-0.1,0.2-0.5
			c0-0.4-0.5-0.5-0.5-0.5s-42-14.9-43.5-15.3c-1.6-0.5-5.6-0.5-7.3,0c-1.5,0.5-43.5,15.3-43.5,15.3s-0.5,0.2-0.5,0.5
			C177.3,197.1,177.5,197.2,177.5,197.2L177.5,197.2z"/>
		<polygon class="st6" points="259.7,181 261.3,186.5 266.7,188.2 261.3,189.8 259.7,195.3 258,189.8 252.6,188.2 258,186.5 		"/>
		<path class="st18" d="M191.2,196.1c0,0,30.6,9.9,31.9,10.4c1.3,0.4,1.9,0.4,1.9,0.4s0.6,0,1.9-0.4s31.9-10.4,31.9-10.4
			s0.2,0,0.2-0.3s-0.4-0.4-0.4-0.4s-29.8-10.6-31-10.9c-1.2-0.4-4-0.4-5.2,0c-1.1,0.4-31,10.9-31,10.9s-0.3,0.1-0.4,0.4
			C191.1,196.1,191.3,196.1,191.2,196.1L191.2,196.1z"/>
		<polygon class="st6" points="196.5,191.3 198.6,197.9 205.2,200 198.6,202 196.5,208.6 194.5,202 187.9,200 194.5,197.9 		"/>
		<path class="st19" d="M224.9,187.1c10.5,0,19.1,3.5,19.1,7.7c0,4.3-8.5,7.7-19.1,7.7c-10.5,0-19.1-3.5-19.1-7.7
			C205.8,190.5,214.3,187.1,224.9,187.1z"/>
		<path class="st9" d="M224.9,188.6c8.8,0,16,2.7,16,6.2c0,3.4-7.2,6.2-16,6.2s-16-2.7-16-6.2C208.9,191.5,216.1,188.6,224.9,188.6z
			"/>
		<path class="st6" d="M224.9,189.6c7.5,0,13.5,2.4,13.5,5.2c0,2.9-6.1,5.2-13.5,5.2c-7.5,0-13.5-2.4-13.5-5.2
			C211.3,191.9,217.4,189.6,224.9,189.6z"/>
		<g>
			<linearGradient id="SVGID_1_" gradientUnits="userSpaceOnUse" x1="224.8602" y1="123.4" x2="224.8602" y2="198.3999">
				<stop  offset="0" style="stop-color:#FFFFFF;stop-opacity:0"/>
				<stop  offset="1" style="stop-color:#FFFFFF"/>
			</linearGradient>
			<path class="st20" d="M212.3,195c-5.8-11.9-13.2-24.1-20.9-35.8c-7.9-12.1-17.2-23.9-26.9-35.8c10.1,0,20.1,0,30.2,0
				c10.1,0,20.1,0,30.2,0c10.1,0,20.1,0,30.2,0s20.1,0,30.2,0c-9.8,11.9-19,23.7-27,35.8c-7.6,11.7-15.1,23.9-20.9,35.8
				c-4.6,1.8-8.2,1.5-12.5,3.4C220.4,196.6,216.9,196.8,212.3,195L212.3,195z"/>
			<path class="st21" d="M224.4,184.3c0.1-0.3,0.1-0.5,0.4-0.4c0.4,0.1,0.9,1,0.7,1.5s-0.7,0.8-1.3,0.6c-0.4-0.1-0.3-0.3-0.2-0.6
				L224.4,184.3L224.4,184.3z M221.1,162.4c0.9,0.2,1.5,1.1,1.2,2c-0.2,0.9-1.1,1.5-2,1.2c-0.9-0.2-1.5-1.1-1.2-2
				C219.2,162.7,220.1,162.1,221.1,162.4z M213.1,130.2c1.3,0.3,2.1,1.6,1.7,2.9c-0.3,1.3-1.6,2.1-2.9,1.7c-1.3-0.3-2.1-1.6-1.7-2.9
				C210.4,130.7,211.8,129.9,213.1,130.2z M206.7,174.3c0.5,0.1,0.9,0.7,0.7,1.3c-0.1,0.5-0.7,0.9-1.3,0.7c-0.5-0.1-0.9-0.7-0.7-1.3
				C205.5,174.5,206.2,174.1,206.7,174.3z M239.1,169.8c0.5,0.1,0.7,0.5,0.6,1c-0.1,0.5-0.5,0.7-1,0.6c-0.5-0.1-0.7-0.5-0.6-1.1
				C238.2,169.9,238.7,169.7,239.1,169.8L239.1,169.8z M248.4,149.7c0.5-0.5,0.9-1.1,1.5-0.5c0.9,0.8,1.2,3.5,0.3,4.6
				c-1.1,1.2-2.8,1.4-4.1,0.2c-0.8-0.7-0.4-1.2,0.2-1.8L248.4,149.7z M253.6,139.9c-0.7,0.8-1.7,1.7-2.1,1.4c-0.5-0.5-0.9-2.8,0.2-4
				c1-1.1,2.6-1.8,3.9-0.7c0.7,0.6,0.1,1-0.6,1.8L253.6,139.9L253.6,139.9z M244.4,150.1c-0.5,0.5-1.1,1.4-1.9,0.6
				c-1.8-1.6-1.1-3.8-2.1-4.7c-0.5-0.5-4.7,2.5-5.3,3.1c-0.5,0.5,1.2,4.5,2.7,5.8c0.9,0.8,1.1,1.5,0.4,2.5c-0.5,0.6,0,0.8,0.5,1.4
				s0.9,1,1.5,0.4c0.5-0.6,1.2-0.9,1.8-0.4c3.2,2.8,8.1,2.5,11.5-1.5c3-3.4,2.8-7.3,0.5-11.3c-0.9-1.6-0.5-2.2,0.5-3.5l2.1-2.4
				c0.4-0.5,1.1-1.5,1.8-0.8c1.5,1.4,1.3,3.1,1.9,3.7c0.4,0.4,4.4-1.9,4.5-2.1c0.5-0.6-1.8-3.6-2.2-4.1c-0.7-0.9-1.7-1.6-1.1-2.4
				c0.4-0.5,0.6-0.6,0.1-1.1s-1.4-1.3-1.9-0.7c-0.6,0.7-1.1,0.5-1.6,0.2c-3.7-2.3-7.9-1.5-10.5,1.4c-2.6,3-2.3,6.6-0.5,10.1
				c1,1.7,0.6,2-0.6,3.4l-2.3,2.5L244.4,150.1z M203.7,153.4c-0.2-0.5-0.5-1,0.2-1.3c0.8-0.4,2.9,0.5,3.3,1.5
				c0.5,1.2-0.1,2.5-1.4,2.9c-0.8,0.3-0.9-0.2-1.2-0.7L203.7,153.4L203.7,153.4z M198.9,146.3c0.3,0.8,0.5,1.8,0.2,1.9
				c-0.5,0.2-2.3-0.4-2.7-1.6c-0.4-1.1-0.3-2.5,0.9-2.9c0.6-0.3,0.7,0.4,1,1.1L198.9,146.3L198.9,146.3z M202.6,156.3
				c0.2,0.5,0.5,1.3-0.3,1.5c-1.7,0.6-3-0.6-4-0.3c-0.5,0.2,0,4.1,0.2,4.7c0.2,0.5,3.5,0.7,5,0.2c0.9-0.4,1.5-0.3,1.8,0.6
				c0.3,0.5,0.6,0.3,1.1,0.1s1-0.3,0.8-0.9c-0.3-0.6-0.2-1.2,0.5-1.4c3.1-1.2,4.6-4.6,3.2-8.4c-1.2-3.3-4-4.5-7.5-4.5
				c-1.5,0-1.7-0.4-2.2-1.6l-0.9-2.4c-0.2-0.5-0.6-1.3,0.1-1.5c1.5-0.5,2.6,0.3,3.3,0c0.4-0.2,0.3-3.6,0.2-3.9
				c-0.3-0.6-3.2-0.1-3.6,0c-0.8,0.2-1.7,0.6-2-0.1c-0.2-0.4-0.2-0.6-0.7-0.5c-0.5,0.2-1.4,0.5-1.2,1.1c0.3,0.7,0,0.9-0.5,1.2
				c-2.9,1.7-3.9,4.9-2.8,7.7c1.1,2.9,3.7,4,6.7,4c1.5,0,1.6,0.3,2.1,1.6l0.9,2.5L202.6,156.3z M224.7,180.4
				c-0.1,0.4-0.3,0.8-0.5,0.7c-0.3-0.1-0.7-0.7-0.5-1.4c0.2-0.5,0.6-1,1.2-0.8c0.3,0.1,0.2,0.4,0.1,0.7L224.7,180.4L224.7,180.4z
				 M223.2,185c-0.1,0.3-0.2,0.6-0.5,0.5c-0.8-0.3-0.9-1.1-1.4-1.3c-0.2-0.1-1.2,1.5-1.3,1.7s1,1.3,1.7,1.5c0.5,0.1,0.5,0.4,0.5,0.7
				c-0.1,0.3,0.1,0.3,0.4,0.4c0.3,0.1,0.5,0.2,0.5-0.1c0.1-0.3,0.3-0.5,0.5-0.4c1.5,0.5,3-0.4,3.5-2.2c0.5-1.5-0.2-2.8-1.5-3.7
				c-0.5-0.5-0.5-0.6-0.4-1.2l0.4-1.1c0.1-0.2,0.2-0.6,0.5-0.5c0.7,0.2,0.8,0.8,1.2,0.9c0.2,0.1,1.1-1.3,1.2-1.4
				c0.1-0.3-1.1-0.9-1.4-1c-0.4-0.2-0.8-0.3-0.7-0.6c0.1-0.2,0.1-0.3-0.1-0.4s-0.6-0.2-0.7,0c-0.1,0.4-0.3,0.4-0.5,0.3
				c-1.5-0.2-2.8,0.6-3.2,2c-0.5,1.4,0.3,2.5,1.4,3.4c0.5,0.5,0.5,0.5,0.3,1.2l-0.4,1.2V185z"/>
		</g>
		<path class="st22" d="M110.3,323.1c-0.5-0.4-0.5-1-0.2-1.5c0.4-0.5,1-0.5,1.5-0.2c0,0,11.7,9.6,27.9,15.4c7,2.5,12.2,4.2,16.1,5.3
			c5.2,1.5,7.9,2,8.9,2c2.1,0,24.2-0.9,24.2-0.9c0.5,0,1.1,0.5,1.1,1s-0.5,1.1-1,1.1c-0.1,0-22.5,0.9-24.3,0.9
			c-1.2,0-4.1-0.5-9.5-2.1c-4-1.2-9.3-2.8-16.2-5.4C122.2,332.9,110.3,323.1,110.3,323.1L110.3,323.1z"/>
		<path class="st22" d="M114.9,305.8c-0.5-0.1-1-0.6-0.9-1.2c0.1-0.5,0.6-1,1.2-0.9c0.1,0,17.6,2.8,24.2,3.5
			c4.3,0.5,15.5,1,23.6,1.5c4.4,0.3,7.7,0.4,8.6,0.5c2.6,0.3,22.6,7.7,22.6,7.8c0.5,0.2,0.8,0.8,0.6,1.4s-0.8,0.8-1.4,0.6
			c-0.1,0-19.7-7.4-22.1-7.6c-0.8-0.1-4.2-0.3-8.5-0.5c-8.1-0.5-19.4-1-23.7-1.5C132.6,308.8,114.9,305.9,114.9,305.8L114.9,305.8z"
			/>
		<path class="st22" d="M120.1,287.1c-0.5,0.1-1.1-0.3-1.2-0.9c-0.1-0.5,0.3-1.1,0.9-1.2c0.1,0,43.4-6.4,50.2-6.3
			c6.8,0.2,19.6,3.8,19.6,3.8c0.5,0.2,0.9,0.7,0.7,1.3c-0.2,0.5-0.7,0.9-1.3,0.7c0,0-12.5-3.6-19.1-3.8
			C163.5,280.5,120.3,287,120.1,287.1L120.1,287.1z"/>
		<path class="st22" d="M116.8,353.4c-0.5-0.4-0.5-1.1-0.1-1.5c0.4-0.5,1.1-0.5,1.5-0.1c0.1,0.1,17.3,16.2,25,18.8
			c7.7,2.6,21.8,4.9,21.9,4.9c0.5,0.1,1,0.6,0.9,1.2s-0.6,1-1.2,0.9c0,0-14.3-2.3-22.3-5C134.6,369.7,116.9,353.3,116.8,353.4
			L116.8,353.4z"/>
		<path class="st22" d="M333.6,323.1c0.5-0.4,0.5-1,0.2-1.5c-0.4-0.5-1-0.5-1.5-0.2c0,0-11.7,9.6-27.9,15.4
			c-7,2.5-12.2,4.2-16.1,5.3c-5.2,1.5-7.9,2-8.9,2c-2.1,0-24.2-0.9-24.2-0.9c-0.5,0-1.1,0.5-1.1,1s0.5,1.1,1,1.1
			c0.1,0,22.5,0.9,24.3,0.9c1.2,0,4.1-0.5,9.5-2.1c4-1.2,9.3-2.8,16.2-5.4C321.7,332.9,333.7,323.1,333.6,323.1L333.6,323.1z"/>
		<path class="st22" d="M329.1,305.8c0.5-0.1,1-0.6,0.9-1.2c-0.1-0.5-0.6-1-1.2-0.9c-0.1,0-17.6,2.8-24.2,3.5
			c-4.3,0.5-15.5,1-23.6,1.5c-4.4,0.3-7.7,0.4-8.6,0.5c-2.6,0.3-22.6,7.7-22.6,7.8c-0.5,0.2-0.8,0.8-0.6,1.4s0.8,0.8,1.4,0.6
			c0.1,0,19.7-7.4,22.1-7.6c0.8-0.1,4.2-0.3,8.5-0.5c8.1-0.5,19.4-1,23.7-1.5C311.4,308.8,329.1,305.9,329.1,305.8L329.1,305.8z"/>
		<path class="st22" d="M323.9,287.1c0.5,0.1,1.1-0.3,1.2-0.9c0.1-0.5-0.3-1.1-0.9-1.2c-0.1,0-43.4-6.4-50.2-6.3s-19.6,3.8-19.6,3.8
			c-0.5,0.2-0.9,0.7-0.7,1.3c0.2,0.5,0.7,0.9,1.3,0.7c0,0,12.5-3.6,19.1-3.8S323.6,287,323.9,287.1L323.9,287.1z"/>
		<path class="st22" d="M327.1,353.4c0.5-0.4,0.5-1.1,0.1-1.5c-0.4-0.5-1.1-0.5-1.5-0.1c-0.1,0.1-17.3,16.2-25,18.8
			c-7.7,2.6-21.8,4.9-21.9,4.9c-0.5,0.1-1,0.6-0.9,1.2s0.6,1,1.2,0.9c0,0,14.3-2.3,22.3-5C309.3,369.7,327,353.3,327.1,353.4
			L327.1,353.4z"/>
		<path class="st19" d="M246.8,272.5v-13l-9.5,3.7v13C239.7,275.3,243,273.9,246.8,272.5L246.8,272.5z"/>
		<path class="st19" d="M251.7,248.6v18v4.1c3.2-1.2,6.4-2.4,9.5-3.5v-22.3L251.7,248.6z"/>
		<polygon class="st6" points="162.5,234.5 164.1,239.8 169.4,241.4 164.1,243 162.5,248.3 160.8,243 155.6,241.4 160.8,239.8 		"/>
		<path class="st8" d="M361.3,186.3l14-0.6c1.9-0.1,5-0.6,3.4-3.3c-2.4-3.8-4.8-7.2-7.4-10.4c-0.2,1.7-0.6,3.9-2,5.7
			c-2.3,3-8.4,7.6-10.1,8.9C359.5,186.5,360.2,186.4,361.3,186.3L361.3,186.3z"/>
		<path class="st8" d="M336.1,211.4c0,0-1.5,2.5-1.2,4.6c0.4,2.3,13.1,31.2,13.5,32.2c0.5,1,21.3-6.5,21.3-6.5l-0.5-9.4
			c0,0-5,2.4-10.4,0.1c-5.5-2.3-10.9-11-5.6-9.5c3.1,0.9,8.4,0.9,12.4,0.8c2,0,5.8-0.6,2.9-2.9c-2.5-2-6.4-4.9-10.7-8.4
			c-6.5-5.4-13-12.5-15.3-16.7c-0.7-1.3-1.1-2.3-0.9-2.8c0.8-2.2,6-3,5.5-4.3c-0.4-0.9-7.2-1.8-12.5-4.3c-2-0.9-3.8-2.1-5.1-3.5
			c-4.5-5.4-23.3-26.8-23.3-26.8c4.2,7.7,15.6,34.6,18.7,39.2c3.6,5.4,28,24.2,28.5,25.2C354,219.3,336.1,211.3,336.1,211.4
			L336.1,211.4z"/>
		<path class="st8" d="M384.4,260.1c-1.4-0.1-3-0.1-4.6,0.2c-2.9,0.4-7.4,1.6-10.9,2.8c3.5,1.5,7.1,3.8,9.4,7.2
			c3.5,5.3,9.4,19.3,12.4,34.1c2.7-1.2,6.4-2.8,10.2-4.5c-1.1-5.8,0.4-10.9,3.8-12c3-1,6.6,1.5,9.1,5.9c1.6-0.8,2.9-1.5,3.5-2
			c1.6-1.2,2.8-12.4,3.5-19.2c0.1-0.8,0.2-1.6,0.3-2.5c-3.5-12.2-7.4-25.1-10.1-33.6c-1.7-5.6-3-9.4-3.2-9.7
			c-0.9-1.8-6.2-5.5-17.5-22.4c0,0-14.8-5.4-17.3-6.2c-2.5-0.7-3.1-0.4,5.9,7.1c4.6,3.9,13.7,15.3,20.3,25.8
			c6.1,9.7,10.1,18.5,6.7,20c-7.1,2.9-21.8-5.9-21.8-5.9c3.4,3.6,6.8,8,9.6,12.9c9.1,15.8,7.4,19.9,7.4,19.9
			S392.4,266.6,384.4,260.1L384.4,260.1z"/>
		<path class="st1" d="M326.9,161.8c0,0,2.9-3,6.9-2.2c4.1,0.8,16,3.5,19.6,5.5c8.5,4.6,9.3,8.6,1.6,13.9
			c-5.2,3.6-14.6,1.9-19.2-1.7C332.7,174.7,323,165.7,326.9,161.8L326.9,161.8z"/>
		<path class="st1" d="M352.6,196.8c0,0,0.5,2.5,5.4,8.4s19,18.3,22.2,20.8s9.5,2.6,10.2,1.9c0.6-0.7-4.6-8.6-9.9-14.2
			c-5.3-5.5-16-17.9-18.3-19.2c-2.4-1.4-6.2-2.1-8.1-1.2C352.2,194.4,352.7,196.8,352.6,196.8L352.6,196.8z"/>
		<path class="st1" d="M306.2,132.6c-2.4-5.9,12.7-0.6,19,5c13.2,11.9,5.2,17.3-6.2,10.8C311.9,144.3,307.4,135.3,306.2,132.6z"/>
		<path class="st8" d="M58.5,333.4c-1.6-6.6-1.6-14.3-0.5-22.1c-2.7-1.2-6.9-3.1-11.3-5.1c-2.5,4.5-6.2,7.1-9.3,6.2
			c-3.5-1.1-5-6.4-3.7-12.3c-2.4-1.2-4.2-2.2-5.1-2.8c-0.5-0.4-1.1-0.9-1.5-1.6c-1.3-2-2.3-5.1-3-8.5c-2.1,8-3.3,13.9-2.8,15.2
			c0.7,1.9,3.1,8.1,5.8,14.7l0,0c2.5,2.5,5.9,5,10.5,7C42.6,326.2,50.5,329.8,58.5,333.4L58.5,333.4z"/>
		<path class="st1" d="M105.3,133.6c-1.5,2.4-2.9,5.2-4.3,7.7c-0.5,0.9-0.9,1.9-1.4,2.7c0,0,0.6-0.5,1.8-1.4c2.4-1.7,7-4.5,12.6-5.7
			c6.9-1.5,22-7.8,20.5-12.8c-0.3-1.1-1.4-2.1-3.4-2.9c-10.7,3.4-20.3,6.3-21.2,6.5C109.1,128.1,107.3,130.5,105.3,133.6
			L105.3,133.6z"/>
		<path class="st1" d="M105.3,154.6c-6.6,1.6-14.7,4.5-19.1,8.9c-4.1,4.2-7.2,8.9-10.7,15c0,0,12.3-3.8,21.3-5.9
			c5.7-1.4,9.4-3,12.6-5.3c1.8-1.3,3.5-2.8,5.3-4.5c4.7-4.6,10.8-11.1,1.4-10.3C116.1,152.6,111.3,153.1,105.3,154.6L105.3,154.6z"
			/>
		<path class="st1" d="M61.3,201.8c-5.9,8.9-15.6,20-18.5,23.9c0.1,3.4,0.7,6.5,2.2,8.1c0.5,0.6,1.3,1,2.1,1c2,0,3.5-1.6,5.3-4.4
			c2.1-3.2,4.7-8,9.6-13.8c6.2-7.4,14.2-13.8,18.2-17.3c3.6-3.2-4.4-1.5-5.1-1.3c-6.1,1.5-13.5,3.7-13.5,3.7h-0.3V201.8z"/>
	</g>
</g>
<path class="st5" d="M250.3,502.9C250.3,502.9,250.3,502.9,250.3,502.9c0-0.6-0.2-1.2-0.6-1.6c0,0,0,0-0.1-0.1c0,0-0.1-0.1-0.1-0.1
	c0,0-0.1-0.1-0.1-0.1c0,0,0,0-0.1,0l-23-13.3c-0.1,0-0.1-0.1-0.2-0.1c-0.3-0.2-0.7-0.2-1.1-0.2c-0.2,0-0.4,0.1-0.6,0.1
	c-0.1,0-0.3,0.1-0.4,0.2L201,501c0,0,0,0-0.1,0c0,0,0,0-0.1,0c0,0,0,0,0,0c0,0-0.1,0.1-0.1,0.1c0,0-0.1,0-0.1,0.1
	c-0.1,0-0.1,0.1-0.2,0.2c0,0,0,0,0,0c-0.3,0.4-0.5,0.9-0.5,1.4c0,0,0,0,0,0c0,0,0,0,0,0.1l0,26.5c0,0.8,0.5,1.5,1.1,1.9l23,13.3
	c0,0,0,0,0.1,0c0,0,0.1,0,0.1,0.1c0,0,0.1,0,0.1,0c0.1,0,0.1,0,0.2,0.1c0,0,0.1,0,0.1,0c0.1,0,0.1,0,0.2,0c0,0,0.1,0,0.1,0
	c0.1,0,0.2,0,0.3,0s0.2,0,0.3,0c0,0,0.1,0,0.1,0c0.1,0,0.1,0,0.2,0c0,0,0.1,0,0.1,0c0.1,0,0.1,0,0.2-0.1c0,0,0.1,0,0.1,0
	c0,0,0.1,0,0.1-0.1c0,0,0,0,0.1,0l23-13.3c0.7-0.4,1.1-1.1,1.1-1.9L250.3,502.9C250.4,502.9,250.3,502.9,250.3,502.9z M209,502
	l15.7-9c0.3-0.2,0.7-0.2,1,0l15.7,9c0.7,0.4,0.7,1.4,0,1.7l-15.7,9c-0.3,0.2-0.7,0.2-1,0l-15.7-9C208.3,503.3,208.3,502.4,209,502z
	 M222.4,536.4c0,0.8-0.8,1.3-1.5,0.9l-15.6-9c-0.3-0.2-0.5-0.5-0.5-0.9v-18.1c0-0.8,0.8-1.3,1.5-0.9l15.6,9c0.3,0.2,0.5,0.5,0.5,0.9
	V536.4z M245.5,527.3c0,0.4-0.2,0.7-0.5,0.9l-15.6,9c-0.7,0.4-1.5-0.1-1.5-0.9v-18.1c0-0.4,0.2-0.7,0.5-0.9l15.6-9
	c0.7-0.4,1.5,0.1,1.5,0.9V527.3z"/>
</svg>
