<?xml version="1.0" encoding="UTF-8"?>
<svg width="24px" height="24px" viewBox="0 0 24 24" version="1.1" xmlns="http://www.w3.org/2000/svg" xmlns:xlink="http://www.w3.org/1999/xlink">
    <!-- Generator: Sketch 59.1 (86144) - https://sketch.com -->
    <title>ic-rootblood</title>
    <desc>Created with Sketch.</desc>
    <g id="ic-rootblood" stroke="none" stroke-width="1" fill="none" fill-rule="evenodd" stroke-linecap="round">
        <g id="Group-41-Copy" transform="translate(3.000000, 1.000000)">
            <g id="Group" stroke="#FF2F3E" stroke-linejoin="round" stroke-width="1.5">
                <g id="Light">
                    <path d="M7.20689655,19.0802586 C6.07956299,19.0832962 4.99683065,18.6401123 4.19517241,17.8475" id="Shape"></path>
                    <path d="M8.75637931,2.23413793 C8.28224138,1.43568966 7.88681034,0.773793103 7.61181034,0.321465517 C7.5257538,0.180208357 7.37230306,0.0940087525 7.20689655,0.0940087525 C7.04149004,0.0940087525 6.8880393,0.180208357 6.80198276,0.321465517 C5.29517241,2.79077586 0.0948275862,11.5063793 0.0948275862,14.8424138 C0.0948275862,18.770301 3.27900936,21.9544827 7.20689655,21.9544827 C11.1347837,21.9544827 14.3189655,18.770301 14.3189655,14.8424138 C14.3173252,14.6200823 14.2989398,14.3981902 14.2639655,14.1786207" id="Shape"></path>
                </g>
            </g>
            <g id="Group-34" transform="translate(9.767241, 3.951149)" stroke="#FFFFFF">
                <g id="Group-32" transform="translate(2.133621, 0.000000)">
                    <line x1="0.213362069" y1="0.216748768" x2="0.213362069" y2="6.71921182" id="Line"></line>
                    <line x1="2.7737069" y1="0.216748768" x2="2.7737069" y2="6.71921182" id="Line-Copy"></line>
                </g>
                <g id="Group-31" transform="translate(3.822737, 3.127335) rotate(-90.000000) translate(-3.822737, -3.127335) translate(1.989404, -0.539332)">
                    <line x1="0.213362069" y1="0.216748768" x2="0.213362069" y2="6.71921182" id="Line"></line>
                    <line x1="2.7737069" y1="0.216748768" x2="2.7737069" y2="6.71921182" id="Line-Copy"></line>
                </g>
            </g>
        </g>
    </g>
</svg>