<svg xmlns="http://www.w3.org/2000/svg" xmlns:xlink="http://www.w3.org/1999/xlink" viewBox="0 0 300 300" width="300" height="300" preserveAspectRatio="xMidYMid meet" style="width: 100%; height: 100%; transform: translate3d(0px, 0px, 0px); content-visibility: visible;"><defs><clipPath id="__lottie_element_52"><rect width="300" height="300" x="0" y="0"></rect></clipPath></defs><g clip-path="url(#__lottie_element_52)"><g transform="matrix(1,0,0,1,126.99299621582031,108.58799743652344)" opacity="1" style="display: block;"><g opacity="1" transform="matrix(1,0,0,1,0,0)"><path stroke-linecap="round" stroke-linejoin="round" fill-opacity="0" stroke="rgb(255,255,255)" stroke-opacity="1" stroke-width="7.362" d=" M-27.666234970092773,34.44432067871094 C-27.666234970092773,34.44432067871094 -27.607999801635742,0 -27.607999801635742,0 C-27.607999801635742,-15.248000144958496 -15.248000144958496,-27.607999801635742 0,-27.607999801635742 C0,-27.607999801635742 27.607999801635742,-27.607999801635742 27.607999801635742,-27.607999801635742"></path></g></g><g transform="matrix(1,0,0,1,99.38500213623047,137.6272735595703)" opacity="1" style="display: block;"><g opacity="1" transform="matrix(1,0,0,1,0,0)"><path stroke-linecap="round" stroke-linejoin="round" fill-opacity="0" stroke="rgb(255,255,255)" stroke-opacity="1" stroke-width="7.362" d=" M18.405000686645508,-9.20300006866455 C18.405000686645508,-9.20300006866455 0,9.20300006866455 0,9.20300006866455 C0,9.20300006866455 -18.405000686645508,-9.20300006866455 -18.405000686645508,-9.20300006866455"></path></g></g><g transform="matrix(1,0,0,1,0,0)" opacity="1" style="display: block;"><g opacity="1" transform="matrix(1,0,0,1,200.61500549316406,80.9800033569336)"><path stroke-linecap="round" stroke-linejoin="round" fill-opacity="0" stroke="rgb(255,255,255)" stroke-opacity="1" stroke-width="7.362" d=" M-55.215999603271484,18.405000686645508 C-55.215999603271484,18.405000686645508 -55.215999603271484,23.006999969482422 -55.215999603271484,23.006999969482422 C-55.215999603271484,30.631000518798828 -49.0359992980957,36.81100082397461 -41.4119987487793,36.81100082397461 C-41.4119987487793,36.81100082397461 41.4119987487793,36.81100082397461 41.4119987487793,36.81100082397461 C49.0359992980957,36.81100082397461 55.215999603271484,30.631000518798828 55.215999603271484,23.006999969482422 C55.215999603271484,23.006999969482422 55.215999603271484,-23.006999969482422 55.215999603271484,-23.006999969482422 C55.215999603271484,-30.631000518798828 49.0359992980957,-36.81100082397461 41.4119987487793,-36.81100082397461 C41.4119987487793,-36.81100082397461 -41.4119987487793,-36.81100082397461 -41.4119987487793,-36.81100082397461 C-49.0359992980957,-36.81100082397461 -55.215999603271484,-30.631000518798828 -55.215999603271484,-23.006999969482422 C-55.215999603271484,-23.006999969482422 -55.215999603271484,-18.405000686645508 -55.215999603271484,-18.405000686645508"></path></g><g opacity="1" transform="matrix(1,0,0,1,200.61500549316406,99.38500213623047)"><path stroke-linecap="round" stroke-linejoin="round" fill-opacity="0" stroke="rgb(255,255,255)" stroke-opacity="1" stroke-width="7.362" d=" M-55.215999603271484,0 C-55.215999603271484,0 55.215999603271484,0 55.215999603271484,0"></path></g><g opacity="1" transform="matrix(1,0,0,1,200.61500549316406,136.1959991455078)"><path stroke-linecap="round" stroke-linejoin="round" fill-opacity="0" stroke="rgb(255,255,255)" stroke-opacity="1" stroke-width="7.362" d=" M-18.405000686645508,0 C-18.405000686645508,0 18.405000686645508,0 18.405000686645508,0"></path></g><g opacity="1" transform="matrix(1,0,0,1,200.61500549316406,126.99299621582031)"><path stroke-linecap="round" stroke-linejoin="round" fill-opacity="0" stroke="rgb(255,255,255)" stroke-opacity="1" stroke-width="7.362" d=" M0,-9.20300006866455 C0,-9.20300006866455 0,9.20300006866455 0,9.20300006866455"></path></g></g><g transform="matrix(1,0,0,1,0,5.063934326171875)" opacity="1" style="display: block;"><g opacity="1" transform="matrix(1,0,0,1,99.38500213623047,171.8560028076172)"><path stroke-linecap="round" stroke-linejoin="round" fill-opacity="0" stroke="rgb(255,175,0)" stroke-opacity="1" stroke-width="7.362" d=" M27.607999801635742,-24.156999588012695 C27.607999801635742,-24.156999588012695 41.4119987487793,-16.104999542236328 41.4119987487793,-16.104999542236328 C41.4119987487793,-16.104999542236328 55.215999603271484,-8.052000045776367 55.215999603271484,-8.052000045776367 C55.215999603271484,-8.052000045776367 0,24.156999588012695 0,24.156999588012695 C0,24.156999588012695 -55.215999603271484,-8.052000045776367 -55.215999603271484,-8.052000045776367 C-55.215999603271484,-8.052000045776367 -41.4119987487793,-16.104999542236328 -41.4119987487793,-16.104999542236328 C-41.4119987487793,-16.104999542236328 -27.607999801635742,-24.156999588012695 -27.607999801635742,-24.156999588012695"></path></g><g opacity="1" transform="matrix(1,0,0,1,99.38500213623047,209.8179931640625)"><path stroke-linecap="round" stroke-linejoin="round" fill-opacity="0" stroke="rgb(255,175,0)" stroke-opacity="1" stroke-width="7.362" d=" M-55.215999603271484,-46.01300048828125 C-55.215999603271484,-46.01300048828125 -55.215999603271484,13.803999900817871 -55.215999603271484,13.803999900817871 C-55.215999603271484,13.803999900817871 0,46.01300048828125 0,46.01300048828125 C0,46.01300048828125 55.215999603271484,13.803999900817871 55.215999603271484,13.803999900817871 C55.215999603271484,13.803999900817871 55.215999603271484,-46.01300048828125 55.215999603271484,-46.01300048828125"></path></g><g opacity="1" transform="matrix(1,0,0,1,99.38500213623047,225.9219970703125)"><path stroke-linecap="round" stroke-linejoin="round" fill-opacity="0" stroke="rgb(255,175,0)" stroke-opacity="1" stroke-width="7.362" d=" M0,-29.909000396728516 C0,-29.909000396728516 0,29.909000396728516 0,29.909000396728516"></path></g></g></g></svg>