<svg xmlns="http://www.w3.org/2000/svg" xmlns:xlink="http://www.w3.org/1999/xlink" viewBox="0 0 300 300" width="300" height="300" preserveAspectRatio="xMidYMid meet" style="width: 100%; height: 100%; transform: translate3d(0px, 0px, 0px); content-visibility: visible;"><defs><clipPath id="__lottie_element_66"><rect width="300" height="300" x="0" y="0"></rect></clipPath></defs><g clip-path="url(#__lottie_element_66)"><g transform="matrix(1,0,0,1,149.83299255371094,81.78270721435547)" opacity="1" style="display: block;"><g opacity="1" transform="matrix(1,0,0,1,0,0)"><path stroke-linecap="butt" stroke-linejoin="miter" fill-opacity="0" stroke-miterlimit="4" stroke="rgb(255,255,255)" stroke-opacity="1" stroke-width="7.384" d=" M79.99400329589844,13.274999618530273 C79.83599853515625,4.099999904632568 75.90899658203125,-4.617000102996826 69.11299896240234,-10.869999885559082 C62.31700134277344,-17.12299919128418 53.2400016784668,-20.37299919128418 43.96900177001953,-19.874000549316406 C35.64500045776367,-36.305999755859375 18.593000411987305,-46.632999420166016 0,-46.50299835205078 C-25.31399917602539,-46.86399841308594 -46.558998107910156,-27.73200035095215 -48.54199981689453,-2.7880001068115234 C-56.09600067138672,-4.440000057220459 -64.00299835205078,-2.6630001068115234 -70.09200286865234,2.055000066757202 C-76.18099975585938,6.7729997634887695 -79.81400299072266,13.9350004196167 -79.99400329589844,21.579999923706055 C-79.99400329589844,46.89799880981445 -52.17499923706055,46.507999420166016 -52.17499923706055,46.507999420166016 C-52.17499923706055,46.507999420166016 48.69300079345703,46.507999420166016 48.69300079345703,46.507999420166016 C48.69300079345703,46.507999420166016 79.99400329589844,42.59199905395508 79.99400329589844,13.274999618530273z"></path></g></g><g transform="matrix(1,0,0,1,149.83299255371094,233.32699584960938)" opacity="1" style="display: block;"><g opacity="1" transform="matrix(1,0,0,1,0,0)"><path stroke-linecap="butt" stroke-linejoin="miter" fill-opacity="0" stroke-miterlimit="4" stroke="rgb(255,175,0)" stroke-opacity="1" stroke-width="7.384" d=" M79.99400329589844,9.673999786376953 C79.99400329589844,17.687999725341797 73.67400360107422,24.18400001525879 65.87799835205078,24.18400001525879 C65.87799835205078,24.18400001525879 -65.87799835205078,24.18400001525879 -65.87799835205078,24.18400001525879 C-73.67400360107422,24.18400001525879 -79.99400329589844,17.687999725341797 -79.99400329589844,9.673999786376953 C-79.99400329589844,9.673999786376953 -79.99400329589844,-9.673999786376953 -79.99400329589844,-9.673999786376953 C-79.99400329589844,-17.687999725341797 -73.67400360107422,-24.18400001525879 -65.87799835205078,-24.18400001525879 C-65.87799835205078,-24.18400001525879 65.87799835205078,-24.18400001525879 65.87799835205078,-24.18400001525879 C73.67400360107422,-24.18400001525879 79.99400329589844,-17.687999725341797 79.99400329589844,-9.673999786376953 C79.99400329589844,-9.673999786376953 79.99400329589844,9.673999786376953 79.99400329589844,9.673999786376953z"></path></g></g><g transform="matrix(1,0,0,1,149.83299255371094,184.95899963378906)" opacity="1" style="display: block;"><g opacity="1" transform="matrix(1,0,0,1,0,0)"><path stroke-linecap="butt" stroke-linejoin="miter" fill-opacity="0" stroke-miterlimit="4" stroke="rgb(255,175,0)" stroke-opacity="1" stroke-width="7.384" d=" M79.99400329589844,9.673999786376953 C79.99400329589844,17.687999725341797 73.67400360107422,24.18400001525879 65.87799835205078,24.18400001525879 C65.87799835205078,24.18400001525879 -65.87799835205078,24.18400001525879 -65.87799835205078,24.18400001525879 C-73.67400360107422,24.18400001525879 -79.99400329589844,17.687999725341797 -79.99400329589844,9.673999786376953 C-79.99400329589844,9.673999786376953 -79.99400329589844,-9.673999786376953 -79.99400329589844,-9.673999786376953 C-79.99400329589844,-17.687999725341797 -73.67400360107422,-24.18400001525879 -65.87799835205078,-24.18400001525879 C-65.87799835205078,-24.18400001525879 65.87799835205078,-24.18400001525879 65.87799835205078,-24.18400001525879 C73.67400360107422,-24.18400001525879 79.99400329589844,-17.687999725341797 79.99400329589844,-9.673999786376953 C79.99400329589844,-9.673999786376953 79.99400329589844,9.673999786376953 79.99400329589844,9.673999786376953z"></path></g></g><g transform="matrix(1,0,0,1,123.78900146484375,233.32699584960938)" opacity="1" style="display: block;"><g opacity="1" transform="matrix(1,0,0,1,0,0)"><path stroke-linecap="butt" stroke-linejoin="miter" fill-opacity="0" stroke-miterlimit="4" stroke="rgb(255,175,0)" stroke-opacity="1" stroke-width="7.384" d=" M0,-2.7899999618530273 C-1.5399999618530273,-2.7899999618530273 -2.7880001068115234,-1.5440000295639038 -2.7899999618530273,-0.004000000189989805 C-2.7920000553131104,1.5360000133514404 -1.5470000505447388,2.7860000133514404 -0.007000000216066837,2.7899999618530273 C1.5329999923706055,2.7939999103546143 2.7839999198913574,1.5509999990463257 2.7899999618530273,0.010999999940395355 C2.7929999828338623,-0.7300000190734863 2.5,-1.440999984741211 1.9759999513626099,-1.965000033378601 C1.4520000219345093,-2.489000082015991 0.7409999966621399,-2.7820000648498535 0,-2.7790000438690186 C0,-2.7790000438690186 0,-2.7790000438690186 0,-2.7790000438690186"></path></g></g><g transform="matrix(1,0,0,1,101.46499633789062,233.32699584960938)" opacity="1" style="display: block;"><g opacity="1" transform="matrix(1,0,0,1,0,0)"><path stroke-linecap="butt" stroke-linejoin="miter" fill-opacity="0" stroke-miterlimit="4" stroke="rgb(255,175,0)" stroke-opacity="1" stroke-width="7.384" d=" M0,-2.7899999618530273 C-1.5399999618530273,-2.7899999618530273 -2.7880001068115234,-1.5440000295639038 -2.7899999618530273,-0.004000000189989805 C-2.7920000553131104,1.5360000133514404 -1.5470000505447388,2.7860000133514404 -0.007000000216066837,2.7899999618530273 C1.5329999923706055,2.7939999103546143 2.7839999198913574,1.5509999990463257 2.7899999618530273,0.010999999940395355 C2.7929999828338623,-0.7300000190734863 2.5,-1.440999984741211 1.9759999513626099,-1.965000033378601 C1.4520000219345093,-2.489000082015991 0.7409999966621399,-2.7820000648498535 0,-2.7790000438690186 C0,-2.7790000438690186 0,-2.7790000438690186 0,-2.7790000438690186"></path></g></g><g transform="matrix(1,0,0,1,123.78900146484375,184.95899963378906)" opacity="1" style="display: block;"><g opacity="1" transform="matrix(1,0,0,1,0,0)"><path stroke-linecap="butt" stroke-linejoin="miter" fill-opacity="0" stroke-miterlimit="4" stroke="rgb(255,175,0)" stroke-opacity="1" stroke-width="7.384" d=" M0,-2.7899999618530273 C-1.5399999618530273,-2.7899999618530273 -2.7880001068115234,-1.5440000295639038 -2.7899999618530273,-0.004000000189989805 C-2.7920000553131104,1.5360000133514404 -1.5470000505447388,2.7860000133514404 -0.007000000216066837,2.7899999618530273 C1.5329999923706055,2.7939999103546143 2.7839999198913574,1.5509999990463257 2.7899999618530273,0.010999999940395355 C2.7929999828338623,-0.7300000190734863 2.5,-1.440999984741211 1.9759999513626099,-1.965000033378601 C1.4520000219345093,-2.489000082015991 0.7409999966621399,-2.7820000648498535 0,-2.7790000438690186 C0,-2.7790000438690186 0,-2.7790000438690186 0,-2.7790000438690186"></path></g></g><g transform="matrix(1,0,0,1,101.46499633789062,184.95899963378906)" opacity="1" style="display: block;"><g opacity="1" transform="matrix(1,0,0,1,0,0)"><path stroke-linecap="butt" stroke-linejoin="miter" fill-opacity="0" stroke-miterlimit="4" stroke="rgb(255,175,0)" stroke-opacity="1" stroke-width="7.384" d=" M0,-2.7899999618530273 C-1.5399999618530273,-2.7899999618530273 -2.7880001068115234,-1.5440000295639038 -2.7899999618530273,-0.004000000189989805 C-2.7920000553131104,1.5360000133514404 -1.5470000505447388,2.7860000133514404 -0.007000000216066837,2.7899999618530273 C1.5329999923706055,2.7939999103546143 2.7839999198913574,1.5509999990463257 2.7899999618530273,0.010999999940395355 C2.7929999828338623,-0.7300000190734863 2.5,-1.440999984741211 1.9759999513626099,-1.965000033378601 C1.4520000219345093,-2.489000082015991 0.7409999966621399,-2.7820000648498535 0,-2.7790000438690186 C0,-2.7790000438690186 0,-2.7790000438690186 0,-2.7790000438690186"></path></g></g></g></svg>