<svg version="1.1" id="Layer_1" xmlns="http://www.w3.org/2000/svg" xmlns:xlink="http://www.w3.org/1999/xlink" x="0" y="0" viewBox="0 0 530.4 580" style="enable-background:new 0 0 530.4 580" xml:space="preserve"><style>.st1,.st2{fill-rule:evenodd;clip-rule:evenodd;fill:#111927}.st2{fill:#08f39f}.st10,.st11,.st3,.st4,.st5,.st7,.st8{fill-rule:evenodd;clip-rule:evenodd;fill:#03a76c}.st10,.st11,.st4,.st5,.st7,.st8{fill:#799285}.st10,.st11,.st5,.st7,.st8{fill:#363636}.st10,.st11,.st7,.st8{fill:#daece4}.st10,.st11,.st8{fill:#be8a24}.st10,.st11{fill:#d58e03}.st11{fill:#f3e930}.st13,.st14,.st15,.st16,.st17,.st18{fill-rule:evenodd;clip-rule:evenodd;fill:#b9d5c9}.st14,.st15,.st16,.st17,.st18{fill:#fff}.st15,.st16,.st17,.st18{fill:#08a46e}.st16,.st17,.st18{fill:#b3d8c7}.st17,.st18{fill:#167553}.st18{fill:#088ab8}.st20,.st21,.st22,.st25,.st26,.st28{fill-rule:evenodd;clip-rule:evenodd;fill:#0cd9f1}.st21,.st22,.st25,.st26,.st28{fill:#147854}.st22,.st25,.st26,.st28{fill:#ffc759}.st25,.st26,.st28{fill:#a1f4fa}.st26,.st28{fill:#6ba68d}.st28{fill:#98ffff}.st29,.st31,.st32,.st36,.st37,.st47{fill-rule:evenodd;clip-rule:evenodd;fill:#7b9688}.st31,.st32,.st36,.st37,.st47{fill:#8ba59c}.st32,.st36,.st37,.st47{fill:#b5d7c7}.st36,.st37,.st47{fill:#0bc4e2}.st37,.st47{fill:#98fcff}.st47{fill:#ffe3ac}</style><path d="M518.7 259.4c-3.9-10-11.1-17.8-20.8-22.5-2.4-1.1-4.8-2-7.4-2.7-9.7-2.7-20.1-2-29.8.5-3.8 1-8.2 2.4-11.9 4.1-.6-1.3-1.3-2.5-1.9-3.6l-2.4-4.2c.7-.6 1.3-1.5 1.7-2.4 3.8 1.3 7.8 2 11.8 2 19.6 0 35.5-15.9 35.5-35.5s-15.9-35.5-35.5-35.5c-6.1 0-12.1 1.6-17.5 4.6-.6-.1-1.6-.5-2-.7-1.9-.8-3.9-1.8-5.6-2.9-3.6-2.3-10.1-7.4-12.5-10.9-.4-.6-.7-1.3-.9-2-.3-1.5-.1-3.3 0-4.9.2-2.4.5-4.6.3-7.1-.2-3.1-1.3-6-3.1-8.5-.6-.9-1.5-1.8-2.3-2.6-2-9.7-7-17.9-14.9-24-2.4-1.9-5.8-3.9-8.9-5.3 3.3-3.6 7.4-9 6.5-13.3-.6-3-3.8-5-6.8-4.1-1.6.5-3 1.6-3.6 3.1.3-6.7-1.6-14.6-6-19-2-2-4.4-3.3-7.2-3.8-5.3-1.1-10.5 0-15 3-1.4.9-2.9 2.1-4.2 3.4-3.6-3-9.5-4.6-14.1-5.2-1.5-4.8-4.7-8.4-9.4-10.5-1.8-.8-4.2-1.6-6.3-1.8-2.6-3.9-7.6-6.7-11.9-7.9-8.1-2.2-16.4-.1-23.5 4.1-7.1 4.2-13.1 10-17.2 17.2-1.2 2.2-2.6 5.1-3.3 7.7l-3.2-.5-3.2.5c-.8-2.6-2.1-5.6-3.3-7.7-4.1-7.2-10.1-13-17.2-17.2-7.1-4.2-15.4-6.3-23.5-4.1-4.3 1.2-9.4 4-11.9 7.9-2.1.2-4.5 1-6.3 1.8-4.6 2.1-7.9 5.7-9.4 10.5-4.6.6-10.5 2.2-14.1 5.2-1.3-1.3-2.8-2.5-4.2-3.4-4.5-2.9-9.7-4-15-3-6.8 1.4-10.5 6.9-12.2 13.2-.7 2.9-1.1 6.4-1 9.6-.6-1.5-2-2.7-3.6-3.1-2.9-.8-6.1 1.1-6.8 4.1-.9 4.4 3.2 9.7 6.5 13.3-3.2 1.4-6.5 3.4-8.9 5.3-7.9 6.1-12.9 14.3-14.9 24-.9.8-1.7 1.7-2.3 2.6-1.8 2.5-2.9 5.4-3.1 8.5-.1 2.4.1 4.7.3 7.1.2 1.5.4 3.3 0 4.9-.2.7-.4 1.4-.9 2-2.4 3.5-8.9 8.6-12.5 10.9-1.7 1.1-3.7 2.1-5.6 2.9-.4.2-1.4.5-2 .7-5.3-3-11.3-4.6-17.5-4.6-19.6 0-35.5 15.9-35.5 35.5s15.9 35.5 35.5 35.5c4 0 8-.7 11.8-2 .4.9 1 1.8 1.7 2.4l-2.4 4.2c-.6 1.1-1.3 2.4-1.9 3.6-3.7-1.7-8.1-3.1-11.9-4.1-9.7-2.5-20.1-3.1-29.8-.5-2.5.7-5 1.6-7.4 2.7-9.8 4.6-16.9 12.4-20.8 22.5-5.2 13.3-4.2 28.6-1.1 42.3l.6 2.6 2.2-1.5c.6-.5 1.7-.9 2.5-1.1 2.5-.8 5.3-.9 7.9-.7 11.9 1.1 24 10.5 32.3 18.5l4.1 3.9-1.1-5.6c-.6-2.7-1-5.5-1.5-8.3-1-6-1.8-12-2.3-18-.4-5-.8-11.6-.1-17.1 5.2 6.1 11.1 15.1 11.9 22.1.6 4.5.7 7.6-.9 11.8-.8 2.2-1.4 3.9-1.6 6.3-.6 6 2.1 12.3 7.1 15.8.8.6 1.6 1.3 2.3 1.9 1.3 1.1 2.6 2.2 3.9 3.4 3.5 2.9 7.1 5.8 10.9 8.3 1.2.8 2.4 1.5 3.6 2.2l-1 5.8h-6.4c-5.4 0-9.7 3.7-12 8.3-10 19.9-20.8 39.4-30.8 59.3-1.3 2.6-3 6.4-1.2 9.1 1.8 2.8 6.1 3 9 3h23.8V454l.1.3c.2.8.6 1.6 1.2 2.3 1.3 1.6 3.2 2.3 5.1 2.9 2.8.9 5.6 1.7 8.5 2.7l66.1 23.1c.6.2 2.3.7 2.9 1 .3.6.6 2.1.8 2.7l3.3 10.4v.1c1.4 3.6 1.8 3.2 5.1 4.8h.1l89.2 35.9c2.7 1.1 5.9 2.5 8.8 2.4h.2c2.8 0 6.1-1.4 8.8-2.4l89.2-35.9h.1c3.3-1.6 3.6-1.2 5.1-4.8v-.1L372 489c.2-.6.5-2.1.8-2.7.6-.3 2.3-.8 2.9-1l66.1-23.1c2.8-1 5.6-1.8 8.5-2.7 1.9-.6 3.8-1.3 5.1-2.9.5-.7.9-1.4 1.2-2.3l.1-.3v-22.3h23.8c3 0 7.3-.1 9-3 1.8-2.8.1-6.5-1.2-9.1-10-19.9-20.9-39.3-30.8-59.3-2.3-4.6-6.6-8.3-12-8.3h-6.4l-1-5.8c1.2-.7 2.4-1.5 3.6-2.2 3.8-2.5 7.4-5.4 10.9-8.3 1.3-1.1 2.6-2.2 3.9-3.4.7-.6 1.5-1.4 2.3-1.9 5-3.5 7.7-9.8 7.1-15.8-.2-2.4-.8-4.1-1.6-6.3-1.6-4.2-1.5-7.3-.9-11.8.9-7 6.8-16 11.9-22.1.7 5.5.3 12.1-.1 17.1-.5 6-1.3 12.1-2.3 18-.5 2.8-.9 5.5-1.5 8.3l-1.1 5.6 4.1-3.9c8.3-7.9 20.4-17.3 32.3-18.5 2.6-.3 5.4-.1 7.9.7.7.2 1.8.7 2.5 1.1l2.2 1.5.6-2.6c3-13.7 4-29-1.2-42.3z" style="fill-rule:evenodd;clip-rule:evenodd;fill:#08f39f;stroke:#08f39f;stroke-width:14;stroke-linecap:round;stroke-linejoin:round;stroke-miterlimit:10"/><path class="st1" d="M89.9 459.9 156 483c4.8 1.7 3.8.9 5.2 5.3l3.2 10.3c1.1 2.7.8 2.1 3.9 3.5l89.1 35.8c4.6 1.9 6.3 2.3 7.9 2.3h.4c1.7 0 3.3-.4 7.9-2.3l89.1-35.8c3.1-1.5 2.8-.8 3.9-3.5l3.2-10.3c1.4-4.4.4-3.6 5.2-5.3l66.1-23.1c9.2-3.3 12.2-3 13.2-6.3v-24.3h26.2c7.5 0 9.1-1.8 5.7-8.6-9.6-19-21.6-40.8-30.8-59.3-1.9-3.8-5.4-7-9.9-7h-8.4l-10.2-57.2H104.2L94 354.4h-8.4c-4.5 0-8 3.2-9.9 7-9.2 18.4-21.3 40.2-30.8 59.3-3.4 6.8-1.8 8.6 5.7 8.6h26.2v24.3c.9 3.2 3.9 3 13.1 6.3z"/><path class="st2" d="M333.3 428.6h14.8v14.6h-14.8zM313 436.3h10.3v10.1H313z"/><path class="st3" d="M331.2 453h7.4v7.3h-7.4zM360.7 433.3h8.8v8.7h-8.8z"/><path class="st2" d="M388.3 429.5h6.3v6.2h-6.3zM313 463.7h7.4v7.3H313zM182.8 428.6h14.8v14.6h-14.8z"/><path class="st3" d="M207.6 436.3h10.3v10.1h-10.3zM192.3 453h7.4v7.3h-7.4zM161.3 433.3h8.8v8.7h-8.8z"/><path class="st2" d="M136.3 429.5h6.3v6.2h-6.3zM210.5 463.7h7.4v7.3h-7.4zM196.1 349.2c0 1.9-1.1 2.9-3.3 2.9h-8.9v6.2h-3.4v-16.1h12.3c2.2 0 3.3.9 3.3 2.8v4.2zm-3.2-1.3v-1.7c0-.9-.3-1.3-1-1.3h-8.1v4.3h8.1c.7 0 1-.4 1-1.3zm25.7 10.4h-4.3l-5.4-6.1h-3.1v6.1h-3.4v-16H215c2.2 0 3.3.9 3.3 2.8v4.4c0 1.4-.6 2.3-1.7 2.8h-3.5l5.5 6zm-3.7-10.1v-1.9c0-.8-.3-1.3-1-1.3h-8.2v4.5h8.2c.7 0 1-.5 1-1.3zm28.7 6.3c0 1.5-.3 2.5-.8 3s-1.5.8-2.9.8h-10.8c-1.4 0-2.3-.3-2.9-.8-.5-.5-.8-1.5-.8-3V346c0-1.5.3-2.5.8-3s1.5-.8 2.9-.8H240c1.4 0 2.3.3 2.9.8.5.5.8 1.5.8 3v8.5h-.1zm-3.4.7v-10.1H229v10.1h11.2zm42.4 3.1h-14.7v-16.1h3.4v13h11.3v3.1zm22.3 0h-3.3l-1.9-3.5h-9.5l-1.8 3.5H285l8.3-16.1h3.3l8.3 16.1zm-6.7-6.5-3.3-6.5-3.3 6.5h6.6zm27.8 3.3c0 2.1-1.4 3.2-4.3 3.2h-11.1v-16.1h12c2.2 0 3.3 1 3.3 3.1v2c0 1.6-.8 2.5-2.5 2.7 1.8.3 2.6 1.3 2.6 3.1v2zm-3.3-7.7v-1.8c0-.6-.5-.8-1.6-.8h-7.4v3.8h7.4c1.1 0 1.6-.4 1.6-1.2zm.1 6.8v-1.4c0-.6-.1-1-.4-1.2-.3-.2-.7-.3-1.3-.3h-7.4v4h7.4c.6 0 1-.1 1.3-.3.3-.1.4-.4.4-.8zm27.6.3c0 1.5-.3 2.5-.8 3s-1.5.8-3 .8h-9.1c-1.5 0-2.6-.3-3.1-.9-.5-.6-.7-1.8-.7-3.7h3.4v1.5h10.2v-3.6h-9.5c-1.4 0-2.4-.3-3-.8-.5-.5-.8-1.5-.8-3V346c0-1.5.3-2.5.8-3s1.5-.8 3-.8H350v2.8h-12.9v3.4h9.5c1.4 0 2.4.3 3 .8.5.5.8 1.5.8 3v2.3z"/><path class="st4" d="m265.5 518-90.4-32.8-8.9-18.4-57.7-21.1 1.2-2.4 60.1 21 7 13.6 88.7 32.6 88.7-32.6 7-13.6 60.1-21 1.2 2.4-57.7 21.1-8.9 18.4z"/><path class="st5" d="M117.6 345.6c1.4 0 2.6 1.2 2.6 2.6 0 1.4-1.2 2.6-2.6 2.6-1.4 0-2.6-1.2-2.6-2.6 0-1.5 1.1-2.6 2.6-2.6zM421.2 345.6c-1.4 0-2.6 1.2-2.6 2.6 0 1.4 1.2 2.6 2.6 2.6 1.4 0 2.6-1.2 2.6-2.6 0-1.5-1.1-2.6-2.6-2.6z"/><path class="st1" d="m265.5 69.5-4.5.8s-2.7-15.1-20-25.4c-17.3-10.3-30.5-1.4-33.5 4 0 0-12.5.5-15.3 12.3 0 0-11.3.9-15.6 6.1 0 0-7.2-9.6-18.8-7.2-11.6 2.3-12.8 18.4-11.2 25.5 0 0-3.1.5-5.3-1.7-2.2-2.2.9-2 1.5-.6 0 0 .2-2.6-2.7-3.4-2.8-.8-10.3 2.7 3.5 16.5 0 0-20.9 6-25.4 29.5 0 0-4.9 3.7-5.2 10.2-.4 6.5 1.9 10.8-.8 14.8s-10.2 9.6-13 11.4c-1.9 1.2-4.5 2.4-5.8 3-.6.3-2.8 1.1-3.2.9-5-2.9-10.8-4.6-17-4.6-18.6 0-33.7 15.1-33.7 33.7S54.6 229 73.2 229c4.5 0 8.9-.9 12.8-2.5.5 1.7 1.5 3.8 3.2 3.9 0 0-5 8-5.9 11.1 0 0-21.3-11.1-42.2-5.3-20.9 5.8-37 26.4-28 65.4 0 0 15.7-11.1 44.9 16.8 0 0-6.9-33.6-3.2-47.7 0 0 13.4 14.1 14.8 25.8 1.4 11.7-1.8 11.6-2.5 18.5-.7 7 3.2 12 6.3 14.2 3.1 2.2 15.7 14.6 27.1 18.9 11.4 4.2 47.6 6.8 79.2-9.9l2.1-1.4s7.1-1 11.2-2.8l9.2-4.4s8 5.2 21.3-5.3l24.5-.7s1.5.5 5.2.2 11.5-2.8 12.5-7c1 4.2 8.8 6.7 12.5 7 3.7.3 5.2-.2 5.2-.2l24.5.7c13.3 10.6 21.3 5.3 21.3 5.3l9.2 4.4c4.1 1.8 11.2 2.8 11.2 2.8l2.1 1.4c31.5 16.7 67.8 14.2 79.2 9.9 11.4-4.2 24-16.7 27.1-18.9 3.1-2.2 7-7.2 6.3-14.2-.7-6.9-4-6.8-2.5-18.5 1.4-11.7 14.8-25.8 14.8-25.8 3.6 14.1-3.2 47.7-3.2 47.7 29.2-28 44.9-16.8 44.9-16.8 9-39-7-59.6-28-65.4-20.9-5.8-42.2 5.3-42.2 5.3-.9-3.1-5.9-11.1-5.9-11.1 1.7-.1 2.7-2.2 3.2-3.9 4 1.6 8.3 2.5 12.8 2.5 18.6 0 33.7-15.1 33.7-33.7s-15.1-33.7-33.7-33.7c-6.2 0-12 1.7-17 4.6-.3.2-2.5-.6-3.2-.9-1.4-.6-3.9-1.8-5.8-3-2.8-1.8-10.3-7.4-13-11.4-2.7-4-.5-8.3-.8-14.8-.4-6.5-5.2-10.2-5.2-10.2-4.5-23.5-25.4-29.5-25.4-29.5 13.8-13.8 6.3-17.3 3.5-16.5-2.8.8-2.7 3.4-2.7 3.4.6-1.4 3.7-1.5 1.5.6-2.2 2.2-5.3 1.7-5.3 1.7 1.6-7 .4-23.1-11.2-25.5-11.6-2.3-18.8 7.2-18.8 7.2-4.3-5.2-15.6-6.1-15.6-6.1-2.9-11.8-15.3-12.3-15.3-12.3-3-5.4-16.2-14.3-33.5-4s-20 25.4-20 25.4l-4.9-.8z"/><linearGradient id="SVGID_1_" gradientUnits="userSpaceOnUse" x1="265.491" y1="118.118" x2="265.491" y2="38.537"><stop offset="0" style="stop-color:#fff"/><stop offset="1" style="stop-color:#b0d7c7"/></linearGradient><path d="M265.5 114.1s-2.9 0-4.5-1.3c-1.6-1.4-4.2-6.5-7.4-9.2 0 0 2.7 7 3.8 14.4-2.7.3-5.8.7-9.2 1.3-.2-.6-3.5-12.6-22.6-27.8-19.7-15.5-37-17.3-41.7-11.2-4.7 6.1 3.6 13.4 8.1 15.2 0 0-1 1.9-5.3.7 0 0 1.8 2.2 5.1 2.7s6-2 3.9-7.9c-2.1-6-7.4-6.6-7.8-4.3-.4 2.3 1.7 3.3 1.7 3.3s-4.1-.5-3.6-5.1c.5-4.6 8.5-6.6 16.8.8l-3.6-.4s12.9 12.3 2.1 23.8c0 0 12.5-.4 10.3-16.8 0 0 21.3 7.5 32.8 27.8-2.8.6-5.8 1.4-8.8 2.4-1.7-2-10.2-10.9-22.6-14.3 0 0 11.9 9.5 16.6 16.6-1.7.7-3.3 1.5-4.9 2.4-1 .5-1.9 1-2.7 1.5-.1-.1-23.2-16-27.2-19 0 0-11.6-1-16.7-13.5 0 0-2.8-4.9-8.8-10.5-6-5.6-8.7-5.2-9.7-4.2-1.1 1.1 2.6 7.4 4.7 7.5 2.1.2-.6-3.7-1.6-4.2 0 0 3.6 0 5.9 5.4 2.3 5.4-4.6 8.1-10.1 1s-6.3-17.6-2.3-22c4-4.3 11.9-2.7 17.1 6.6 0 0-.4 7.8 3.3 13.1 0 0-.9-8.5 4-14.1s18.6-6 21.7-5.1c0 0-5-6.7.4-12 0 0-.7 8.3 9 14.6 0 0-7.6-9.1 1.4-19.3 8.9-10.2 25.8-5 32.8 6.4 6.9 11.4-1.4 21.2-12.8 17.1-11.4-4.1-11.4-14.2-7.8-16.9 3.6-2.7 7.4 1.1 7.2 3.1 0 0-2.3-2.3-4.4-1.2-2.1 1.1.1 5.8 5.8 6.4 5.7.6 6-3.6 5.8-5 0 0-1.3 2.3-3.9 2.1 0 0 1.7-3.4-.3-7.1-2-3.7-10.4-6.8-15.6-2.6-5.2 4.2-5.1 14.9 9.4 25.4s17.9 13.5 21.3 18.6c0 0-1.9-8.2-5.1-13.1 0 0 12-4.9 15.6-5.6 3.6-.7 4.3-.5 4.3-.5s.7-.3 4.3.5c3.6.7 15.6 5.6 15.6 5.6-3.2 4.9-5.1 13.1-5.1 13.1 3.4-5.1 6.9-8.1 21.3-18.6 14.4-10.5 14.6-21.3 9.4-25.4-5.2-4.2-13.6-1.1-15.6 2.6S295 65 295 65c-2.6.2-3.9-2.1-3.9-2.1-.3 1.4.1 5.6 5.8 5 5.7-.6 7.9-5.3 5.8-6.4-2.1-1.1-4.4 1.2-4.4 1.2-.2-2 3.6-5.8 7.2-3.1 3.6 2.7 3.6 12.8-7.8 16.9-11.4 4.1-19.8-5.8-12.8-17.1 6.9-11.4 23.8-16.6 32.8-6.4 8.9 10.2 1.4 19.3 1.4 19.3 9.7-6.3 9-14.6 9-14.6 5.3 5.3.4 12 .4 12 3.1-.9 16.8-.4 21.7 5.1 4.9 5.6 4 14.1 4 14.1 3.7-5.3 3.3-13.1 3.3-13.1 5.2-9.3 13.2-10.9 17.1-6.6 4 4.3 3.2 14.8-2.3 22-5.5 7.1-12.4 4.4-10.1-1 2.3-5.4 5.9-5.4 5.9-5.4-1 .5-3.7 4.4-1.6 4.2 2.1-.2 5.8-6.5 4.7-7.5-1.1-1.1-3.8-1.4-9.7 4.2-6 5.6-8.8 10.5-8.8 10.5-5.1 12.5-16.7 13.5-16.7 13.5-4 3-27.1 18.9-27.2 19-.7-.5-1.7-1-2.7-1.5-1.6-.9-3.2-1.6-4.9-2.4 4.7-7.1 16.6-16.6 16.6-16.6-12.4 3.4-20.9 12.3-22.6 14.3-3-1-5.9-1.8-8.8-2.4 11.4-20.4 32.8-27.8 32.8-27.8-2.2 16.4 10.3 16.8 10.3 16.8-10.8-11.6 2.1-23.8 2.1-23.8l-3.6.4c8.3-7.4 16.3-5.4 16.8-.8.5 4.6-3.6 5.1-3.6 5.1s2-1 1.7-3.3c-.4-2.3-5.7-1.7-7.8 4.3-2.1 6 .5 8.5 3.9 7.9 3.3-.5 5.1-2.7 5.1-2.7-4.3 1.2-5.3-.7-5.3-.7 4.5-1.7 12.8-9 8.1-15.2-4.7-6.1-22-4.3-41.7 11.2-19.2 15.1-22.5 27.2-22.6 27.8-3.4-.6-6.5-1.1-9.2-1.3 1.1-7.3 3.8-14.4 3.8-14.4-3.2 2.6-5.8 7.8-7.4 9.2-1.4 1.3-4.3 1.3-4.3 1.3zm47.3 17.2.8.7c1 .8 2 1.6 2.9 2.5l.2.2s5.9 1.4 9.7 1.4c0 0-1.8 2.8-5.3 3.9l.1.1c1.8.1 10.6.5 17.5-6.1 0 0-6.7-.2-13.8-.8 0 0 5-.6 13.1-5.3 0 0 .9-9 5-14.7l-5.4.6-24.8 17.5zm-94.6 0-24.6-17.4-5.4-.6c4.1 5.7 5 14.7 5 14.7 8.1 4.7 13.1 5.3 13.1 5.3-7.1.6-13.8.8-13.8.8 6.9 6.5 15.7 6.2 17.5 6.1l.1-.1c-3.5-1.1-5.3-3.9-5.3-3.9 3.9-.1 9.7-1.4 9.7-1.4l.2-.2c.9-.9 1.9-1.7 2.9-2.5l.6-.8z" style="fill-rule:evenodd;clip-rule:evenodd;fill:url(#SVGID_1_)"/><path class="st7" d="M331.7 162.6s4.1-4.6 10.8-5.7c6.8-1.1 11.3 2.2 11.3 2.2s-1.1-7.4-8.7-8.5c-7.5-1.1-12.8 7.6-13.4 12z"/><path class="st8" d="m282.2 202.3-1 2.4s8.9-3.6 13.5-11.2l-1-1.3s-4.4 6.9-11.5 10.1z"/><linearGradient id="SVGID_00000000944718372761976600000010655313882018927492_" gradientUnits="userSpaceOnUse" x1="298.492" y1="300.886" x2="278.261" y2="217.523"><stop offset="0" style="stop-color:#45c5e0"/><stop offset="1" style="stop-color:#a8deea"/></linearGradient><path style="fill-rule:evenodd;clip-rule:evenodd;fill:url(#SVGID_00000000944718372761976600000010655313882018927492_)" d="M265.5 235.7s1.6-.5 2.6-.4c0 0 5.9 21.1 6.3 28.1 0 0 9 19.4 9.7 27.5 0 0 1.8-17.2-5.1-27.5 0 0-3.5-21.8-5.2-27.2-1.7-5.3-2.4-6-2.4-6h-2.1s-1.6-5.2-1.2-8.8c.4-3.6 6-6.4 6.6-6.4.5 0 3 9.8 3.7 12.2.7 2.3 2.4 4.4 2.3 6.3-.2 1.9.4 6.6 1 8.9.6 2.3 4.9 9.2 5.5 11.3.5 2.1 1.4 9.7 2.8 12.2 1.4 2.4 4.4 9.7 5.1 10.1.6.5 9.7 5.7 12.1 8.9 2.3 3.2 2.6 8.6 4.5 11.1s5.7 3.6 5.7 3.6-5 2.4-4.6 5.6c.4 3.2 6.1 3.3 6.1 3.3l2.9 4.8s.8-9-1.3-18.9l7.1-.9c.7 3.4 1.2 7.4 1.5 12 1.6 21.7-6.1 23.6-13.5 17.9 0 0 3.2.1 4.5-2.4 1.3-2.5 1.2-3.7 1.2-3.7s-1.5-2.2-4-2.8c-2.5-.6-11.6.9-11.6.9l7.2 4.1-29.4-1.4s-6.6 1.2-11-3.5-4.4-20.9-4.4-24.6c0-3.8-2.5-37.1-2.5-37.1v-17.2z"/><path class="st3" d="M321.8 267.3s7.9 6 11.4 26c3.4 20-1.3 32-1.3 32l5.8 3.3 2-11.7s14.7 4.1 24.2 10.3l4.1-1.4s-5.5-4-10.9-6.6v-6.3s-4 1.9-9.2 1.9c0 0 15.1-8.4 24.8-25.5 0 0-17-9-33.2-12.1 0 0 8.4-1.9 12.7-1.3l-5.7-7.4 5.6-10.1-3.1-.2-14.4 17.2s-4.2-7.5-8.1-11.4l-4.7 3.3zm14.8 14.5c11.7 1.6 28.3 9.3 28.3 9.3-12.5 16.4-24.7 19.3-24.7 19.3 1.1-12.3-3.6-28.6-3.6-28.6z"/><path class="st10" d="M340.1 284.9s3.5 12 2.7 21.1c0 0 9-2.1 18.2-14.2-.1 0-12.3-5.7-20.9-6.9z"/><path class="st11" d="M329.2 263.1s4.3 5.3 5.5 7.9l1.5-1.6 3.6-4-3.9 2.3.6-6.9 9-1.8.8-.9-11.7.7-5.4 4.3z"/><path class="st10" d="m342.2 320.1-2 9.4.9.3 1.9-7.5 4.6 9.5 1 .3 10.6-4.9c-.1.1-5.1-3-17-7.1z"/><linearGradient id="SVGID_00000041293286240384447610000000644855104976091059_" gradientUnits="userSpaceOnUse" x1="397.718" y1="272.557" x2="435.281" y2="240.76"><stop offset="0" style="stop-color:#45c5e0"/><stop offset="1" style="stop-color:#0087b7"/></linearGradient><path style="fill-rule:evenodd;clip-rule:evenodd;fill:url(#SVGID_00000041293286240384447610000000644855104976091059_)" d="m352.1 267 6.3 9.7s13.8 3.8 23.4 10.2c0 0-9.7 16.3-19.3 23.2l.1 6.9 5.7 3.2s9.4-3.7 20.6-2.9c11.2.8 12.2 8.2 4.5 9.5-7.7 1.3-6-3.3-3.1-4 2.9-.7 3.2.9.8 1.5 0 0 2.5 1.2 4-1.1s-2-4.3-7.9-3.2c-5.9 1.2-9.5 7.6-1.1 9.8 8.4 2.2 17.7-.9 22.7-9.7 5-8.8-11.6-13.4-19.3-12.7 0 0 4.4-2.8 13.2-2.1 8.8.7 14.3 5 14.3 5s2.5-8.9-2.4-13.2c0 0-14.5-6.9-31.3 3.7 0 0 9-14.1 34.1-8.3 0 0-4.5-4.7-10.4-5.3 0 0 9-1.8 14.6-1.8s18.7.3 27-6.2 8.5-16.8 1.4-20.6c-7.1-3.8-18-2-20.9 3.9-3 5.9 5.3 9.6 11.4 7.4 6-2.2 5.1-5.9 4-6.7-1.2-.8-4.2-1-6.1.3-1.8 1.3 0 2.3 0 2.3s-.4-1 1.1-1 1.5 1.9-1.4 2.1c-2.9.3-3.2-3.1-.6-4.8 2.7-1.7 7.9-1.9 9.6.6 1.8 2.5.2 8.4-9.1 11.6-9.3 3.2-33.2.7-41.7 5.1 0 0 6.1-3.5 14.1-5.1 8-1.6 17.9-1.2 17.9-1.2s-37-6.3-58.5-1.2c0 0 6.4-5.1 15.1-6.9 8.7-1.8 15.9-1.8 22.4-3.8 6.5-2 9.3-5.2 9.3-5.2s-3.3 9.5-14 11.4c0 0 13.2.5 22.1 1.6 0 0-2.5-4.1-.8-7.9 1.7-3.9 7.2-6 7.2-6l8-7.6s.5-8.8-2.8-13.9c-3.2-5.1-6.5-6.9-8.4-11-1.9-4.1.6-6.6 3.2-6.3 2.6.4 5.4 3.1 5.4 5.4 0 2.3-2.8 1.7-3.7.6-.9-1 .5-1.6 1.4-.9 0 0-.5-2-2.4-1.7-2 .4-1.7 4.9 2.9 6.5 4.6 1.6 7.2-4.1 1.5-9.2-5.6-5.1-12-4.4-13.4-2.2-1.5 2.3-1 5.1 1.5 8.4 2.5 3.3 5.3 6.2 5.9 7.6 0 0-4.6-4.9-11.6-2.8 0 0 6.2 2.8 6.8 3.3.5.5 4.3 6.5 4.3 6.5s-5.9-3.8-6.7-4.1c-.8-.3-6.9-1.8-6.9-1.8s-.5 4.6-1.9 7c0 0-.9-7.4-4.9-11.5 0 0-6.5 1.1-9.1 4-2.6 2.9-3.1 11.2-3.1 11.2s4.4-.8 6.9-.6c2.4.2 14.8 6.3 17.5 10.3 0 0-16.3-4.9-18-5.1-1.6-.3-5.5.5-5.5.5s-2 5.6-9.3 8.2c0 0 6.8-5.4 3.7-13.6 0 0-1.8 10.4-12.4 13.7 0 0 9.5-9.7 9.7-17.9.2-8.2-7-9.9-13.2-5.2-6.2 4.7-6.9 13.1-3.3 14 3.6.9 6-5 5.6-6.9-.5-1.9-2.2-1.1-3-.1 0 0 1.5-.3 1.1 1.1-.4 1.4-1.9 3.4-3 2.3-1.1-1 .1-4.8 2.7-6.2 2.6-1.4 5.3-.1 4.5 4.3-.8 4.4-8.6 14.9-21.1 20.8 0 0 6.5-8.5 12-13-.6-.6-12.4 1.1-19.9 17.8z"/><path class="st13" d="M278.1 211.1s2.3 4.4 3.4 7.5c0 0 1.8-.8 4.6-2.3-1.2-2.3-2.7-5.1-3.9-7.3-1.3.8-2.7 1.5-4.1 2.1zm10 4.1c-1.3-2.5-2.8-5.2-3.9-7.3 1-.6 2-1.3 2.9-2 2.1 2.2 4.3 4.7 5.7 6.3-1.7 1.1-3.2 2.1-4.7 3zm6.6-4.3c1.9-1.4 3.8-2.9 5.7-4.7l-10.4-2.4c-.3.3-.7.5-1 .8 2.2 2.2 4.4 4.8 5.7 6.3zm8.8-7.8c.4-.5.9-1 1.3-1.5 0-2 .1-4.2.3-5.6 0 0 1.8-.1 4-.1 1-1.5 1.9-3.1 2.6-4.7-2.7-.4-5.9-.9-8.4-1.3-.8.4-1.3.5-1.3.5s-.3.6-1 1.6l2.5 11.1zm9.3-14c.5-1.2.9-2.5 1.3-3.8 0 0-1.1-.6-1.5-1.9-.4-1.4-1.5-3.1-2.5-1.3s-1.5 3-3.4 5.3c-.2.2-.4.5-.6.7 2.2.3 4.6.7 6.7 1zm-13.5 5.3 2.1 9.6-9.3-2.1c3.2-2.7 5.5-5.4 7.2-7.5z"/><path class="st4" d="M280.8 217c.2.6.5 1.1.7 1.7 0 0 1.8-.8 4.6-2.3l-.9-1.6c-1.8 1-3.4 1.7-4.4 2.2zm6.5-3.4c1.4-.8 2.8-1.7 4.4-2.8.4.5.8 1 1.2 1.4-1.7 1.2-3.3 2.2-4.7 3l-.9-1.6zm6.2-4.1c1.6-1.2 3.2-2.4 4.9-3.8l2 .5c-1.9 1.7-3.8 3.3-5.7 4.7-.3-.4-.7-.9-1.2-1.4zm7-5.7.7-.7.2.9-.9-.2zm2.6-2.6c.6-.7 1.2-1.3 1.8-2 0 .8-.1 1.6-.1 2.5-.4.5-.9 1-1.3 1.5l-.4-2zm4.3-5.2c1.1-1.6 2.1-3.2 3-4.9.5.1.9.1 1.4.2-.8 1.6-1.7 3.2-2.6 4.7-.7-.1-1.3 0-1.8 0zm4.1-7.1c.6-1.5 1.2-3 1.6-4.5.5.6 1 .9 1 .9-.4 1.3-.8 2.6-1.3 3.8-.4-.1-.9-.1-1.3-.2z"/><path class="st14" d="M278.1 211.1s1.1 2.2 2.2 4.5l-.2-2.9 2.2-1.1 2.4 2.1c-.9-1.6-1.7-3.3-2.5-4.7-1.3.8-2.7 1.5-4.1 2.1zm8.6 1.5c-.9-1.7-1.8-3.4-2.6-4.8 1-.6 2-1.3 2.9-2 1.3 1.4 2.7 2.9 3.9 4.2l-2.9-1.7-2.1 1.2.8 3.1zm6.4-3.6-1.3-2.7 1.2-1 5.4.3-8.5-1.9c-.3.3-.7.5-1 .8 1.5 1.6 3 3.2 4.2 4.5zm5.8-5.5-3.7-1.8 4-4 1.6 4.2-1.6-7.5c-1.7 2.1-4 4.8-7.1 7.5l6.8 1.6zm4-3.5v-6.5l2-2.3 4.4-.3c-2-.3-4.1-.7-5.8-1-.8.4-1.3.5-1.3.5s-.3.6-1 1.6l1.7 8zm5.3-11.6 2.9-5s0-1-.8-1.7c-.1.1-.2.2-.3.4-1 1.8-1.5 3-3.4 5.3-.2.2-.4.5-.6.7.7.1 1.5.2 2.2.3z"/><path class="st13" d="M291.1 248c1.7 2.5 3.1 4.6 2.9 7.8 0 0 22.5-5.6 30.5-9 1.2-3.6-2-7.1-5.3-6.8-.1-.1-.1-.1-28.1 8zM333.8 222.5l-2.5 6.4s-.5.9 0 1.7c.4.8 4.5 2.8 4.5 2.8s.5.3 1 0c0 0 1.8-9.5 3.4-14.1 0 0-2.6 1.9-6.4 3.2z"/><path class="st15" d="M392.3 229.9c.3.5.6 1.1.8 1.7 0 0 7.9-7.7 15.9-12.1 8-4.4 14.4-10.6 15.2-13.4.8-2.9-2.5-4.9-.6-9.1 1.9-4.2 5.7-3.5 9.7-9.1 4.1-5.6 4.5-14.5-2-18.5s-16.6-11.6-19-16.4c-2.4-4.9-.5-8.5-.3-12.2.2-3.7-1.3-5.2-1.3-5.2s.1 4.5-2.1 10.2v4.4c.1 5.9 7.8 11.9 12.1 15.2l.7.6c1.5 1.2 3.2 2.1 4.7 3 2.8 1.6 5.4 3.1 6.5 5.5.9 2 1.3 4.3.8 6.6-.4 2-1.4 4.1-3.3 6.1-1.8 1.9-3.4 3-4.8 4-1.6 1.1-2.9 2-3.9 3.8-1.8 3.2-1.5 4.6-1 7.9l.1.5c.4 2.2-.3 4.5-2.3 6.8-1.7 2.1-4.4 4.3-8.3 6.3-5.9 3.3-14.2 10.4-17.6 13.4z"/><path class="st16" d="m353.8 254 1.4.2s5.9-5.9 10.1-8.3c0 0-.3-7.4 6.5-15.1 5.9-6.6 15.5-6.8 19.8-1.9 3.5-3.1 11.8-10.2 17.8-13.5 3.7-2 6.2-4 7.9-6 1.7-2 2.3-4 2-5.7l-.1-.5c-.6-3.6-.9-5.1 1.1-8.8 1.2-2.1 2.6-3.1 4.4-4.3 1.3-.9 2.9-2 4.6-3.8 1.7-1.8 2.6-3.7 3-5.5.4-2 .1-4-.7-5.8-.9-2-3.3-3.4-5.9-4.9-1.6-.9-3.3-1.9-4.9-3.1l-.7-.6c-4.5-3.5-12.5-9.7-12.6-16.3v-1.4c-2.7 5.2-7.6 11-16.4 15.2-.2 2.6-.1 8.3 3.2 11 1.7 1.4 3.5 2.2 5.2 2.9l2.7 1.2c5.9-.3 25.8-3 25.8-3s1.4.5.5 1c-.7.3-14.6 5.7-21.9 8.5.9 5.2-2.8 7.8-5.2 9.6l-.5.4c-1.2.9-2.3 1.7-3 2.9-.7 1.1-1.2 2.6-1.1 4.8v1.7s16.8 5.6 16.5 5.6c-.3 0-16.3-.1-15.9.1.4.2 6.6 5.3 6.4 5.3-.3 0-11.2-3.2-11.2-3.2-.7.4-1.6.8-2.6 1.3-3.3 1.6-8.5 4-16.2 10.9-5.5 4.9-10.9 11.5-14.7 17.4-3.4 4.7-5.3 9.1-5.3 11.7z"/><path class="st17" d="M398.1 178.8c-1.6-.7-3.3-1.5-4.9-2.8-3.4-2.9-3.8-8.4-3.7-11.5-.5.2-1 .4-1.6.7 0 0-.7 6.9 3.7 11.3.1 0 2.7 1.6 6.5 2.3z"/><path class="st15" d="M395.1 203.9v-.8c-.1-2.5.4-4.2 1.3-5.6.9-1.3 2.1-2.3 3.4-3.2l.6-.4c2.1-1.5 5.2-3.8 4.7-7.9l-1.4.5c0 1.9-1 3.6-2.2 4.5-2.3 1.6-6.2 3.8-7.4 8.2-.1.2-.3 3.3 1 4.7zM350.9 253.7l1.6.2c.1-3 2.1-7.5 5.2-12.4 3.8-6.1 9.4-12.7 14.9-17.7 7.9-7.1 13.2-9.6 16.6-11.2l.8-.4s-2.7-.3-5.1.9l-.4.2-.1.1c-2.2 1.2-5.2 3.1-9.3 6.1-11.1 8-24.5 26.9-24.2 34.2z"/><path class="st18" d="M370.9 323.6s3.1 1.5 5.2 3.7c0 0 0-2.1 1.5-4.1 1.5-2 3.1-2.5 3.1-2.5s-6.4.3-9.8 2.9zM409.1 310.2s6.1 5.4 3.2 9.6c0 0 2.7-.8 3.3-3.4 0 0 1.4.2 3.8-.7 0 0-3-4-10.3-5.5z"/><path class="st15" d="M509.2 259.1c5.3 9.2 7.2 21.4 3 35.4-.9-.4-1.8-.7-2.7-.9 2.2-8.1 4.9-22.7-.3-34.5z"/><path class="st16" d="M450.2 247.4c5.9-3.3 15.2-6.9 27.5-6.8 30.8.2 37.3 27.6 30.4 52.8-7.5-1.1-15.6 3-22 8 2.7-8 3.5-17 2.6-25.4-1.1-10.2-4.9-19.5-11.5-25.3-9.2-8.2-20.7-5.7-27-3.3z"/><path class="st17" d="m441.8 329.7 1.9 1.5s-8.1 9.5-24.5 13.4c7.2-3.5 17.9-9.3 22.6-14.9z"/><linearGradient id="SVGID_00000047748338885323445670000012383914751870738583_" gradientUnits="userSpaceOnUse" x1="265.49" y1="141.566" x2="265.491" y2="229.734"><stop offset="0" style="stop-color:#fff"/><stop offset="1" style="stop-color:#b0d7c7"/></linearGradient><path style="fill-rule:evenodd;clip-rule:evenodd;fill:url(#SVGID_00000047748338885323445670000012383914751870738583_)" d="M265.5 168.4s-1.9.4-3.7-1.5l-11-7.3s-2.7-8.9.4-14.4c0 0-4.6 5.8-6.1 14.8l10.9 6.1s-4.6 2.5-6.5 2.2c-1.9-.3-5.5-4.5-5.5-4.5l-.7 3.4s2.5 2.8 3.7 3.8c1.2.9 3 .7 3 .7l-2.9 5.6-5.7-1.8s-2.8 11.3-8.3 11.4c-5.4.1-8-4.8-9.4-9.3-1.4-4.5-2.7-6.9-5.1-6.3-2.4.6-1.7 6.9-5.9 10.7-4.2 3.8-10.4-.8-14.6-3.8-4.2-3-14.1.7-14.4 9.3-.4 8.6 4.7 19.2 8.5 23.9 0 0-7.2-2.8-11.2-9 0 0 6.5 23 6.9 34.2.4 11.2-4.2 14.6-4.2 14.6s1.8-9.7-3.2-28.3c0 0-5.3 5.1-10.1.5 0 0 9 1.5 6.5-12.3-2.4-13.8-7.3-30.8 10-40.9 0 0-13.7-.5-16.6 15.9-2.9 16.4 1.3 28.3-12.6 23.1s-17-27.1-7.4-31.8c9.6-4.7 15.2 5.8 9.7 11.9 0 0-3.4 3.2-6.7.5 0 0 3.5-.5 4-3.5s-4.2-4.7-6.2-.9c-2 3.8 1.8 10.8 6.6 12.7 4.8 1.9 5.6-4.5 6.1-10.8.5-6.3 2.3-23.1 17.3-25.5 15.1-2.3 21.2 10.4 26.3 11.5 5.1 1.1 4.1-3.5 5.3-6.2 1.2-2.7 5.3-3.8 8.3-3.4 3 .4 4.8 4 6.3 4.8 1.4.9 4.2-1.5 4.9-6.5.6-5 2.9-16.1 3.8-18.1 0 0 3.7-3 6.2-4 0 0-3 9.5-5 21.9-2 12.4-8.1 13.8-10.2 13.5 0 0 .8 5.9 4.8 7.1 4 1.3 6.3-4.2 7.8-10.5 1.4-6.2 3.2-21.2 8.3-28 5.1-6.8 13-7.1 17.7-2.3 4.6-4.9 12.5-4.5 17.7 2.3 5.1 6.8 6.9 21.8 8.3 28 1.4 6.2 3.8 11.7 7.8 10.5 4-1.3 4.8-7.1 4.8-7.1-2.1.3-8.2-1.2-10.2-13.5-2-12.4-5-21.9-5-21.9 2.6 1 6.2 4 6.2 4 .9 2 3.2 13.1 3.8 18.1.6 5 3.4 7.3 4.9 6.5 1.4-.9 3.3-4.5 6.3-4.8 3-.4 7.1.7 8.3 3.4 1.2 2.7.2 7.3 5.3 6.2 5.1-1.1 11.2-13.8 26.3-11.5 15.1 2.3 16.8 19.1 17.3 25.5.5 6.3 1.4 12.7 6.1 10.8 4.8-1.9 8.6-8.8 6.6-12.7s-6.7-2.1-6.2.9 4 3.5 4 3.5c-3.3 2.7-6.7-.5-6.7-.5-5.4-6.1.2-16.6 9.7-11.9 9.6 4.7 6.5 26.5-7.4 31.8-13.9 5.2-9.7-6.7-12.6-23.1-2.9-16.4-16.6-15.9-16.6-15.9 17.3 10.1 12.5 27.1 10 40.9-2.4 13.8 6.5 12.3 6.5 12.3-4.8 4.5-10.1-.5-10.1-.5-5.1 18.6-3.2 28.3-3.2 28.3s-4.5-3.4-4.2-14.6c.4-11.2 6.9-34.2 6.9-34.2-4 6.2-11.2 9-11.2 9 3.8-4.7 8.8-15.3 8.5-23.9-.4-8.6-10.2-12.3-14.4-9.3-4.2 3-10.5 7.6-14.6 3.8-4.2-3.8-3.4-10-5.9-10.7-2.4-.6-3.8 1.8-5.1 6.3-1.4 4.5-4 9.4-9.4 9.3-5.4-.1-8.3-11.4-8.3-11.4l-5.7 1.8-2.9-5.6s1.8.2 3-.7c1.2-.9 3.7-3.8 3.7-3.8l-.7-3.4s-3.6 4.2-5.5 4.5c-1.9.3-6.5-2.2-6.5-2.2l10.9-6.1c-1.5-9-6.1-14.8-6.1-14.8 3.1 5.5.4 14.4.4 14.4l-11 7.3c-2.1 1.9-3.9 1.5-3.9 1.5zm0-22.5s-4.9-6.2-11.5-2.7c0 0 7.4 1.8 11.5 8.3 4.1-6.5 11.5-8.3 11.5-8.3-6.7-3.5-11.5 2.7-11.5 2.7z"/><path class="st15" d="M472.6 262.4c.3.6.6 1.2.8 1.8 0 0-18.1 18.8-19.3 30.7-1.3 11.9 4.2 13.9 2.7 22.3s-9.8 9.3-9.8 9.3l-.6-.2c2.4-1.2 6.3-3.6 7.5-6.3 1-2.1 1.3-3.8 1-6.4-.3-2.5-1.1-5.8-2.6-10.9-1.5-5.3.6-12.4 4.2-19.3 4.4-8.6 11-16.7 16.1-21z"/><path class="st16" d="M424.8 299.5c-1.5-.8-2.8-2.9-2.8-3-.6-4.1.1-6.4.1-6.4s.6-.1 1.5-.2c-.3 1.7-.6 4.1 0 6.3.3.9.7 2 1.2 3.3z"/><path class="st16" d="M428.6 305.1c4-.4 15.3-.1 16-.1.7 0-13.6-3.9-18.1-5.1-.7-1.6-1.2-3-1.5-4.1-.6-2.1-.2-4.4.1-5.9h1.2c2.5.1 23.2.9 30.5-13.3 7.2-14.2.3-22.8-14-23.9 2.7-2.8 7.2-4.2 10.9-5.1 6.6-1.7 15.6-2.2 22.8 4.1 6.3 5.5 9.9 14.5 11 24.4 1 8.9-.1 18.5-3.3 26.9-1.5 1.3-2.9 2.6-4.2 3.8 0 0 6.9-19.5 3.6-35.6-3.2-16.1-14.8-28.2-33.9-18.5 0 0 15.8-1.5 22.3 8.4-5.3 4.4-12.1 12.8-16.7 21.5-3.7 7.2-5.9 14.6-4.3 20.3 1.4 5.1 2.3 8.3 2.6 10.7.3 2.3 0 3.9-.9 5.7-1.4 3-6.5 5.6-8.3 6.3L432 322l8.7 6.7c-5.8 6.8-21.2 14.2-27 16.8-9.1 1.3-20.3.9-33.6-3.2h.7c4.8-.1 9-1.2 12.7-2.4 3-1 6-2.5 8.6-4.1 3.9-2.3 7.1-4.9 8.4-6.2 1.5-1.4 4.8-2.8 8.2-4.1 1.5-.6 2.9-1.2 4.3-1.8 2.4-1.1 4.2-2.9 5.4-5.2 1.3-2.4 1.9-5.1 1.6-7.7-.1-1.5-.7-3.6-1.4-5.7z"/><path class="st15" d="M366 337.1s13.8 4.2 25.5.2c11.7-4.1 13.9-8.6 19.4-11.4 5.5-2.8 13.1-4.8 15.3-11 .8-2.4.5-4.8-.2-7.1 0 0-.6-1.7 1.2-2.3.8 2 1.4 4.1 1.6 5.8.2 2.3-.3 4.8-1.4 6.9-1.1 2-2.7 3.6-4.7 4.6l-4.2 1.8c-3.5 1.4-6.9 2.8-8.6 4.4-1.3 1.3-4.4 3.7-8.2 6-2.6 1.5-5.4 3-8.3 3.9-3.6 1.2-7.7 2.2-12.4 2.3-1.8.1-3.6 0-5.6-.2-3.2-1.2-6.2-2.5-9.4-3.9z"/><path class="st20" d="M265.5 191.8h-9.1l2.2-3.2s.3-.6 1.2-.6c.9-.1 2.5 0 2.5 0v-1h-2.1s-2.8-4.8-5.1-6c-2.3-1.2-5.9-.7-8.1.8-2.2 1.4-3.4 3.7-3.3 4.2.1.4 1.5 7.7 1.5 7.7s.6 1 1.2 1.4c.6.5 16.7 12.1 16.7 12.1s1.4.6 2.3.5c1 0 2.3-.5 2.3-.5s16.1-11.6 16.7-12.1c.6-.5 1.2-1.4 1.2-1.4s1.4-7.3 1.5-7.7c.1-.4-1.1-2.7-3.3-4.2-2.2-1.4-5.8-1.9-8.1-.8-2.3 1.2-5.1 6-5.1 6h-2.1v.9h2.5c.9.1 1.2.6 1.2.6l2.2 3.2h-8.9v.1zm0 5.8c-.6 0-1.2-.1-1.3-.2-.3-.2-2.9-2.3-2.9-2.3s.9-.3 1.4-.3h5.8c.5 0 1.4.3 1.4.3s-2.6 2.1-2.9 2.3c-.3.1-.9.2-1.5.2z"/><path class="st13" d="m282.5 221.4 6.7 22.2s2.8 0 5-1.7l-9.3-21.5-2.4 1z"/><path class="st3" d="m287.8 220.4.9 2.1.5-2.8c-.5.2-1 .4-1.4.7zm2 5 1.3 3.1 2-10.2 10.1 3.4-2.7-3.3-5.8-2.1c-1 .6-2.1 1.4-3.5 2.2l-1.4 6.9zm2.5 6 2.1-10.9 10.9 3.7.8.9-2.6 13.4-.8.2-8.1-1.8-1.3-3.1 7.7 1.4 1.5-8.9-6.9-1.1-.6 4.7 1.7.2.3-2.9 3.4.6-.9 5.5-7.1-1.3-.1-.6zm3.1 7.5.8 1.8 3.1-.9-3.9-.9zm9.9-.9 3.8-1.1 1.5-6.2-3.1-3.8-2.2 11.1zm5.8-1.7 3.3-1-2.4-2.9-.9 3.9zm-12.8-20.5-1-1.2s-.4.2-.9.5l1.9.7zM325 195.9s3.5 8.9 3.4 17.3c0 0-6.1 1.8-12.9 1.5 0 0-2.3-5.6-2.3-11.6 0 0 5.3 0 7.3.2 0 0 .9 3.3 1.1 5.3l-3.2-2.9-2.4.3s.5 3.6 1.5 5.9c0 0 5.5-.4 7.6-.9 0 0-2.1-9.8-3-11.8 0 0-9-.3-13.4 0 0 0-.7 11.6 3.9 21.8 0 0 12.2 1.6 22.6-4 0 0-1.1-18.2-6.4-25.9l-5.1-1.4 7.6-.3 7.2 10.3s3.4-7.1 2.3-11.9c-2.6-10.7-16.2 3.9-21.8-.6 0 0-2.1 6.2-4.1 8.4l10.1.3z"/><path class="st13" d="M265.5 187.7s-1.5-3.8-5-7.6c-3.6-3.9-7.4-4.7-7.4-4.7l2.5-5.3s1.4 3.3 5.2 4.8l-1.4-4.3 2.6-.4s1.3 1.4 3.5 1.3c2.3.1 3.5-1.3 3.5-1.3l2.6.4-1.4 4.3c3.8-1.4 5.2-4.8 5.2-4.8l2.5 5.3s-3.9.8-7.4 4.7c-3.5 3.9-5 7.6-5 7.6zM300.2 212.8l7.6 9.3c-.7-2.6-1.3-4.9-1.7-7.1l-4-4.1-1.9 1.9zm10.3 12.6 7.6 9.3s3.3-.3 4.7-2.8l-6.3-6.4c-2.4.1-4.6 0-6-.1z"/><path class="st21" d="m321.2 225 4.2 4.8 2.9-1.2 1.7-5.4c0-.1-3.2 1.3-8.8 1.8z"/><path class="st22" d="M347.1 137.1c.2-19.7 16.1-35.6 35.8-35.8-2.2-.5-4.5-.8-6.9-.8-16.4 0-29.7 13.3-29.7 29.7 0 2.4.3 4.7.8 6.9zM265.5 134.9s-20.9.3-31.3 7.3c-10.4 7-10 10.8-6.7 13.4 0 0-6.9 4.3-13.4 4.8-6.6.5-11-4.3-11-4.3s6.6.9 14.5-1.1c0 0 1.8 1 5.4 1.1 0 0-5.6-3.2-7.1-8.7 0 0-.7 2.6-.5 4.2 0 0-16.9 2.6-20.9-10.8 0 0 8.9 5.1 20.8 4.4 0 0 0-2.1 1.4-4.1 1.4-2 3.9-4.9 3.9-4.9s1.3.5 1.5.8c.2.3 5.1 8.1 5.1 8.1l2-2-4.5-7.8v-2.2s6.9-5.2 20.3-8.3c.7.4 1.7.8 1.8 1 .2.3 2.3 8.1 2.3 8.1l2.9-.5s-1.6-8.1-1.4-8.4c.1-.2.7-1 1.1-1.5 4.2-.6 8.8-1 14-1 5.1 0 9.8.4 14 1 .4.6 1.1 1.3 1.1 1.5.1.3-1.4 8.4-1.4 8.4l2.9.5s2-7.9 2.3-8.1c.1-.2 1.1-.6 1.8-1 13.4 3.1 20.3 8.3 20.3 8.3v2.2l-4.5 7.8 2 2s4.9-7.8 5.1-8.1c.2-.3 1.5-.8 1.5-.8s2.5 2.9 3.9 4.9c1.4 2 1.4 4.1 1.4 4.1 11.8.6 20.8-4.4 20.8-4.4-4.1 13.4-20.9 10.8-20.9 10.8.3-1.6-.5-4.2-.5-4.2-1.5 5.4-7.1 8.7-7.1 8.7 3.6-.1 5.4-1.1 5.4-1.1 7.9 2 14.5 1.1 14.5 1.1s-4.4 4.8-11 4.3-13.4-4.8-13.4-4.8c3.3-2.5 3.7-6.3-6.7-13.4-10.8-7-31.7-7.3-31.7-7.3zM390.2 116.5c-2.6.2-5.1.8-7.5 1.7 4.8 4.4 14.1 15.9 9.3 37 8.2-5.3 13.6-14.5 13.6-25 .1-10.9-4.1-14.5-15.4-13.7zm-8.8 2.3c4.5 3.9 14.6 15.4 9 37.3-4.3 2.4-9.2 3.7-14.4 3.7-5.4 0-10.4-1.4-14.8-3.9v-1.5c0-16 8.5-30.1 20.2-35.6z"/><linearGradient id="SVGID_00000100384261543721286000000011767757522899181212_" gradientUnits="userSpaceOnUse" x1="359.261" y1="135.746" x2="381.283" y2="113.813"><stop offset="0" style="stop-color:#4cc7e6"/><stop offset=".51" style="stop-color:#7bd3f7"/><stop offset="1" style="stop-color:#4cc7e6"/></linearGradient><path style="fill-rule:evenodd;clip-rule:evenodd;fill:url(#SVGID_00000100384261543721286000000011767757522899181212_)" d="M349.2 139.4s2.9 7.9 10.5 13.8c0 0-.5-14.9 10.5-27.4 11-12.5 24.8-11.5 29.4-9.8-6.9-14.9-25.4-13.4-36.1-4.3-8.6 7-15.2 18.3-14.3 27.7z"/><linearGradient id="SVGID_00000005259513279859046680000015766542235150694072_" gradientUnits="userSpaceOnUse" x1="439.228" y1="200.055" x2="479.182" y2="193.333"><stop offset="0" style="stop-color:#4cc7e6"/><stop offset=".46" style="stop-color:#aadddf"/><stop offset="1" style="stop-color:#4cc7e6"/></linearGradient><path style="fill-rule:evenodd;clip-rule:evenodd;fill:url(#SVGID_00000005259513279859046680000015766542235150694072_)" d="M477.4 179.3s-11 20.8-36 11.4c-2.7 6.2-6.4 6.4-7.9 10.1-.8 2-.3 4.3.4 6.1 2.7 1.6 7.3 3.6 14.4 4.5 12.5 1.5 31.2-5 34.2-15 0 0 1.3-8.3-5.1-17.1z"/><path class="st22" d="M453.3 191c1.9 0 3.7-.2 5.5-.6-2.2-9.2-5.1-16.9-6.8-21.3-3.5.8-6.8 2.3-9.6 4.4 1.9 4.4 2 9.4 0 15.1 3.2 1.6 6.9 2.4 10.9 2.4zm6.8-.9c-2.2-9.1-5-16.8-6.8-21.3 1.5-.3 3-.4 4.5-.4 7.5 0 14.2 3.1 19 8.1-3.4 6.7-9.4 11.7-16.7 13.6zM482.8 202.9c-4.5 5.2-11.4 9.2-19.5 11 0 2.2 0 4.5-.2 6.7 9.3-1.9 16.9-8.7 19.7-17.7zm-20.9 11.3c-2.8.5-5.7.8-8.7.8-5.4 0-10.5-.9-15-2.5 4.8 5.3 11.8 8.7 19.5 8.7 1.3 0 2.7-.1 4-.3.2-2.2.3-4.4.2-6.7z"/><path class="st25" d="M276.5 192.9c0 .2-3.1 3.4-8.1 3.3-.7.6-1.4 1.1-1.5 1.2-.1.1-.8.2-1.3.2-.6 0-1.2-.1-1.3-.2-.1-.1-.9-.7-1.5-1.2-5 .1-8.1-3.1-8.1-3.3 0-.2-.1-6.1-.1-6.1s-1.4-1.2-2.5-.8c-1 .4-1.9 2.1-1.9 2.1l.4 4.4c2.5 3.6 12.5 11.4 13.1 11.6.6.2 2.1.4 2.1.5 0 0 1.5-.3 2.1-.5.6-.2 10.6-8 13.1-11.6l.4-4.4s-.9-1.7-1.9-2.1c-1-.4-2.5.8-2.5.8s-.5 5.9-.5 6.1z"/><path class="st18" d="M283.6 185.9s-.6 6.5-.8 7c-.2.4-4.8 6.1-6.5 8.1 4-2.9 7.9-5.7 8.2-5.9.6-.5 1.2-1.4 1.2-1.4s1.4-7.3 1.5-7.7c.1-.4-1.1-2.7-3.3-4.2-2.2-1.4-5.8-1.9-8.1-.8-1.5.8-3.3 3.3-4.3 4.8 0 0 4.4-2.6 5.4-3 .9-.3 2.1-.6 3.7.2 1.7.8 3 2.9 3 2.9zm-36.2 0s.6 6.5.8 7c.2.4 4.8 6.1 6.5 8.1-4-2.9-7.9-5.7-8.2-5.9-.6-.5-1.2-1.4-1.2-1.4s-1.4-7.3-1.5-7.7c-.1-.4 1.1-2.7 3.3-4.2 2.2-1.4 5.8-1.9 8.1-.8 1.5.8 3.3 3.3 4.3 4.8 0 0-4.4-2.6-5.4-3-.9-.3-2.1-.6-3.7.2-1.7.8-3 2.9-3 2.9z"/><path class="st8" d="M296.8 142.2c10.4 7 10 10.8 6.7 13.4 0 0 6.9 4.3 13.4 4.8 3.4.2 6.3-1 8.2-2.1-6.4 0-11.1-2-12.8-2.8-.9.3-2.3.6-4.3.6 0 0 2.1-1.2 4.1-3.4l.4-3.4c-1.8-2.7-3.8-5-6.1-7l-2.4 3.9c-.3-.4-3.2-3.1-3.2-3.1l2.1-3.5c-6.1-4.3-13.1-6.7-19.6-8.2l-1 3.8-4.2-.7.6-3.9c-5.5-.9-10.3-1-13.2-1-2.9 0-7.7.2-13.2 1l.6 3.9-4.2.7-1-3.8c-6.5 1.4-13.5 3.9-19.6 8.2l2.1 3.5s-2.8 2.7-3.2 3.1l-2.4-3.9c-2.3 2-4.3 4.3-6.1 7l.4 3.4c2 2.2 4.1 3.4 4.1 3.4-2 0-3.4-.4-4.3-.6-1.7.8-6.5 2.8-12.8 2.8 1.9 1.2 4.8 2.4 8.2 2.1 6.6-.5 13.4-4.8 13.4-4.8-3.3-2.5-3.7-6.3 6.7-13.4 10.4-7 31.3-7.3 31.3-7.3s20.9.3 31.3 7.3z"/><path class="st8" d="M315.5 149.2c.1.8.2 1.7.1 2.5 0 0 16.9 2.6 20.9-10.8 0-.1-8.2 8.6-21 8.3z"/><path class="st26" d="m282.6 175 1.3 2.5 5.7-1.8c-.6-2.1-2-8.3-2-8.3s-.7.7-1.5 1.6c.8 1.3 1.1 3.9-.1 4.9-.9.5-2.4.9-3.4 1.1z"/><path class="st13" d="M282.6 175c1.1-.2 2.5-.5 3.4-1.2 1.3-1 .9-3.6.1-4.9l-2.2 2.2c-1.2.9-3 .7-3 .7l1.7 3.2z"/><linearGradient id="SVGID_00000010274066386853619900000005955309386968809372_" gradientUnits="userSpaceOnUse" x1="265.49" y1="168.407" x2="265.49" y2="-.023"><stop offset="0" style="stop-color:#a6aba9"/><stop offset="1" style="stop-color:#68aa95"/></linearGradient><path style="fill-rule:evenodd;clip-rule:evenodd;fill:url(#SVGID_00000010274066386853619900000005955309386968809372_)" d="M313.6 132c1 .8 2 1.6 2.9 2.5l.2.2s5.9 1.4 9.7 1.4c0 0-1.8 2.8-5.3 3.9l.1.1c1.8.1 10.6.5 17.5-6.1 0 0-6.7-.2-13.8-.8 0 0 5-.6 13.1-5.3 0 0 .3-3 1.4-6.7-5.7 4.4-11.8 6.4-11.8 6.4 3.3-2.9 6.3-6.4 6.3-6.4s-1.3 1.1-8.1 4.8c-6.8 3.6-12.9 5.3-12.9 5.3l.7.7zm-96.2 0c-1 .8-2 1.6-2.9 2.5l-.2.2s-5.9 1.4-9.7 1.4c0 0 1.8 2.8 5.3 3.9l-.1.1c-1.8.1-10.6.5-17.5-6.1 0 0 6.7-.2 13.8-.8 0 0-5-.6-13.1-5.3 0 0-.3-3-1.4-6.7 5.7 4.4 11.8 6.4 11.8 6.4-3.3-2.9-6.3-6.4-6.3-6.4s1.3 1.1 8.1 4.8c6.8 3.6 12.9 5.3 12.9 5.3l-.7.7zm37.6-24.3c-1.6-4.6-4.4-8.1-4.4-8.1s-1.9-8.2-5.1-13.1c0 0 1.2-.5 3-1.2 4 5.2 8 13.1 8 13.1l-.5-8.9s3.6 13.8 5.2 14.7c1 .6 3 1 4.3 1.2 1.3-.2 3.3-.6 4.3-1.2 1.6-.9 5.2-14.7 5.2-14.7l-.5 8.9s4-7.9 8-13.1c1.8.7 3 1.2 3 1.2-3.2 4.9-5.1 13.1-5.1 13.1s-2.8 3.5-4.4 8.1c.8-2.5 1.4-4.1 1.4-4.1-3.2 2.6-5.8 7.8-7.4 9.2-1.6 1.4-4.4 1.3-4.5 1.3 0 0-2.9 0-4.5-1.3-1.6-1.4-4.2-6.5-7.4-9.2 0 0 .6 1.6 1.4 4.1zm-19.3-17.5s11.2 11.8 13.1 20.8c0 0-12.1-19-31.1-29.1-13.5-7.2-23.8-5.8-28.7-4.4 7.7-1.7 21.4 2.1 36.6 14.1 19.2 15.1 22.5 27.2 22.6 27.8 3.4-.6 6.5-1.1 9.2-1.3l-.6-3.3c0-.1-7.4-15.4-21.1-24.6zm10.2-30.6c6.9 11.4-1.4 21.2-12.8 17.1-11.4-4.1-11.4-14.2-7.8-16.9 1.1-.8 2.1-1 3.1-.9-4.4-.1-5.2 4.9-2.2 9.1 2.9 4.3 8.9 5.8 8.9 5.8l-1.9-2.5c3.8 1.8 10.1 2 11.8-3.4 1.6-5.4-1.1-11.3-1.1-11.3.7 1 1.4 2 2 3zm-34.5 40.6c-.6 2.4-1.6 4.2-2.8 5.5l4.4 2.6c12.4 3.4 20.9 12.3 22.6 14.3 1.3-.4 2.7-.9 4-1.2-8.8-13.5-23.6-19.6-28.2-21.2zm-6.2 7.9c-2.1 1-3.9 1-3.9 1 10.8-11.6-2.1-23.8-2.1-23.8l3.6.4c-6.1-5.4-12.1-5.8-15-3.8 6.9-2.2 12.9 6.7 14.3 11.9 1.3 5.1-1.5 14.3-10.2 11.2-8.7-3.1-12.4-14.2-12.4-14.2 1.6 1.7 4.4 2.5 4.4 2.5s-3.3-2.6-4.9-8c-.7-2.4-1-4.3-1-5.7-1.8 4.7-1.3 9.5-1.3 9.5-1.2-1.8-2-3.9-2.5-5.8-6.3-9.9-13.3-9-13.3-9 1.9-1.9 6-1.4 6-1.4-4.4-2.8-10.6-1.3-10.8 7.4-.2 8.7 7.8 13.5 10.3 11.8 1.4-1 1.2-2.7.7-4.1-2.1-2.9-4.5-2.9-4.5-2.9 1 .5 3.7 4.4 1.6 4.2-2.1-.2-5.8-6.5-4.7-7.5 1.1-1.1 3.8-1.4 9.7 4.2 6 5.6 8.8 10.5 8.8 10.5 5.1 12.5 16.7 13.5 16.7 13.5 4 3 27.1 18.9 27.2 19 .7-.5 1.7-1 2.7-1.5.2-.1.3-.2.5-.3-7-7-15.5-13.3-15.5-13.3l5.4 1.5c-4.4-4.2-8.1-6.4-9.8-7.3zm90.1-17.9c-13.7 9.2-21.2 24.5-21.2 24.5l-.6 3.3c2.7.3 5.8.7 9.2 1.3.2-.6 3.5-12.6 22.6-27.8 15.2-12 28.9-15.8 36.6-14.1-4.9-1.4-15.2-2.7-28.7 4.4-19 10.1-31.1 29.1-31.1 29.1 2.1-9 13.2-20.7 13.2-20.7zm-10.2-30.6c.6-1 1.3-2 2.1-2.9 0 0-2.7 5.9-1.1 11.3s8 5.2 11.8 3.4l-1.9 2.5s5.9-1.5 8.9-5.8c2.9-4.3 2.2-9.2-2.2-9.1 1-.1 2.1.1 3.1.9 3.6 2.7 3.6 12.8-7.8 16.9-11.5 4-19.9-5.8-12.9-17.2zm34.5 40.6c.6 2.4 1.6 4.2 2.8 5.5l-4.4 2.6c-12.4 3.4-20.9 12.3-22.6 14.3-1.3-.4-2.7-.9-4-1.2 8.7-13.5 23.6-19.6 28.2-21.2zm6.2 7.9c2.1 1 3.9 1 3.9 1-10.8-11.6 2.1-23.8 2.1-23.8l-3.6.4c6.1-5.4 12.1-5.8 15-3.8-6.9-2.2-12.9 6.7-14.3 11.9-1.3 5.1 1.5 14.3 10.2 11.2 8.7-3.1 12.4-14.2 12.4-14.2-1.6 1.7-4.4 2.5-4.4 2.5s3.3-2.6 4.9-8c.7-2.4 1-4.3 1-5.7 1.8 4.7 1.3 9.5 1.3 9.5 1.2-1.8 2-3.9 2.5-5.8 6.3-9.9 13.3-9 13.3-9-1.9-1.9-6-1.4-6-1.4 4.4-2.8 10.6-1.3 10.8 7.4.2 8.7-7.8 13.5-10.3 11.8-1.4-1-1.2-2.7-.8-4.1 2.1-2.9 4.5-2.9 4.5-2.9-1 .5-3.7 4.4-1.6 4.2 2.1-.2 5.8-6.5 4.7-7.5-1.1-1.1-3.8-1.4-9.7 4.2-6 5.6-8.8 10.5-8.8 10.5-5.1 12.5-16.7 13.5-16.7 13.5-4 3-27.1 18.9-27.2 19-.7-.5-1.7-1-2.7-1.5-.2-.1-.3-.2-.5-.3 7-7 15.5-13.3 15.5-13.3l-5.4 1.5c4.5-4.2 8.2-6.4 9.9-7.3z"/><path class="st20" d="m285.8 160-10.9 6.1s4.6 2.5 6.5 2.2c1.9-.3 5.5-4.5 5.5-4.5l-1.1-3.8z"/><path class="st18" d="M265.5 252.9s2.5 33.3 2.5 37.1c0 3.8 0 19.9 4.4 24.6 4.4 4.7 11 3.5 11 3.5l7.4.4c-7.7-2.3-9.6-5.5-9.6-5.5 8 4.8 16.4 4 20 .8 3.6-3.2.7-7.8.7-7.8s3.1 1.6 3.1 5.7-3 5.7-3 5.7l10.8 2.1-7.2-4.1s9-1.4 11.6-.9c2.5.6 4 2.8 4 2.8s.1 1.1-1.2 3.7c1.6-2.6 1.8-7.6 1.8-7.6l-2.9-4.8s-5.8-.1-6.1-3.3c-.4-3.2 4.6-5.6 4.6-5.6s-3.8-1.1-5.7-3.6c-1.9-2.5-2.2-7.9-4.5-11.1-1.2-1.7-4.3-3.9-7.1-5.8 0 0 3 2.8 4.2 5.6 1.2 2.8 1.3 6.2 2.4 9.4 1.1 3.2 2.6 4.8 2.6 4.8-2.3 2.9-2.6 8-2.6 8-.7-4.1-7.4-6.1-7.4-6.1 1.5-1 .3-3.3.3-3.3s0 1.8-2.3 1.9c-2.3.1-4.1.7-5.2 3-1.2 2.3-.1 6.4 2.9 6.2 3.1-.3 2.1-2.8 2.1-2.8s.3.9-.8 1.2c-1 .3-2.1-.6-1.8-1.7.3-1.2 2.8-2.6 4.5-.1 1.7 2.5-1.3 9.8-12.6 6.5-11.3-3.3-13.2-14.6-13.2-14.6 3.3 6 9.3 7 9.3 7-4.2-1.8-8.4-10.9-9.9-17.9-1.5-7-5.9-46.7-5.9-46.7l-1.1.1v13.2z"/><path class="st18" d="M279 263.4c6.9 10.3 5.1 27.5 5.1 27.5 1.6 4.9 6.4 7.5 6.4 7.5s-1-1.2-1.6-3.1c-.6-1.9-1.3-6 .7-6 2-.1 2.2 2.7 5 3.6 2.8 1 6.1.7 6-2.2-.1-2.4-2.3-2.8-3.1-2.8 1.6.3 2.1 3.7-.4 2.6-2.7-1.2-5.1-5.1-8.2-14.1-3.1-9.1-6-13.5-6-13.5-.4-2.6-1.3-7-1.3-7 1.1.1 2.5-1.1 2.5-1.1s-.9.4-2.2-.8c-1.3-1.3-2.4-5.3-4.6-14.1-2.2-8.8-4.5-12-4.5-12h-2.5s-.5-2.2-.9-4.4-.2-4.6-.2-4.6c-.6.8-1 1.6-1.1 2.5-.4 3.6 1.2 8.8 1.2 8.8h2.1s.7.6 2.4 6c1.7 5.3 5.2 27.2 5.2 27.2z"/><path class="st28" d="M296.3 308.4s-.9 1.9-4.4 2.7-9.1-.7-9.1-.7c1 .6 2.2 1 3.5 1.4 11.3 3.3 14.3-3.9 12.6-6.5-1.7-2.5-4.2-1.1-4.5.1-.3 1.2.8 2 1.8 1.7 1-.3.8-1.2.8-1.2s.6 1.7-.7 2.5zM267.5 237.7s2.3 18.3 3.5 24.6c1.2 6.3 1.9 12.5 1.9 12.5l1-4s.7 17 5.3 24.5c4.5 7.5 10.6 7.1 10.6 7.1s-7.3-5.6-9-10.3c-1.7-4.7-6.4-28.6-6.4-28.6-.5-7-6.3-28.1-6.3-28.1-1 0-2.6.4-2.6.4v2.1l2-.2z"/><path class="st14" d="M306.7 307s.3-5.1 2.6-8c0 0-1.5-1.6-2.6-4.8-1.1-3.2-1.2-6.7-2.4-9.4-.1-.3-.3-.6-.5-1 0 0-8.7-6.1-9.3-6.5-.6-.4-5.1-7.1-5.1-7.1s.4 1.3 3.7 7.5c3.3 6.2 8.5 8.3 10.7 14 2.2 5.7 2.9 15.3 2.9 15.3z"/><path class="st2" d="M290.2 226.4c.4-2 1.3-6.3 1.8-8.4l-.9.6-1.3 6.9.4.9zM294 216.7l7 2.4-.6-.7-5.8-2.1c-.2.1-.4.3-.6.4zM305.3 224.2l-10.9-3.6-2.1 10.8.3.6.4.1 2.1-10.5 10.9 3.6z"/><path class="st2" d="m297.4 230.7.4-3.4-.6-.1-.3 2.9-1.8-.2-.6.5z"/><path class="st2" d="m302.6 226.4-1.5 8.9-7.7-1.4.3.9 7.9 1.4 1.8-10.3zM310.6 201l10.4.1 1.1-1.9s-9-.3-13.4 0c0 0-.7 10.6 3.4 20.6-.1 0-1.8-12.1-1.5-18.8z"/><path class="st2" d="m318.4 205.8-2.4.2s.5 3.6 1.5 5.9l-.1-4.8 1-.1v-1.2z"/><path class="st21" d="M330.1 216.4s-7.3 2.6-14.8 1.8l.3 3c3.8.1 10.6-.2 17.1-3 0-1.5-.1-5.6-.8-9.1l-1.8 7.3z"/><path class="st2" d="M318.9 187.3s-2.1 6.2-4.1 8.4l2.9.1c1-1.3 2.3-3.4 2.8-5l6.7 1.9s6.4 10.1 7.9 24.4c0 0-1.1-18.2-6.4-25.9l-5.1-1.4 3.9-.1-4.1-1.8c-1.9.3-3.5.2-4.5-.6z"/><path class="st4" d="m324.6 244-27.5 8s.6 1.2.4 2.9c6.7-1.7 21-5.5 27-8.1.3-1 .3-2 .1-2.8z"/><path class="st14" d="m292.5 250.1 30.5-8.8c-1-.9-2.4-1.5-3.8-1.4l-28 8c.4.8.9 1.5 1.3 2.2zM277.8 165.8l6.6-3.9s.7-.3 1 .4c.3.6-.2 1.6-.4 2-.3.4-2.7 2.7-3.6 3.1-1 .5-3.5-.8-3.5-.8s-.5-.4-.1-.8z"/><path class="st29" d="M376.4 227.1c-6.1 1.7-17 14.1-17 14.1-.2.4-.5.7-.7 1.1-3 4.8-5 9.2-5 11.8l1.4.2s5.9-5.9 10.1-8.3c0 0-.3-7.4 6.5-15.1 1.4-1.8 3-3 4.7-3.8zM396.5 204.7s16.8 5.6 16.5 5.6h-3.7l3.9.4c3.7-2.9 4.2-6 3.9-7.7-.3-1.7-.1-3-.1-3l-18.3-3.2c-.4.4-.8.9-1.2 1.4-.7 1.1-1.2 2.6-1.1 4.8.1.6.1 1.2.1 1.7zM402 179c5.9-.3 25.8-3 25.8-3s1.4.5.5 1c-.1.1-.9.4-2.1.8l4.6-1.6s-.7-1.4-2.1-2.5c-1.5-1.1-2.8-1.6-6.8-4.1-4.1-2.4-11.2-9.1-11.2-9.1-7.8 6.1-17.1 7.9-19.5 8.3.4 2.3 1.2 4.6 3 6.1 1.7 1.4 3.5 2.2 5.2 2.9.8.4 1.7.7 2.6 1.2z"/><path class="st17" d="M395.1 203.1c-.1-2.5.4-4.2 1.3-5.6.2-.3.4-.6.7-.9l-1.8-.3c-.6.8-1 1.8-1.3 2.9 0 .1-.2 3.3 1.1 4.6v-.7zM352.4 253.8c.1-3 2.1-7.5 5.2-12.4.1-.2.2-.3.3-.5l-1.8-.2c-3.2 5.2-5.3 9.9-5.2 12.9l1.5.2z"/><path class="st14" d="M377 224.4s9.3-2.5 14.3 1.2l9.5-7.4-9.2-3.2c.1 0-9.3 4-14.6 9.4zM409.7 186.4s.2 5.3-4.4 8.2l11.6 1.7s.2-1.8 1.7-3.8c1.5-2 2.7-2.8 5.2-4.6 2.5-1.7 3.3-3.8 3.3-3.8l-17.4 2.3z"/><path class="st10" d="m325.2 233 8.1.9 1.1 9.4-9.5-1.7.3-8.6zm8.5 9.1-.9-7.1-2.7 3.2 3.6 3.9z"/><path class="st14" d="M479.8 246.1c14.9 6 18.3 19.3 18.3 19.3-1.2-12.8-7.4-16.5-7.4-16.5s6.4 1.8 10.3 14.9c3.9 13.1-1.6 27.8-1.6 27.8 3.7-1.3 6.9-1.3 9.5-.8 5.8-24.5-1.3-50-31.1-50.3-7.5-.1-13.9 1.3-19.1 3 5.2-.6 12.9-.7 21.1 2.6z"/><path class="st29" d="M471.9 261.2c-4.4-6.7-13-8.2-18.1-8.5-1.2.5-2.1 1.1-2.9 1.8 8.5 3.3 11.5 11.1 5.9 22.2-.3.5-.5 1-.8 1.4.6.1 1.1.3 1.6.5 4.3-7.1 9.9-13.7 14.3-17.4zM450.7 319.3c-1.9-.1-9.8-2.4-13.5-3.4-3.7-1-4.5-3.4-4.5-3.4.4 4.5-2.9 8.9-2.9 8.9l2.2.9 12.4 3.6c1.7-.8 6.9-3.3 8.3-6.3.1-.3.3-.6.4-.9-.6.2-1.4.6-2.4.6zM421 342.2l-14.3-5.9s-3.7 3.5-10.8 6c-3.5 1.3-6.7 1.8-9.1 2 10.5 2.4 19.5 2.5 27 1.4 1.7-.8 4.3-2 7.2-3.5z"/><path class="st17" d="M380.8 341.1c4.7-.1 8.7-1.1 12.4-2.3 2.9-.9 5.8-2.4 8.3-3.9.2-.1.5-.3.7-.5l-2.2-1c-2.2 1.3-4.9 2.6-8.5 3.8-11.7 4.1-25.5-.2-25.5-.2 3.2 1.5 6.3 2.7 9.3 3.8 1.9.3 3.8.4 5.5.3zM453.9 320c-1.3 2.8-5.1 5.1-7.5 6.3l.6.2s7.2-.8 9.4-7.6c-.8-.1-1.4-.4-1.8-.6-.2.5-.4 1.1-.7 1.7z"/><path class="st2" d="m326.8 273.7 3.6-2s2.6 3.6 3.9 6.5l14.8-17.9 1.7.2 1.2-2.2-3.1-.2-14.4 17.2s-4.2-7.5-8.1-11.4l-4.6 3.3c0 .1 2.3 1.8 5 6.5zM364.9 291.1c-12.5 16.4-24.7 19.3-24.7 19.3 1.1-12.4-3.6-28.6-3.6-28.6l-.6.8c.9 2.8 2.6 12.5 2.6 12.5l-1.2.2c1.3 9.6.7 17.5.7 17.5 16.4-1.8 29.2-21.9 29.2-21.9l-2.4.2z"/><path class="st11" d="m340.1 284.9 9.6 9.2 11.3-2.4c-.1.1-12.3-5.6-20.9-6.8z"/><path class="st1" d="m349.6 294.1-5.8 9.9c3-1.1 8.6-3.6 14.1-8.7 1-1.1 2-2.3 3-3.6l-11.3 2.4z"/><path class="st21" d="M367.3 290.9s-12.9 20-29.2 21.9c0 0 .6-7.9-.7-17.5l1.2-.2s-1.6-9.7-2.6-12.5l.6-.8c11.7 1.6 28.3 9.3 28.3 9.3l2.4-.2zM337 279.8l-3.4 1.3c1 4.4 2.5 12.2 2.5 12.2l-2.7.3c3.3 19.8-1.3 31.6-1.3 31.6l5.8 3.3 2-11.7s14.7 4.1 24.2 10.3l4.1-1.4s-5.5-4-10.9-6.6v-6.3s-4 1.9-9.2 1.9c0 0 15.1-8.4 24.8-25.5 0 0-1.3-.7-3.5-1.7l-6.1.8c-8-4-26.3-8.5-26.3-8.5z"/><linearGradient id="SVGID_00000114790401220420301750000000870422918792445838_" gradientUnits="userSpaceOnUse" x1="313.379" y1="180.139" x2="391.868" y2="204.116"><stop offset="0" style="stop-color:#98aba4"/><stop offset="1" style="stop-color:#649484"/></linearGradient><path style="fill-rule:evenodd;clip-rule:evenodd;fill:url(#SVGID_00000114790401220420301750000000870422918792445838_)" d="M304 172c-2.8.5-5.9-1.4-6.8-4.5-1-3.1-3.9-19.7-3.9-19.7l3.4 2.5c-.6-2.9-1.2-5.3-1.6-6.1 0 0-3.7-3-6.2-4 0 0 3 9.5 5 21.9 2 12.4 8.1 13.8 10.2 13.5 3.3-.7 4-4.3 5.2-5.1 1.2-.8 2.6.2 2.6.2s-1.2-.1-2.4 1.3c-1.2 1.4-1.7 4.4-1.7 4.4 1.2-3.6 2.5-5.5 4.7-4.9 2.4.6 1.7 6.9 5.9 10.7 4.2 3.8 10.4-.8 14.6-3.8 4.2-3 14.1.7 14.4 9.3.4 8.6-4.7 19.2-8.5 23.9 7.8-5.3 11.7-19.2 11.7-19.2l.7 3.9s2.6-10.1-3.9-16.7c-6.5-6.5-13-4.9-13-4.9 2.7-2.4 6.9-1.9 6.9-1.9s-1.3-.8-5.1-.4c-3.7.3-6.6 3-7.9 4-1.3 1-6 3.6-8.5 1.7-2.5-1.9-2.7-4.5-3.6-6.8-.9-2.2-3-4.9-6.1-3.9-3.3.7-3.3 4.1-6.1 4.6zm46.5-5.9c-2.3-2.3-4.9-2.6-4.9-2.6s7.5-.6 13.6 8.6c4.5 6.9 5.3 16.9 6 23 1.5 12.3 6.9 14.5 15.3 4 7.2-9 3.8-18 3.8-18l.6 1.3c3.6 8.2-.6 22.9-11.7 27-13.9 5.2-9.7-6.7-12.6-23.1-.3-1.6-.7-3-1.1-4.3-3.4-13.5-10.2-15.9-17.8-15.2-6.2.5-13.5 4.3-16.2 5.8 1.2-.8 2.5-2 4-3.3 12.3-6.9 21-3.2 21-3.2zm8.3 41.3s-2 6-.9 9.7c1.1 3.7 6.3 4.6 10.6.3 0 0-3.7.4-6.6-2.7-3-3-3.1-7.3-3.1-7.3zm-8.8-4.9c0 .1-.1.1-.1.2 1.1-2.7 1.9-4.5 1.9-4.5s-3.1 17.6.7 22.5c3.8 5 8.2 2.8 8.2 2.8-4.8 4.5-10.1-.5-10.1-.5-4-5-.6-20.5-.6-20.5z"/><path class="st31" d="M342.5 156.9c6.8-1.1 11.3 2.2 11.3 2.2s-.3-2.2-1.9-4.4c-2.1-1.5-6-2.9-11.6-1-2.9 1-5.1 2.5-6.9 4.1-1 1.8-1.6 3.5-1.8 4.9.1-.1 4.1-4.7 10.9-5.8z"/><path class="st8" d="M349.7 124c-.6-2-.9-3.9-1-5.5-1.5 3.6-2.4 7.6-2.4 11.7 0 2.4.3 4.7.8 6.9.1-4.6 1-9 2.6-13.1zM383.2 149.6s-10.7 1.4-20.6-6.2c-.9 3.5-1.4 7.2-1.4 11 15.8 8.2 27.8.9 27.8.9 1-3.9 1.5-9.4 1.5-9.4-7 2.8-16-.4-16-.4 3.9 3.5 8.7 4.1 8.7 4.1zM392.9 137.4c.8 5 .8 10.8-.8 17.8 8-5.2 13.4-14.2 13.6-24.4-.8 11.5-10.1 17.4-10.1 17.4-.4-6.3-2.7-10.8-2.7-10.8z"/><path class="st14" d="m395.1 135.5 1.7-2.1c1 4.8.4 10.1.4 10.1 3.3-3.1 6.5-11.4 5.4-18.1-.5-3.2-1.9-6-3.2-8.1-2.3-.9-5.3-1.1-9.2-.9-1.9.1-3.9.5-5.7 1.1 8.7 5.7 10.6 18 10.6 18zM391.6 137.7c-1.6-10.3-7.2-16.3-10.2-18.9-6.2 2.9-11.5 8.2-15.1 15 2.8 2.2 12.7 8.7 25.3 3.9z"/><defs><path id="SVGID_00000067942770662708522070000005944606494029423538_" d="M361.2 130.8c-3.3 6.8-5.1 12.9-5.5 11.2-.4-1.8 2.1-11.1 1.3-9.8-.8 1.3-2.2 5.1-3 6.2-.7 1.1-3.5 2.6-.4-9.4s11.4-18.7 11.4-18.7c-.6.4-1.1.8-1.6 1.3-8.2 6.9-14.6 17.6-14.3 26.8 1.5 2.9 5 9.3 9.5 12.7-.1-11.7 8-23.6 8-23.6-.3-.3-2.1 2.8-1.3.2.8-2.6 2.2-4.7 2.7-5.4.5-.8-3.5 1.7-6.8 8.5z"/></defs><clipPath id="SVGID_00000036939862516764475050000001647839486375198392_"><use xlink:href="#SVGID_00000067942770662708522070000005944606494029423538_" style="overflow:visible"/></clipPath><g style="clip-path:url(#SVGID_00000036939862516764475050000001647839486375198392_)"><Image style="overflow:visible" width="32" height="67" xlink:href="B04AD315.jpg" transform="matrix(.5908 0 0 .6097 349.087 110.294)"/></g><path class="st25" d="M384.6 104.9c-3.5.7-8.5 2.2-12.3 4.8-6.5 4.5-.7 1.3.1 1.2.8-.1-2.7 3.6-5.3 5.5-2.6 1.9-.1-2-.1-2.5s-7.3 4.7-11 13.4 2.2-3.1 5-6 3.1-3 2.8-1.3c-.3 1.7 1.9 1.9 5.4-.7 3.4-2.6 6-6.1 8.3-7.3 2.3-1.2-.3.8-.5 2.5s3.1.8 5.6-.4c2.5-1.2-1.5.4-2.2-.4-.7-.8 2.3-3.1 6-3.5 3.8-.4 7.8 1 8.9 1.9 1 1 .7 1.4-1.7 1.7-2.5.3-8.6.7-10.4 2.9 7.1-2.6 13.6-1.8 16.5-.8-3.3-6.8-8.9-10.2-15.1-11z"/><path class="st14" d="M396.7 111.4c-2.1-2.6-4.8-4.4-7.7-5.5-2.2.2-5 .8-8.1 2.1-6.4 2.7 3.2-.6 7.9-.1s7.9 3.5 7.9 3.5z"/><path class="st25" d="M371.6 108.3c2.7-1.5 5.9-2.7 8.6-3.6-3.7.2-7.5 1.3-10.9 3-2 2-4.3 4.6-5.5 6.4-2.4 3.5 1.8-2.3 7.8-5.8zM370.5 120.9s2.7-2.5 4.4-3.5c1.7-1-.1 1.1-2.6 3s-2.4 1-1.8.5zM358.2 128.8s1.7-3 3.3-4.9c1.6-1.9 1.4-.6-.5 2.5-1.9 3.2-3.8 4.1-2.8 2.4z"/><path class="st8" d="M450.1 188.7c-3.8-1.5-6-6.2-4.9-11.8 1.1-5.6 6.7-7.7 6.7-7.7-3.5.8-6.8 2.3-9.6 4.4 1.9 4.4 2 9.4 0 15.1 3.3 1.5 7.1 2.4 11 2.4 1.9 0 3.7-.2 5.5-.6-.1-.5-.3-1-.4-1.5-5.4 1.1-8.3-.3-8.3-.3zM453.3 168.9c1.8 4.5 4.6 12.2 6.8 21.3.3-.1.7-.2 1-.3-.7-2.9-3.3-12.5-6.9-21.1-.3 0-.6 0-.9.1z"/><path class="st14" d="M456.1 168.5s4.5 4.5 6.7 19.3c2.5-1 9.2-4.4 13-12.1-4.7-4.5-11.1-7.2-18.1-7.2h-1.6z"/><path class="st8" d="M464.6 213.6c-.4.1-.9.2-1.3.3 0 2.2 0 4.5-.2 6.7l1.2-.3.3-6.7zM457.3 221.2c-3.8-1.6-4.9-4.6-5.3-6.1-4.9-.1-9.6-1-13.8-2.5 4.8 5.1 11.6 8.4 19.1 8.6z"/><path class="st14" d="M455.6 215c1.4 4.4 6.2 5.9 6.2 5.9.2-2.2.2-4.4.2-6.7-2.1.4-4.3.7-6.4.8z"/><defs><path id="SVGID_00000054953813884256267430000013715067298270002311_" d="M433.5 205.6s8.4 3.8 17.4 4.5c9 .7 18.6-3.6 20.2-4.8 1.6-1.1-3.5 2.2-15.9 2-12.4-.2-9-2-5.7-2.4 3.3-.4 5.2-.4 6.7-3.1s4.2-3.4 6.8-1.6c2.6 1.9 10.6-.4 11.6-4.6 1-4.2-7-5.9-9.3-2.2-2.3 3.6.8 3.9 1.9 3.3 1.1-.6.1-.5-.6-.8-.7-.3-.1-1.5 1.1-1.9 1.2-.4 2.6 1.3.6 2.8-2 1.5-3.5 1.3-5.4 0-1.8-1.3-5.4-2.1-9.1-1.3-3.7.9-1.7.8-.6 1.3 1.1.4-.8 3-1.5 3.2-.7.3-2.8-1.4-4.8-.1-2 1.3-.2 3.5.1 3.3.3-.2-.4-1.6.9-1.7 1.3-.1 1.8 1.4.4 2.1-1.4.7-3.4 0-4.2-1.2-.8-1.2-.7-2-2-3.3-1.3-1.2-1.5-2-.3-2 1.1-.1 2.3 1.6 3.6 1.6 1.3 0 2.6-1.6 3.9-1.8 1.2-.1.3-.7-.6-.7-.9 0-1.3 1.2-3 .5s-3.2-2.5-2.8-3.1c.4-.6.3-.7 3.9-.5 1.8.1 3.3-.1 4.5-.3-3.1-.2-6.4-1-10-2.3-2.7 6.2-6.4 6.4-7.9 10.1-.4 1.7-.3 3.5.1 5z"/></defs><clipPath id="SVGID_00000103237690176940076670000017249992432321697441_"><use xlink:href="#SVGID_00000054953813884256267430000013715067298270002311_" style="overflow:visible"/></clipPath><g style="clip-path:url(#SVGID_00000103237690176940076670000017249992432321697441_)"><Image style="overflow:visible" width="69" height="32" xlink:href="B04AD317.jpg" transform="matrix(.6031 0 0 .6105 433.181 190.715)"/></g><path class="st25" d="M478 188.3c.4.6 1.1 5.4-2 9.5-3.1 4.2-8.6 6-10.7 6.7-2.1.7 5.8.5 10.6-2.8s6.8-6.7 6.8-6.7c0-2.8-.5-9.1-5.2-15.7 0 0-3.4 6.4-10.7 10.5 0 0 3.5-1.1 7.3-2.9 3.8-1.9 5.1-2.3 3.2-.3-1.9 2-3.7 2.6-2.9 2.7.7.1 3.1-1.6 3.6-1z"/><path class="st18" d="M376.5 308.7c-6.6 1.9-8.7 3.6-6.2 1 2.5-2.6 11.2-6.9 11.2-6.9l-2.4 3.7s5.8-5.9 18.5-7.6c9.6-1.3 16.6 1 19.4 2.2-.4-1.6-1.2-3-2.6-4.2 0 0-14.5-6.9-31.3 3.7 0 0 2.7-4.1 9.1-7 9.9-4.5 18.8-3.6 23.5-2.7-1.8-1.4-5-3.5-8.8-4 0 0 9-1.8 14.6-1.8s18.7.3 27-6.2c2.3-1.8 3.9-3.8 5-5.9-1.6 1.7-4.8 3.6-10.7 5.1-15.1 3.8-20.5 1.3-34.8 4.8-14.3 3.4-28.1 13.3-28.1 13.3l2-9.4s-9.7 16.3-19.3 23.2l.1 6.9 5.7 3.2s9.4-3.7 20.6-2.9c3 .2 5.3.9 6.8 1.8-2.7-3.9-13.3-3.3-18.7-3-5.4.3-8-.7-7.7-1.6.3-.8 5.6-3.2 14.5-3.4 8.9-.2 15.6.3 20.2 3.5s3.3 7.7 3.3 7.7c.5-.7.9-1.4 1.4-2.2 4-7.1-6-11.4-14.1-12.5l-5.3-.2s-6.3-.4-12.9 1.4z"/><path class="st18" d="M384.5 320.9c-4.1 2.2-5.5 7 1.5 8.9 6.3 1.6 13.2.3 18.3-4.3-10.7 6.4-19.2 3.6-21 1.1-1.7-2.5 1.2-5.7 1.2-5.7zM366.9 279.5c2.8-1.3 7.3-2.8 14.4-4.3 16.5-3.4 40-3.4 40-3.4-8-1.1-21.9-2.5-35-2.1-12.9.9-22.2 5.5-25.8 7.6 1.5.5 3.8 1.2 6.4 2.2zM363.4 269.4c6.9-6.2 14.5-8.5 21.6-12.6 4.9-2.9 7.1-7.6 7.9-10.3.1-1.4-.2-3-.8-4.7 0 0-1.8 10.4-12.4 13.7 0 0-2.9.5-12.6 6.5-6.5 4-9.9 8.3-11.4 10.6l1.7 2.6c1-1.1 2.7-2.9 6-5.8z"/><path class="st32" d="m327.1 300.9-5.6.3c.7 7 .3 12.4.3 12.4s0 1.1-.2 2.5l5.5 1.3c1.5-7.7 0-16.5 0-16.5zM326.7 323.7c-3 .1-5.5-1.2-6.9-2.3-1.4 2.2-4.3 2.2-4.3 2.2 4.2 3.3 8.6 4 11.2.1z"/><path class="st14" d="m286.4 223.9-1.5-3.5-2.4 1 1.1 3.6c.7-.3 1.7-.6 2.8-1.1z"/><path class="st4" d="m290.6 233.5-2.8 1-3.4-6.8 4.5 15c1.4-.2 3.4-.8 4.8-1.9l-3.1-7.3zM310.5 225.4l6.7 8.2c1.3-.3 3.3-1 4.7-2.6l-5.4-5.4c-2.4 0-4.6-.1-6-.2z"/><path class="st14" d="M301.7 214.6c.7-.6 1.4-1.2 2.1-1.9l-1.7-1.7-1.9 1.8 1.5 1.8z"/><path class="st31" d="M376.8 172.5c-1.8.8-4.4.6-6.3-.4-3.2-1.8-8.3-7.9-11-9.7 3.1 1.4 14.9 9.7 16.4 6.7.5-1-.7-1.8-1.2-1.5-.6.3-.5 1.3-.5 1.3-1.6-2-.4-4.8 2.2-4.3 3 .6 5.6 5.6.4 7.9z"/><path class="st29" d="M320.5 294.6c.5 2.3.8 4.5 1 6.6l5.6-.3s1.5 8.8 0 16.5l-5.5-1.3c-.2 1.6-.7 3.7-1.5 5.1 0 .1-.1.2-.2.3 1.4 1 3.8 2.4 6.9 2.3 2-3 3-8.7 2.3-18-.3-4.6-.9-8.5-1.5-12l-7.1.8z"/><path class="st14" d="m316.1 281.5 4.6-2c-2.7-5.6-4.9-6-4.9-6-1.3.7-2.8 1.9-3.9 2.8 1.5.7 2.8 2.3 4.2 5.2z"/><path class="st10" d="m336.2 269.4 3.6-3.9-3.9 2.3.6-6.9 9-1.7.8-.9-11 1.7-.6 11.1z"/><path class="st11" d="m348.5 331.5 9.1-3.6c-6.8-3.3-13.1-5.2-13.1-5.2l4 8.8z"/><path class="st15" d="M449.6 252.8c19.1-9.7 30.7 2.4 33.9 18.5 3.2 16.1-3.6 35.6-3.6 35.6 1.2-1.2 2.7-2.5 4.2-3.8 3.2-8.4 4.3-18 3.3-26.9-1.1-9.9-4.7-18.9-11-24.4-7.1-6.3-16.2-5.8-22.8-4.1-3.7.9-8.1 2.3-10.9 5.1 3.1.2 5.8.8 8.1 1.7.8-.6 1.7-1.2 2.9-1.8-2.4-.1-4.1.1-4.1.1z"/><path class="st21" d="m336.3 187.4-1.4 5.8 1.2-2 2.8 4.7s1.5-2.8 2-5.2c0-1 0-1.9-.2-2.8-1.7-7.1-8.2-3.1-14-.9l5.9-.4 2.4 3.6 1.3-2.8zM309.1 236.9l1.5-6.2-2.4-3-1.7 10zM299.3 239.8l-3.9-.9.8 1.8zM312 232.4l-.9 3.9 3.3-1z"/><path class="st11" d="m325.2 233-.3 8.6 4.7-3.5z"/><path class="st4" d="m336.6 223.9-2.2 8.8 1.4.7s.5.3 1 0c0 0 1.8-9.5 3.4-14.1 0 0-2.6 1.9-6.4 3.2l-.9 2.4c1.9-.3 3.7-1 3.7-1z"/><path class="st14" d="m332.6 231.7 1.4-4.6-2.1.3-.6 1.6s-.5.9 0 1.7c.1.2.6.5 1.3 1z"/><linearGradient id="SVGID_00000044164851604891220570000017425832004483760264_" gradientUnits="userSpaceOnUse" x1="363.175" y1="263.555" x2="385.583" y2="233.369"><stop offset="0" style="stop-color:#46c5de"/><stop offset="1" style="stop-color:#9ddae6"/></linearGradient><path style="fill-rule:evenodd;clip-rule:evenodd;fill:url(#SVGID_00000044164851604891220570000017425832004483760264_)" d="M371.4 248.6s-11.8 1.6-19.4 18.4l3.6 5.6c1.5-2.3 4.8-6.5 11.4-10.6 9.7-6 12.6-6.5 12.6-6.5s9.5-9.7 9.7-17.9c.2-8.2-6.9-9.9-13.2-5.2-6.2 4.7-6.9 13.1-3.3 14 3.6.9 6-5 5.6-6.9-.5-1.9-2.2-1.1-3-.1 0 0 1.5-.3 1.1 1.1-.4 1.4-1.9 3.4-3 2.3-1.1-1 .1-4.8 2.7-6.2 2.6-1.4 5.3-.1 4.5 4.3-.8 4.4-8.6 14.9-21.1 20.8-.2-.1 6.3-8.6 11.8-13.1z"/><linearGradient id="SVGID_00000124849839717416081050000016493461867160160389_" gradientUnits="userSpaceOnUse" x1="379.849" y1="306.422" x2="402.949" y2="315.31"><stop offset="0" style="stop-color:#46c5de"/><stop offset="1" style="stop-color:#a8deea"/></linearGradient><path style="fill-rule:evenodd;clip-rule:evenodd;fill:url(#SVGID_00000124849839717416081050000016493461867160160389_)" d="M389.4 307.3s4.4-2.8 13.2-2.1c8.8.7 14.3 5 14.3 5s1.4-4.8.1-9c-2.8-1.2-9.8-3.5-19.4-2.2-12.7 1.7-18.5 7.6-18.5 7.6l2.4-3.7s-8.7 4.3-11.2 6.9c-2.5 2.6-.4.9 6.2-1 6.6-1.9 12.9-1.5 12.9-1.5zm14.6 7.1c4.6 3.2 3.3 7.7 3.3 7.7-.9 1.2-1.9 2.3-3 3.3-10.7 6.4-19.2 3.6-21 1.1-1.8-2.5 1.2-5.7 1.2-5.7.8-.4 1.7-.8 2.6-.9 5.9-1.2 9.4.9 7.9 3.2-1.5 2.3-4 1.1-4 1.1 2.4-.6 2.1-2.2-.8-1.5-2.9.7-4.6 5.2 3.1 4 5.6-.9 6.6-5.1 2.3-7.7-2.7-3.9-13.3-3.3-18.7-3-5.4.3-8-.7-7.7-1.6.3-.8 5.6-3.2 14.5-3.4 9-.3 15.6.2 20.3 3.4z"/><linearGradient id="SVGID_00000114067365026960127660000004253219080872087737_" gradientUnits="userSpaceOnUse" x1="398.916" y1="280.048" x2="444.93" y2="265.92"><stop offset="0" style="stop-color:#46c5de"/><stop offset="1" style="stop-color:#9ddae6"/></linearGradient><path style="fill-rule:evenodd;clip-rule:evenodd;fill:url(#SVGID_00000114067365026960127660000004253219080872087737_)" d="M407.9 282.9c14.3-3.4 19.7-1 34.8-4.8 5.9-1.5 9-3.4 10.7-5.1 2.9-5.7 1.5-11.9-3.6-14.6-7.1-3.8-18-2-20.9 3.9-3 5.9 5.3 9.6 11.4 7.4 6-2.2 5.1-5.9 4-6.7-1.2-.8-4.2-1-6.1.3-1.8 1.3 0 2.3 0 2.3s-.4-1 1.1-1 1.5 1.9-1.4 2.1c-2.9.3-3.2-3.1-.6-4.8 2.7-1.7 7.9-1.9 9.6.6 1.8 2.5.2 8.4-9.1 11.6-9.3 3.2-33.2.7-41.7 5.1 0 0 6.1-3.5 14.1-5.1 8-1.6 17.9-1.2 17.9-1.2s-2.5-.4-6.7-1c0 0-23.5-.1-40 3.4-7 1.5-11.5 3-14.4 4.3 4.6 1.7 10.2 4.2 14.9 7.3l-2 9.4c-.1-.1 13.7-10 28-13.4z"/><path class="st18" d="M403.7 241.7c1 .1 3.5 1.1 6.3 2.5-.8-1.4-1.7-2.9-2.3-4-1.5-2.9 1-7.3 1-7.3l2 5.8s1.3-4.1.9-7.8c-.7-1.3-1.5-2.6-2.5-3.7 0 0-6.5 1.1-9.1 4-2.6 2.9-3.1 11.2-3.1 11.2s4.3-.9 6.8-.7z"/><path class="st36" d="M415.3 241.8c-1.5.9 6.5 5.6 9.2 8.3 2.7 2.7 2.1 7.1 2.1 7.1 2-1.6 4.2-2.4 4.2-2.4l8-7.6s.5-8.8-2.8-13.9c-.7-1.2-1.5-2.2-2.2-3 0 0 1.4 9.6 1.3 12.2 0 0-7.1-3.5-9.3-4.4-2.1-.9-3.5-.3-.8 2.2 2.7 2.6-8.2.6-9.7 1.5z"/><path class="st37" d="M384.5 264.8c8.7-1.8 15.9-1.8 22.4-3.8.9-.3 1.8-.6 2.5-.9 5.4-2.3 5.9-7.3 5.9-7.3s-.7 1.7-4.8 4.4-12.6 4-12.6 4 7.5-3.5 8-6.9c.5-3.5-2.8-5.1-4.5-3.9-1.4 1-1 2.2-.8 2.5 0-.1 0-.4.3-.8.5-.6 3.3.1-.5 2.9s-10 4.2-17.5 7.6c-7.5 3.3-13.4 8.9-13.4 8.9s6.3-4.9 15-6.7zM376.8 279.5s13.6-3.6 23.8-4.2c10.2-.6 11.7-.1 11.7-.1s-13.3 2.6-19.9 4.6-9.8 3.1-9.8 3.1l-7-2.8 1.2-.6z"/><path class="st14" d="M381.6 232c4.1.5 4.1 6.2 2.2 10.4-1.8 4.2.4.9 2-.9 1.5-1.8-2.1 7.8-4.4 12.1 2.7-3.2 7.8-10 8-16 .2-8.2-6.9-9.9-13.2-5.2-1 .7-1.8 1.6-2.5 2.4-.1 0 3.8-3.3 7.9-2.8zM285.8 255.1c.3 1.5 1.4 8.7 1.8 9.4s5.9 8.9 5.9 8.9c-1.2-2.4-2.7-5.9-3.6-7.4-1.4-2.4-2.3-10.1-2.8-12.2-.5-2.1-4.8-9-5.5-11.3-.6-2.3-1.2-7-1-8.9.2-1.9-1.5-4-2.3-6.3-.7-2.3-3.2-12.2-3.7-12.2-.4 0-2.9 1.2-4.8 3.1l3.4-.5s1.9 8.1 2.2 9.5c.3 1.4 2.8 4.8 2.8 5.5.1.7 1.1 8.9 1.3 10.1.2 1.2 3.2 9 3.2 9l.3-2.7c.1 0 2.5 4.5 2.8 6zM428.8 262.3c-2.4 4.6 2.3 7.9 7.4 8 0 0-4.4-1.3-5.1-4.7-.7-3.4 3.6-4.7 4.6-5.1 1.1-.4-2.2.3-3.4.4-1.2.1 3.9-3.4 11.6-2.3 7.6 1.1 9.4 7.9 9.4 10.1 0 1.6 2-7-4.5-10.7-7.1-3.2-17.1-1.4-20 4.3z"/><path class="st37" d="M353.7 269.5c.9-2.1 2.9-5.8 6-8-.1 0-.2.1-.3.1 0 0 6.5-8.5 12-13 0 0-11.8 1.6-19.4 18.4l1.7 2.5z"/><path class="st14" d="m345.1 287.2 5 4.7 6.7-.7c-.1 0-6.7-2.8-11.7-4zM330.5 263.1s2.8 3.6 3.4 5l.4-8-3.8 3zM325.9 235.2l-.2 4.7 2.8-1.7z"/><path class="st18" d="M327.3 250.6c4-1.3 6.6-2.9 9.4.9 0 0-.6.4-1.7 1.2-2.4 1.6-6.8 4.6-11.3 7.5.5-.8 1-1.5 1.2-1.9.5-.9 1.7-5.3 2.4-7.7z"/><path class="st20" d="M297.7 260c.3 0 17-5.3 26.3-8.3-2.5 8.5-5 12.2-13.1 16.3-3.1 1.6-10.7-1.3-11.7-2.3-1-.9-1.5-5.7-1.5-5.7z"/><path class="st18" d="M313.7 258.1c.7.2.3 2.8-.1 3.6-.3.8-6.1 3.9-5 3.8 1.1-.1 4.4-1 3.7-.4-.7.6-3.4 2.3-4.5 2.3-1.1.1-5.7-.2-5.7-.2 2.8 1 6.7 1.9 8.7.9 8.1-4.1 10.6-7.8 13.1-16.3-9.3 2.9-26 8.2-26.3 8.3.1-.1 15.4-2.2 16.1-2z"/><path class="st28" d="M299.7 262.1c.2 0 7.9-.9 8.1-.9.2 0 .2 1.1.1 1.2-.1.2-3.5 2.6-3.5 2.6s1.1.3.8.3c-.2.1-4.2-.2-4.5-.3-.3 0-.9-.4-1-2.9z"/><path class="st29" d="m318.2 286.6 7-2.1c-1.2-3.4-4.1-12.2-10.3-13.8-4.9 1.1-6.2 5.1-6.2 5.1 1.2-.2 2.3-.1 3.3.4 1.1-1 2.6-2.2 3.9-2.8 0 0 2.2.4 4.9 6l-4.6 2c.6 1.5 1.3 3.2 2 5.2z"/><path class="st14" d="m466 213.2-.3 3.7s13.5-4.1 17.1-14c-3.9 4.7-9.8 8.3-16.8 10.3zM376 100.5c-5.9 0-11.3 1.7-15.9 4.6 1.9-.1 3.9 0 6.1.5 5-2.7 10.7-4.2 16.7-4.3-2.2-.5-4.5-.8-6.9-.8z"/><path class="st25" d="M459.8 193.7c.2 0 2.2-.4 3.7-.9 1.6-.5 1 .1.5.9-.5.9-.3 2-.5 2.1-.2.1-1.9-1.1-3.8-1.3-2-.1-2.2-.5.1-.8zM456.8 204.4s.8-.6 1.6-1.6 1.7-1.6 3-1.4c1.3.2 2.9.9 3 1.7.1.8-.8 1.6-1.8 1.8-1 .2-1.2-1.1-.9-1.2.2 0 .4.7 1.2.3.8-.4 0-1.5-1.1-1.6-1.1-.1-1.6 1-2.8 1.7-1.2.7-5.9 1.6-4.9 1.2.8-.2 2.7-.9 2.7-.9z"/><path class="st7" d="M199.3 162.6s-4.1-4.6-10.8-5.7c-6.8-1.1-11.3 2.2-11.3 2.2s1.1-7.4 8.7-8.5c7.5-1.1 12.8 7.6 13.4 12z"/><path class="st8" d="m248.8 202.3 1 2.4s-8.9-3.6-13.5-11.2l1-1.3s4.4 6.9 11.5 10.1z"/><linearGradient id="SVGID_00000183240880343935195820000014915660912184563647_" gradientUnits="userSpaceOnUse" x1="232.489" y1="300.886" x2="252.72" y2="217.523"><stop offset="0" style="stop-color:#45c5e0"/><stop offset="1" style="stop-color:#a8deea"/></linearGradient><path style="fill-rule:evenodd;clip-rule:evenodd;fill:url(#SVGID_00000183240880343935195820000014915660912184563647_)" d="M265.5 235.7s-1.6-.5-2.6-.4c0 0-5.9 21.1-6.3 28.1 0 0-9 19.4-9.7 27.5 0 0-1.8-17.2 5.1-27.5 0 0 3.5-21.8 5.2-27.2 1.7-5.3 2.4-6 2.4-6h2.1s1.6-5.2 1.2-8.8c-.4-3.6-6-6.4-6.6-6.4s-3 9.8-3.7 12.2c-.7 2.3-2.4 4.4-2.3 6.3.2 1.9-.4 6.6-1 8.9s-4.9 9.2-5.5 11.3c-.5 2.1-1.4 9.7-2.8 12.2-1.4 2.4-4.4 9.7-5.1 10.1-.6.5-9.7 5.7-12.1 8.9-2.3 3.2-2.6 8.6-4.5 11.1s-5.7 3.6-5.7 3.6 5 2.4 4.6 5.6c-.4 3.2-6.1 3.3-6.1 3.3l-2.9 4.8s-.8-9 1.3-18.9l-7.1-.9c-.7 3.4-1.2 7.4-1.5 12-1.6 21.7 6.1 23.6 13.5 17.9 0 0-3.2.1-4.5-2.4-1.3-2.5-1.2-3.7-1.2-3.7s1.5-2.2 4-2.8c2.5-.6 11.6.9 11.6.9l-7.2 4.1 29.4-1.4s6.6 1.2 11-3.5 4.4-20.9 4.4-24.6c0-3.8 2.5-37.1 2.5-37.1v-17.2z"/><path class="st3" d="M209.1 267.3s-7.9 6-11.4 26c-3.4 20 1.3 32 1.3 32l-5.8 3.3-2-11.7s-14.7 4.1-24.2 10.3l-4.1-1.4s5.5-4 10.9-6.6v-6.3s4 1.9 9.2 1.9c0 0-15.1-8.4-24.8-25.5 0 0 17-9 33.2-12.1 0 0-8.4-1.9-12.7-1.3l5.7-7.4-5.6-10.1 3.1-.2 14.4 17.2s4.2-7.5 8.1-11.4l4.7 3.3zm-14.7 14.5c-11.7 1.6-28.3 9.3-28.3 9.3 12.5 16.4 24.7 19.3 24.7 19.3-1.2-12.3 3.6-28.6 3.6-28.6z"/><path class="st10" d="M190.9 284.9s-3.5 12-2.7 21.1c0 0-9-2.1-18.2-14.2 0 0 12.3-5.7 20.9-6.9z"/><path class="st11" d="M201.8 263.1s-4.3 5.3-5.5 7.9l-1.5-1.6-3.6-4 3.9 2.3-.6-6.9-9-1.8-.8-.9 11.7.7 5.4 4.3z"/><path class="st10" d="m188.8 320.1 2 9.4-.9.3-1.9-7.5-4.6 9.5-1 .3-10.6-4.9c0 .1 5.1-3 17-7.1z"/><linearGradient id="SVGID_00000090272318859082533180000001069451978568657286_" gradientUnits="userSpaceOnUse" x1="133.263" y1="272.557" x2="95.7" y2="240.76"><stop offset="0" style="stop-color:#45c5e0"/><stop offset="1" style="stop-color:#0087b7"/></linearGradient><path style="fill-rule:evenodd;clip-rule:evenodd;fill:url(#SVGID_00000090272318859082533180000001069451978568657286_)" d="m178.9 267-6.3 9.7s-13.8 3.8-23.4 10.2c0 0 9.7 16.3 19.3 23.2l-.1 6.9-5.7 3.2s-9.4-3.7-20.6-2.9c-11.2.8-12.2 8.2-4.5 9.5 7.7 1.3 6-3.3 3.1-4-2.9-.7-3.2.9-.8 1.5 0 0-2.5 1.2-4-1.1s2-4.3 7.9-3.2c5.9 1.2 9.5 7.6 1.1 9.8-8.4 2.2-17.7-.9-22.7-9.7-5-8.8 11.6-13.4 19.3-12.7 0 0-4.4-2.8-13.2-2.1-8.8.7-14.3 5-14.3 5s-2.5-8.9 2.4-13.2c0 0 14.5-6.9 31.3 3.7 0 0-9-14.1-34.1-8.3 0 0 4.5-4.7 10.4-5.3 0 0-9-1.8-14.6-1.8s-18.7.3-27-6.2-8.5-16.8-1.4-20.6c7.1-3.8 18-2 20.9 3.9 3 5.9-5.3 9.6-11.4 7.4-6-2.2-5.1-5.9-4-6.7 1.2-.8 4.2-1 6.1.3 1.8 1.3 0 2.3 0 2.3s.4-1-1.1-1-1.5 1.9 1.4 2.1c2.9.3 3.2-3.1.6-4.8-2.7-1.7-7.9-1.9-9.6.6-1.8 2.5-.2 8.4 9.1 11.6 9.3 3.2 33.2.7 41.7 5.1 0 0-6.1-3.5-14.1-5.1-8-1.6-17.9-1.2-17.9-1.2s37-6.3 58.5-1.2c0 0-6.4-5.1-15.1-6.9-8.7-1.8-15.9-1.8-22.4-3.8-6.5-2-9.3-5.2-9.3-5.2s3.3 9.5 14 11.4c0 0-13.2.5-22.1 1.6 0 0 2.5-4.1.8-7.9-1.7-3.9-7.2-6-7.2-6l-8-7.6s-.5-8.8 2.8-13.9c3.2-5.1 6.5-6.9 8.4-11 1.9-4.1-.6-6.6-3.2-6.3-2.6.4-5.4 3.1-5.4 5.4 0 2.3 2.8 1.7 3.7.6.9-1-.5-1.6-1.4-.9 0 0 .5-2 2.4-1.7 2 .4 1.7 4.9-2.9 6.5-4.6 1.6-7.2-4.1-1.5-9.2 5.6-5.1 12-4.4 13.4-2.2 1.5 2.3 1 5.1-1.5 8.4-2.5 3.3-5.3 6.2-5.9 7.6 0 0 4.6-4.9 11.6-2.8 0 0-6.2 2.8-6.8 3.3-.5.5-4.3 6.5-4.3 6.5s5.9-3.8 6.7-4.1c.8-.3 6.9-1.8 6.9-1.8s.5 4.6 1.9 7c0 0 .9-7.4 4.9-11.5 0 0 6.5 1.1 9.1 4 2.6 2.9 3.1 11.2 3.1 11.2s-4.4-.8-6.9-.6c-2.4.2-14.8 6.3-17.5 10.3 0 0 16.3-4.9 18-5.1 1.6-.3 5.5.5 5.5.5s2 5.6 9.3 8.2c0 0-6.8-5.4-3.7-13.6 0 0 1.8 10.4 12.4 13.7 0 0-9.5-9.7-9.7-17.9-.2-8.2 7-9.9 13.2-5.2 6.2 4.7 6.9 13.1 3.3 14-3.6.9-6-5-5.6-6.9.5-1.9 2.2-1.1 3-.1 0 0-1.5-.3-1.1 1.1.4 1.4 1.9 3.4 3 2.3 1.1-1-.1-4.8-2.7-6.2-2.6-1.4-5.3-.1-4.5 4.3.8 4.4 8.6 14.9 21.1 20.8 0 0-6.5-8.5-12-13 .5-.6 12.4 1.1 19.9 17.8z"/><path class="st13" d="M252.9 211.1s-2.3 4.4-3.4 7.5c0 0-1.8-.8-4.6-2.3 1.2-2.3 2.7-5.1 3.9-7.3 1.3.8 2.7 1.5 4.1 2.1zm-10 4.1c1.3-2.5 2.8-5.2 3.9-7.3-1-.6-2-1.3-2.9-2-2.1 2.2-4.3 4.7-5.7 6.3 1.6 1.1 3.2 2.1 4.7 3zm-6.6-4.3c-1.9-1.4-3.8-2.9-5.7-4.7l10.4-2.4c.3.3.7.5 1 .8-2.2 2.2-4.4 4.8-5.7 6.3zm-8.8-7.8c-.4-.5-.9-1-1.3-1.5 0-2-.1-4.2-.3-5.6 0 0-1.8-.1-4-.1-1-1.5-1.9-3.1-2.6-4.7 2.7-.4 5.9-.9 8.4-1.3.8.4 1.3.5 1.3.5s.3.6 1 1.6l-2.5 11.1zm-9.3-14c-.5-1.2-.9-2.5-1.3-3.8 0 0 1.1-.6 1.5-1.9.4-1.4 1.5-3.1 2.5-1.3s1.5 3 3.4 5.3c.2.2.4.5.6.7-2.2.3-4.7.7-6.7 1zm13.5 5.3-2.1 9.6 9.3-2.1c-3.2-2.7-5.6-5.4-7.2-7.5z"/><path class="st4" d="M250.1 217c-.2.6-.5 1.1-.7 1.7 0 0-1.8-.8-4.6-2.3l.9-1.6c1.9 1 3.4 1.7 4.4 2.2zm-6.4-3.4c-1.4-.8-2.8-1.7-4.4-2.8-.4.5-.8 1-1.2 1.4 1.7 1.2 3.3 2.2 4.7 3l.9-1.6zm-6.2-4.1c-1.6-1.2-3.2-2.4-4.9-3.8l-2 .5c1.9 1.7 3.8 3.3 5.7 4.7.3-.4.7-.9 1.2-1.4zm-7-5.7-.7-.7-.2.9.9-.2zm-2.6-2.6c-.6-.7-1.2-1.3-1.8-2 0 .8.1 1.6.1 2.5.4.5.9 1 1.3 1.5l.4-2zm-4.3-5.2c-1.1-1.6-2.1-3.2-3-4.9-.5.1-.9.1-1.4.2.8 1.6 1.7 3.2 2.6 4.7.6-.1 1.2 0 1.8 0zm-4.1-7.1c-.6-1.5-1.2-3-1.6-4.5-.5.6-1 .9-1 .9.4 1.3.8 2.6 1.3 3.8.4-.1.9-.1 1.3-.2z"/><path class="st14" d="M252.9 211.1s-1.1 2.2-2.2 4.5l.2-2.9-2.2-1.1-2.4 2.1c.9-1.6 1.7-3.3 2.5-4.7 1.3.8 2.7 1.5 4.1 2.1zm-8.7 1.5c.9-1.7 1.8-3.4 2.6-4.8-1-.6-2-1.3-2.9-2-1.3 1.4-2.7 2.9-3.9 4.2l2.9-1.7 2.1 1.2-.8 3.1zm-6.3-3.6 1.3-2.7-1.2-1-5.4.3 8.5-1.9c.3.3.7.5 1 .8-1.5 1.6-3 3.2-4.2 4.5zm-5.9-5.5 3.7-1.8-4-4-1.6 4.2 1.6-7.5c1.7 2.1 4 4.8 7.1 7.5l-6.8 1.6zm-3.9-3.5v-6.5l-2-2.3-4.4-.3c2-.3 4.1-.7 5.8-1 .8.4 1.3.5 1.3.5s.3.6 1 1.6l-1.7 8zm-5.3-11.6-2.9-5s0-1 .8-1.7c.1.1.2.2.3.4 1 1.8 1.5 3 3.4 5.3.2.2.4.5.6.7-.8.1-1.5.2-2.2.3z"/><path class="st13" d="M239.9 248c-1.7 2.5-3.1 4.6-2.9 7.8 0 0-22.5-5.6-30.5-9-1.2-3.6 2-7.1 5.3-6.8 0-.1 0-.1 28.1 8zM197.2 222.5l2.5 6.4s.5.9 0 1.7c-.4.8-4.5 2.8-4.5 2.8s-.5.3-1 0c0 0-1.8-9.5-3.4-14.1 0 0 2.5 1.9 6.4 3.2z"/><path class="st15" d="M138.6 229.9c-.3.5-.6 1.1-.8 1.7 0 0-7.9-7.7-15.9-12.1-8-4.4-14.4-10.6-15.2-13.4-.8-2.9 2.5-4.9.6-9.1-1.9-4.2-5.7-3.5-9.7-9.1-4.1-5.6-4.5-14.5 2-18.5s16.6-11.6 19-16.4c2.4-4.9.5-8.5.3-12.2-.2-3.7 1.3-5.2 1.3-5.2s-.1 4.5 2.1 10.2v4.4c-.1 5.9-7.8 11.9-12.1 15.2l-.7.6c-1.5 1.2-3.2 2.1-4.7 3-2.8 1.6-5.4 3.1-6.5 5.5-.9 2-1.3 4.3-.8 6.6.4 2 1.4 4.1 3.3 6.1 1.8 1.9 3.4 3 4.8 4 1.6 1.1 2.9 2 3.9 3.8 1.8 3.2 1.5 4.6 1 7.9l-.1.5c-.4 2.2.3 4.5 2.3 6.8 1.7 2.1 4.4 4.3 8.3 6.3 6 3.3 14.3 10.4 17.6 13.4z"/><path class="st16" d="m177.2 254-1.4.2s-5.9-5.9-10.1-8.3c0 0 .3-7.4-6.5-15.1-5.9-6.6-15.5-6.8-19.8-1.9-3.5-3.1-11.8-10.2-17.8-13.5-3.7-2-6.2-4-7.9-6-1.7-2-2.3-4-2-5.7l.1-.5c.6-3.6.9-5.1-1.1-8.8-1.2-2.1-2.6-3.1-4.4-4.3-1.3-.9-2.9-2-4.6-3.8-1.7-1.8-2.6-3.7-3-5.5-.4-2-.1-4 .7-5.8.9-2 3.3-3.4 5.9-4.9 1.6-.9 3.3-1.9 4.9-3.1l.7-.6c4.5-3.5 12.5-9.7 12.6-16.3v-1.4c2.7 5.2 7.6 11 16.4 15.2.2 2.6.1 8.3-3.2 11-1.7 1.4-3.5 2.2-5.2 2.9l-2.7 1.2c-5.9-.3-25.8-3-25.8-3s-1.4.5-.5 1c.7.3 14.6 5.7 21.9 8.5-.9 5.2 2.8 7.8 5.2 9.6l.5.4c1.2.9 2.3 1.7 3 2.9.7 1.1 1.2 2.6 1.1 4.8v1.7s-16.8 5.6-16.5 5.6c.3 0 16.3-.1 15.9.1-.4.2-6.6 5.3-6.4 5.3.3 0 11.2-3.2 11.2-3.2.7.4 1.6.8 2.6 1.3 3.3 1.6 8.5 4 16.2 10.9 5.5 4.9 10.9 11.5 14.7 17.4 3.4 4.7 5.3 9.1 5.3 11.7z"/><path class="st17" d="M132.9 178.8c1.6-.7 3.3-1.5 4.9-2.8 3.4-2.9 3.8-8.4 3.7-11.5.5.2 1 .4 1.6.7 0 0 .7 6.9-3.7 11.3-.1 0-2.7 1.6-6.5 2.3z"/><path class="st15" d="M135.8 203.9v-.8c.1-2.5-.4-4.2-1.3-5.6-.9-1.3-2.1-2.3-3.4-3.2l-.6-.4c-2.1-1.5-5.2-3.8-4.7-7.9l1.4.5c0 1.9 1 3.6 2.2 4.5 2.3 1.6 6.2 3.8 7.4 8.2.2.2.4 3.3-1 4.7zM180.1 253.7l-1.6.2c-.1-3-2.1-7.5-5.2-12.4-3.8-6.1-9.4-12.7-14.9-17.7-7.9-7.1-13.2-9.6-16.6-11.2l-.8-.4s2.7-.3 5.1.9l.4.2.1.1c2.2 1.2 5.1 3.1 9.3 6.1 11.1 8 24.5 26.9 24.2 34.2z"/><path class="st18" d="M160.1 323.6s-3.1 1.5-5.2 3.7c0 0 0-2.1-1.5-4.1-1.5-2-3.1-2.5-3.1-2.5s6.4.3 9.8 2.9zM121.9 310.2s-6.1 5.4-3.2 9.6c0 0-2.7-.8-3.3-3.4 0 0-1.4.2-3.8-.7 0 0 3-4 10.3-5.5z"/><path class="st15" d="M21.8 259.1c-5.3 9.2-7.2 21.4-3 35.4.9-.4 1.8-.7 2.7-.9-2.3-8.1-4.9-22.7.3-34.5z"/><path class="st16" d="M80.8 247.4c-5.9-3.3-15.2-6.9-27.5-6.8-30.8.2-37.3 27.6-30.4 52.8 7.5-1.1 15.6 3 22 8-2.7-8-3.5-17-2.6-25.4 1.1-10.2 4.9-19.5 11.5-25.3 9.2-8.2 20.7-5.7 27-3.3z"/><path class="st17" d="m89.1 329.7-1.9 1.5s8.1 9.5 24.5 13.4c-7.1-3.5-17.8-9.3-22.6-14.9z"/><path class="st15" d="M58.4 262.4c-.3.6-.6 1.2-.8 1.8 0 0 18.1 18.8 19.3 30.7 1.3 11.9-4.2 13.9-2.7 22.3s9.8 9.3 9.8 9.3l.6-.2c-2.4-1.2-6.3-3.6-7.5-6.3-1-2.1-1.3-3.8-1-6.4.3-2.5 1.1-5.8 2.6-10.9 1.5-5.3-.6-12.4-4.2-19.3-4.4-8.6-11-16.7-16.1-21z"/><path class="st16" d="M106.2 299.5c1.5-.8 2.8-2.9 2.8-3 .6-4.1-.1-6.4-.1-6.4s-.6-.1-1.5-.2c.3 1.7.6 4.1 0 6.3-.3.9-.7 2-1.2 3.3z"/><path class="st16" d="M102.4 305.1c-4-.4-15.3-.1-16-.1-.7 0 13.6-3.9 18.1-5.1.7-1.6 1.2-3 1.5-4.1.6-2.1.2-4.4-.1-5.9h-1.2c-2.5.1-23.2.9-30.5-13.3-7.2-14.2-.3-22.8 14-23.9-2.7-2.8-7.2-4.2-10.9-5.1-6.6-1.7-15.6-2.2-22.8 4.1-6.3 5.5-9.9 14.5-11 24.4-1 8.9.1 18.5 3.3 26.9 1.5 1.3 2.9 2.6 4.2 3.8 0 0-6.9-19.5-3.6-35.6 3.2-16.1 14.8-28.2 33.9-18.5 0 0-15.8-1.5-22.3 8.4 5.3 4.4 12.1 12.8 16.7 21.5 3.7 7.2 5.9 14.6 4.3 20.3-1.4 5.1-2.3 8.3-2.5 10.7-.3 2.3 0 3.9.9 5.7 1.4 3 6.5 5.6 8.3 6.3l12.4-3.6-8.7 6.7c5.8 6.8 21.2 14.2 27 16.8 9.1 1.3 20.3.9 33.6-3.2h-.7c-4.8-.1-9-1.2-12.7-2.4-3-1-6-2.5-8.6-4.1-3.9-2.3-7.1-4.9-8.4-6.2-1.5-1.4-4.8-2.8-8.2-4.1-1.5-.6-2.9-1.2-4.3-1.8-2.4-1.1-4.2-2.9-5.4-5.2-1.3-2.4-1.9-5.1-1.6-7.7-.1-1.5.6-3.6 1.3-5.7z"/><path class="st15" d="M165 337.1s-13.8 4.2-25.5.2c-11.7-4.1-13.9-8.6-19.4-11.4-5.5-2.8-13.1-4.8-15.3-11-.8-2.4-.5-4.8.2-7.1 0 0 .6-1.7-1.2-2.3-.8 2-1.4 4.1-1.6 5.8-.2 2.3.3 4.8 1.5 6.9 1.1 2 2.7 3.6 4.7 4.6l4.2 1.8c3.5 1.4 6.9 2.8 8.6 4.4 1.3 1.3 4.4 3.7 8.2 6 2.6 1.5 5.4 3 8.3 3.9 3.6 1.2 7.7 2.2 12.4 2.3 1.8.1 3.6 0 5.6-.2 3-1.2 6.1-2.5 9.3-3.9z"/><path class="st13" d="m248.5 221.4-6.7 22.2s-2.8 0-5-1.7l9.3-21.5 2.4 1z"/><path class="st3" d="m243.2 220.4-.9 2.1-.5-2.8c.5.2.9.4 1.4.7zm-2.1 5-1.3 3.1-2-10.2-10.1 3.4 2.7-3.3 5.8-2.1c1 .6 2.1 1.4 3.5 2.2l1.4 6.9zm-2.4 6-2.1-10.9-10.9 3.7-.8.9 2.6 13.4.8.2 8.1-1.8 1.3-3.1-7.7 1.4-1.5-8.9 6.9-1.1.6 4.7-1.7.2-.3-2.9-3.4.6.9 5.5 7.1-1.3.1-.6zm-3.2 7.5-.8 1.8-3.1-.9 3.9-.9zm-9.9-.9-3.8-1.1-1.5-6.2 3.1-3.8 2.2 11.1zm-5.7-1.7-3.3-1 2.4-2.9.9 3.9zm12.8-20.5 1-1.2s.4.2.9.5l-1.9.7zM206 195.9s-3.5 8.9-3.4 17.3c0 0 6.1 1.8 12.9 1.5 0 0 2.3-5.6 2.3-11.6 0 0-5.3 0-7.3.2 0 0-.9 3.3-1.1 5.3l3.2-2.9 2.4.2s-.5 3.6-1.5 5.9c0 0-5.5-.4-7.6-.9 0 0 2.1-9.8 3-11.8 0 0 9-.3 13.4 0 0 0 .7 11.6-3.9 21.8 0 0-12.2 1.6-22.6-4 0 0 1.1-18.2 6.4-25.9l5.1-1.4-7.6-.3-7.2 10.3s-3.4-7.1-2.3-11.9c2.6-10.7 16.2 3.9 21.8-.6 0 0 2.1 6.2 4.1 8.4l-10.1.4z"/><path class="st13" d="m230.7 212.8-7.6 9.3c.7-2.6 1.3-4.9 1.7-7.1l4-4.1 1.9 1.9zm-10.2 12.6-7.6 9.3s-3.3-.3-4.7-2.8l6.3-6.4c2.4.1 4.6 0 6-.1z"/><path class="st21" d="m209.8 225-4.2 4.8-2.9-1.2-1.7-5.4c0-.1 3.2 1.3 8.8 1.8z"/><path class="st22" d="M183.9 137.1c-.2-19.7-16.1-35.6-35.8-35.8 2.2-.5 4.5-.8 6.9-.8 16.4 0 29.7 13.3 29.7 29.7 0 2.4-.3 4.7-.8 6.9zM140.8 116.5c2.6.2 5.1.8 7.5 1.7-4.8 4.4-14.1 15.9-9.3 37-8.2-5.3-13.6-14.5-13.6-25-.1-10.9 4.1-14.5 15.4-13.7zm8.8 2.3c-4.5 3.9-14.6 15.4-9 37.3 4.3 2.4 9.2 3.7 14.4 3.7 5.4 0 10.4-1.4 14.8-3.9v-1.5c0-16-8.5-30.1-20.2-35.6z"/><linearGradient id="SVGID_00000093154645281026384080000007836795124160778421_" gradientUnits="userSpaceOnUse" x1="171.72" y1="135.746" x2="149.698" y2="113.813"><stop offset="0" style="stop-color:#4cc7e6"/><stop offset=".51" style="stop-color:#7bd3f7"/><stop offset="1" style="stop-color:#4cc7e6"/></linearGradient><path style="fill-rule:evenodd;clip-rule:evenodd;fill:url(#SVGID_00000093154645281026384080000007836795124160778421_)" d="M181.8 139.4s-2.9 7.9-10.5 13.8c0 0 .5-14.9-10.5-27.4-11-12.5-24.8-11.5-29.4-9.8 6.9-14.9 25.4-13.4 36.1-4.3 8.6 7 15.2 18.3 14.3 27.7z"/><linearGradient id="SVGID_00000152245787828089577620000018318846379380028605_" gradientUnits="userSpaceOnUse" x1="91.753" y1="200.055" x2="51.8" y2="193.333"><stop offset="0" style="stop-color:#4cc7e6"/><stop offset=".46" style="stop-color:#aadddf"/><stop offset="1" style="stop-color:#4cc7e6"/></linearGradient><path style="fill-rule:evenodd;clip-rule:evenodd;fill:url(#SVGID_00000152245787828089577620000018318846379380028605_)" d="M53.6 179.3s11 20.8 36 11.4c2.7 6.2 6.4 6.4 7.9 10.1.8 2 .3 4.3-.4 6.1-2.7 1.6-7.3 3.6-14.4 4.5-12.5 1.5-31.2-5-34.2-15-.1 0-1.3-8.3 5.1-17.1z"/><path class="st22" d="M77.7 191c-1.9 0-3.7-.2-5.5-.6 2.2-9.2 5.1-16.9 6.8-21.3 3.5.8 6.8 2.3 9.6 4.4-1.9 4.4-2 9.4 0 15.1-3.2 1.6-6.9 2.4-10.9 2.4zm-6.8-.9c2.2-9.1 5-16.8 6.8-21.3-1.5-.3-3-.4-4.5-.4-7.5 0-14.2 3.1-19 8.1 3.4 6.7 9.4 11.7 16.7 13.6zM48.1 202.9c4.5 5.2 11.4 9.2 19.5 11 0 2.2 0 4.5.2 6.7-9.3-1.9-16.8-8.7-19.7-17.7zM69 214.2c2.8.5 5.7.8 8.7.8 5.4 0 10.5-.9 15-2.5-4.8 5.3-11.8 8.7-19.5 8.7-1.3 0-2.7-.1-4-.3-.1-2.2-.2-4.4-.2-6.7z"/><path class="st26" d="m254.1 156.2 6.8 4.4c.1-.7.9-1.4.9-1.4s-.1 2.4 1.4 3.2c.8.4 1.6.6 2.3.7.6-.1 1.5-.3 2.3-.7 1.5-.7 1.4-3.2 1.4-3.2s.9.7.9 1.4l6.8-4.4s2.6-4 1.8-9.4c0 0-1.5-2.1-4.1-2.8 1.4-.6 2.4-.8 2.4-.8s1.9.9 2.7 2c3.1 5.5.4 14.4.4 14.4l-11 7.3c-.6.7-1.2 1-1.8 1.2l-1.9-3.7-1.9 3.7c-.6-.2-1.2-.6-1.8-1.2l-11-7.3s-2.7-8.9.4-14.4c.8-1.1 2.7-2 2.7-2s1 .2 2.4.8c-2.7.7-4.1 2.8-4.1 2.8-.6 5.4 2 9.4 2 9.4z"/><path class="st14" d="M265.5 176.3 261 172l-1.1.2-.5-1.6 2.6-.4s1.3 1.4 3.5 1.3c2.3.1 3.5-1.3 3.5-1.3l2.6.4-.5 1.6-1.1-.2-4.5 4.3z"/><path class="st26" d="M256.1 173.7c4.3 2.3 9.4 7.1 9.4 7.1s5.1-4.8 9.4-7.1l-.8-1.6c1-1.1 1.4-2 1.4-2l2.5 5.3s-3.9.8-7.4 4.7c-3.5 3.9-5 7.6-5 7.6s-1.5-3.8-5-7.6c-3.6-3.9-7.4-4.7-7.4-4.7l2.5-5.3s.4.9 1.4 2l-1 1.6z"/><path class="st8" d="M215.5 149.2c-.1.8-.2 1.7-.1 2.5 0 0-16.9 2.6-20.9-10.8 0-.1 8.1 8.6 21 8.3z"/><path class="st26" d="m248.4 175-1.3 2.5-5.7-1.8c.6-2.1 2-8.3 2-8.3s.7.7 1.5 1.6c-.8 1.3-1.1 3.9.1 4.9.9.5 2.3.9 3.4 1.1z"/><path class="st13" d="M248.4 175c-1.1-.2-2.5-.5-3.4-1.2-1.3-1-.9-3.6-.1-4.9l2.2 2.2c1.2.9 3 .7 3 .7l-1.7 3.2z"/><path class="st14" d="M284.3 126s-.1.2-.2.5c2.6.6 5.3 1.2 8.1 2.1 0 0 .8.6.3 1.4-.4.8-4.7 1.9-4.7 1.9s2.8.8 3.7 1.2c0 0 3.9-2.1 5.5-2.1 2.1 0 4.7 1.5 6.4 2.5l-4.8 2.7 1.8 1 4.6-2.7c.5.3.9.7 1.4 1l.1-.2v-2.2s-6.9-5.2-20.3-8.3c-.8.5-1.8 1-1.9 1.2zm-37.6 0s.1.2.2.5c-1.7.3-3.4.8-5.1 1.2-.7.7-1.6 1.7-2.2 2.7-.9 1.7 1.6 2 1.6 2s-3.7 1.5-5.4 2.1c0 0-.6-.4-.8-1.4-.1-1 .8-1.8 1-2.4.1-.4-.4-.7-1.4-.7-2 .8-3.9 1.7-5.7 2.7l.1 5.5-1 .8s.3-4.3-.1-4.9c-.3-.5-1-.1-1.1-.1-.8.5-1.5 1-2.2 1.5l-.1-.2v-2.2s6.9-5.2 20.3-8.3c.8.5 1.7 1 1.9 1.2zm18.8-1.6c-1.3 0-4 .1-7.5.4l-3.1 4.7-2 .3s1.9-2.8 2.2-3.7c.2-.9-1.3-.8-1.3-.8-1.1.1-2.2.3-3.4.5 0-.3-.1-.5 0-.6.1-.2.7-1 1.1-1.5 4.2-.6 8.8-1 14-1 5.1 0 9.8.4 14 1 .4.6 1.1 1.3 1.1 1.5v.6c-.1 0-1.3-.2-2.9.6-1.7.8-4.3 2.9-4.3 2.9-4.2-.5-9.2-.5-9.2-.5s4.9-1.9 4.5-2.9c-.4-1.1-1.9-1.5-1.9-1.5h-1.3zm11.2.9-.5-.1.5.1z"/><path class="st20" d="m245.1 160 10.9 6.1s-4.6 2.5-6.5 2.2c-1.9-.3-5.5-4.5-5.5-4.5l1.1-3.8z"/><path class="st18" d="M265.5 252.9S263 286.2 263 290c0 3.8 0 19.9-4.4 24.6-4.4 4.7-11 3.5-11 3.5l-7.4.4c7.7-2.3 9.6-5.5 9.6-5.5-8 4.8-16.4 4-20 .8-3.6-3.2-.7-7.8-.7-7.8s-3.1 1.6-3.1 5.7 3 5.7 3 5.7l-10.8 2.1 7.2-4.1s-9-1.4-11.6-.9c-2.5.6-4 2.8-4 2.8s-.1 1.1 1.2 3.7c-1.6-2.6-1.8-7.6-1.8-7.6l2.9-4.8s5.8-.1 6.1-3.3c.4-3.2-4.6-5.6-4.6-5.6s3.8-1.1 5.7-3.6c1.9-2.5 2.2-7.9 4.5-11.1 1.2-1.7 4.3-3.9 7.1-5.8 0 0-3 2.8-4.2 5.6-1.2 2.8-1.3 6.2-2.4 9.4-1.1 3.2-2.6 4.8-2.6 4.8 2.3 2.9 2.6 8 2.6 8 .7-4.1 7.4-6.1 7.4-6.1-1.5-1-.3-3.3-.3-3.3s0 1.8 2.3 1.9c2.3.1 4.1.7 5.2 3 1.2 2.3.1 6.4-2.9 6.2-3.1-.3-2.1-2.8-2.1-2.8s-.3.9.8 1.2c1 .3 2.1-.6 1.8-1.7-.3-1.2-2.8-2.6-4.5-.1-1.7 2.5 1.3 9.8 12.6 6.5 11.3-3.3 13.2-14.6 13.2-14.6-3.3 6-9.3 7-9.3 7 4.2-1.8 8.4-10.9 9.9-17.9 1.5-7 5.9-46.7 5.9-46.7l1.1.1v13.2z"/><path class="st18" d="M252 263.4c-7 10.3-5.1 27.5-5.1 27.5-1.6 4.9-6.4 7.5-6.4 7.5s1-1.2 1.6-3.1c.6-1.9 1.3-6-.7-6-2-.1-2.2 2.7-5 3.6-2.8 1-6.1.7-6-2.2.1-2.4 2.3-2.8 3.1-2.8-1.6.3-2.1 3.7.4 2.6 2.7-1.2 5.1-5.1 8.2-14.1 3.1-9.1 6-13.5 6-13.5.4-2.6 1.3-7 1.3-7-1.1.1-2.5-1.1-2.5-1.1s.9.4 2.2-.8c1.3-1.3 2.4-5.3 4.6-14.1 2.2-8.8 4.5-12 4.5-12h2.5s.5-2.2.9-4.4.2-4.6.2-4.6c.6.8 1 1.6 1.1 2.5.4 3.6-1.2 8.8-1.2 8.8h-2.1s-.7.6-2.4 6c-1.7 5.3-5.2 27.2-5.2 27.2z"/><path class="st28" d="M234.7 308.4s.9 1.9 4.4 2.7c3.5.8 9.1-.7 9.1-.7-1 .6-2.2 1-3.5 1.4-11.3 3.3-14.3-3.9-12.6-6.5 1.7-2.5 4.2-1.1 4.5.1.3 1.2-.8 2-1.8 1.7-1-.3-.8-1.2-.8-1.2s-.6 1.7.7 2.5zM263.5 237.7s-2.3 18.3-3.5 24.6c-1.2 6.3-1.9 12.5-1.9 12.5l-1-4s-.7 17-5.3 24.5c-4.5 7.5-10.6 7.1-10.6 7.1s7.3-5.6 9-10.3c1.7-4.7 6.4-28.6 6.4-28.6.5-7 6.3-28.1 6.3-28.1 1 0 2.6.4 2.6.4v2.1l-2-.2z"/><path class="st14" d="M224.3 307s-.3-5.1-2.6-8c0 0 1.5-1.6 2.6-4.8 1.1-3.2 1.2-6.7 2.4-9.4.1-.3.3-.6.5-1 0 0 8.7-6.1 9.3-6.5.6-.4 5.1-7.1 5.1-7.1s-.4 1.3-3.7 7.5c-3.3 6.2-8.5 8.3-10.7 14-2.2 5.7-2.9 15.3-2.9 15.3z"/><path class="st2" d="M240.7 226.4c-.4-2-1.3-6.3-1.8-8.4l.9.6 1.3 6.9-.4.9zM237 216.7l-7 2.4.6-.7 5.8-2.1c.2.1.4.3.6.4zM225.7 224.2l10.9-3.6 2.1 10.8-.3.6-.4.1-2.1-10.5-11 3.6z"/><path class="st2" d="m233.6 230.7-.4-3.4.6-.1.3 2.9 1.7-.2.7.5z"/><path class="st2" d="m228.4 226.4 1.5 8.9 7.7-1.4-.3.9-7.9 1.4-1.8-10.3zM220.4 201l-10.4.1-1.1-1.9s9-.3 13.4 0c0 0 .7 10.6-3.4 20.6.1 0 1.7-12.1 1.5-18.8z"/><path class="st2" d="m212.6 205.8 2.4.2s-.5 3.6-1.5 5.9l.1-4.8-1-.1v-1.2z"/><path class="st21" d="M200.9 216.4s7.3 2.6 14.8 1.8l-.3 3c-3.8.1-10.6-.2-17.1-3 0-1.5.1-5.6.8-9.1l1.8 7.3z"/><path class="st2" d="M212.1 187.3s2.1 6.2 4.1 8.4l-2.9.1c-1-1.3-2.3-3.4-2.8-5l-6.7 1.9s-6.4 10.1-7.9 24.4c0 0 1.1-18.2 6.4-25.9l5.1-1.4-3.9-.1 4.1-1.8c1.8.3 3.5.2 4.5-.6z"/><path class="st4" d="m206.4 244 27.5 8s-.6 1.2-.4 2.9c-6.7-1.7-21-5.5-27-8.1-.3-1-.3-2-.1-2.8z"/><path class="st14" d="m238.5 250.1-30.5-8.8c1-.9 2.4-1.5 3.8-1.4l28 8c-.4.8-.9 1.5-1.3 2.2zM253.1 165.8l-6.6-3.9s-.7-.3-1 .4c-.3.6.2 1.6.4 2 .3.4 2.7 2.7 3.6 3.1 1 .5 3.5-.8 3.5-.8s.6-.4.1-.8z"/><path class="st29" d="M154.6 227.1c6.1 1.7 17 14.1 17 14.1.2.4.5.7.7 1.1 3 4.8 5 9.2 5 11.8l-1.4.2s-5.9-5.9-10.1-8.3c0 0 .3-7.4-6.5-15.1-1.5-1.8-3.1-3-4.7-3.8zM134.5 204.7s-16.8 5.6-16.5 5.6h3.7l-3.9.4c-3.7-2.9-4.2-6-3.9-7.7.3-1.7.1-3 .1-3l18.3-3.2c.4.4.8.9 1.2 1.4.7 1.1 1.2 2.6 1.1 4.8-.1.6-.1 1.2-.1 1.7zM129 179c-5.9-.3-25.8-3-25.8-3s-1.4.5-.5 1c.1.1.9.4 2.1.8l-4.6-1.6s.7-1.4 2.1-2.5c1.5-1.1 2.8-1.6 6.8-4.1 4.1-2.4 11.2-9.1 11.2-9.1 7.8 6.1 17.1 7.9 19.5 8.3-.4 2.3-1.2 4.6-3 6.1-1.7 1.4-3.5 2.2-5.2 2.9-.8.4-1.7.7-2.6 1.2z"/><path class="st17" d="M135.9 203.1c.1-2.5-.4-4.2-1.3-5.6-.2-.3-.4-.6-.7-.9l1.8-.3c.6.8 1 1.8 1.3 2.9 0 .1.2 3.3-1.1 4.6v-.7zM178.5 253.8c-.1-3-2.1-7.5-5.2-12.4-.1-.2-.2-.3-.3-.5l1.8-.2c3.2 5.2 5.3 9.9 5.2 12.9l-1.5.2z"/><path class="st14" d="M153.9 224.4s-9.3-2.5-14.3 1.2l-9.5-7.4 9.2-3.2s9.4 4 14.6 9.4zM121.3 186.4s-.2 5.3 4.4 8.2l-11.6 1.7s-.2-1.8-1.7-3.8c-1.5-2-2.7-2.8-5.2-4.6-2.5-1.7-3.3-3.8-3.3-3.8l17.4 2.3z"/><path class="st10" d="m205.8 233-8.1.9-1.1 9.4 9.5-1.7-.3-8.6zm-8.5 9.1.9-7.1 2.7 3.2-3.6 3.9z"/><path class="st14" d="M51.1 246.1c-14.9 6-18.3 19.3-18.3 19.3 1.2-12.8 7.4-16.5 7.4-16.5s-6.4 1.8-10.3 14.9c-3.9 13.1 1.6 27.8 1.6 27.8-3.7-1.3-6.9-1.3-9.5-.8-5.8-24.5 1.3-50 31.1-50.3 7.5-.1 13.9 1.3 19.1 3-5.1-.6-12.8-.7-21.1 2.6z"/><path class="st29" d="M59.1 261.2c4.4-6.7 13-8.2 18.1-8.5 1.2.5 2.1 1.1 2.9 1.8-8.5 3.3-11.5 11.1-5.9 22.2.3.5.5 1 .8 1.4-.6.1-1.1.3-1.6.5-4.3-7.1-9.9-13.7-14.3-17.4zM80.2 319.3c1.9-.1 9.8-2.4 13.5-3.4 3.7-1 4.5-3.4 4.5-3.4-.4 4.5 2.9 8.9 2.9 8.9l-2.2.9-12.4 3.6c-1.7-.8-6.9-3.3-8.3-6.3-.1-.3-.3-.6-.4-.9.7.2 1.5.6 2.4.6zM109.9 342.2l14.3-5.9s3.7 3.5 10.8 6c3.5 1.3 6.7 1.8 9.1 2-10.5 2.4-19.5 2.5-27 1.4-1.6-.8-4.2-2-7.2-3.5z"/><path class="st17" d="M150.1 341.1c-4.7-.1-8.7-1.1-12.4-2.3-2.9-.9-5.8-2.4-8.3-3.9-.2-.1-.5-.3-.7-.5l2.2-1c2.2 1.3 4.9 2.6 8.5 3.8 11.7 4.1 25.5-.2 25.5-.2-3.2 1.5-6.3 2.7-9.3 3.8-1.8.3-3.7.4-5.5.3zM77.1 320c1.3 2.8 5.1 5.1 7.5 6.3l-.6.2s-7.2-.8-9.4-7.6c.8-.1 1.4-.4 1.8-.6.2.5.4 1.1.7 1.7z"/><path class="st2" d="m204.2 273.7-3.6-2s-2.6 3.6-3.9 6.5l-14.8-17.9-1.7.2-1.2-2.2 3.1-.2 14.4 17.2s4.2-7.5 8.1-11.4l4.6 3.3c-.1.1-2.3 1.8-5 6.5zM166 291.1c12.5 16.4 24.7 19.3 24.7 19.3-1.1-12.4 3.6-28.6 3.6-28.6l.6.8c-.9 2.8-2.6 12.5-2.6 12.5l1.2.2c-1.3 9.6-.7 17.5-.7 17.5-16.4-1.8-29.2-21.9-29.2-21.9l2.4.2z"/><path class="st11" d="m190.9 284.9-9.6 9.2-11.3-2.4c0 .1 12.3-5.6 20.9-6.8z"/><path class="st1" d="m181.4 294.1 5.8 9.9c-3-1.1-8.6-3.6-14.1-8.7-1-1.1-2-2.3-3-3.6l11.3 2.4z"/><path class="st21" d="M163.7 290.9s12.9 20 29.2 21.9c0 0-.6-7.9.7-17.5l-1.2-.2s1.6-9.7 2.6-12.5l-.6-.8c-11.7 1.6-28.3 9.3-28.3 9.3l-2.4-.2zm30.3-11.1 3.4 1.3c-1 4.4-2.5 12.2-2.5 12.2l2.7.3c-3.3 19.8 1.3 31.6 1.3 31.6l-5.8 3.3-2-11.7s-14.7 4.1-24.2 10.3l-4.1-1.4s5.5-4 10.9-6.6v-6.3s4 1.9 9.2 1.9c0 0-15.1-8.4-24.8-25.5 0 0 1.3-.7 3.5-1.7l6.1.8c8-4 26.3-8.5 26.3-8.5z"/><linearGradient id="SVGID_00000023266698229440890360000008173445587626230679_" gradientUnits="userSpaceOnUse" x1="217.602" y1="180.139" x2="139.113" y2="204.116"><stop offset="0" style="stop-color:#98aba4"/><stop offset="1" style="stop-color:#649484"/></linearGradient><path style="fill-rule:evenodd;clip-rule:evenodd;fill:url(#SVGID_00000023266698229440890360000008173445587626230679_)" d="M227 172c2.8.5 5.9-1.4 6.8-4.5 1-3.1 3.9-19.7 3.9-19.7l-3.4 2.5c.6-2.9 1.2-5.3 1.6-6.1 0 0 3.7-3 6.2-4 0 0-3 9.5-5 21.9-2 12.4-8.1 13.8-10.2 13.5-3.3-.7-4-4.3-5.2-5.1s-2.6.2-2.6.2 1.2-.1 2.4 1.3c1.2 1.4 1.7 4.4 1.7 4.4-1.2-3.6-2.5-5.5-4.7-4.9-2.4.6-1.7 6.9-5.9 10.7-4.2 3.8-10.4-.8-14.6-3.8-4.2-3-14.1.7-14.4 9.3-.4 8.6 4.7 19.2 8.5 23.9-7.8-5.3-11.7-19.2-11.7-19.2l-.7 3.9s-2.6-10.1 3.9-16.7c6.5-6.5 13-4.9 13-4.9-2.7-2.4-6.9-1.9-6.9-1.9s1.3-.8 5.1-.4c3.7.3 6.6 3 7.9 4s6 3.6 8.5 1.7c2.5-1.9 2.7-4.5 3.6-6.8.9-2.2 3-4.9 6.1-3.9 3.2.7 3.3 4.1 6.1 4.6zm-46.6-5.9c2.3-2.3 4.9-2.6 4.9-2.6s-7.5-.6-13.6 8.6c-4.5 6.9-5.3 16.9-6 23-1.5 12.3-6.9 14.5-15.3 4-7.2-9-3.8-18-3.8-18l-.6 1.3c-3.6 8.2.6 22.9 11.7 27 13.9 5.2 9.7-6.7 12.6-23.1.3-1.6.7-3 1.1-4.3 3.4-13.5 10.2-15.9 17.8-15.2 6.2.5 13.5 4.3 16.2 5.8-1.2-.8-2.5-2-4-3.3-12.2-6.9-21-3.2-21-3.2zm-8.2 41.3s2 6 .9 9.7c-1.1 3.7-6.3 4.6-10.6.3 0 0 3.7.4 6.6-2.7 3-3 3.1-7.3 3.1-7.3zm8.8-4.9c0 .1.1.1.1.2-1.1-2.7-1.9-4.5-1.9-4.5s3.1 17.6-.7 22.5c-3.8 5-8.2 2.8-8.2 2.8 4.8 4.5 10.1-.5 10.1-.5 4-5 .6-20.5.6-20.5z"/><path d="M234.1 182.6c2.6-1.1 4.3-5.5 5.4-10.4.4-1.5.7-3.6 1.2-5.9 1.7-4.8 3.5-10.2 4.3-12.6 1.6-4.7 5.5-12.3 11.5-12.9 4.2-.5 7.5 1.5 9.1 2.7 1.6-1.2 4.9-3.2 9-2.7 5.9.7 9.9 8.3 11.5 12.9.8 2.3 2.6 7.8 4.3 12.6.4 2.3.8 4.4 1.2 5.9 1.1 4.9 2.8 9.3 5.4 10.4.5 2 1.8 4.2 5.2 3.3-1.2.7-2.6 1.2-4.2 1.1-5.4-.1-8.3-11.4-8.3-11.4-.6-2.1-2-8.3-2-8.3l-.7-3.4-1-3.9c-1.5-9-6.1-14.8-6.1-14.8-.8-1.1-2.7-2-2.7-2-6.7-3.5-11.5 2.7-11.5 2.7s-4.9-6.2-11.5-2.7c0 0-1.9.9-2.7 2 0 0-4.6 5.8-6.1 14.8l-1 3.9-.7 3.4s-1.4 6.3-2 8.3c0 0-2.8 11.3-8.3 11.4-1.7 0-3-.4-4.2-1.1 3.2.9 4.5-1.3 4.9-3.3z" style="fill-rule:evenodd;clip-rule:evenodd;fill:#9baca6"/><path class="st31" d="M188.5 156.9c-6.8-1.1-11.3 2.2-11.3 2.2s.3-2.2 1.9-4.4c2.1-1.5 6-2.9 11.6-1 2.9 1 5.1 2.5 6.9 4.1 1 1.8 1.6 3.5 1.8 4.9-.1-.1-4.2-4.7-10.9-5.8z"/><path class="st8" d="M181.3 124c.6-2 .9-3.9 1-5.5 1.5 3.6 2.4 7.6 2.4 11.7 0 2.4-.3 4.7-.8 6.9-.1-4.6-1-9-2.6-13.1zM147.8 149.6s10.7 1.4 20.6-6.2c.9 3.5 1.4 7.2 1.4 11-15.8 8.2-27.8.9-27.8.9-1-3.9-1.5-9.4-1.5-9.4 7 2.8 16-.4 16-.4-3.9 3.5-8.7 4.1-8.7 4.1zM138.1 137.4c-.8 5-.8 10.8.8 17.8-8-5.2-13.4-14.2-13.6-24.4.8 11.5 10.1 17.4 10.1 17.4.4-6.3 2.7-10.8 2.7-10.8z"/><path class="st14" d="m135.8 135.5-1.7-2.1c-1 4.8-.4 10.1-.4 10.1-3.3-3.1-6.5-11.4-5.4-18.1.5-3.2 1.9-6 3.2-8.1 2.3-.9 5.3-1.1 9.2-.9 1.9.1 3.9.5 5.7 1.1-8.7 5.7-10.6 18-10.6 18zM139.4 137.7c1.6-10.3 7.2-16.3 10.2-18.9 6.2 2.9 11.5 8.2 15.1 15-2.8 2.2-12.7 8.7-25.3 3.9z"/><defs><path id="SVGID_00000011748017942966939620000010054030655879105958_" d="M169.7 130.8c3.3 6.8 5.1 12.9 5.5 11.2.4-1.8-2.1-11.1-1.3-9.8.8 1.3 2.2 5.1 3 6.2.7 1.1 3.5 2.6.4-9.4s-11.4-18.7-11.4-18.7c.6.4 1.1.8 1.7 1.3 8.2 6.9 14.6 17.6 14.3 26.8-1.5 2.9-5 9.3-9.5 12.7.1-11.7-8-23.6-8-23.6.3-.3 2.1 2.8 1.3.2-.8-2.6-2.2-4.7-2.7-5.4-.5-.8 3.5 1.7 6.7 8.5z"/></defs><clipPath id="SVGID_00000018214224318537443750000013599916568482377916_"><use xlink:href="#SVGID_00000011748017942966939620000010054030655879105958_" style="overflow:visible"/></clipPath><g style="clip-path:url(#SVGID_00000018214224318537443750000013599916568482377916_)"><Image style="overflow:visible" width="32" height="67" xlink:href="B04AD312.jpg" transform="matrix(.5908 0 0 .6097 162.992 110.294)"/></g><path class="st25" d="M146.3 104.9c3.5.7 8.5 2.2 12.3 4.8 6.5 4.5.7 1.3-.1 1.2s2.7 3.6 5.3 5.5c2.6 1.9.1-2 .1-2.5s7.3 4.7 11 13.4-2.2-3.1-5-6-3.1-3-2.8-1.3c.3 1.7-1.9 1.9-5.4-.7-3.4-2.6-6-6.1-8.3-7.3-2.3-1.2.3.8.5 2.5s-3.1.8-5.6-.4c-2.5-1.2 1.5.4 2.2-.4.7-.8-2.3-3.1-6-3.5-3.8-.4-7.8 1-8.9 1.9-1 1-.7 1.4 1.7 1.7 2.5.3 8.6.7 10.4 2.9-7.1-2.6-13.6-1.8-16.5-.8 3.4-6.8 9-10.2 15.1-11z"/><path class="st14" d="M134.2 111.4c2.1-2.6 4.8-4.4 7.7-5.5 2.2.2 5 .8 8.1 2.1 6.4 2.7-3.2-.6-7.9-.1s-7.8 3.5-7.9 3.5z"/><path class="st25" d="M159.4 108.3c-2.7-1.5-5.9-2.7-8.6-3.6 3.7.2 7.5 1.3 10.9 3 2 2 4.3 4.6 5.5 6.4 2.4 3.5-1.8-2.3-7.8-5.8zM160.5 120.9s-2.7-2.5-4.4-3.5c-1.7-1 .1 1.1 2.6 3s2.4 1 1.8.5zM172.8 128.8s-1.7-3-3.3-4.9c-1.6-1.9-1.4-.6.5 2.5 1.9 3.2 3.8 4.1 2.8 2.4z"/><path class="st8" d="M80.9 188.7c3.8-1.5 6-6.2 4.9-11.8-1.1-5.6-6.7-7.7-6.7-7.7 3.5.8 6.8 2.3 9.6 4.4-1.9 4.4-2 9.4 0 15.1-3.3 1.5-7.1 2.4-11 2.4-1.9 0-3.7-.2-5.5-.6.1-.5.3-1 .4-1.5 5.3 1.1 8.3-.3 8.3-.3zM77.7 168.9c-1.8 4.5-4.6 12.2-6.8 21.3-.3-.1-.7-.2-1-.3.7-2.9 3.3-12.5 6.9-21.1.3 0 .6 0 .9.1z"/><path class="st14" d="M74.9 168.5s-4.5 4.5-6.7 19.3c-2.5-1-9.2-4.4-13-12.1 4.7-4.5 11.1-7.2 18.1-7.2h1.6z"/><path class="st8" d="M66.4 213.6c.4.1.9.2 1.3.3 0 2.2 0 4.5.2 6.7l-1.2-.3-.3-6.7zM73.6 221.2c3.8-1.6 4.9-4.6 5.3-6.1 4.9-.1 9.6-1 13.8-2.5-4.7 5.1-11.5 8.4-19.1 8.6z"/><path class="st14" d="M75.4 215c-1.4 4.4-6.2 5.9-6.2 5.9-.2-2.2-.2-4.4-.2-6.7 2.1.4 4.2.7 6.4.8z"/><defs><path id="SVGID_00000008111534791739393880000015443564798495769502_" d="M97.5 205.6s-8.4 3.8-17.4 4.5c-9 .7-18.6-3.6-20.2-4.8-1.6-1.1 3.5 2.2 15.9 2 12.4-.2 9-2 5.7-2.4-3.3-.4-5.2-.4-6.7-3.1s-4.2-3.4-6.8-1.6c-2.6 1.9-10.6-.4-11.6-4.6-1-4.2 7-5.9 9.3-2.2 2.3 3.6-.8 3.9-1.9 3.3-1.1-.6-.1-.5.6-.8.7-.3.1-1.5-1.1-1.9-1.2-.4-2.6 1.3-.6 2.8 2 1.5 3.5 1.3 5.4 0 1.8-1.3 5.4-2.1 9.1-1.3 3.7.9 1.7.8.6 1.3-1.1.4.8 3 1.5 3.2s2.8-1.4 4.8-.1c2 1.3.2 3.5-.1 3.3-.3-.2.4-1.6-.9-1.7-1.3-.1-1.8 1.4-.4 2.1 1.4.7 3.4 0 4.2-1.2.8-1.2.7-2 2-3.3 1.3-1.2 1.5-2 .3-2-1.1-.1-2.3 1.6-3.6 1.6-1.3 0-2.6-1.6-3.9-1.8-1.2-.1-.3-.7.6-.7.9 0 1.3 1.2 3 .5s3.2-2.5 2.8-3.1c-.4-.6-.3-.7-3.9-.5-1.8.1-3.3-.1-4.5-.3 3.1-.2 6.4-1 10-2.3 2.7 6.2 6.4 6.4 7.9 10.1.4 1.7.2 3.5-.1 5z"/></defs><clipPath id="SVGID_00000047018577171837231950000015096108578126573461_"><use xlink:href="#SVGID_00000008111534791739393880000015443564798495769502_" style="overflow:visible"/></clipPath><g style="clip-path:url(#SVGID_00000047018577171837231950000015096108578126573461_)"><Image style="overflow:visible" width="69" height="32" xlink:href="B04AD313.jpg" transform="matrix(.6031 0 0 .6105 56.184 190.715)"/></g><path class="st25" d="M53 188.3c-.4.6-1.1 5.4 2 9.5 3.1 4.2 8.6 6 10.7 6.7 2.1.7-5.8.5-10.6-2.8s-6.8-6.7-6.8-6.7c0-2.8.5-9.1 5.2-15.7 0 0 3.4 6.4 10.7 10.5 0 0-3.5-1.1-7.3-2.9-3.8-1.9-5.1-2.3-3.2-.3 1.9 2 3.7 2.6 2.9 2.7-.7.1-3.1-1.6-3.6-1z"/><path class="st18" d="M154.5 308.7c6.6 1.9 8.7 3.6 6.3 1-2.5-2.6-11.2-6.9-11.2-6.9l2.4 3.7s-5.8-5.9-18.5-7.6c-9.6-1.3-16.6 1-19.4 2.2.4-1.6 1.2-3 2.6-4.2 0 0 14.5-6.9 31.3 3.7 0 0-2.7-4.1-9.1-7-9.9-4.5-18.8-3.6-23.5-2.7 1.8-1.4 5-3.5 8.8-4 0 0-9-1.8-14.6-1.8s-18.7.3-27-6.2c-2.3-1.8-3.9-3.8-5-5.9 1.6 1.7 4.8 3.6 10.7 5.1 15.1 3.8 20.5 1.3 34.8 4.8 14.3 3.4 28.1 13.3 28.1 13.3l-2-9.4s9.7 16.3 19.3 23.2l-.1 6.9-5.7 3.2s-9.4-3.7-20.6-2.9c-3 .2-5.3.9-6.8 1.8 2.7-3.9 13.3-3.3 18.7-3 5.4.3 8-.7 7.7-1.6-.3-.8-5.6-3.2-14.5-3.4-8.9-.2-15.6.3-20.2 3.5s-3.3 7.7-3.3 7.7c-.5-.7-.9-1.4-1.4-2.2-4-7.1 6-11.4 14.1-12.5l5.3-.2c-.1 0 6.2-.4 12.8 1.4z"/><path class="st18" d="M146.5 320.9c4.1 2.2 5.5 7-1.5 8.9-6.3 1.6-13.2.3-18.3-4.3 10.7 6.4 19.2 3.6 21 1.1 1.7-2.5-1.2-5.7-1.2-5.7zM164.1 279.5c-2.8-1.3-7.3-2.8-14.4-4.3-16.5-3.4-40-3.4-40-3.4 8-1.1 21.9-2.5 35-2.1 12.9.9 22.2 5.5 25.8 7.6-1.5.5-3.8 1.2-6.4 2.2zM167.6 269.4c-6.9-6.2-14.5-8.5-21.6-12.6-4.9-2.9-7.1-7.6-7.9-10.3-.1-1.4.2-3 .8-4.7 0 0 1.8 10.4 12.4 13.7 0 0 2.9.5 12.6 6.5 6.5 4 9.9 8.3 11.4 10.6l-1.7 2.6c-1-1.1-2.8-2.9-6-5.8z"/><path class="st32" d="m203.9 300.9 5.6.3c-.7 7-.3 12.4-.3 12.4s0 1.1.2 2.5l-5.6 1.3c-1.4-7.7.1-16.5.1-16.5zM204.3 323.7c3 .1 5.5-1.2 6.9-2.3 1.4 2.2 4.3 2.2 4.3 2.2-4.2 3.3-8.6 4-11.2.1z"/><path class="st14" d="m244.6 223.9 1.5-3.5 2.4 1-1.1 3.6c-.7-.3-1.7-.6-2.8-1.1z"/><path class="st4" d="m240.4 233.5 2.8 1 3.4-6.8-4.5 15c-1.4-.2-3.4-.8-4.8-1.9l3.1-7.3zM220.5 225.4l-6.7 8.2c-1.3-.3-3.3-1-4.7-2.6l5.4-5.4c2.4 0 4.6-.1 6-.2z"/><path class="st14" d="M229.3 214.6c-.7-.6-1.4-1.2-2.1-1.9l1.7-1.7 1.9 1.8-1.5 1.8z"/><path class="st31" d="M154.2 172.5c1.8.8 4.4.6 6.3-.4 3.2-1.8 8.3-7.9 11-9.7-3.1 1.4-14.9 9.7-16.4 6.7-.5-1 .7-1.8 1.2-1.5.6.3.5 1.3.5 1.3 1.6-2 .4-4.8-2.2-4.3-3 .6-5.6 5.6-.4 7.9z"/><path class="st29" d="M210.5 294.6c-.5 2.3-.8 4.5-1 6.6l-5.6-.3s-1.5 8.8 0 16.5l5.6-1.3c.2 1.6.7 3.7 1.5 5.1 0 .1.1.2.2.3-1.4 1-3.8 2.4-6.9 2.3-2-3-3-8.7-2.3-18 .3-4.6.9-8.5 1.5-12l7 .8z"/><path class="st14" d="m214.9 281.5-4.6-2c2.7-5.6 4.9-6 4.9-6 1.3.7 2.8 1.9 3.9 2.8-1.5.7-2.8 2.3-4.2 5.2z"/><path class="st10" d="m194.8 269.4-3.6-3.9 3.8 2.3-.5-6.9-9.1-1.7-.8-.9 11.1 1.7.6 11.1z"/><path class="st11" d="m182.5 331.5-9.1-3.6c6.8-3.3 13.1-5.2 13.1-5.2l-4 8.8z"/><path class="st15" d="M81.4 252.8c-19.1-9.7-30.7 2.4-33.9 18.5-3.2 16.1 3.6 35.6 3.6 35.6-1.2-1.2-2.7-2.5-4.2-3.8-3.2-8.4-4.3-18-3.3-26.9 1.1-9.9 4.7-18.9 11-24.4 7.2-6.3 16.2-5.8 22.8-4.1 3.7.9 8.1 2.3 10.9 5.1-3.1.2-5.8.8-8.1 1.7-.8-.6-1.7-1.2-2.9-1.8 2.4-.1 4.1.1 4.1.1z"/><path class="st13" d="M254.1 156.2s-2.6-4-1.8-9.4c0 0 1.5-2.1 4.1-2.8 2 .8 4.8 2.4 7.2 4.9-3.1-2.2-7.3-1.3-7.3-1.3s-.3 1.2.8 2.8c1.1 1.6 5.6 6.3 6.5 6.9.9.5 1.9.6 1.9.6s1-.1 1.9-.6c.9-.5 5.5-5.2 6.5-6.9 1.1-1.6.8-2.8.8-2.8s-4.2-.8-7.3 1.3c2.4-2.6 5.2-4.1 7.2-4.9 2.7.7 4.1 2.8 4.1 2.8.8 5.4-1.8 9.4-1.8 9.4l-6.8 4.4c-.1-.7-.9-1.4-.9-1.4s.1 2.4-1.4 3.2c-.8.4-1.6.6-2.3.7-.6-.1-1.5-.3-2.3-.7-1.5-.7-1.4-3.2-1.4-3.2s-.9.7-.9 1.4l-6.8-4.4z"/><path class="st21" d="m194.7 187.4 1.4 5.8-1.2-2-2.8 4.7s-1.5-2.8-2-5.2c0-1 0-1.9.2-2.8 1.7-7.1 8.2-3.1 14-.9l-5.9-.4-2.4 3.6-1.3-2.8zM221.8 236.9l-1.4-6.2 2.4-3 1.7 10zM231.6 239.8l3.9-.9-.7 1.8zM219 232.4l.9 3.9-3.3-1z"/><path class="st11" d="m205.8 233 .3 8.6-4.7-3.5z"/><path class="st4" d="m194.4 223.9 2.2 8.8-1.4.7s-.5.3-1 0c0 0-1.8-9.5-3.4-14.1 0 0 2.6 1.9 6.4 3.2l.9 2.4c-1.9-.3-3.7-1-3.7-1z"/><path class="st14" d="M198.4 231.7 197 227l2.1.3.6 1.6s.5.9 0 1.7c-.1.3-.6.6-1.3 1.1z"/><linearGradient id="SVGID_00000054963314510473788520000007055111365344246430_" gradientUnits="userSpaceOnUse" x1="167.805" y1="263.555" x2="145.398" y2="233.369"><stop offset="0" style="stop-color:#46c5de"/><stop offset="1" style="stop-color:#9ddae6"/></linearGradient><path style="fill-rule:evenodd;clip-rule:evenodd;fill:url(#SVGID_00000054963314510473788520000007055111365344246430_)" d="M159.5 248.6s11.8 1.6 19.4 18.4l-3.6 5.6c-1.5-2.3-4.8-6.5-11.4-10.6-9.7-6-12.6-6.5-12.6-6.5s-9.5-9.7-9.7-17.9c-.2-8.2 7-9.9 13.2-5.2 6.2 4.7 6.9 13.1 3.3 14-3.6.9-6-5-5.6-6.9.5-1.9 2.2-1.1 3-.1 0 0-1.5-.3-1.1 1.1.4 1.4 1.9 3.4 3 2.3 1.1-1-.1-4.8-2.7-6.2-2.6-1.4-5.3-.1-4.5 4.3.8 4.4 8.6 14.9 21.1 20.8.2-.1-6.3-8.6-11.8-13.1z"/><linearGradient id="SVGID_00000147196558716442998440000015826545439714833827_" gradientUnits="userSpaceOnUse" x1="151.133" y1="306.422" x2="128.033" y2="315.309"><stop offset="0" style="stop-color:#46c5de"/><stop offset="1" style="stop-color:#a8deea"/></linearGradient><path style="fill-rule:evenodd;clip-rule:evenodd;fill:url(#SVGID_00000147196558716442998440000015826545439714833827_)" d="M141.6 307.3s-4.4-2.8-13.2-2.1c-8.8.7-14.3 5-14.3 5s-1.4-4.8-.1-9c2.8-1.2 9.8-3.5 19.4-2.2 12.7 1.7 18.5 7.6 18.5 7.6l-2.4-3.7s8.7 4.3 11.2 6.9c2.5 2.6.4.9-6.3-1-6.5-1.9-12.8-1.5-12.8-1.5zm-14.6 7.1c-4.6 3.2-3.3 7.7-3.3 7.7.9 1.2 1.9 2.3 3 3.3 10.7 6.4 19.2 3.6 21 1.1 1.8-2.5-1.2-5.7-1.2-5.7-.8-.4-1.7-.8-2.6-.9-5.9-1.2-9.4.9-7.9 3.2 1.5 2.3 4 1.1 4 1.1-2.4-.6-2.1-2.2.8-1.5 2.9.7 4.6 5.2-3.1 4-5.6-.9-6.6-5.1-2.3-7.7 2.7-3.9 13.3-3.3 18.7-3 5.4.3 8-.7 7.7-1.6-.3-.8-5.6-3.2-14.5-3.4-9-.3-15.7.2-20.3 3.4z"/><linearGradient id="SVGID_00000023259652462639471900000003588359919154822798_" gradientUnits="userSpaceOnUse" x1="132.065" y1="280.048" x2="86.051" y2="265.92"><stop offset="0" style="stop-color:#46c5de"/><stop offset="1" style="stop-color:#9ddae6"/></linearGradient><path style="fill-rule:evenodd;clip-rule:evenodd;fill:url(#SVGID_00000023259652462639471900000003588359919154822798_)" d="M123.1 282.9c-14.3-3.4-19.7-1-34.8-4.8-5.9-1.5-9-3.4-10.7-5.1-2.9-5.7-1.5-11.9 3.6-14.6 7.1-3.8 18-2 20.9 3.9 3 5.9-5.3 9.6-11.4 7.4-6-2.2-5.1-5.9-4-6.7 1.2-.8 4.2-1 6.1.3 1.8 1.3 0 2.3 0 2.3s.4-1-1.1-1-1.5 1.9 1.4 2.1c2.9.3 3.2-3.1.6-4.8-2.7-1.7-7.9-1.9-9.6.6-1.8 2.5-.2 8.4 9.1 11.6 9.3 3.2 33.2.7 41.7 5.1 0 0-6.1-3.5-14.1-5.1-8-1.6-17.9-1.2-17.9-1.2s2.5-.4 6.7-1c0 0 23.5-.1 40 3.4 7 1.5 11.5 3 14.4 4.3-4.6 1.7-10.2 4.2-14.9 7.3l2 9.4c.1-.1-13.7-10-28-13.4z"/><path class="st18" d="M127.3 241.7c-1 .1-3.5 1.1-6.3 2.5.8-1.4 1.7-2.9 2.3-4 1.5-2.9-1-7.3-1-7.3l-2 5.8s-1.3-4.1-.9-7.8c.7-1.3 1.5-2.6 2.5-3.7 0 0 6.5 1.1 9.1 4 2.6 2.9 3.1 11.2 3.1 11.2s-4.3-.9-6.8-.7z"/><path class="st36" d="M115.7 241.8c1.5.9-6.5 5.6-9.2 8.3-2.7 2.7-2.1 7.1-2.1 7.1-2-1.6-4.2-2.4-4.2-2.4l-8-7.6s-.5-8.8 2.8-13.9c.7-1.2 1.5-2.2 2.2-3 0 0-1.4 9.6-1.3 12.2 0 0 7.1-3.5 9.3-4.4 2.1-.9 3.5-.3.8 2.2-2.7 2.6 8.2.6 9.7 1.5z"/><path class="st37" d="M146.5 264.8c-8.7-1.8-15.9-1.8-22.4-3.8-.9-.3-1.8-.6-2.5-.9-5.4-2.3-5.9-7.3-5.9-7.3s.7 1.7 4.8 4.4 12.6 4 12.6 4-7.5-3.5-8-6.9c-.5-3.5 2.8-5.1 4.5-3.9 1.4 1 1 2.2.8 2.5 0-.1 0-.4-.3-.8-.5-.6-3.3.1.5 2.9s10 4.2 17.5 7.6c7.5 3.3 13.4 8.9 13.4 8.9s-6.3-4.9-15-6.7zM154.2 279.5s-13.6-3.6-23.8-4.2c-10.2-.6-11.7-.1-11.7-.1s13.3 2.6 19.9 4.6c6.6 2 9.8 3.1 9.8 3.1l7-2.8-1.2-.6z"/><path class="st14" d="M149.4 232c-4.1.5-4.1 6.2-2.2 10.4 1.8 4.2-.4.9-2-.9-1.5-1.8 2.1 7.8 4.4 12.1-2.7-3.2-7.8-10-8-16-.2-8.2 7-9.9 13.2-5.2 1 .7 1.8 1.6 2.5 2.4.1 0-3.8-3.3-7.9-2.8zM245.2 255.1c-.3 1.5-1.4 8.7-1.8 9.4-.4.7-5.9 8.9-5.9 8.9 1.2-2.4 2.7-5.9 3.6-7.4 1.4-2.4 2.3-10.1 2.8-12.2.5-2.1 4.8-9 5.5-11.3s1.2-7 1-8.9c-.2-1.9 1.5-4 2.3-6.3.7-2.3 3.2-12.2 3.7-12.2.4 0 2.9 1.2 4.8 3.1l-3.4-.5s-1.9 8.1-2.2 9.5c-.3 1.4-2.8 4.8-2.8 5.5-.1.7-1.1 8.9-1.3 10.1-.2 1.2-3.2 9-3.2 9l-.3-2.7c-.2 0-2.5 4.5-2.8 6zM102.2 262.3c2.4 4.6-2.3 7.9-7.4 8 0 0 4.4-1.3 5.1-4.7.7-3.4-3.6-4.7-4.6-5.1-1.1-.4 2.2.3 3.4.4 1.2.1-3.9-3.4-11.6-2.3-7.6 1.1-9.4 7.9-9.4 10.1 0 1.6-2-7 4.5-10.7 7-3.2 17.1-1.4 20 4.3z"/><path class="st37" d="M177.3 269.5c-.9-2.1-2.9-5.8-6-8 .1 0 .2.1.3.1 0 0-6.5-8.5-12-13 0 0 11.8 1.6 19.4 18.4l-1.7 2.5z"/><path class="st14" d="m185.9 287.2-5 4.7-6.7-.7c.1 0 6.7-2.8 11.7-4zM200.4 263.1s-2.8 3.6-3.4 5l-.4-8 3.8 3zM205 235.2l.3 4.7-2.8-1.7z"/><path class="st18" d="M203.7 250.6c-4-1.3-6.6-2.9-9.4.9 0 0 .6.4 1.7 1.2 2.4 1.6 6.8 4.6 11.3 7.5-.5-.8-1-1.5-1.2-1.9-.5-.9-1.7-5.3-2.4-7.7z"/><path class="st20" d="M233.3 260c-.3 0-17-5.3-26.3-8.3 2.5 8.5 5 12.2 13.1 16.3 3.1 1.6 10.7-1.3 11.7-2.3 1-.9 1.5-5.7 1.5-5.7z"/><path class="st18" d="M217.3 258.1c-.7.2-.3 2.8.1 3.6.3.8 6.1 3.9 5 3.8-1.1-.1-4.4-1-3.7-.4.7.6 3.4 2.3 4.5 2.3 1.1.1 5.7-.2 5.7-.2-2.8 1-6.7 1.9-8.7.9-8.1-4.1-10.6-7.8-13.1-16.3 9.3 2.9 26 8.2 26.3 8.3-.1-.1-15.4-2.2-16.1-2z"/><path class="st28" d="M231.3 262.1c-.2 0-7.9-.9-8.1-.9-.2 0-.2 1.1-.1 1.2.1.2 3.5 2.6 3.5 2.6s-1.1.3-.8.3c.2.1 4.2-.2 4.5-.3.3 0 .9-.4 1-2.9z"/><path class="st29" d="m212.8 286.6-7-2.1c1.2-3.4 4.1-12.2 10.3-13.8 4.9 1.1 6.2 5.1 6.2 5.1-1.2-.2-2.3-.1-3.3.4-1.1-1-2.6-2.2-3.9-2.8 0 0-2.2.4-4.9 6l4.6 2c-.6 1.5-1.3 3.2-2 5.2z"/><path class="st14" d="m65 213.2.3 3.7s-13.5-4.1-17.1-14c3.9 4.7 9.8 8.3 16.8 10.3zM155 100.5c5.9 0 11.3 1.7 15.9 4.6-1.9-.1-3.9 0-6.1.5-5-2.7-10.7-4.2-16.7-4.3 2.2-.5 4.5-.8 6.9-.8z"/><path class="st25" d="M71.2 193.7c-.2 0-2.2-.4-3.7-.9-1.6-.5-1 .1-.5.9.5.9.3 2 .5 2.1.2.1 1.9-1.1 3.8-1.3 2-.1 2.2-.5-.1-.8zM74.2 204.4s-.8-.6-1.6-1.6-1.7-1.6-3-1.4c-1.3.2-2.9.9-3 1.7-.1.8.8 1.6 1.8 1.8 1 .2 1.2-1.1.9-1.2-.2 0-.4.7-1.2.3-.8-.4 0-1.5 1.1-1.6 1.1-.1 1.6 1 2.8 1.7 1.2.7 5.9 1.6 4.9 1.2-.8-.2-2.7-.9-2.7-.9z"/><path class="st47" d="m308.7 139-1.1 1.9s3.9 3.5 5.3 5.5c-.1 0-.5-4.6-4.2-7.4zM300 133.4c.6.4-1.2 1.1-1.7 1.4-.5.2-3.2-1.2-3.1-1.3 2.1-2 4.2-.5 4.8-.1zM221.2 139l1.1 1.9s-3.9 3.5-5.3 5.5c0 0 .4-4.6 4.2-7.4zM245.6 128.3c.7 0-.4 1.6-.7 2.1-.3.5-3.4.8-3.3.6.7-2.7 3.3-2.7 4-2.7z"/><path class="st14" d="M129.2 403.2c-4.4 3.1-8.8 6.3-13.2 9.4H69.9c7.4-5.5 14.8-10.9 21.9-16.4 7-5.4 14-10.9 20.9-16.4H93c-2-3.1-4-6.3-5.9-9.4h51.7c-6.5 5.5-13 10.9-19.8 16.4-6.8 5.5-13.7 10.9-20.8 16.4h31zm68.3-32.8h-51.6c-1.9 7-3.8 14.1-5.8 21.1-1.9 7-3.8 14.1-5.7 21.1h44.3c4.1-3.1 8.1-6.3 12.1-9.4H151c.6-2.4 1.2-4.9 1.8-7.3h24.9c3.6-2.9 7.2-5.7 10.8-8.6H155c.6-2.5 1.2-5 1.8-7.4h29.6c3.6-3.2 7.4-6.3 11.1-9.5zm61.1 13.1c-2 2.5-4.1 5-6.1 7.5-2.1 2.5-4.1 5-6.3 7.5h-32.4c-.3 2.3-.5 4.7-.8 7-.3 2.3-.5 4.7-.7 7H198c1-7 2-14.1 2.9-21.1 1-7 2-14.1 2.9-21.1h45.1c1.5 2.2 3.2 4.3 4.7 6.5 1.7 2.3 3.4 4.5 5 6.7zm-13.8.8c-1.1-1.5-2.2-2.9-3.3-4.4h-25.6c-.3 3-.7 6.1-1 9.1H241c1.2-1.6 2.5-3.2 3.8-4.7zm76.8 28.3h-14.3c-.3-2.8-.5-5.6-.7-8.4-.2-2.8-.5-5.6-.7-8.4h-27.3c.1 2.8.2 5.6.2 8.4l.3 8.4h-14.3v-42.2h13c.1 2.8.2 5.6.2 8.4.1 2.8.2 5.6.2 8.4H305c-.2-2.8-.5-5.6-.7-8.4-.3-2.8-.5-5.6-.7-8.4h13c.9 7 1.7 14.1 2.5 21.1.9 7.1 1.7 14.1 2.5 21.1zm61-42.2c-2.9 3.7-5.7 7.5-8.7 11.2-3 3.7-6.1 7.4-9.2 11.1.7 3.3 1.4 6.6 2.2 9.9.7 3.3 1.4 6.6 2.2 9.9h-14.3c-.7-3.3-1.2-6.6-1.8-9.9-.6-3.3-1.3-6.6-1.9-9.9-4.7-3.7-9.3-7.4-13.8-11.1-4.5-3.7-8.8-7.4-13.2-11.2h15.5c2.7 2.3 5.4 4.5 8.2 6.8 2.7 2.3 5.6 4.5 8.4 6.8 1.9-2.3 3.8-4.5 5.6-6.8 1.8-2.3 3.7-4.5 5.5-6.8h15.3zm78.5 42.2h-14.3c-1.3-3.5-2.6-6.9-3.9-10.4-1.9-1.2-3.8-2.5-5.6-3.7h-26.5c.7 2.3 1.5 4.7 2.2 7 .7 2.3 1.4 4.7 2.2 7h-14.3c-2-7-4-14.1-5.9-21.1-2-7-4-14.1-6-21.1h45.2c2.5 2.2 5 4.4 7.5 6.5 2.5 2.2 5 4.3 7.7 6.5-1.3 3.3-2.6 6.5-3.9 9.8 3.6 2.4 7.2 4.9 10.8 7.3.9 2 1.6 4 2.5 6 .7 2.2 1.5 4.2 2.3 6.2zm-25.4-28.3c-1.7-1.5-3.5-2.9-5.1-4.4h-25.7c1 3 1.9 6.1 2.9 9.1h26.1c.6-1.6 1.2-3.2 1.8-4.7z"/><path d="M291.8 447.1c0-.7-.2-1.3-.9-1.8l-.2-.2-24.6-14.3h-.2c-.2-.2-.7-.2-1.1-.2-.2 0-.4 0-.7.2-.2 0-.2 0-.4.2l-24.6 14.3c-.7.4-1.1 1.1-1.1 2v28.3c0 .9.4 1.5 1.3 2l24.6 14.3H265.9l24.6-14.3c.7-.4 1.3-1.1 1.3-2v-28.5c0 .2 0 .2 0 0zm-44.2-.9 16.7-9.7c.2-.2.7-.2 1.1 0l16.7 9.7c.7.4.7 1.5 0 2l-16.7 9.7c-.2.2-.7.2-1.1 0l-16.7-9.7c-.6-.4-.6-1.5 0-2zm14.5 36.7c0 .9-.9 1.3-1.5.9l-16.7-9.7c-.2-.2-.4-.7-.4-.9v-19.3c0-.9.9-1.3 1.5-.9l16.7 9.7c.2.2.4.7.4.9v19.3zm24.4-9.7c0 .4-.2.7-.4.9l-16.7 9.7c-.7.4-1.5 0-1.5-.9v-19.3c0-.4.2-.7.4-.9L285 453c.7-.4 1.5 0 1.5.9v19.3z" style="fill:#08f39f"/></svg>