<svg xmlns="http://www.w3.org/2000/svg" xmlns:xlink="http://www.w3.org/1999/xlink" viewBox="0 0 1095.13 1289.45"><defs><style>.cls-1,.cls-2{fill:none;}.cls-1{clip-rule:evenodd;}.cls-2{fill-rule:evenodd;}.cls-3{clip-path:url(#clip-path);}.cls-4{fill:#111927;}.cls-5{clip-path:url(#clip-path-2);}.cls-6{clip-path:url(#clip-path-3);}.cls-7{clip-path:url(#clip-path-4);}.cls-8{fill:#a4b1cd;}.cls-9{clip-path:url(#clip-path-5);}.cls-10{fill:#a3afcb;}.cls-11{clip-path:url(#clip-path-7);}.cls-12{fill:#cdd4e3;}.cls-13{clip-path:url(#clip-path-8);}.cls-14{clip-path:url(#clip-path-9);}.cls-15{fill:#68748e;}.cls-16{clip-path:url(#clip-path-10);}.cls-17{clip-path:url(#clip-path-11);}.cls-18{fill:#8692ad;}.cls-19{clip-path:url(#clip-path-12);}.cls-20{clip-path:url(#clip-path-13);}.cls-21{fill:#303f61;}.cls-22{clip-path:url(#clip-path-14);}.cls-23{clip-path:url(#clip-path-15);}.cls-24{fill:#617090;}.cls-25{clip-path:url(#clip-path-16);}.cls-26{fill:#141a26;}.cls-27{clip-path:url(#clip-path-17);}.cls-28{clip-path:url(#clip-path-18);}.cls-29{clip-path:url(#clip-path-19);}.cls-30{clip-path:url(#clip-path-20);}.cls-31{clip-path:url(#clip-path-21);}.cls-32{fill:#ff3e3e;}.cls-33{clip-path:url(#clip-path-22);}.cls-34{clip-path:url(#clip-path-23);}.cls-35{clip-path:url(#clip-path-24);}.cls-36{clip-path:url(#clip-path-25);}.cls-37{clip-path:url(#clip-path-26);}.cls-38{clip-path:url(#clip-path-27);}.cls-39{clip-path:url(#clip-path-28);}.cls-40{clip-path:url(#clip-path-29);}.cls-41{clip-path:url(#clip-path-30);}.cls-42{clip-path:url(#clip-path-31);}.cls-43{clip-path:url(#clip-path-32);}.cls-44{clip-path:url(#clip-path-33);}.cls-45{clip-path:url(#clip-path-34);}.cls-46,.cls-72{fill:#9fef00;}.cls-47{clip-path:url(#clip-path-35);}.cls-48{clip-path:url(#clip-path-36);}.cls-49{clip-path:url(#clip-path-37);}.cls-50{clip-path:url(#clip-path-38);}.cls-51{clip-path:url(#clip-path-39);}.cls-52{clip-path:url(#clip-path-40);}.cls-53{clip-path:url(#clip-path-41);}.cls-54{clip-path:url(#clip-path-42);}.cls-55{clip-path:url(#clip-path-43);}.cls-56{clip-path:url(#clip-path-44);}.cls-57{clip-path:url(#clip-path-45);}.cls-58{clip-path:url(#clip-path-46);}.cls-59{clip-path:url(#clip-path-47);}.cls-60{clip-path:url(#clip-path-48);}.cls-61{clip-path:url(#clip-path-49);}.cls-62{clip-path:url(#clip-path-50);}.cls-63{clip-path:url(#clip-path-51);}.cls-64{clip-path:url(#clip-path-52);}.cls-65{clip-path:url(#clip-path-53);}.cls-66{fill:#fff;}.cls-67{clip-path:url(#clip-path-54);}.cls-68{clip-path:url(#clip-path-55);}.cls-69{clip-path:url(#clip-path-56);}.cls-70{clip-path:url(#clip-path-57);}.cls-71{clip-path:url(#clip-path-58);}.cls-72{opacity:0.5;}.cls-73{clip-path:url(#clip-path-59);}.cls-74{clip-path:url(#clip-path-60);}.cls-75{clip-path:url(#clip-path-61);}.cls-76{clip-path:url(#clip-path-62);}.cls-77{clip-path:url(#clip-path-63);}.cls-78{clip-path:url(#clip-path-64);}.cls-79{clip-path:url(#clip-path-65);}.cls-80{clip-path:url(#clip-path-66);}.cls-81{clip-path:url(#clip-path-67);}.cls-82{clip-path:url(#clip-path-68);}</style><clipPath id="clip-path" transform="translate(5 5)"><path class="cls-1" d="M293.6,290.56,435,339.5c8.79,3,17.89,6.4,27.52,10,26.31,9.74,58.74,21.76,80.06,23.85,21.27-2.09,53.69-14.1,80-23.84,9.64-3.57,18.75-6.94,27.62-10l141.36-48.93-184.85-64c-6.43-2.21-12.88-4.65-19.11-7-14-5.29-33.08-12.54-41.8-12.07l-3.19.17-3.19-.17c-8.75-.44-27.92,6.79-41.89,12.08-6.23,2.36-12.66,4.79-19.17,7Zm249,203-3.15-.17C500,491.33,458,475.74,420.84,462c-9-3.33-17.44-6.46-25-9.07l-261.75-90.6c-13.22-4.58-24.52-10.18-33.59-16.64C73,326.07,68.87,301.23,68.88,288.17c0-28.5,18.66-53.33,47.47-63.25L439.19,113.18c4.87-1.67,10.19-3.69,15.83-5.82,24.49-9.28,54.78-20.76,87.57-19.82,32.74-.94,63,10.54,87.5,19.81,5.65,2.14,11,4.15,15.77,5.8L968.92,225c28.76,9.93,47.35,34.74,47.37,63.21,0,13.06-4.08,37.91-31.65,57.54-9.07,6.45-20.37,12.05-33.59,16.63L689.37,452.9c-7.65,2.64-16.13,5.78-25.11,9.11-37.1,13.74-79.15,29.32-118.52,31.38Z"/></clipPath><clipPath id="clip-path-2" transform="translate(5 5)"><path class="cls-1" d="M86.22,332.23,68.42,383a33.68,33.68,0,0,0,4.07,1.15L69.09,383ZM120,613.73,542.58,756.25,965.13,613.51V400.15L542.59,542.72,120,400.15ZM542.61,882.9,69,723.17C29,709.59,0,667.83,0,623.85V349.58c0-29,12.63-54.61,34.66-70.23,21-14.9,47.47-18.48,72.73-9.87l.07-.21L542.59,416.08,977.67,269.27c25.53-8.57,52.19-4.8,73.21,10.31,21.77,15.66,34.25,41.08,34.25,69.77V623.62c0,44-29,85.74-69,99.32Z"/></clipPath><clipPath id="clip-path-3" transform="translate(5 5)"><path class="cls-1" d="M998.37,727.41,1016,779.7l-2.89,1a33.72,33.72,0,0,0,3.57-1ZM107.37,1006h0Zm870.3,0h0ZM120,1010.23,542.59,1152.8l422.54-142.57V796.87L542.59,939.39,120,796.87Zm422.59,269.22L69.09,1119.7C29.09,1106.27,0,1064.47,0,1020.34V746.07c0-28.75,12.53-54.22,34.37-69.87,21.05-15.08,47.69-18.8,73.11-10.2L542.59,812.75,977.68,666l.05.16c25.24-8.61,51.71-5,72.72,9.87,22,15.63,34.68,41.22,34.68,70.22v274.1c0,44.13-29.09,85.92-69.18,99.38Z"/></clipPath><clipPath id="clip-path-4" transform="translate(5 5)"><path class="cls-1" d="M996.85,722.85,542.59,876.07,88.28,722.85C72.71,717.56,60,728.13,60,746.07v274.28c0,18.17,12.71,37.27,28.28,42.5l454.31,153.27,454.26-153.27c15.56-5.23,28.28-24.33,28.28-42.5V746.24c0-18.11-12.72-28.68-28.28-23.22"/></clipPath><clipPath id="clip-path-5" transform="translate(5 5)"><path class="cls-1" d="M88.28,326.12,542.59,479.4,996.85,326.12c15.56-5.22,28.28,5.29,28.28,23.23V623.62c0,18.12-12.72,37.22-28.28,42.5L542.59,819.57,88.28,666.35C72.71,661.07,60,642,60,623.85V349.58c0-18.17,12.71-28.68,28.28-23.22"/></clipPath><clipPath id="clip-path-7" transform="translate(5 5)"><path class="cls-1" d="M168.57,749.9a28.3,28.3,0,0,0-11.26,21.54c0,3.49-.29,7.61-.41,12.31l55.45,17.94a14.18,14.18,0,0,1,8.77,12.89c0,5.81-4,8.88-8.77,7.32l-55.68-18v28.56l55.68,18a14.25,14.25,0,0,1,8.77,12.95c0,5.51-4,8.82-8.77,7.26l-55.51-17.94c.41,57.13,1.75,119.37,1.75,119.37s-13.07,73.9,102.24,149.15L88.28,1063.19c-15.57-5.4-28.28-24.5-28.28-42.67V746.24c0-18.11,12.71-28.68,28.28-23.22Z"/></clipPath><clipPath id="clip-path-8" transform="translate(5 5)"><path class="cls-1" d="M88.28,326.12l119,40.18a115.81,115.81,0,0,0-37.92,62.41L482.27,534.15a15.91,15.91,0,0,1,9.58,14.4c0,6.15-4.3,9.7-9.58,7.9L165.73,449.79c0,2.09-.41,4.18-.53,6.27-.63,9.41-1.16,18.7-1.51,27.87L482.27,591.4a15.91,15.91,0,0,1,9.58,14.4c0,6.15-4.3,9.69-9.58,7.89L162.94,506c-1.22,59,2.15,106,2.15,106s0,53.42,119.08,112.75c16.37,8.13,30.83,15.62,43.6,22.41L88.28,666.35C72.71,661.07,60,642,60,623.85V349.58c0-18.17,12.71-28.68,28.28-23.22"/></clipPath><clipPath id="clip-path-9" transform="translate(5 5)"><path class="cls-1" d="M542.59,876.07V1216.3L996.85,1063c15.56-5.23,28.28-24.33,28.28-42.5V746.24c0-18.11-12.72-28.68-28.28-23.22Z"/></clipPath><clipPath id="clip-path-10" transform="translate(5 5)"><path class="cls-1" d="M542.59,479.4,996.85,326.12c15.56-5.22,28.28,5.29,28.28,23.23V623.62c0,18.12-12.72,37.22-28.28,42.5L542.59,819.57Z"/></clipPath><clipPath id="clip-path-11" transform="translate(5 5)"><path class="cls-1" d="M930.9,745.08c5.46,14.29,2.79,43.9-40.35,104.51C843.69,915.2,738.78,1068.83,667,1174.38l329.83-111.3c15.56-5.23,28.28-24.33,28.28-42.5V746.24c0-18.11-12.72-28.68-28.28-23.22Z"/></clipPath><clipPath id="clip-path-12" transform="translate(5 5)"><path class="cls-1" d="M887,363.17l109.84-37.05c15.56-5.22,28.28,5.29,28.28,23.23V623.62c0,18.12-12.72,37.22-28.28,42.5L746,750.72c60.38-46.45,133-116.12,160.19-195.14C956,410.43,887,362.93,887,362.93"/></clipPath><clipPath id="clip-path-13" transform="translate(5 5)"><path class="cls-1" d="M682.29,772.42l-17.41,5.81V693.35a17.94,17.94,0,0,1,8.71-15.21c4.81-2.26,8.7.87,8.7,7Zm-29.55,10-17.42,5.8V603.13A18.07,18.07,0,0,1,644,587.86c4.82-2.27,8.77.87,8.77,7Zm-32,10.79L603.32,799V670.65a18,18,0,0,1,8.77-15.21c4.76-2.27,8.71.87,8.71,7Z"/></clipPath><clipPath id="clip-path-14" transform="translate(5 5)"><path class="cls-1" d="M949.3,281.65l-323-111.77c-26.13-9-56.5-23.74-83.73-22.29-27.28-1.45-57.65,13.29-83.78,22.29L135.88,281.65c-14.16,4.88-6.15,15.68,17.83,24L415.38,396.2c37.57,12.95,88.43,35.24,127.21,37.28,38.73-2,89.59-24.33,127.16-37.28l261.67-90.57c24-8.3,32.05-19.1,17.88-24"/></clipPath><clipPath id="clip-path-15" transform="translate(5 5)"><path class="cls-1" d="M777.5,222.2l-151-52.26c-26.13-9-56.49-23.74-83.72-22.29-27.29-1.45-57.66,13.29-83.78,22.29L135.88,281.65c-14.16,4.88-6.15,15.68,17.83,24L247.13,338c.81-14.05,8.07-32.11,35.88-43.84C334.39,272.36,600.25,182,777.5,222.2Z"/></clipPath><clipPath id="clip-path-16" transform="translate(5 5)"><path class="cls-1" d="M842.18,289.25l-238-82.32c-19.22-6.68-41.63-17.42-61.66-16.44-20.09-1-42.44,9.76-61.72,16.44l-238,82.32c-10.45,3.6-4.52,11.62,13.13,17.42L449,373.62c27.52,9.58,65,26,93.59,27.52,28.34-1.51,66-17.94,93.65-27.52L829.06,306.9c17.42-5.8,23.57-14,13.12-17.41"/></clipPath><clipPath id="clip-path-17" transform="translate(5 5)"><polygon class="cls-1" points="257.06 272.07 237.78 274.74 237.78 294.13 847.35 294.13 847.35 274.33 257.06 272.07"/></clipPath><clipPath id="clip-path-18" transform="translate(5 5)"><path class="cls-1" d="M842.18,269.46l-238-82.33c-19.22-6.62-41.63-17.42-61.66-16.43-20.09-1-42.44,9.81-61.72,16.43l-238,82.33c-10.45,3.65-4.52,11.61,13.13,17.7l193.16,67c27.64,9.52,65.14,25.95,93.71,27.46,28.22-1.8,65.9-18.23,93.53-27.46l192.82-66.72c17.42-6.15,23.57-14.05,13.12-17.7"/></clipPath><clipPath id="clip-path-19" transform="translate(5 5)"><path class="cls-1" d="M120.56,571.31,482.68,694.05a24.43,24.43,0,0,1,15.09,21.89v36.63a11,11,0,0,1-15.09,11.61L120.56,641.5a24.36,24.36,0,0,1-15-21.88V583a11,11,0,0,1,15-11.61"/></clipPath><clipPath id="clip-path-20" transform="translate(5 5)"><path class="cls-1" d="M121.14,571.48,483.26,694.22a24.09,24.09,0,0,1,14.51,21.72v36.57a10.26,10.26,0,0,1,0,1.92L135.48,631.75A24,24,0,0,1,121,610V571.5"/></clipPath><clipPath id="clip-path-21" transform="translate(5 5)"><path class="cls-1" d="M382.7,683l72.11,24.79a10,10,0,0,1,5.8,9.17c0,3.89-2.73,5.81-5.8,5l-72.46-24.74a10.16,10.16,0,0,1-5.81-9.17c-.17-4,2.79-6.15,5.92-5ZM142.21,593.27l15,5.17a7.76,7.76,0,0,1,4.7,7.09v15c0,3-2.09,4.71-4.7,3.84l-15-5.23a7.84,7.84,0,0,1-4.76-7.08V597.15c-.23-3,1.92-4.94,4.53-3.84Zm37.28,12.84,15,5.22a7.85,7.85,0,0,1,4.76,7.08v14.93c0,3-2.15,4.76-4.76,3.83l-15-5.17a7.77,7.77,0,0,1-4.71-7.08V610c-.23-3,1.86-4.77,4.47-3.89ZM216.76,619l15,5.22a7.83,7.83,0,0,1,4.76,7.08v14.93c0,3-2.15,4.76-4.76,3.83l-15-5.17a7.79,7.79,0,0,1-4.7-7.08v-15C211.83,619.91,213.92,618.16,216.76,619Zm54.58,26,72.4,24.73a10.21,10.21,0,0,1,6.15,9.17c0,3.89-2.78,6.16-6.15,5l-72.4-24.74a10.22,10.22,0,0,1-6.16-8.94c0-3.89,2.79-6.15,6.16-5"/></clipPath><clipPath id="clip-path-22" transform="translate(5 5)"><path class="cls-1" d="M970.5,376.87,830.34,426.51a8.76,8.76,0,0,0-5.23,7.95c0,3.37,2.33,5.29,5.23,4.3L970.5,389a9,9,0,0,0,5.16-8C975.66,377.74,973.34,375.82,970.5,376.87Zm0,31-61,21.77a8.94,8.94,0,0,0-5.22,8c0,3.36,2.32,5.28,5.22,4.23l61-21.59a8.84,8.84,0,0,0,5.16-8C975.66,408.74,973.34,406.83,970.5,407.87ZM808.33,434.29l-60.9,21.6a8.76,8.76,0,0,0-5.23,7.95c0,3.37,2.33,5.28,5.23,4.3l60.9-21.6a9,9,0,0,0,5.23-8C813.56,435.45,811.24,433.24,808.33,434.29Zm162.17,10L813.1,500.07a9,9,0,0,0-5.23,8c0,3.37,2.38,5.29,5.23,4.24l157.4-55.74a8.81,8.81,0,0,0,5.16-7.95c0-3.66-2.32-5.57-5.16-4.59Zm-86.63-5.76L685.42,508.84a8.87,8.87,0,0,0-5.22,7.95c0,3.37,2.38,5.29,5.22,4.3l198.45-70.31a9,9,0,0,0,5.23-8c0-3.36-2.39-5.34-5.23-4.29"/></clipPath><clipPath id="clip-path-23" transform="translate(5 5)"><path class="cls-1" d="M325.86,943.88l44.3,14.46a24,24,0,0,1,15,21.54v45.4a11,11,0,0,1-15,11.61l-44.3-14.45a24,24,0,0,1-15-21.54V955.43a11,11,0,0,1,15-11.61"/></clipPath><clipPath id="clip-path-24" transform="translate(5 5)"><path class="cls-1" d="M325.22,943.65l45.57,14.92a23.23,23.23,0,0,1,14.35,21.31v45.4a17,17,0,0,1-.82,5.34h-1l-45.64-14.92a23.22,23.22,0,0,1-14.34-21.37v-45.4a15.32,15.32,0,0,1,.87-5.28l1.05.29"/></clipPath><clipPath id="clip-path-25" transform="translate(5 5)"><path class="cls-1" d="M439.19,981.21l44.3,14.46a23.86,23.86,0,0,1,15,21.54v45.29a11.09,11.09,0,0,1-15,11.61l-44.3-14.52a23.84,23.84,0,0,1-15-21.54V992.82a11,11,0,0,1,15-11.61"/></clipPath><clipPath id="clip-path-26" transform="translate(5 5)"><path class="cls-1" d="M438.55,980.75l45.58,14.92A23.21,23.21,0,0,1,498.47,1017v45.52a17,17,0,0,1-.81,5.34l-1.05-.35L451,1052.57a23.23,23.23,0,0,1-14.35-21.31v-45.4a15.15,15.15,0,0,1,.88-5.29h1"/></clipPath><clipPath id="clip-path-27" transform="translate(5 5)"><path class="cls-1" d="M106.45,761.75,208.92,794.9A14.44,14.44,0,0,1,218.1,808a6.78,6.78,0,0,1-9.18,7.14L106.45,782a14.41,14.41,0,0,1-9.12-13.06,6.74,6.74,0,0,1,5.82-7.54,6.63,6.63,0,0,1,3.3.4"/></clipPath><clipPath id="clip-path-28" transform="translate(5 5)"><path class="cls-1" d="M542.59,218.89c61,0,113,13.87,132.84,33.38H684v21.42h-.46c-5.81,26.19-66.66,46.74-140.92,46.74-78.09,0-141.43-22.76-141.43-50.86V252.15h8.53c19.8-19.5,71.82-33.38,132.9-33.38"/></clipPath><clipPath id="clip-path-29" transform="translate(5 5)"><path class="cls-1" d="M106.45,810.52l102.47,33.15a14.44,14.44,0,0,1,9.18,13.06,6.78,6.78,0,0,1-9.18,7.14L106.45,830.72a14.41,14.41,0,0,1-9.12-13.06,6.74,6.74,0,0,1,5.82-7.54,6.63,6.63,0,0,1,3.3.4"/></clipPath><clipPath id="clip-path-30" transform="translate(5 5)"><path class="cls-1" d="M121,405.78,481.81,527.71a16.25,16.25,0,0,1,10,14.51,7.38,7.38,0,0,1-6.38,8.25,7.49,7.49,0,0,1-3.66-.47L121,428.08a16.24,16.24,0,0,1-10-14.58,7.38,7.38,0,0,1,10-7.78"/></clipPath><clipPath id="clip-path-31" transform="translate(5 5)"><path class="cls-1" d="M120.56,405.66,482.27,527.59a16,16,0,0,1,9.58,14.4,10.26,10.26,0,0,1,0,1.92h-.46L129.67,421.81a16,16,0,0,1-9.52-14.4,10.26,10.26,0,0,1,0-1.92h.46"/></clipPath><clipPath id="clip-path-32" transform="translate(5 5)"><path class="cls-1" d="M121,461.69,481.81,583.62a16.26,16.26,0,0,1,10,14.4,7.38,7.38,0,0,1-10,7.78L121,483.87a16.19,16.19,0,0,1-10-14.51,7.37,7.37,0,0,1,6.38-8.25,7.27,7.27,0,0,1,3.66.47"/></clipPath><clipPath id="clip-path-33" transform="translate(5 5)"><path class="cls-1" d="M120.56,461.52,482.27,583.44A15.92,15.92,0,0,1,491.85,598a10.16,10.16,0,0,1,0,1.91h-.46L129.67,477.66a15.85,15.85,0,0,1-9.52-14.34,10.26,10.26,0,0,1,0-1.92h.46"/></clipPath><clipPath id="clip-path-34" transform="translate(5 5)"><path class="cls-1" d="M343.45,963.79l22.18,7.26a12.08,12.08,0,0,1,7.55,10.8v22.59a5.83,5.83,0,0,1-5.54,6.07,5.66,5.66,0,0,1-2-.27L343.45,1003a12.08,12.08,0,0,1-7.55-10.8V969.6a5.81,5.81,0,0,1,5.53-6.07,5.89,5.89,0,0,1,2,.26"/></clipPath><clipPath id="clip-path-35" transform="translate(5 5)"><path class="cls-1" d="M454.81,1000.72,477,1008a12.06,12.06,0,0,1,7.54,10.8v22.76a5.81,5.81,0,0,1-5.53,6.07,5.66,5.66,0,0,1-2-.27l-22.18-7.14a12.08,12.08,0,0,1-7.55-10.8v-22.76a5.79,5.79,0,0,1,7.55-5.8"/></clipPath><clipPath id="clip-path-36" transform="translate(5 5)"><path class="cls-1" d="M508.26,467.67h0l-177.7-59.91,175.22,71.7c15.16,6.21,22,9.11,24,22.87l9.7,147.94v2.9a11.58,11.58,0,0,0,2.9,5.81V507.85a29.44,29.44,0,0,1,17.42-26.13,77,77,0,0,0,30-18.34,133.55,133.55,0,0,1-81.57,4.41Zm-7,2.62-5.81-6.91Z"/></clipPath><clipPath id="clip-path-37" transform="translate(5 5)"><path class="cls-1" d="M542.59,202.22C620.68,202.22,684,225,684,253s-63.29,50.86-141.38,50.86S401.16,281.13,401.16,253s63.34-50.81,141.43-50.81"/></clipPath><clipPath id="clip-path-38" transform="translate(5 5)"><path class="cls-1" d="M542.59,212.38c62.77,0,113.63,17.42,113.63,39.31S605.36,291,542.59,291s-113.68-17.42-113.68-39.31,50.86-39.31,113.68-39.31"/></clipPath><clipPath id="clip-path-39" transform="translate(5 5)"><path class="cls-1" d="M542.59,220.28c52.26,0,94.29,14.05,94.29,31.41s-42.21,31.41-94.29,31.41-94.29-14.05-94.29-31.41,42.21-31.41,94.29-31.41"/></clipPath><clipPath id="clip-path-40" transform="translate(5 5)"><path class="cls-1" d="M633.81,259.64c-10.57,13.47-47.44,23.23-91.22,23.23s-80.64-10-91.27-23.23c10.63-13.47,47.44-23.22,91.27-23.22s80.65,10,91.22,23.22"/></clipPath><clipPath id="clip-path-41" transform="translate(5 5)"><path class="cls-1" d="M947.39,934.42,659.41,1044a13.43,13.43,0,0,0-7.72,11.62c0,4.87,3.48,7.54,7.72,5.8l288-109.27a13.53,13.53,0,0,0,7.78-11.61c0-4.88-3.49-7.55-7.78-5.81"/></clipPath><clipPath id="clip-path-42" transform="translate(5 5)"><path class="cls-1" d="M947.56,934.36,659.29,1044.09a13.3,13.3,0,0,0-7.6,11.61,6.36,6.36,0,0,0,0,1.51H652L940.3,947.54a13.38,13.38,0,0,0,7.61-11.61,6.36,6.36,0,0,0,0-1.51h-.35"/></clipPath><clipPath id="clip-path-43" transform="translate(5 5)"><path class="cls-1" d="M947.39,981.21l-288,109.62a13.53,13.53,0,0,0-7.72,11.61c0,4.88,3.48,7.55,7.72,5.81l288-109.56a13.49,13.49,0,0,0,7.78-11.61c0-4.88-3.49-7.55-7.78-5.81"/></clipPath><clipPath id="clip-path-44" transform="translate(5 5)"><path class="cls-1" d="M947.56,981.21,659.29,1091a13.32,13.32,0,0,0-7.6,11.61,6.36,6.36,0,0,0,0,1.51H652L940.3,994.33a13.35,13.35,0,0,0,7.61-11.61,6.36,6.36,0,0,0,0-1.51h-.35"/></clipPath><clipPath id="clip-path-45" transform="translate(5 5)"><path class="cls-1" d="M684.38,921.12c15.85-5.17,28.74,7.26,28.74,27.7S700.23,990,684.38,995.26s-29-7.2-29-27.69,12.89-41.22,29-46.45"/></clipPath><clipPath id="clip-path-46" transform="translate(5 5)"><path class="cls-1" d="M684.38,921.12a20.08,20.08,0,0,1,16.49,1.34,34.89,34.89,0,0,1,5.8,20.49c0,20.5-12.89,41.22-29,46.45a19.59,19.59,0,0,1-16.49-1.34,34.73,34.73,0,0,1-5.8-20.49c0-20.44,12.89-41.22,29-46.45"/></clipPath><clipPath id="clip-path-47" transform="translate(5 5)"><path class="cls-1" d="M762.52,895.81c15.91-5.17,29,7.25,29,27.69s-12.88,41.22-29,46.45-29-7.26-29-27.7,12.89-41.22,29-46.44"/></clipPath><clipPath id="clip-path-48" transform="translate(5 5)"><path class="cls-1" d="M762.52,895.81a19.76,19.76,0,0,1,16.55,1.33,34.86,34.86,0,0,1,5.81,20.5c0,20.43-12.89,41.22-29,46.45a20.26,20.26,0,0,1-16.55-1.34,34.86,34.86,0,0,1-5.81-20.5c0-20.49,12.89-41.22,29-46.44"/></clipPath><clipPath id="clip-path-49" transform="translate(5 5)"><path class="cls-1" d="M840.38,870.43c15.91-5.1,29,7.26,29,27.76s-12.89,41.22-29,46.45-29-7.26-29-27.7,12.89-41.28,29-46.45"/></clipPath><clipPath id="clip-path-50" transform="translate(5 5)"><path class="cls-1" d="M840.38,870.43a20,20,0,0,1,16.55,1.4,34.82,34.82,0,0,1,5.81,20.44c0,20.49-12.89,41.28-28.74,46.44a19.76,19.76,0,0,1-16.55-1.33,34.82,34.82,0,0,1-5.81-20.44c0-20.49,12.89-41.28,29-46.45"/></clipPath><clipPath id="clip-path-51" transform="translate(5 5)"><path class="cls-1" d="M682.87,934.76c8.76-2.84,15.91,4,15.91,15.33s-7.15,22.82-15.91,25.67-16-4-16-15.33,7.14-22.82,16-25.67"/></clipPath><clipPath id="clip-path-52" transform="translate(5 5)"><path class="cls-1" d="M760.67,909.1c8.76-2.9,15.91,4,15.91,15.33s-7.15,22.82-15.91,25.66-16-4-16-15.33,7.14-22.81,16-25.66"/></clipPath><clipPath id="clip-path-53" transform="translate(5 5)"><path class="cls-1" d="M838.7,882.51c8.82-2.84,16,4,16,15.33s-7.15,22.87-16,25.72-15.91-4-15.91-15.33a27.81,27.81,0,0,1,15.91-25.72"/></clipPath><clipPath id="clip-path-54" transform="translate(5 5)"><path class="cls-1" d="M916,843.61c15.85-5.17,28.73,7.2,28.73,27.7S931.89,912.53,916,917.75s-29-7.25-29-27.69,12.88-41.22,29-46.45"/></clipPath><clipPath id="clip-path-55" transform="translate(5 5)"><path class="cls-1" d="M916,843.61A19.55,19.55,0,0,1,932.52,845a34.83,34.83,0,0,1,5.81,20.49c0,20.44-12.89,41.22-29,46.45a20,20,0,0,1-16.49-1.34,34.73,34.73,0,0,1-5.8-20.49c0-20.5,12.88-41.22,29-46.45"/></clipPath><clipPath id="clip-path-56" transform="translate(5 5)"><path class="cls-1" d="M914.53,857.14c8.76-2.85,15.9,4,15.9,15.33s-7.14,22.87-15.9,25.72-16-4-16-15.33a27.73,27.73,0,0,1,16-25.72"/></clipPath><clipPath id="clip-path-57" transform="translate(5 5)"><path class="cls-1" d="M408.36,212.33,243,269.46c-3.72,1.27-5.4,3.13-5.17,5.28.41,3.37,5.81,7.49,14.86,11.15l3.43,1.27,20.09,7,3.89,1.28,169,58.76,9.58,3.42c-39.42-21.6-77.39-45.11-94.11-63.17a39.24,39.24,0,0,1-11.15-21.65,28.47,28.47,0,0,1,0-3.2,35.77,35.77,0,0,1,6.79-20.49c14.46-22.18,48.25-36.75,48.25-36.75"/></clipPath><clipPath id="clip-path-58" transform="translate(5 5)"><path class="cls-1" d="M451.15,22h0a5.4,5.4,0,0,1,5.4,5.4V223.94a5.4,5.4,0,0,1-10.8,0V27.35a5.4,5.4,0,0,1,5.4-5.4"/></clipPath><clipPath id="clip-path-59" transform="translate(5 5)"><path class="cls-1" d="M629,107.7h0a5.4,5.4,0,0,1,5.4,5.4V223.94a5.4,5.4,0,0,1-10.8,0V113.1a5.4,5.4,0,0,1,5.4-5.4"/></clipPath><clipPath id="clip-path-60" transform="translate(5 5)"><path class="cls-1" d="M629,22h0a5.4,5.4,0,0,1,5.4,5.4V82.9a5.4,5.4,0,0,1-10.8,0V27.35A5.39,5.39,0,0,1,629,22"/></clipPath><clipPath id="clip-path-61" transform="translate(5 5)"><path class="cls-1" d="M492.43,49.29A6.74,6.74,0,1,1,485.7,56a6.76,6.76,0,0,1,6.73-6.71"/></clipPath><clipPath id="clip-path-62" transform="translate(5 5)"><path class="cls-1" d="M590.38,160.19a7.32,7.32,0,1,1-7.26,7.37v-.11a7.26,7.26,0,0,1,7.26-7.26"/></clipPath><clipPath id="clip-path-63" transform="translate(5 5)"><path class="cls-1" d="M582.54,17.42a15.27,15.27,0,1,1-15.1,15.44V32.8a15.27,15.27,0,0,1,15.1-15.38"/></clipPath><clipPath id="clip-path-64" transform="translate(5 5)"><path class="cls-1" d="M507.06,96.84h0a5.39,5.39,0,0,1,5.4,5.4v55.51a5.4,5.4,0,0,1-10.8,0V102.24a5.4,5.4,0,0,1,5.4-5.4"/></clipPath><clipPath id="clip-path-65" transform="translate(5 5)"><path class="cls-1" d="M666.49,0a7.27,7.27,0,1,1-.11,0h.11"/></clipPath><clipPath id="clip-path-66" transform="translate(5 5)"><path class="cls-1" d="M423.86,17.07a6.73,6.73,0,1,1-4.76,2,6.76,6.76,0,0,1,4.76-2"/></clipPath><clipPath id="clip-path-67" transform="translate(5 5)"><path class="cls-1" d="M551.88,185.79h0a5.39,5.39,0,0,1,5.34,5.4V246.7a5.37,5.37,0,1,1-10.74,0V191.08a5.4,5.4,0,0,1,5.4-5.4"/></clipPath><clipPath id="clip-path-68" transform="translate(5 5)"><path class="cls-1" d="M508.26,864.39h0l-177.66-60L505.82,876.1c15.16,6.21,22,9.11,24,22.87l9.7,148v2.9a11.58,11.58,0,0,0,2.9,6.1V904.46a29.44,29.44,0,0,1,17.42-26.13,77,77,0,0,0,30-18.35,133.55,133.55,0,0,1-81.57,4.42Zm-7,2.61-5.81-7Z"/></clipPath></defs><title>ic-machines-big</title><g id="Layer_2" data-name="Layer 2"><g id="Layer_1-2" data-name="Layer 1"><g class="cls-3"><rect class="cls-4" x="68.88" y="87.49" width="957.41" height="416.07"/></g><g class="cls-5"><rect class="cls-4" y="264.76" width="1095.13" height="628.14"/></g><g class="cls-6"><rect class="cls-4" y="661.46" width="1095.13" height="627.99"/></g><g class="cls-7"><rect class="cls-8" x="60" y="721.48" width="975.13" height="504.64"/></g><g class="cls-9"><rect class="cls-10" x="60" y="324.78" width="975.13" height="504.79"/></g><g class="cls-9"><rect class="cls-8" x="60" y="324.78" width="975.13" height="504.79"/></g><g class="cls-11"><rect class="cls-12" x="60" y="721.58" width="210.83" height="409.67"/></g><g class="cls-13"><rect class="cls-12" x="60" y="324.92" width="441.85" height="432.24"/></g><g class="cls-14"><rect class="cls-15" x="542.59" y="721.58" width="492.54" height="504.72"/></g><g class="cls-16"><rect class="cls-15" x="542.59" y="324.78" width="492.54" height="504.79"/></g><g class="cls-17"><rect class="cls-18" x="667" y="721.58" width="368.11" height="462.8"/></g><g class="cls-19"><rect class="cls-18" x="746" y="324.78" width="289.12" height="435.94"/></g><g class="cls-20"><rect class="cls-21" x="603.32" y="587.12" width="88.97" height="221.88"/></g><g class="cls-22"><rect class="cls-18" x="128.88" y="147.49" width="837.42" height="295.99"/></g><g class="cls-23"><rect class="cls-24" x="128.88" y="147.55" width="658.62" height="200.45"/></g><g class="cls-25"><rect class="cls-26" x="237.64" y="190.43" width="619.66" height="220.71"/></g><g class="cls-27"><rect class="cls-26" x="237.78" y="272.07" width="619.57" height="32.06"/></g><g class="cls-28"><rect class="cls-10" x="237.64" y="170.64" width="619.75" height="220.98"/></g><g class="cls-29"><rect class="cls-24" x="105.47" y="570.6" width="402.39" height="204.41"/></g><g class="cls-30"><rect class="cls-26" x="121" y="571.48" width="386.82" height="192.95"/></g><g class="cls-31"><rect class="cls-32" x="137.43" y="593" width="333.18" height="139.14"/></g><g class="cls-33"><rect class="cls-12" x="680.2" y="376.58" width="305.46" height="154.77"/></g><g class="cls-34"><rect class="cls-24" x="310.77" y="943.03" width="84.48" height="104.65"/></g><g class="cls-35"><rect class="cls-26" x="323.34" y="943.65" width="71.8" height="96.97"/></g><g class="cls-36"><rect class="cls-24" x="424.1" y="980.42" width="84.46" height="104.43"/></g><g class="cls-37"><rect class="cls-26" x="436.65" y="980.57" width="71.82" height="97.29"/></g><g class="cls-38"><rect class="cls-24" x="97.27" y="761.34" width="130.87" height="64.26"/></g><g class="cls-39"><rect class="cls-18" x="401.19" y="218.77" width="292.81" height="111.66"/></g><g class="cls-40"><rect class="cls-24" x="97.27" y="810.06" width="130.87" height="64.27"/></g><g class="cls-41"><rect class="cls-10" x="110.94" y="405.22" width="390.92" height="155.31"/></g><g class="cls-42"><rect class="cls-24" x="120.11" y="405.49" width="381.79" height="148.42"/></g><g class="cls-43"><rect class="cls-10" x="110.94" y="461.05" width="390.93" height="155.25"/></g><g class="cls-44"><rect class="cls-24" x="120.11" y="461.4" width="381.79" height="148.51"/></g><g class="cls-45"><rect class="cls-46" x="335.89" y="963.53" width="47.29" height="56.99"/></g><g class="cls-47"><rect class="cls-32" x="447.27" y="1000.58" width="47.27" height="57.05"/></g><g class="cls-48"><rect class="cls-12" x="330.56" y="407.76" width="269.24" height="261.22"/></g><g class="cls-49"><rect class="cls-12" x="401.16" y="202.19" width="292.84" height="111.67"/></g><g class="cls-50"><rect class="cls-24" x="428.91" y="212.38" width="237.31" height="88.62"/></g><g class="cls-51"><rect class="cls-46" x="448.3" y="220.28" width="198.58" height="72.82"/></g><g class="cls-52"><rect class="cls-26" x="451.32" y="236.42" width="192.49" height="56.45"/></g><g class="cls-53"><rect class="cls-24" x="651.69" y="934.2" width="313.5" height="137.76"/></g><g class="cls-54"><rect class="cls-21" x="651.65" y="934.36" width="306.31" height="132.85"/></g><g class="cls-55"><rect class="cls-24" x="651.67" y="980.74" width="313.5" height="138.05"/></g><g class="cls-56"><rect class="cls-21" x="651.65" y="981.21" width="306.31" height="132.91"/></g><g class="cls-57"><rect class="cls-21" x="655.38" y="919.95" width="67.74" height="86.52"/></g><g class="cls-58"><rect class="cls-26" x="655.36" y="919.95" width="61.33" height="80.67"/></g><g class="cls-59"><rect class="cls-21" x="733.52" y="894.64" width="68" height="86.5"/></g><g class="cls-60"><rect class="cls-26" x="733.5" y="894.59" width="61.4" height="80.67"/></g><g class="cls-61"><rect class="cls-21" x="811.38" y="869.28" width="68" height="86.55"/></g><g class="cls-62"><rect class="cls-26" x="811.62" y="869.26" width="61.14" height="80.67"/></g><g class="cls-63"><rect class="cls-21" x="666.87" y="934.12" width="41.91" height="52.29"/></g><g class="cls-64"><rect class="cls-21" x="744.67" y="908.44" width="41.91" height="52.29"/></g><g class="cls-65"><rect class="cls-66" x="822.78" y="881.87" width="41.92" height="52.34"/></g><g class="cls-67"><rect class="cls-21" x="887" y="842.43" width="67.73" height="86.5"/></g><g class="cls-68"><rect class="cls-26" x="887.02" y="842.4" width="61.33" height="80.72"/></g><g class="cls-69"><rect class="cls-21" x="898.52" y="856.49" width="41.91" height="52.34"/></g><g class="cls-70"><rect class="cls-12" x="237.81" y="212.33" width="230.87" height="155.29"/></g><g class="cls-71"><rect class="cls-72" x="445.75" y="21.95" width="20.8" height="217.39"/></g><g class="cls-73"><rect class="cls-72" x="623.6" y="107.7" width="20.8" height="131.64"/></g><g class="cls-74"><rect class="cls-72" x="623.6" y="22" width="20.8" height="76.3"/></g><g class="cls-75"><rect class="cls-72" x="485.7" y="49.26" width="23.48" height="23.51"/></g><g class="cls-76"><rect class="cls-72" x="583.12" y="160.19" width="24.64" height="24.64"/></g><g class="cls-77"><rect class="cls-72" x="567.44" y="17.42" width="40.54" height="40.54"/></g><g class="cls-78"><rect class="cls-72" x="501.66" y="96.84" width="20.8" height="76.31"/></g><g class="cls-79"><rect class="cls-72" x="659.17" width="24.52" height="24.52"/></g><g class="cls-80"><rect class="cls-72" x="417.13" y="17.07" width="23.48" height="23.48"/></g><g class="cls-81"><rect class="cls-72" x="546.48" y="185.68" width="20.74" height="76.42"/></g><g class="cls-82"><rect class="cls-12" x="330.6" y="804.39" width="269.24" height="261.58"/></g></g></g></svg>